ISO-10303-21;
HEADER;
/* Generated by software containing ST-Developer
 * from STEP Tools, Inc. (www.steptools.com) 
 */

FILE_DESCRIPTION(
/* description */ (''),
/* implementation_level */ '2;1');

FILE_NAME(
/* name */ 'base_Final.step',
/* time_stamp */ '2026-07-05T18:03:11+01:00',
/* author */ (''),
/* organization */ (''),
/* preprocessor_version */ 'ST-DEVELOPER v20.1',
/* originating_system */ 'Autodesk Translation Framework v15.8.0.0',
/* authorisation */ '');

FILE_SCHEMA (('AUTOMOTIVE_DESIGN { 1 0 10303 214 3 1 1 }'));
ENDSEC;

DATA;
#10=MECHANICAL_DESIGN_GEOMETRIC_PRESENTATION_REPRESENTATION('',(#13),#2299);
#11=SHAPE_REPRESENTATION_RELATIONSHIP('SRR','None',#2306,#12);
#12=ADVANCED_BREP_SHAPE_REPRESENTATION('',(#14),#2298);
#13=STYLED_ITEM('',(#2315),#14);
#14=MANIFOLD_SOLID_BREP('Body1',#1391);
#15=CYLINDRICAL_SURFACE('',#1460,3.);
#16=CYLINDRICAL_SURFACE('',#1464,5.5);
#17=CYLINDRICAL_SURFACE('',#1465,3.);
#18=CYLINDRICAL_SURFACE('',#1469,5.5);
#19=CYLINDRICAL_SURFACE('',#1478,1.);
#20=CYLINDRICAL_SURFACE('',#1479,1.);
#21=CYLINDRICAL_SURFACE('',#1480,1.);
#22=CYLINDRICAL_SURFACE('',#1481,1.);
#23=CYLINDRICAL_SURFACE('',#1482,1.);
#24=CYLINDRICAL_SURFACE('',#1483,1.);
#25=CYLINDRICAL_SURFACE('',#1484,1.);
#26=CYLINDRICAL_SURFACE('',#1485,1.);
#27=CYLINDRICAL_SURFACE('',#1486,1.);
#28=CYLINDRICAL_SURFACE('',#1487,1.);
#29=CYLINDRICAL_SURFACE('',#1488,1.);
#30=CYLINDRICAL_SURFACE('',#1489,1.);
#31=CYLINDRICAL_SURFACE('',#1490,1.);
#32=CYLINDRICAL_SURFACE('',#1491,1.);
#33=CYLINDRICAL_SURFACE('',#1492,1.);
#34=CYLINDRICAL_SURFACE('',#1493,1.);
#35=FACE_BOUND('',#163,.T.);
#36=FACE_BOUND('',#164,.T.);
#37=FACE_BOUND('',#165,.T.);
#38=FACE_BOUND('',#166,.T.);
#39=FACE_BOUND('',#180,.T.);
#40=FACE_BOUND('',#181,.T.);
#41=FACE_BOUND('',#182,.T.);
#42=FACE_BOUND('',#183,.T.);
#43=FACE_BOUND('',#186,.T.);
#44=FACE_BOUND('',#190,.T.);
#45=CIRCLE('',#1411,1.);
#46=CIRCLE('',#1412,1.);
#47=CIRCLE('',#1413,1.);
#48=CIRCLE('',#1414,1.);
#49=CIRCLE('',#1415,3.);
#50=CIRCLE('',#1416,3.);
#51=CIRCLE('',#1417,1.);
#52=CIRCLE('',#1418,1.);
#53=CIRCLE('',#1419,1.);
#54=CIRCLE('',#1420,1.);
#55=CIRCLE('',#1421,1.);
#56=CIRCLE('',#1422,1.);
#57=CIRCLE('',#1423,1.);
#58=CIRCLE('',#1424,1.);
#59=CIRCLE('',#1427,1.);
#60=CIRCLE('',#1428,1.);
#61=CIRCLE('',#1432,1.);
#62=CIRCLE('',#1433,1.);
#63=CIRCLE('',#1437,1.);
#64=CIRCLE('',#1438,1.);
#65=CIRCLE('',#1441,1.);
#66=CIRCLE('',#1442,1.);
#67=CIRCLE('',#1446,1.);
#68=CIRCLE('',#1447,1.);
#69=CIRCLE('',#1448,1.);
#70=CIRCLE('',#1449,1.);
#71=CIRCLE('',#1450,1.);
#72=CIRCLE('',#1451,1.);
#73=CIRCLE('',#1452,1.);
#74=CIRCLE('',#1453,1.);
#75=CIRCLE('',#1454,1.);
#76=CIRCLE('',#1455,1.);
#77=CIRCLE('',#1456,1.);
#78=CIRCLE('',#1457,1.);
#79=CIRCLE('',#1458,5.5);
#80=CIRCLE('',#1459,5.5);
#81=CIRCLE('',#1461,3.);
#82=CIRCLE('',#1463,5.5);
#83=CIRCLE('',#1466,3.);
#84=CIRCLE('',#1468,5.5);
#85=FACE_OUTER_BOUND('',#157,.T.);
#86=FACE_OUTER_BOUND('',#158,.T.);
#87=FACE_OUTER_BOUND('',#159,.T.);
#88=FACE_OUTER_BOUND('',#160,.T.);
#89=FACE_OUTER_BOUND('',#161,.T.);
#90=FACE_OUTER_BOUND('',#162,.T.);
#91=FACE_OUTER_BOUND('',#167,.T.);
#92=FACE_OUTER_BOUND('',#168,.T.);
#93=FACE_OUTER_BOUND('',#169,.T.);
#94=FACE_OUTER_BOUND('',#170,.T.);
#95=FACE_OUTER_BOUND('',#171,.T.);
#96=FACE_OUTER_BOUND('',#172,.T.);
#97=FACE_OUTER_BOUND('',#173,.T.);
#98=FACE_OUTER_BOUND('',#174,.T.);
#99=FACE_OUTER_BOUND('',#175,.T.);
#100=FACE_OUTER_BOUND('',#176,.T.);
#101=FACE_OUTER_BOUND('',#177,.T.);
#102=FACE_OUTER_BOUND('',#178,.T.);
#103=FACE_OUTER_BOUND('',#179,.T.);
#104=FACE_OUTER_BOUND('',#184,.T.);
#105=FACE_OUTER_BOUND('',#185,.T.);
#106=FACE_OUTER_BOUND('',#187,.T.);
#107=FACE_OUTER_BOUND('',#188,.T.);
#108=FACE_OUTER_BOUND('',#189,.T.);
#109=FACE_OUTER_BOUND('',#191,.T.);
#110=FACE_OUTER_BOUND('',#192,.T.);
#111=FACE_OUTER_BOUND('',#193,.T.);
#112=FACE_OUTER_BOUND('',#194,.T.);
#113=FACE_OUTER_BOUND('',#195,.T.);
#114=FACE_OUTER_BOUND('',#196,.T.);
#115=FACE_OUTER_BOUND('',#197,.T.);
#116=FACE_OUTER_BOUND('',#198,.T.);
#117=FACE_OUTER_BOUND('',#199,.T.);
#118=FACE_OUTER_BOUND('',#200,.T.);
#119=FACE_OUTER_BOUND('',#201,.T.);
#120=FACE_OUTER_BOUND('',#202,.T.);
#121=FACE_OUTER_BOUND('',#203,.T.);
#122=FACE_OUTER_BOUND('',#204,.T.);
#123=FACE_OUTER_BOUND('',#205,.T.);
#124=FACE_OUTER_BOUND('',#206,.T.);
#125=FACE_OUTER_BOUND('',#207,.T.);
#126=FACE_OUTER_BOUND('',#208,.T.);
#127=FACE_OUTER_BOUND('',#209,.T.);
#128=FACE_OUTER_BOUND('',#210,.T.);
#129=FACE_OUTER_BOUND('',#211,.T.);
#130=FACE_OUTER_BOUND('',#212,.T.);
#131=FACE_OUTER_BOUND('',#213,.T.);
#132=FACE_OUTER_BOUND('',#214,.T.);
#133=FACE_OUTER_BOUND('',#215,.T.);
#134=FACE_OUTER_BOUND('',#216,.T.);
#135=FACE_OUTER_BOUND('',#217,.T.);
#136=FACE_OUTER_BOUND('',#218,.T.);
#137=FACE_OUTER_BOUND('',#219,.T.);
#138=FACE_OUTER_BOUND('',#220,.T.);
#139=FACE_OUTER_BOUND('',#221,.T.);
#140=FACE_OUTER_BOUND('',#222,.T.);
#141=FACE_OUTER_BOUND('',#223,.T.);
#142=FACE_OUTER_BOUND('',#224,.T.);
#143=FACE_OUTER_BOUND('',#225,.T.);
#144=FACE_OUTER_BOUND('',#226,.T.);
#145=FACE_OUTER_BOUND('',#227,.T.);
#146=FACE_OUTER_BOUND('',#228,.T.);
#147=FACE_OUTER_BOUND('',#229,.T.);
#148=FACE_OUTER_BOUND('',#230,.T.);
#149=FACE_OUTER_BOUND('',#231,.T.);
#150=FACE_OUTER_BOUND('',#232,.T.);
#151=FACE_OUTER_BOUND('',#233,.T.);
#152=FACE_OUTER_BOUND('',#234,.T.);
#153=FACE_OUTER_BOUND('',#235,.T.);
#154=FACE_OUTER_BOUND('',#236,.T.);
#155=FACE_OUTER_BOUND('',#237,.T.);
#156=FACE_OUTER_BOUND('',#238,.T.);
#157=EDGE_LOOP('',(#875,#876,#877,#878,#879));
#158=EDGE_LOOP('',(#880,#881,#882,#883,#884));
#159=EDGE_LOOP('',(#885,#886,#887,#888,#889));
#160=EDGE_LOOP('',(#890,#891,#892,#893,#894));
#161=EDGE_LOOP('',(#895,#896,#897,#898,#899));
#162=EDGE_LOOP('',(#900,#901,#902,#903,#904,#905,#906,#907,#908,#909,#910,
#911,#912,#913,#914,#915,#916,#917,#918,#919,#920,#921,#922,#923));
#163=EDGE_LOOP('',(#924));
#164=EDGE_LOOP('',(#925));
#165=EDGE_LOOP('',(#926,#927,#928,#929,#930,#931,#932,#933));
#166=EDGE_LOOP('',(#934,#935,#936,#937,#938,#939,#940,#941));
#167=EDGE_LOOP('',(#942,#943,#944,#945));
#168=EDGE_LOOP('',(#946,#947,#948,#949,#950,#951,#952,#953));
#169=EDGE_LOOP('',(#954,#955,#956,#957,#958));
#170=EDGE_LOOP('',(#959,#960,#961,#962,#963));
#171=EDGE_LOOP('',(#964,#965,#966,#967,#968,#969,#970,#971));
#172=EDGE_LOOP('',(#972,#973,#974,#975,#976,#977,#978,#979));
#173=EDGE_LOOP('',(#980,#981,#982,#983,#984,#985,#986,#987));
#174=EDGE_LOOP('',(#988,#989,#990,#991,#992,#993,#994,#995));
#175=EDGE_LOOP('',(#996,#997,#998,#999,#1000));
#176=EDGE_LOOP('',(#1001,#1002,#1003,#1004,#1005,#1006,#1007,#1008));
#177=EDGE_LOOP('',(#1009,#1010,#1011,#1012,#1013,#1014,#1015,#1016));
#178=EDGE_LOOP('',(#1017,#1018,#1019,#1020,#1021,#1022,#1023,#1024));
#179=EDGE_LOOP('',(#1025,#1026,#1027,#1028,#1029,#1030,#1031,#1032));
#180=EDGE_LOOP('',(#1033,#1034,#1035,#1036,#1037,#1038,#1039,#1040));
#181=EDGE_LOOP('',(#1041,#1042,#1043,#1044,#1045,#1046,#1047,#1048));
#182=EDGE_LOOP('',(#1049));
#183=EDGE_LOOP('',(#1050));
#184=EDGE_LOOP('',(#1051,#1052,#1053,#1054));
#185=EDGE_LOOP('',(#1055));
#186=EDGE_LOOP('',(#1056));
#187=EDGE_LOOP('',(#1057,#1058,#1059,#1060));
#188=EDGE_LOOP('',(#1061,#1062,#1063,#1064));
#189=EDGE_LOOP('',(#1065));
#190=EDGE_LOOP('',(#1066));
#191=EDGE_LOOP('',(#1067,#1068,#1069,#1070));
#192=EDGE_LOOP('',(#1071,#1072,#1073,#1074));
#193=EDGE_LOOP('',(#1075,#1076,#1077,#1078));
#194=EDGE_LOOP('',(#1079,#1080,#1081,#1082));
#195=EDGE_LOOP('',(#1083,#1084,#1085,#1086));
#196=EDGE_LOOP('',(#1087,#1088,#1089,#1090));
#197=EDGE_LOOP('',(#1091,#1092,#1093,#1094));
#198=EDGE_LOOP('',(#1095,#1096,#1097,#1098));
#199=EDGE_LOOP('',(#1099,#1100,#1101,#1102));
#200=EDGE_LOOP('',(#1103,#1104,#1105,#1106));
#201=EDGE_LOOP('',(#1107,#1108,#1109,#1110));
#202=EDGE_LOOP('',(#1111,#1112,#1113,#1114));
#203=EDGE_LOOP('',(#1115,#1116,#1117,#1118));
#204=EDGE_LOOP('',(#1119,#1120,#1121,#1122));
#205=EDGE_LOOP('',(#1123,#1124,#1125,#1126));
#206=EDGE_LOOP('',(#1127,#1128,#1129,#1130));
#207=EDGE_LOOP('',(#1131,#1132,#1133,#1134));
#208=EDGE_LOOP('',(#1135,#1136,#1137,#1138));
#209=EDGE_LOOP('',(#1139,#1140,#1141,#1142));
#210=EDGE_LOOP('',(#1143,#1144,#1145,#1146));
#211=EDGE_LOOP('',(#1147,#1148,#1149,#1150));
#212=EDGE_LOOP('',(#1151,#1152,#1153,#1154));
#213=EDGE_LOOP('',(#1155,#1156,#1157,#1158));
#214=EDGE_LOOP('',(#1159,#1160,#1161,#1162));
#215=EDGE_LOOP('',(#1163,#1164,#1165,#1166));
#216=EDGE_LOOP('',(#1167,#1168,#1169,#1170,#1171));
#217=EDGE_LOOP('',(#1172,#1173,#1174,#1175,#1176));
#218=EDGE_LOOP('',(#1177,#1178,#1179,#1180,#1181));
#219=EDGE_LOOP('',(#1182,#1183,#1184,#1185));
#220=EDGE_LOOP('',(#1186,#1187,#1188,#1189,#1190));
#221=EDGE_LOOP('',(#1191,#1192,#1193,#1194,#1195));
#222=EDGE_LOOP('',(#1196,#1197,#1198,#1199));
#223=EDGE_LOOP('',(#1200,#1201,#1202,#1203,#1204));
#224=EDGE_LOOP('',(#1205,#1206,#1207,#1208,#1209));
#225=EDGE_LOOP('',(#1210,#1211,#1212,#1213));
#226=EDGE_LOOP('',(#1214,#1215,#1216,#1217,#1218));
#227=EDGE_LOOP('',(#1219,#1220,#1221,#1222));
#228=EDGE_LOOP('',(#1223,#1224,#1225,#1226));
#229=EDGE_LOOP('',(#1227,#1228,#1229,#1230));
#230=EDGE_LOOP('',(#1231,#1232,#1233,#1234));
#231=EDGE_LOOP('',(#1235,#1236,#1237,#1238));
#232=EDGE_LOOP('',(#1239,#1240,#1241,#1242));
#233=EDGE_LOOP('',(#1243,#1244,#1245,#1246));
#234=EDGE_LOOP('',(#1247,#1248,#1249,#1250));
#235=EDGE_LOOP('',(#1251,#1252,#1253,#1254));
#236=EDGE_LOOP('',(#1255,#1256,#1257,#1258));
#237=EDGE_LOOP('',(#1259,#1260,#1261,#1262));
#238=EDGE_LOOP('',(#1263,#1264,#1265,#1266));
#239=LINE('',#1903,#395);
#240=LINE('',#1905,#396);
#241=LINE('',#1907,#397);
#242=LINE('',#1909,#398);
#243=LINE('',#1910,#399);
#244=LINE('',#1914,#400);
#245=LINE('',#1916,#401);
#246=LINE('',#1918,#402);
#247=LINE('',#1920,#403);
#248=LINE('',#1921,#404);
#249=LINE('',#1925,#405);
#250=LINE('',#1927,#406);
#251=LINE('',#1929,#407);
#252=LINE('',#1931,#408);
#253=LINE('',#1932,#409);
#254=LINE('',#1936,#410);
#255=LINE('',#1938,#411);
#256=LINE('',#1940,#412);
#257=LINE('',#1942,#413);
#258=LINE('',#1943,#414);
#259=LINE('',#1947,#415);
#260=LINE('',#1949,#416);
#261=LINE('',#1951,#417);
#262=LINE('',#1953,#418);
#263=LINE('',#1954,#419);
#264=LINE('',#1957,#420);
#265=LINE('',#1959,#421);
#266=LINE('',#1961,#422);
#267=LINE('',#1963,#423);
#268=LINE('',#1966,#424);
#269=LINE('',#1968,#425);
#270=LINE('',#1970,#426);
#271=LINE('',#1972,#427);
#272=LINE('',#1975,#428);
#273=LINE('',#1977,#429);
#274=LINE('',#1978,#430);
#275=LINE('',#1982,#431);
#276=LINE('',#1984,#432);
#277=LINE('',#1986,#433);
#278=LINE('',#1987,#434);
#279=LINE('',#1995,#435);
#280=LINE('',#1999,#436);
#281=LINE('',#2003,#437);
#282=LINE('',#2007,#438);
#283=LINE('',#2011,#439);
#284=LINE('',#2015,#440);
#285=LINE('',#2019,#441);
#286=LINE('',#2023,#442);
#287=LINE('',#2028,#443);
#288=LINE('',#2030,#444);
#289=LINE('',#2032,#445);
#290=LINE('',#2033,#446);
#291=LINE('',#2037,#447);
#292=LINE('',#2039,#448);
#293=LINE('',#2041,#449);
#294=LINE('',#2045,#450);
#295=LINE('',#2046,#451);
#296=LINE('',#2051,#452);
#297=LINE('',#2052,#453);
#298=LINE('',#2054,#454);
#299=LINE('',#2055,#455);
#300=LINE('',#2058,#456);
#301=LINE('',#2059,#457);
#302=LINE('',#2060,#458);
#303=LINE('',#2064,#459);
#304=LINE('',#2065,#460);
#305=LINE('',#2068,#461);
#306=LINE('',#2070,#462);
#307=LINE('',#2074,#463);
#308=LINE('',#2076,#464);
#309=LINE('',#2078,#465);
#310=LINE('',#2080,#466);
#311=LINE('',#2082,#467);
#312=LINE('',#2084,#468);
#313=LINE('',#2085,#469);
#314=LINE('',#2088,#470);
#315=LINE('',#2090,#471);
#316=LINE('',#2092,#472);
#317=LINE('',#2094,#473);
#318=LINE('',#2096,#474);
#319=LINE('',#2098,#475);
#320=LINE('',#2099,#476);
#321=LINE('',#2101,#477);
#322=LINE('',#2105,#478);
#323=LINE('',#2107,#479);
#324=LINE('',#2109,#480);
#325=LINE('',#2113,#481);
#326=LINE('',#2114,#482);
#327=LINE('',#2115,#483);
#328=LINE('',#2117,#484);
#329=LINE('',#2121,#485);
#330=LINE('',#2122,#486);
#331=LINE('',#2126,#487);
#332=LINE('',#2128,#488);
#333=LINE('',#2129,#489);
#334=LINE('',#2131,#490);
#335=LINE('',#2133,#491);
#336=LINE('',#2134,#492);
#337=LINE('',#2136,#493);
#338=LINE('',#2138,#494);
#339=LINE('',#2140,#495);
#340=LINE('',#2141,#496);
#341=LINE('',#2142,#497);
#342=LINE('',#2150,#498);
#343=LINE('',#2154,#499);
#344=LINE('',#2158,#500);
#345=LINE('',#2162,#501);
#346=LINE('',#2166,#502);
#347=LINE('',#2170,#503);
#348=LINE('',#2174,#504);
#349=LINE('',#2178,#505);
#350=LINE('',#2186,#506);
#351=LINE('',#2192,#507);
#352=LINE('',#2195,#508);
#353=LINE('',#2201,#509);
#354=LINE('',#2203,#510);
#355=LINE('',#2204,#511);
#356=LINE('',#2206,#512);
#357=LINE('',#2207,#513);
#358=LINE('',#2209,#514);
#359=LINE('',#2210,#515);
#360=LINE('',#2212,#516);
#361=LINE('',#2213,#517);
#362=LINE('',#2215,#518);
#363=LINE('',#2216,#519);
#364=LINE('',#2218,#520);
#365=LINE('',#2219,#521);
#366=LINE('',#2221,#522);
#367=LINE('',#2222,#523);
#368=LINE('',#2224,#524);
#369=LINE('',#2225,#525);
#370=LINE('',#2243,#526);
#371=LINE('',#2245,#527);
#372=LINE('',#2248,#528);
#373=LINE('',#2249,#529);
#374=LINE('',#2252,#530);
#375=LINE('',#2253,#531);
#376=LINE('',#2255,#532);
#377=LINE('',#2258,#533);
#378=LINE('',#2259,#534);
#379=LINE('',#2262,#535);
#380=LINE('',#2263,#536);
#381=LINE('',#2265,#537);
#382=LINE('',#2268,#538);
#383=LINE('',#2269,#539);
#384=LINE('',#2272,#540);
#385=LINE('',#2273,#541);
#386=LINE('',#2275,#542);
#387=LINE('',#2277,#543);
#388=LINE('',#2279,#544);
#389=LINE('',#2282,#545);
#390=LINE('',#2284,#546);
#391=LINE('',#2287,#547);
#392=LINE('',#2289,#548);
#393=LINE('',#2292,#549);
#394=LINE('',#2294,#550);
#395=VECTOR('',#1521,13.9366360439328);
#396=VECTOR('',#1522,5.5);
#397=VECTOR('',#1523,9.46118826720631);
#398=VECTOR('',#1524,19.);
#399=VECTOR('',#1525,6.);
#400=VECTOR('',#1528,14.11111236034);
#401=VECTOR('',#1529,5.33099004206807);
#402=VECTOR('',#1530,9.50451976968287);
#403=VECTOR('',#1531,19.);
#404=VECTOR('',#1532,6.);
#405=VECTOR('',#1535,9.50451976968288);
#406=VECTOR('',#1536,5.33099004206807);
#407=VECTOR('',#1537,14.11111236034);
#408=VECTOR('',#1538,6.00000000000001);
#409=VECTOR('',#1539,19.);
#410=VECTOR('',#1542,5.5);
#411=VECTOR('',#1543,13.9366360439328);
#412=VECTOR('',#1544,6.);
#413=VECTOR('',#1545,19.);
#414=VECTOR('',#1546,9.46118826720631);
#415=VECTOR('',#1549,5.5);
#416=VECTOR('',#1550,9.46118826720631);
#417=VECTOR('',#1551,19.);
#418=VECTOR('',#1552,6.);
#419=VECTOR('',#1553,13.9366360439328);
#420=VECTOR('',#1556,0.999999999999996);
#421=VECTOR('',#1557,29.0776234655874);
#422=VECTOR('',#1558,1.);
#423=VECTOR('',#1559,9.46118826720631);
#424=VECTOR('',#1562,1.);
#425=VECTOR('',#1563,28.9909604606343);
#426=VECTOR('',#1564,1.);
#427=VECTOR('',#1565,9.50451976968288);
#428=VECTOR('',#1568,0.999999999999992);
#429=VECTOR('',#1569,29.0776234655874);
#430=VECTOR('',#1570,1.);
#431=VECTOR('',#1573,9.50451976968288);
#432=VECTOR('',#1574,1.);
#433=VECTOR('',#1575,28.9909604606342);
#434=VECTOR('',#1576,1.);
#435=VECTOR('',#1583,10.);
#436=VECTOR('',#1586,36.);
#437=VECTOR('',#1589,10.);
#438=VECTOR('',#1592,36.);
#439=VECTOR('',#1595,10.);
#440=VECTOR('',#1598,36.);
#441=VECTOR('',#1601,10.);
#442=VECTOR('',#1604,36.);
#443=VECTOR('',#1609,29.0776234655874);
#444=VECTOR('',#1610,2.);
#445=VECTOR('',#1611,29.0776234655874);
#446=VECTOR('',#1612,2.);
#447=VECTOR('',#1615,6.);
#448=VECTOR('',#1616,3.);
#449=VECTOR('',#1617,3.);
#450=VECTOR('',#1620,2.99999999999999);
#451=VECTOR('',#1621,2.99999999999999);
#452=VECTOR('',#1626,14.11111236034);
#453=VECTOR('',#1627,5.33099004206807);
#454=VECTOR('',#1628,19.);
#455=VECTOR('',#1629,6.00000000000001);
#456=VECTOR('',#1632,5.33099004206807);
#457=VECTOR('',#1633,14.11111236034);
#458=VECTOR('',#1634,19.);
#459=VECTOR('',#1637,3.00000000000001);
#460=VECTOR('',#1638,3.);
#461=VECTOR('',#1641,3.);
#462=VECTOR('',#1642,3.);
#463=VECTOR('',#1647,14.11111236034);
#464=VECTOR('',#1648,28.9909604606343);
#465=VECTOR('',#1649,14.11111236034);
#466=VECTOR('',#1650,2.99999999999999);
#467=VECTOR('',#1651,16.);
#468=VECTOR('',#1652,42.);
#469=VECTOR('',#1653,16.);
#470=VECTOR('',#1656,14.11111236034);
#471=VECTOR('',#1657,16.);
#472=VECTOR('',#1658,42.);
#473=VECTOR('',#1659,16.);
#474=VECTOR('',#1660,3.00000000000001);
#475=VECTOR('',#1661,14.11111236034);
#476=VECTOR('',#1662,28.9909604606343);
#477=VECTOR('',#1665,3.);
#478=VECTOR('',#1668,6.);
#479=VECTOR('',#1669,3.00000000000001);
#480=VECTOR('',#1670,3.);
#481=VECTOR('',#1675,5.5);
#482=VECTOR('',#1676,13.9366360439328);
#483=VECTOR('',#1677,19.);
#484=VECTOR('',#1680,3.);
#485=VECTOR('',#1683,2.99999999999999);
#486=VECTOR('',#1684,3.);
#487=VECTOR('',#1689,13.9366360439328);
#488=VECTOR('',#1690,29.0776234655874);
#489=VECTOR('',#1691,13.9366360439328);
#490=VECTOR('',#1692,16.);
#491=VECTOR('',#1693,42.);
#492=VECTOR('',#1694,16.);
#493=VECTOR('',#1697,13.9366360439328);
#494=VECTOR('',#1698,16.);
#495=VECTOR('',#1699,42.);
#496=VECTOR('',#1700,16.);
#497=VECTOR('',#1701,13.9366360439328);
#498=VECTOR('',#1712,10.);
#499=VECTOR('',#1715,36.);
#500=VECTOR('',#1718,10.);
#501=VECTOR('',#1721,36.);
#502=VECTOR('',#1724,10.);
#503=VECTOR('',#1727,36.);
#504=VECTOR('',#1730,10.);
#505=VECTOR('',#1733,36.);
#506=VECTOR('',#1742,3.);
#507=VECTOR('',#1751,5.5);
#508=VECTOR('',#1754,3.);
#509=VECTOR('',#1763,5.5);
#510=VECTOR('',#1766,3.);
#511=VECTOR('',#1767,3.);
#512=VECTOR('',#1770,3.);
#513=VECTOR('',#1771,3.);
#514=VECTOR('',#1774,3.);
#515=VECTOR('',#1775,3.);
#516=VECTOR('',#1778,3.);
#517=VECTOR('',#1779,3.);
#518=VECTOR('',#1782,3.);
#519=VECTOR('',#1783,3.);
#520=VECTOR('',#1786,3.);
#521=VECTOR('',#1787,3.);
#522=VECTOR('',#1790,3.);
#523=VECTOR('',#1791,3.);
#524=VECTOR('',#1794,3.);
#525=VECTOR('',#1795,3.);
#526=VECTOR('',#1830,1.);
#527=VECTOR('',#1833,0.999999999999992);
#528=VECTOR('',#1836,1.);
#529=VECTOR('',#1837,2.00000000000001);
#530=VECTOR('',#1840,29.0776234655874);
#531=VECTOR('',#1841,2.00000000000001);
#532=VECTOR('',#1844,0.999999999999996);
#533=VECTOR('',#1847,1.);
#534=VECTOR('',#1848,2.);
#535=VECTOR('',#1851,28.9909604606342);
#536=VECTOR('',#1852,2.);
#537=VECTOR('',#1855,1.);
#538=VECTOR('',#1858,1.);
#539=VECTOR('',#1859,2.);
#540=VECTOR('',#1862,28.9909604606343);
#541=VECTOR('',#1863,2.);
#542=VECTOR('',#1866,1.);
#543=VECTOR('',#1869,5.5);
#544=VECTOR('',#1872,5.5);
#545=VECTOR('',#1877,5.33099004206807);
#546=VECTOR('',#1880,5.33099004206807);
#547=VECTOR('',#1885,5.33099004206807);
#548=VECTOR('',#1888,5.33099004206807);
#549=VECTOR('',#1893,5.5);
#550=VECTOR('',#1896,5.5);
#551=VERTEX_POINT('',#1901);
#552=VERTEX_POINT('',#1902);
#553=VERTEX_POINT('',#1904);
#554=VERTEX_POINT('',#1906);
#555=VERTEX_POINT('',#1908);
#556=VERTEX_POINT('',#1912);
#557=VERTEX_POINT('',#1913);
#558=VERTEX_POINT('',#1915);
#559=VERTEX_POINT('',#1917);
#560=VERTEX_POINT('',#1919);
#561=VERTEX_POINT('',#1923);
#562=VERTEX_POINT('',#1924);
#563=VERTEX_POINT('',#1926);
#564=VERTEX_POINT('',#1928);
#565=VERTEX_POINT('',#1930);
#566=VERTEX_POINT('',#1934);
#567=VERTEX_POINT('',#1935);
#568=VERTEX_POINT('',#1937);
#569=VERTEX_POINT('',#1939);
#570=VERTEX_POINT('',#1941);
#571=VERTEX_POINT('',#1945);
#572=VERTEX_POINT('',#1946);
#573=VERTEX_POINT('',#1948);
#574=VERTEX_POINT('',#1950);
#575=VERTEX_POINT('',#1952);
#576=VERTEX_POINT('',#1956);
#577=VERTEX_POINT('',#1958);
#578=VERTEX_POINT('',#1960);
#579=VERTEX_POINT('',#1962);
#580=VERTEX_POINT('',#1965);
#581=VERTEX_POINT('',#1967);
#582=VERTEX_POINT('',#1969);
#583=VERTEX_POINT('',#1971);
#584=VERTEX_POINT('',#1974);
#585=VERTEX_POINT('',#1976);
#586=VERTEX_POINT('',#1979);
#587=VERTEX_POINT('',#1981);
#588=VERTEX_POINT('',#1983);
#589=VERTEX_POINT('',#1985);
#590=VERTEX_POINT('',#1989);
#591=VERTEX_POINT('',#1991);
#592=VERTEX_POINT('',#1993);
#593=VERTEX_POINT('',#1994);
#594=VERTEX_POINT('',#1996);
#595=VERTEX_POINT('',#1998);
#596=VERTEX_POINT('',#2000);
#597=VERTEX_POINT('',#2002);
#598=VERTEX_POINT('',#2004);
#599=VERTEX_POINT('',#2006);
#600=VERTEX_POINT('',#2009);
#601=VERTEX_POINT('',#2010);
#602=VERTEX_POINT('',#2012);
#603=VERTEX_POINT('',#2014);
#604=VERTEX_POINT('',#2016);
#605=VERTEX_POINT('',#2018);
#606=VERTEX_POINT('',#2020);
#607=VERTEX_POINT('',#2022);
#608=VERTEX_POINT('',#2026);
#609=VERTEX_POINT('',#2027);
#610=VERTEX_POINT('',#2029);
#611=VERTEX_POINT('',#2031);
#612=VERTEX_POINT('',#2035);
#613=VERTEX_POINT('',#2036);
#614=VERTEX_POINT('',#2038);
#615=VERTEX_POINT('',#2040);
#616=VERTEX_POINT('',#2042);
#617=VERTEX_POINT('',#2044);
#618=VERTEX_POINT('',#2049);
#619=VERTEX_POINT('',#2050);
#620=VERTEX_POINT('',#2053);
#621=VERTEX_POINT('',#2057);
#622=VERTEX_POINT('',#2062);
#623=VERTEX_POINT('',#2063);
#624=VERTEX_POINT('',#2067);
#625=VERTEX_POINT('',#2069);
#626=VERTEX_POINT('',#2073);
#627=VERTEX_POINT('',#2075);
#628=VERTEX_POINT('',#2077);
#629=VERTEX_POINT('',#2079);
#630=VERTEX_POINT('',#2081);
#631=VERTEX_POINT('',#2083);
#632=VERTEX_POINT('',#2087);
#633=VERTEX_POINT('',#2089);
#634=VERTEX_POINT('',#2091);
#635=VERTEX_POINT('',#2093);
#636=VERTEX_POINT('',#2095);
#637=VERTEX_POINT('',#2097);
#638=VERTEX_POINT('',#2102);
#639=VERTEX_POINT('',#2104);
#640=VERTEX_POINT('',#2106);
#641=VERTEX_POINT('',#2108);
#642=VERTEX_POINT('',#2112);
#643=VERTEX_POINT('',#2118);
#644=VERTEX_POINT('',#2120);
#645=VERTEX_POINT('',#2125);
#646=VERTEX_POINT('',#2127);
#647=VERTEX_POINT('',#2130);
#648=VERTEX_POINT('',#2132);
#649=VERTEX_POINT('',#2137);
#650=VERTEX_POINT('',#2139);
#651=VERTEX_POINT('',#2148);
#652=VERTEX_POINT('',#2149);
#653=VERTEX_POINT('',#2151);
#654=VERTEX_POINT('',#2153);
#655=VERTEX_POINT('',#2155);
#656=VERTEX_POINT('',#2157);
#657=VERTEX_POINT('',#2159);
#658=VERTEX_POINT('',#2161);
#659=VERTEX_POINT('',#2164);
#660=VERTEX_POINT('',#2165);
#661=VERTEX_POINT('',#2167);
#662=VERTEX_POINT('',#2169);
#663=VERTEX_POINT('',#2171);
#664=VERTEX_POINT('',#2173);
#665=VERTEX_POINT('',#2175);
#666=VERTEX_POINT('',#2177);
#667=VERTEX_POINT('',#2180);
#668=VERTEX_POINT('',#2182);
#669=VERTEX_POINT('',#2185);
#670=VERTEX_POINT('',#2189);
#671=VERTEX_POINT('',#2194);
#672=VERTEX_POINT('',#2198);
#673=VERTEX_POINT('',#2247);
#674=VERTEX_POINT('',#2251);
#675=VERTEX_POINT('',#2257);
#676=VERTEX_POINT('',#2261);
#677=VERTEX_POINT('',#2267);
#678=VERTEX_POINT('',#2271);
#679=EDGE_CURVE('',#551,#552,#239,.T.);
#680=EDGE_CURVE('',#553,#552,#240,.T.);
#681=EDGE_CURVE('',#553,#554,#241,.T.);
#682=EDGE_CURVE('',#554,#555,#242,.F.);
#683=EDGE_CURVE('',#551,#555,#243,.T.);
#684=EDGE_CURVE('',#556,#557,#244,.T.);
#685=EDGE_CURVE('',#558,#557,#245,.T.);
#686=EDGE_CURVE('',#558,#559,#246,.T.);
#687=EDGE_CURVE('',#559,#560,#247,.F.);
#688=EDGE_CURVE('',#556,#560,#248,.T.);
#689=EDGE_CURVE('',#561,#562,#249,.T.);
#690=EDGE_CURVE('',#562,#563,#250,.T.);
#691=EDGE_CURVE('',#564,#563,#251,.T.);
#692=EDGE_CURVE('',#565,#564,#252,.T.);
#693=EDGE_CURVE('',#565,#561,#253,.T.);
#694=EDGE_CURVE('',#566,#567,#254,.T.);
#695=EDGE_CURVE('',#568,#567,#255,.T.);
#696=EDGE_CURVE('',#569,#568,#256,.T.);
#697=EDGE_CURVE('',#569,#570,#257,.T.);
#698=EDGE_CURVE('',#570,#566,#258,.T.);
#699=EDGE_CURVE('',#571,#572,#259,.T.);
#700=EDGE_CURVE('',#571,#573,#260,.T.);
#701=EDGE_CURVE('',#573,#574,#261,.F.);
#702=EDGE_CURVE('',#575,#574,#262,.T.);
#703=EDGE_CURVE('',#572,#575,#263,.T.);
#704=EDGE_CURVE('',#553,#576,#264,.T.);
#705=EDGE_CURVE('',#576,#577,#265,.T.);
#706=EDGE_CURVE('',#577,#578,#266,.T.);
#707=EDGE_CURVE('',#579,#578,#267,.T.);
#708=EDGE_CURVE('',#579,#559,#45,.F.);
#709=EDGE_CURVE('',#558,#580,#268,.T.);
#710=EDGE_CURVE('',#580,#581,#269,.T.);
#711=EDGE_CURVE('',#581,#582,#270,.T.);
#712=EDGE_CURVE('',#583,#582,#271,.T.);
#713=EDGE_CURVE('',#583,#573,#46,.F.);
#714=EDGE_CURVE('',#584,#571,#272,.T.);
#715=EDGE_CURVE('',#585,#584,#273,.T.);
#716=EDGE_CURVE('',#566,#585,#274,.T.);
#717=EDGE_CURVE('',#570,#586,#47,.F.);
#718=EDGE_CURVE('',#587,#586,#275,.T.);
#719=EDGE_CURVE('',#587,#588,#276,.T.);
#720=EDGE_CURVE('',#588,#589,#277,.T.);
#721=EDGE_CURVE('',#589,#562,#278,.T.);
#722=EDGE_CURVE('',#561,#554,#48,.F.);
#723=EDGE_CURVE('',#590,#590,#49,.T.);
#724=EDGE_CURVE('',#591,#591,#50,.T.);
#725=EDGE_CURVE('',#592,#593,#279,.T.);
#726=EDGE_CURVE('',#593,#594,#51,.T.);
#727=EDGE_CURVE('',#594,#595,#280,.T.);
#728=EDGE_CURVE('',#595,#596,#52,.T.);
#729=EDGE_CURVE('',#596,#597,#281,.T.);
#730=EDGE_CURVE('',#597,#598,#53,.T.);
#731=EDGE_CURVE('',#598,#599,#282,.T.);
#732=EDGE_CURVE('',#599,#592,#54,.T.);
#733=EDGE_CURVE('',#600,#601,#283,.T.);
#734=EDGE_CURVE('',#601,#602,#55,.T.);
#735=EDGE_CURVE('',#602,#603,#284,.T.);
#736=EDGE_CURVE('',#603,#604,#56,.T.);
#737=EDGE_CURVE('',#604,#605,#285,.T.);
#738=EDGE_CURVE('',#605,#606,#57,.T.);
#739=EDGE_CURVE('',#606,#607,#286,.T.);
#740=EDGE_CURVE('',#607,#600,#58,.T.);
#741=EDGE_CURVE('',#608,#609,#287,.T.);
#742=EDGE_CURVE('',#610,#609,#288,.T.);
#743=EDGE_CURVE('',#611,#610,#289,.T.);
#744=EDGE_CURVE('',#611,#608,#290,.T.);
#745=EDGE_CURVE('',#612,#613,#291,.T.);
#746=EDGE_CURVE('',#613,#614,#292,.T.);
#747=EDGE_CURVE('',#615,#614,#293,.T.);
#748=EDGE_CURVE('',#615,#616,#59,.F.);
#749=EDGE_CURVE('',#617,#616,#294,.T.);
#750=EDGE_CURVE('',#617,#575,#295,.T.);
#751=EDGE_CURVE('',#574,#612,#60,.T.);
#752=EDGE_CURVE('',#618,#619,#296,.T.);
#753=EDGE_CURVE('',#587,#619,#297,.T.);
#754=EDGE_CURVE('',#586,#620,#298,.F.);
#755=EDGE_CURVE('',#618,#620,#299,.T.);
#756=EDGE_CURVE('',#582,#621,#300,.T.);
#757=EDGE_CURVE('',#613,#621,#301,.T.);
#758=EDGE_CURVE('',#612,#583,#302,.T.);
#759=EDGE_CURVE('',#622,#623,#303,.T.);
#760=EDGE_CURVE('',#622,#618,#304,.T.);
#761=EDGE_CURVE('',#620,#569,#61,.T.);
#762=EDGE_CURVE('',#624,#568,#305,.T.);
#763=EDGE_CURVE('',#625,#624,#306,.T.);
#764=EDGE_CURVE('',#625,#623,#62,.F.);
#765=EDGE_CURVE('',#626,#614,#307,.T.);
#766=EDGE_CURVE('',#626,#627,#308,.T.);
#767=EDGE_CURVE('',#627,#628,#309,.T.);
#768=EDGE_CURVE('',#628,#629,#310,.T.);
#769=EDGE_CURVE('',#629,#630,#311,.F.);
#770=EDGE_CURVE('',#631,#630,#312,.T.);
#771=EDGE_CURVE('',#631,#615,#313,.T.);
#772=EDGE_CURVE('',#622,#632,#314,.T.);
#773=EDGE_CURVE('',#623,#633,#315,.F.);
#774=EDGE_CURVE('',#634,#633,#316,.T.);
#775=EDGE_CURVE('',#634,#635,#317,.T.);
#776=EDGE_CURVE('',#635,#636,#318,.T.);
#777=EDGE_CURVE('',#636,#637,#319,.T.);
#778=EDGE_CURVE('',#637,#632,#320,.T.);
#779=EDGE_CURVE('',#556,#628,#321,.T.);
#780=EDGE_CURVE('',#560,#638,#63,.T.);
#781=EDGE_CURVE('',#638,#639,#322,.T.);
#782=EDGE_CURVE('',#639,#640,#323,.T.);
#783=EDGE_CURVE('',#641,#640,#324,.T.);
#784=EDGE_CURVE('',#641,#629,#64,.F.);
#785=EDGE_CURVE('',#578,#642,#325,.T.);
#786=EDGE_CURVE('',#642,#639,#326,.T.);
#787=EDGE_CURVE('',#638,#579,#327,.T.);
#788=EDGE_CURVE('',#636,#564,#328,.T.);
#789=EDGE_CURVE('',#635,#643,#65,.F.);
#790=EDGE_CURVE('',#644,#643,#329,.T.);
#791=EDGE_CURVE('',#551,#644,#330,.T.);
#792=EDGE_CURVE('',#555,#565,#66,.T.);
#793=EDGE_CURVE('',#640,#645,#331,.T.);
#794=EDGE_CURVE('',#645,#646,#332,.T.);
#795=EDGE_CURVE('',#646,#644,#333,.T.);
#796=EDGE_CURVE('',#643,#647,#334,.F.);
#797=EDGE_CURVE('',#648,#647,#335,.T.);
#798=EDGE_CURVE('',#648,#641,#336,.T.);
#799=EDGE_CURVE('',#610,#617,#337,.T.);
#800=EDGE_CURVE('',#616,#649,#338,.F.);
#801=EDGE_CURVE('',#650,#649,#339,.T.);
#802=EDGE_CURVE('',#650,#625,#340,.T.);
#803=EDGE_CURVE('',#624,#611,#341,.T.);
#804=EDGE_CURVE('',#647,#634,#67,.T.);
#805=EDGE_CURVE('',#633,#650,#68,.T.);
#806=EDGE_CURVE('',#649,#631,#69,.T.);
#807=EDGE_CURVE('',#630,#648,#70,.T.);
#808=EDGE_CURVE('',#651,#652,#342,.T.);
#809=EDGE_CURVE('',#651,#653,#71,.F.);
#810=EDGE_CURVE('',#654,#653,#343,.T.);
#811=EDGE_CURVE('',#654,#655,#72,.F.);
#812=EDGE_CURVE('',#656,#655,#344,.T.);
#813=EDGE_CURVE('',#656,#657,#73,.F.);
#814=EDGE_CURVE('',#658,#657,#345,.T.);
#815=EDGE_CURVE('',#658,#652,#74,.F.);
#816=EDGE_CURVE('',#659,#660,#346,.T.);
#817=EDGE_CURVE('',#659,#661,#75,.F.);
#818=EDGE_CURVE('',#662,#661,#347,.T.);
#819=EDGE_CURVE('',#662,#663,#76,.F.);
#820=EDGE_CURVE('',#664,#663,#348,.T.);
#821=EDGE_CURVE('',#664,#665,#77,.F.);
#822=EDGE_CURVE('',#666,#665,#349,.T.);
#823=EDGE_CURVE('',#666,#660,#78,.F.);
#824=EDGE_CURVE('',#667,#667,#79,.T.);
#825=EDGE_CURVE('',#668,#668,#80,.T.);
#826=EDGE_CURVE('',#590,#669,#350,.T.);
#827=EDGE_CURVE('',#669,#669,#81,.T.);
#828=EDGE_CURVE('',#670,#670,#82,.T.);
#829=EDGE_CURVE('',#670,#668,#351,.T.);
#830=EDGE_CURVE('',#591,#671,#352,.T.);
#831=EDGE_CURVE('',#671,#671,#83,.T.);
#832=EDGE_CURVE('',#672,#672,#84,.T.);
#833=EDGE_CURVE('',#672,#667,#353,.T.);
#834=EDGE_CURVE('',#596,#659,#354,.T.);
#835=EDGE_CURVE('',#660,#597,#355,.F.);
#836=EDGE_CURVE('',#594,#662,#356,.T.);
#837=EDGE_CURVE('',#661,#595,#357,.F.);
#838=EDGE_CURVE('',#663,#593,#358,.F.);
#839=EDGE_CURVE('',#592,#664,#359,.T.);
#840=EDGE_CURVE('',#665,#599,#360,.F.);
#841=EDGE_CURVE('',#598,#666,#361,.T.);
#842=EDGE_CURVE('',#604,#651,#362,.T.);
#843=EDGE_CURVE('',#652,#605,#363,.F.);
#844=EDGE_CURVE('',#602,#654,#364,.T.);
#845=EDGE_CURVE('',#653,#603,#365,.F.);
#846=EDGE_CURVE('',#600,#656,#366,.T.);
#847=EDGE_CURVE('',#655,#601,#367,.F.);
#848=EDGE_CURVE('',#657,#607,#368,.F.);
#849=EDGE_CURVE('',#606,#658,#369,.T.);
#850=EDGE_CURVE('',#567,#608,#370,.T.);
#851=EDGE_CURVE('',#609,#572,#371,.T.);
#852=EDGE_CURVE('',#642,#673,#372,.T.);
#853=EDGE_CURVE('',#673,#645,#373,.T.);
#854=EDGE_CURVE('',#674,#673,#374,.T.);
#855=EDGE_CURVE('',#674,#646,#375,.T.);
#856=EDGE_CURVE('',#552,#674,#376,.T.);
#857=EDGE_CURVE('',#675,#563,#377,.T.);
#858=EDGE_CURVE('',#637,#675,#378,.T.);
#859=EDGE_CURVE('',#676,#675,#379,.T.);
#860=EDGE_CURVE('',#632,#676,#380,.T.);
#861=EDGE_CURVE('',#619,#676,#381,.T.);
#862=EDGE_CURVE('',#621,#677,#382,.T.);
#863=EDGE_CURVE('',#677,#626,#383,.T.);
#864=EDGE_CURVE('',#678,#677,#384,.T.);
#865=EDGE_CURVE('',#678,#627,#385,.T.);
#866=EDGE_CURVE('',#557,#678,#386,.T.);
#867=EDGE_CURVE('',#585,#608,#387,.T.);
#868=EDGE_CURVE('',#584,#609,#388,.T.);
#869=EDGE_CURVE('',#589,#675,#389,.T.);
#870=EDGE_CURVE('',#588,#676,#390,.T.);
#871=EDGE_CURVE('',#581,#677,#391,.T.);
#872=EDGE_CURVE('',#580,#678,#392,.T.);
#873=EDGE_CURVE('',#577,#673,#393,.T.);
#874=EDGE_CURVE('',#576,#674,#394,.T.);
#875=ORIENTED_EDGE('',*,*,#679,.T.);
#876=ORIENTED_EDGE('',*,*,#680,.F.);
#877=ORIENTED_EDGE('',*,*,#681,.T.);
#878=ORIENTED_EDGE('',*,*,#682,.T.);
#879=ORIENTED_EDGE('',*,*,#683,.F.);
#880=ORIENTED_EDGE('',*,*,#684,.T.);
#881=ORIENTED_EDGE('',*,*,#685,.F.);
#882=ORIENTED_EDGE('',*,*,#686,.T.);
#883=ORIENTED_EDGE('',*,*,#687,.T.);
#884=ORIENTED_EDGE('',*,*,#688,.F.);
#885=ORIENTED_EDGE('',*,*,#689,.T.);
#886=ORIENTED_EDGE('',*,*,#690,.T.);
#887=ORIENTED_EDGE('',*,*,#691,.F.);
#888=ORIENTED_EDGE('',*,*,#692,.F.);
#889=ORIENTED_EDGE('',*,*,#693,.T.);
#890=ORIENTED_EDGE('',*,*,#694,.T.);
#891=ORIENTED_EDGE('',*,*,#695,.F.);
#892=ORIENTED_EDGE('',*,*,#696,.F.);
#893=ORIENTED_EDGE('',*,*,#697,.T.);
#894=ORIENTED_EDGE('',*,*,#698,.T.);
#895=ORIENTED_EDGE('',*,*,#699,.F.);
#896=ORIENTED_EDGE('',*,*,#700,.T.);
#897=ORIENTED_EDGE('',*,*,#701,.T.);
#898=ORIENTED_EDGE('',*,*,#702,.F.);
#899=ORIENTED_EDGE('',*,*,#703,.F.);
#900=ORIENTED_EDGE('',*,*,#681,.F.);
#901=ORIENTED_EDGE('',*,*,#704,.T.);
#902=ORIENTED_EDGE('',*,*,#705,.T.);
#903=ORIENTED_EDGE('',*,*,#706,.T.);
#904=ORIENTED_EDGE('',*,*,#707,.F.);
#905=ORIENTED_EDGE('',*,*,#708,.T.);
#906=ORIENTED_EDGE('',*,*,#686,.F.);
#907=ORIENTED_EDGE('',*,*,#709,.T.);
#908=ORIENTED_EDGE('',*,*,#710,.T.);
#909=ORIENTED_EDGE('',*,*,#711,.T.);
#910=ORIENTED_EDGE('',*,*,#712,.F.);
#911=ORIENTED_EDGE('',*,*,#713,.T.);
#912=ORIENTED_EDGE('',*,*,#700,.F.);
#913=ORIENTED_EDGE('',*,*,#714,.F.);
#914=ORIENTED_EDGE('',*,*,#715,.F.);
#915=ORIENTED_EDGE('',*,*,#716,.F.);
#916=ORIENTED_EDGE('',*,*,#698,.F.);
#917=ORIENTED_EDGE('',*,*,#717,.T.);
#918=ORIENTED_EDGE('',*,*,#718,.F.);
#919=ORIENTED_EDGE('',*,*,#719,.T.);
#920=ORIENTED_EDGE('',*,*,#720,.T.);
#921=ORIENTED_EDGE('',*,*,#721,.T.);
#922=ORIENTED_EDGE('',*,*,#689,.F.);
#923=ORIENTED_EDGE('',*,*,#722,.T.);
#924=ORIENTED_EDGE('',*,*,#723,.T.);
#925=ORIENTED_EDGE('',*,*,#724,.T.);
#926=ORIENTED_EDGE('',*,*,#725,.T.);
#927=ORIENTED_EDGE('',*,*,#726,.T.);
#928=ORIENTED_EDGE('',*,*,#727,.T.);
#929=ORIENTED_EDGE('',*,*,#728,.T.);
#930=ORIENTED_EDGE('',*,*,#729,.T.);
#931=ORIENTED_EDGE('',*,*,#730,.T.);
#932=ORIENTED_EDGE('',*,*,#731,.T.);
#933=ORIENTED_EDGE('',*,*,#732,.T.);
#934=ORIENTED_EDGE('',*,*,#733,.T.);
#935=ORIENTED_EDGE('',*,*,#734,.T.);
#936=ORIENTED_EDGE('',*,*,#735,.T.);
#937=ORIENTED_EDGE('',*,*,#736,.T.);
#938=ORIENTED_EDGE('',*,*,#737,.T.);
#939=ORIENTED_EDGE('',*,*,#738,.T.);
#940=ORIENTED_EDGE('',*,*,#739,.T.);
#941=ORIENTED_EDGE('',*,*,#740,.T.);
#942=ORIENTED_EDGE('',*,*,#741,.T.);
#943=ORIENTED_EDGE('',*,*,#742,.F.);
#944=ORIENTED_EDGE('',*,*,#743,.F.);
#945=ORIENTED_EDGE('',*,*,#744,.T.);
#946=ORIENTED_EDGE('',*,*,#745,.T.);
#947=ORIENTED_EDGE('',*,*,#746,.T.);
#948=ORIENTED_EDGE('',*,*,#747,.F.);
#949=ORIENTED_EDGE('',*,*,#748,.T.);
#950=ORIENTED_EDGE('',*,*,#749,.F.);
#951=ORIENTED_EDGE('',*,*,#750,.T.);
#952=ORIENTED_EDGE('',*,*,#702,.T.);
#953=ORIENTED_EDGE('',*,*,#751,.T.);
#954=ORIENTED_EDGE('',*,*,#752,.T.);
#955=ORIENTED_EDGE('',*,*,#753,.F.);
#956=ORIENTED_EDGE('',*,*,#718,.T.);
#957=ORIENTED_EDGE('',*,*,#754,.T.);
#958=ORIENTED_EDGE('',*,*,#755,.F.);
#959=ORIENTED_EDGE('',*,*,#712,.T.);
#960=ORIENTED_EDGE('',*,*,#756,.T.);
#961=ORIENTED_EDGE('',*,*,#757,.F.);
#962=ORIENTED_EDGE('',*,*,#745,.F.);
#963=ORIENTED_EDGE('',*,*,#758,.T.);
#964=ORIENTED_EDGE('',*,*,#759,.F.);
#965=ORIENTED_EDGE('',*,*,#760,.T.);
#966=ORIENTED_EDGE('',*,*,#755,.T.);
#967=ORIENTED_EDGE('',*,*,#761,.T.);
#968=ORIENTED_EDGE('',*,*,#696,.T.);
#969=ORIENTED_EDGE('',*,*,#762,.F.);
#970=ORIENTED_EDGE('',*,*,#763,.F.);
#971=ORIENTED_EDGE('',*,*,#764,.T.);
#972=ORIENTED_EDGE('',*,*,#765,.F.);
#973=ORIENTED_EDGE('',*,*,#766,.T.);
#974=ORIENTED_EDGE('',*,*,#767,.T.);
#975=ORIENTED_EDGE('',*,*,#768,.T.);
#976=ORIENTED_EDGE('',*,*,#769,.T.);
#977=ORIENTED_EDGE('',*,*,#770,.F.);
#978=ORIENTED_EDGE('',*,*,#771,.T.);
#979=ORIENTED_EDGE('',*,*,#747,.T.);
#980=ORIENTED_EDGE('',*,*,#772,.F.);
#981=ORIENTED_EDGE('',*,*,#759,.T.);
#982=ORIENTED_EDGE('',*,*,#773,.T.);
#983=ORIENTED_EDGE('',*,*,#774,.F.);
#984=ORIENTED_EDGE('',*,*,#775,.T.);
#985=ORIENTED_EDGE('',*,*,#776,.T.);
#986=ORIENTED_EDGE('',*,*,#777,.T.);
#987=ORIENTED_EDGE('',*,*,#778,.T.);
#988=ORIENTED_EDGE('',*,*,#779,.F.);
#989=ORIENTED_EDGE('',*,*,#688,.T.);
#990=ORIENTED_EDGE('',*,*,#780,.T.);
#991=ORIENTED_EDGE('',*,*,#781,.T.);
#992=ORIENTED_EDGE('',*,*,#782,.T.);
#993=ORIENTED_EDGE('',*,*,#783,.F.);
#994=ORIENTED_EDGE('',*,*,#784,.T.);
#995=ORIENTED_EDGE('',*,*,#768,.F.);
#996=ORIENTED_EDGE('',*,*,#707,.T.);
#997=ORIENTED_EDGE('',*,*,#785,.T.);
#998=ORIENTED_EDGE('',*,*,#786,.T.);
#999=ORIENTED_EDGE('',*,*,#781,.F.);
#1000=ORIENTED_EDGE('',*,*,#787,.T.);
#1001=ORIENTED_EDGE('',*,*,#788,.F.);
#1002=ORIENTED_EDGE('',*,*,#776,.F.);
#1003=ORIENTED_EDGE('',*,*,#789,.T.);
#1004=ORIENTED_EDGE('',*,*,#790,.F.);
#1005=ORIENTED_EDGE('',*,*,#791,.F.);
#1006=ORIENTED_EDGE('',*,*,#683,.T.);
#1007=ORIENTED_EDGE('',*,*,#792,.T.);
#1008=ORIENTED_EDGE('',*,*,#692,.T.);
#1009=ORIENTED_EDGE('',*,*,#783,.T.);
#1010=ORIENTED_EDGE('',*,*,#793,.T.);
#1011=ORIENTED_EDGE('',*,*,#794,.T.);
#1012=ORIENTED_EDGE('',*,*,#795,.T.);
#1013=ORIENTED_EDGE('',*,*,#790,.T.);
#1014=ORIENTED_EDGE('',*,*,#796,.T.);
#1015=ORIENTED_EDGE('',*,*,#797,.F.);
#1016=ORIENTED_EDGE('',*,*,#798,.T.);
#1017=ORIENTED_EDGE('',*,*,#743,.T.);
#1018=ORIENTED_EDGE('',*,*,#799,.T.);
#1019=ORIENTED_EDGE('',*,*,#749,.T.);
#1020=ORIENTED_EDGE('',*,*,#800,.T.);
#1021=ORIENTED_EDGE('',*,*,#801,.F.);
#1022=ORIENTED_EDGE('',*,*,#802,.T.);
#1023=ORIENTED_EDGE('',*,*,#763,.T.);
#1024=ORIENTED_EDGE('',*,*,#803,.T.);
#1025=ORIENTED_EDGE('',*,*,#797,.T.);
#1026=ORIENTED_EDGE('',*,*,#804,.T.);
#1027=ORIENTED_EDGE('',*,*,#774,.T.);
#1028=ORIENTED_EDGE('',*,*,#805,.T.);
#1029=ORIENTED_EDGE('',*,*,#801,.T.);
#1030=ORIENTED_EDGE('',*,*,#806,.T.);
#1031=ORIENTED_EDGE('',*,*,#770,.T.);
#1032=ORIENTED_EDGE('',*,*,#807,.T.);
#1033=ORIENTED_EDGE('',*,*,#808,.F.);
#1034=ORIENTED_EDGE('',*,*,#809,.T.);
#1035=ORIENTED_EDGE('',*,*,#810,.F.);
#1036=ORIENTED_EDGE('',*,*,#811,.T.);
#1037=ORIENTED_EDGE('',*,*,#812,.F.);
#1038=ORIENTED_EDGE('',*,*,#813,.T.);
#1039=ORIENTED_EDGE('',*,*,#814,.F.);
#1040=ORIENTED_EDGE('',*,*,#815,.T.);
#1041=ORIENTED_EDGE('',*,*,#816,.F.);
#1042=ORIENTED_EDGE('',*,*,#817,.T.);
#1043=ORIENTED_EDGE('',*,*,#818,.F.);
#1044=ORIENTED_EDGE('',*,*,#819,.T.);
#1045=ORIENTED_EDGE('',*,*,#820,.F.);
#1046=ORIENTED_EDGE('',*,*,#821,.T.);
#1047=ORIENTED_EDGE('',*,*,#822,.F.);
#1048=ORIENTED_EDGE('',*,*,#823,.T.);
#1049=ORIENTED_EDGE('',*,*,#824,.F.);
#1050=ORIENTED_EDGE('',*,*,#825,.F.);
#1051=ORIENTED_EDGE('',*,*,#723,.F.);
#1052=ORIENTED_EDGE('',*,*,#826,.T.);
#1053=ORIENTED_EDGE('',*,*,#827,.T.);
#1054=ORIENTED_EDGE('',*,*,#826,.F.);
#1055=ORIENTED_EDGE('',*,*,#828,.T.);
#1056=ORIENTED_EDGE('',*,*,#827,.F.);
#1057=ORIENTED_EDGE('',*,*,#828,.F.);
#1058=ORIENTED_EDGE('',*,*,#829,.T.);
#1059=ORIENTED_EDGE('',*,*,#825,.T.);
#1060=ORIENTED_EDGE('',*,*,#829,.F.);
#1061=ORIENTED_EDGE('',*,*,#724,.F.);
#1062=ORIENTED_EDGE('',*,*,#830,.T.);
#1063=ORIENTED_EDGE('',*,*,#831,.T.);
#1064=ORIENTED_EDGE('',*,*,#830,.F.);
#1065=ORIENTED_EDGE('',*,*,#832,.T.);
#1066=ORIENTED_EDGE('',*,*,#831,.F.);
#1067=ORIENTED_EDGE('',*,*,#832,.F.);
#1068=ORIENTED_EDGE('',*,*,#833,.T.);
#1069=ORIENTED_EDGE('',*,*,#824,.T.);
#1070=ORIENTED_EDGE('',*,*,#833,.F.);
#1071=ORIENTED_EDGE('',*,*,#729,.F.);
#1072=ORIENTED_EDGE('',*,*,#834,.T.);
#1073=ORIENTED_EDGE('',*,*,#816,.T.);
#1074=ORIENTED_EDGE('',*,*,#835,.T.);
#1075=ORIENTED_EDGE('',*,*,#727,.F.);
#1076=ORIENTED_EDGE('',*,*,#836,.T.);
#1077=ORIENTED_EDGE('',*,*,#818,.T.);
#1078=ORIENTED_EDGE('',*,*,#837,.T.);
#1079=ORIENTED_EDGE('',*,*,#820,.T.);
#1080=ORIENTED_EDGE('',*,*,#838,.T.);
#1081=ORIENTED_EDGE('',*,*,#725,.F.);
#1082=ORIENTED_EDGE('',*,*,#839,.T.);
#1083=ORIENTED_EDGE('',*,*,#822,.T.);
#1084=ORIENTED_EDGE('',*,*,#840,.T.);
#1085=ORIENTED_EDGE('',*,*,#731,.F.);
#1086=ORIENTED_EDGE('',*,*,#841,.T.);
#1087=ORIENTED_EDGE('',*,*,#737,.F.);
#1088=ORIENTED_EDGE('',*,*,#842,.T.);
#1089=ORIENTED_EDGE('',*,*,#808,.T.);
#1090=ORIENTED_EDGE('',*,*,#843,.T.);
#1091=ORIENTED_EDGE('',*,*,#735,.F.);
#1092=ORIENTED_EDGE('',*,*,#844,.T.);
#1093=ORIENTED_EDGE('',*,*,#810,.T.);
#1094=ORIENTED_EDGE('',*,*,#845,.T.);
#1095=ORIENTED_EDGE('',*,*,#733,.F.);
#1096=ORIENTED_EDGE('',*,*,#846,.T.);
#1097=ORIENTED_EDGE('',*,*,#812,.T.);
#1098=ORIENTED_EDGE('',*,*,#847,.T.);
#1099=ORIENTED_EDGE('',*,*,#814,.T.);
#1100=ORIENTED_EDGE('',*,*,#848,.T.);
#1101=ORIENTED_EDGE('',*,*,#739,.F.);
#1102=ORIENTED_EDGE('',*,*,#849,.T.);
#1103=ORIENTED_EDGE('',*,*,#804,.F.);
#1104=ORIENTED_EDGE('',*,*,#796,.F.);
#1105=ORIENTED_EDGE('',*,*,#789,.F.);
#1106=ORIENTED_EDGE('',*,*,#775,.F.);
#1107=ORIENTED_EDGE('',*,*,#726,.F.);
#1108=ORIENTED_EDGE('',*,*,#838,.F.);
#1109=ORIENTED_EDGE('',*,*,#819,.F.);
#1110=ORIENTED_EDGE('',*,*,#836,.F.);
#1111=ORIENTED_EDGE('',*,*,#805,.F.);
#1112=ORIENTED_EDGE('',*,*,#773,.F.);
#1113=ORIENTED_EDGE('',*,*,#764,.F.);
#1114=ORIENTED_EDGE('',*,*,#802,.F.);
#1115=ORIENTED_EDGE('',*,*,#732,.F.);
#1116=ORIENTED_EDGE('',*,*,#840,.F.);
#1117=ORIENTED_EDGE('',*,*,#821,.F.);
#1118=ORIENTED_EDGE('',*,*,#839,.F.);
#1119=ORIENTED_EDGE('',*,*,#740,.F.);
#1120=ORIENTED_EDGE('',*,*,#848,.F.);
#1121=ORIENTED_EDGE('',*,*,#813,.F.);
#1122=ORIENTED_EDGE('',*,*,#846,.F.);
#1123=ORIENTED_EDGE('',*,*,#734,.F.);
#1124=ORIENTED_EDGE('',*,*,#847,.F.);
#1125=ORIENTED_EDGE('',*,*,#811,.F.);
#1126=ORIENTED_EDGE('',*,*,#844,.F.);
#1127=ORIENTED_EDGE('',*,*,#806,.F.);
#1128=ORIENTED_EDGE('',*,*,#800,.F.);
#1129=ORIENTED_EDGE('',*,*,#748,.F.);
#1130=ORIENTED_EDGE('',*,*,#771,.F.);
#1131=ORIENTED_EDGE('',*,*,#807,.F.);
#1132=ORIENTED_EDGE('',*,*,#769,.F.);
#1133=ORIENTED_EDGE('',*,*,#784,.F.);
#1134=ORIENTED_EDGE('',*,*,#798,.F.);
#1135=ORIENTED_EDGE('',*,*,#736,.F.);
#1136=ORIENTED_EDGE('',*,*,#845,.F.);
#1137=ORIENTED_EDGE('',*,*,#809,.F.);
#1138=ORIENTED_EDGE('',*,*,#842,.F.);
#1139=ORIENTED_EDGE('',*,*,#728,.F.);
#1140=ORIENTED_EDGE('',*,*,#837,.F.);
#1141=ORIENTED_EDGE('',*,*,#817,.F.);
#1142=ORIENTED_EDGE('',*,*,#834,.F.);
#1143=ORIENTED_EDGE('',*,*,#730,.F.);
#1144=ORIENTED_EDGE('',*,*,#835,.F.);
#1145=ORIENTED_EDGE('',*,*,#823,.F.);
#1146=ORIENTED_EDGE('',*,*,#841,.F.);
#1147=ORIENTED_EDGE('',*,*,#738,.F.);
#1148=ORIENTED_EDGE('',*,*,#843,.F.);
#1149=ORIENTED_EDGE('',*,*,#815,.F.);
#1150=ORIENTED_EDGE('',*,*,#849,.F.);
#1151=ORIENTED_EDGE('',*,*,#780,.F.);
#1152=ORIENTED_EDGE('',*,*,#687,.F.);
#1153=ORIENTED_EDGE('',*,*,#708,.F.);
#1154=ORIENTED_EDGE('',*,*,#787,.F.);
#1155=ORIENTED_EDGE('',*,*,#751,.F.);
#1156=ORIENTED_EDGE('',*,*,#701,.F.);
#1157=ORIENTED_EDGE('',*,*,#713,.F.);
#1158=ORIENTED_EDGE('',*,*,#758,.F.);
#1159=ORIENTED_EDGE('',*,*,#761,.F.);
#1160=ORIENTED_EDGE('',*,*,#754,.F.);
#1161=ORIENTED_EDGE('',*,*,#717,.F.);
#1162=ORIENTED_EDGE('',*,*,#697,.F.);
#1163=ORIENTED_EDGE('',*,*,#792,.F.);
#1164=ORIENTED_EDGE('',*,*,#682,.F.);
#1165=ORIENTED_EDGE('',*,*,#722,.F.);
#1166=ORIENTED_EDGE('',*,*,#693,.F.);
#1167=ORIENTED_EDGE('',*,*,#762,.T.);
#1168=ORIENTED_EDGE('',*,*,#695,.T.);
#1169=ORIENTED_EDGE('',*,*,#850,.T.);
#1170=ORIENTED_EDGE('',*,*,#744,.F.);
#1171=ORIENTED_EDGE('',*,*,#803,.F.);
#1172=ORIENTED_EDGE('',*,*,#742,.T.);
#1173=ORIENTED_EDGE('',*,*,#851,.T.);
#1174=ORIENTED_EDGE('',*,*,#703,.T.);
#1175=ORIENTED_EDGE('',*,*,#750,.F.);
#1176=ORIENTED_EDGE('',*,*,#799,.F.);
#1177=ORIENTED_EDGE('',*,*,#782,.F.);
#1178=ORIENTED_EDGE('',*,*,#786,.F.);
#1179=ORIENTED_EDGE('',*,*,#852,.T.);
#1180=ORIENTED_EDGE('',*,*,#853,.T.);
#1181=ORIENTED_EDGE('',*,*,#793,.F.);
#1182=ORIENTED_EDGE('',*,*,#853,.F.);
#1183=ORIENTED_EDGE('',*,*,#854,.F.);
#1184=ORIENTED_EDGE('',*,*,#855,.T.);
#1185=ORIENTED_EDGE('',*,*,#794,.F.);
#1186=ORIENTED_EDGE('',*,*,#856,.F.);
#1187=ORIENTED_EDGE('',*,*,#679,.F.);
#1188=ORIENTED_EDGE('',*,*,#791,.T.);
#1189=ORIENTED_EDGE('',*,*,#795,.F.);
#1190=ORIENTED_EDGE('',*,*,#855,.F.);
#1191=ORIENTED_EDGE('',*,*,#788,.T.);
#1192=ORIENTED_EDGE('',*,*,#691,.T.);
#1193=ORIENTED_EDGE('',*,*,#857,.F.);
#1194=ORIENTED_EDGE('',*,*,#858,.F.);
#1195=ORIENTED_EDGE('',*,*,#777,.F.);
#1196=ORIENTED_EDGE('',*,*,#858,.T.);
#1197=ORIENTED_EDGE('',*,*,#859,.F.);
#1198=ORIENTED_EDGE('',*,*,#860,.F.);
#1199=ORIENTED_EDGE('',*,*,#778,.F.);
#1200=ORIENTED_EDGE('',*,*,#772,.T.);
#1201=ORIENTED_EDGE('',*,*,#860,.T.);
#1202=ORIENTED_EDGE('',*,*,#861,.F.);
#1203=ORIENTED_EDGE('',*,*,#752,.F.);
#1204=ORIENTED_EDGE('',*,*,#760,.F.);
#1205=ORIENTED_EDGE('',*,*,#765,.T.);
#1206=ORIENTED_EDGE('',*,*,#746,.F.);
#1207=ORIENTED_EDGE('',*,*,#757,.T.);
#1208=ORIENTED_EDGE('',*,*,#862,.T.);
#1209=ORIENTED_EDGE('',*,*,#863,.T.);
#1210=ORIENTED_EDGE('',*,*,#863,.F.);
#1211=ORIENTED_EDGE('',*,*,#864,.F.);
#1212=ORIENTED_EDGE('',*,*,#865,.T.);
#1213=ORIENTED_EDGE('',*,*,#766,.F.);
#1214=ORIENTED_EDGE('',*,*,#866,.F.);
#1215=ORIENTED_EDGE('',*,*,#684,.F.);
#1216=ORIENTED_EDGE('',*,*,#779,.T.);
#1217=ORIENTED_EDGE('',*,*,#767,.F.);
#1218=ORIENTED_EDGE('',*,*,#865,.F.);
#1219=ORIENTED_EDGE('',*,*,#716,.T.);
#1220=ORIENTED_EDGE('',*,*,#867,.T.);
#1221=ORIENTED_EDGE('',*,*,#850,.F.);
#1222=ORIENTED_EDGE('',*,*,#694,.F.);
#1223=ORIENTED_EDGE('',*,*,#715,.T.);
#1224=ORIENTED_EDGE('',*,*,#868,.T.);
#1225=ORIENTED_EDGE('',*,*,#741,.F.);
#1226=ORIENTED_EDGE('',*,*,#867,.F.);
#1227=ORIENTED_EDGE('',*,*,#714,.T.);
#1228=ORIENTED_EDGE('',*,*,#699,.T.);
#1229=ORIENTED_EDGE('',*,*,#851,.F.);
#1230=ORIENTED_EDGE('',*,*,#868,.F.);
#1231=ORIENTED_EDGE('',*,*,#869,.T.);
#1232=ORIENTED_EDGE('',*,*,#857,.T.);
#1233=ORIENTED_EDGE('',*,*,#690,.F.);
#1234=ORIENTED_EDGE('',*,*,#721,.F.);
#1235=ORIENTED_EDGE('',*,*,#870,.T.);
#1236=ORIENTED_EDGE('',*,*,#859,.T.);
#1237=ORIENTED_EDGE('',*,*,#869,.F.);
#1238=ORIENTED_EDGE('',*,*,#720,.F.);
#1239=ORIENTED_EDGE('',*,*,#753,.T.);
#1240=ORIENTED_EDGE('',*,*,#861,.T.);
#1241=ORIENTED_EDGE('',*,*,#870,.F.);
#1242=ORIENTED_EDGE('',*,*,#719,.F.);
#1243=ORIENTED_EDGE('',*,*,#871,.T.);
#1244=ORIENTED_EDGE('',*,*,#862,.F.);
#1245=ORIENTED_EDGE('',*,*,#756,.F.);
#1246=ORIENTED_EDGE('',*,*,#711,.F.);
#1247=ORIENTED_EDGE('',*,*,#872,.T.);
#1248=ORIENTED_EDGE('',*,*,#864,.T.);
#1249=ORIENTED_EDGE('',*,*,#871,.F.);
#1250=ORIENTED_EDGE('',*,*,#710,.F.);
#1251=ORIENTED_EDGE('',*,*,#685,.T.);
#1252=ORIENTED_EDGE('',*,*,#866,.T.);
#1253=ORIENTED_EDGE('',*,*,#872,.F.);
#1254=ORIENTED_EDGE('',*,*,#709,.F.);
#1255=ORIENTED_EDGE('',*,*,#873,.T.);
#1256=ORIENTED_EDGE('',*,*,#852,.F.);
#1257=ORIENTED_EDGE('',*,*,#785,.F.);
#1258=ORIENTED_EDGE('',*,*,#706,.F.);
#1259=ORIENTED_EDGE('',*,*,#874,.T.);
#1260=ORIENTED_EDGE('',*,*,#854,.T.);
#1261=ORIENTED_EDGE('',*,*,#873,.F.);
#1262=ORIENTED_EDGE('',*,*,#705,.F.);
#1263=ORIENTED_EDGE('',*,*,#680,.T.);
#1264=ORIENTED_EDGE('',*,*,#856,.T.);
#1265=ORIENTED_EDGE('',*,*,#874,.F.);
#1266=ORIENTED_EDGE('',*,*,#704,.F.);
#1267=PLANE('',#1405);
#1268=PLANE('',#1406);
#1269=PLANE('',#1407);
#1270=PLANE('',#1408);
#1271=PLANE('',#1409);
#1272=PLANE('',#1410);
#1273=PLANE('',#1425);
#1274=PLANE('',#1426);
#1275=PLANE('',#1429);
#1276=PLANE('',#1430);
#1277=PLANE('',#1431);
#1278=PLANE('',#1434);
#1279=PLANE('',#1435);
#1280=PLANE('',#1436);
#1281=PLANE('',#1439);
#1282=PLANE('',#1440);
#1283=PLANE('',#1443);
#1284=PLANE('',#1444);
#1285=PLANE('',#1445);
#1286=PLANE('',#1462);
#1287=PLANE('',#1467);
#1288=PLANE('',#1470);
#1289=PLANE('',#1471);
#1290=PLANE('',#1472);
#1291=PLANE('',#1473);
#1292=PLANE('',#1474);
#1293=PLANE('',#1475);
#1294=PLANE('',#1476);
#1295=PLANE('',#1477);
#1296=PLANE('',#1494);
#1297=PLANE('',#1495);
#1298=PLANE('',#1496);
#1299=PLANE('',#1497);
#1300=PLANE('',#1498);
#1301=PLANE('',#1499);
#1302=PLANE('',#1500);
#1303=PLANE('',#1501);
#1304=PLANE('',#1502);
#1305=PLANE('',#1503);
#1306=PLANE('',#1504);
#1307=PLANE('',#1505);
#1308=PLANE('',#1506);
#1309=PLANE('',#1507);
#1310=PLANE('',#1508);
#1311=PLANE('',#1509);
#1312=PLANE('',#1510);
#1313=PLANE('',#1511);
#1314=PLANE('',#1512);
#1315=PLANE('',#1513);
#1316=PLANE('',#1514);
#1317=PLANE('',#1515);
#1318=PLANE('',#1516);
#1319=ADVANCED_FACE('',(#85),#1267,.F.);
#1320=ADVANCED_FACE('',(#86),#1268,.F.);
#1321=ADVANCED_FACE('',(#87),#1269,.F.);
#1322=ADVANCED_FACE('',(#88),#1270,.F.);
#1323=ADVANCED_FACE('',(#89),#1271,.F.);
#1324=ADVANCED_FACE('',(#90,#35,#36,#37,#38),#1272,.F.);
#1325=ADVANCED_FACE('',(#91),#1273,.F.);
#1326=ADVANCED_FACE('',(#92),#1274,.T.);
#1327=ADVANCED_FACE('',(#93),#1275,.F.);
#1328=ADVANCED_FACE('',(#94),#1276,.F.);
#1329=ADVANCED_FACE('',(#95),#1277,.T.);
#1330=ADVANCED_FACE('',(#96),#1278,.F.);
#1331=ADVANCED_FACE('',(#97),#1279,.F.);
#1332=ADVANCED_FACE('',(#98),#1280,.T.);
#1333=ADVANCED_FACE('',(#99),#1281,.F.);
#1334=ADVANCED_FACE('',(#100),#1282,.T.);
#1335=ADVANCED_FACE('',(#101),#1283,.F.);
#1336=ADVANCED_FACE('',(#102),#1284,.F.);
#1337=ADVANCED_FACE('',(#103,#39,#40,#41,#42),#1285,.T.);
#1338=ADVANCED_FACE('',(#104),#15,.F.);
#1339=ADVANCED_FACE('',(#105,#43),#1286,.F.);
#1340=ADVANCED_FACE('',(#106),#16,.F.);
#1341=ADVANCED_FACE('',(#107),#17,.F.);
#1342=ADVANCED_FACE('',(#108,#44),#1287,.F.);
#1343=ADVANCED_FACE('',(#109),#18,.F.);
#1344=ADVANCED_FACE('',(#110),#1288,.F.);
#1345=ADVANCED_FACE('',(#111),#1289,.F.);
#1346=ADVANCED_FACE('',(#112),#1290,.F.);
#1347=ADVANCED_FACE('',(#113),#1291,.F.);
#1348=ADVANCED_FACE('',(#114),#1292,.F.);
#1349=ADVANCED_FACE('',(#115),#1293,.F.);
#1350=ADVANCED_FACE('',(#116),#1294,.F.);
#1351=ADVANCED_FACE('',(#117),#1295,.F.);
#1352=ADVANCED_FACE('',(#118),#19,.F.);
#1353=ADVANCED_FACE('',(#119),#20,.F.);
#1354=ADVANCED_FACE('',(#120),#21,.F.);
#1355=ADVANCED_FACE('',(#121),#22,.F.);
#1356=ADVANCED_FACE('',(#122),#23,.F.);
#1357=ADVANCED_FACE('',(#123),#24,.F.);
#1358=ADVANCED_FACE('',(#124),#25,.F.);
#1359=ADVANCED_FACE('',(#125),#26,.F.);
#1360=ADVANCED_FACE('',(#126),#27,.F.);
#1361=ADVANCED_FACE('',(#127),#28,.F.);
#1362=ADVANCED_FACE('',(#128),#29,.F.);
#1363=ADVANCED_FACE('',(#129),#30,.F.);
#1364=ADVANCED_FACE('',(#130),#31,.T.);
#1365=ADVANCED_FACE('',(#131),#32,.T.);
#1366=ADVANCED_FACE('',(#132),#33,.T.);
#1367=ADVANCED_FACE('',(#133),#34,.T.);
#1368=ADVANCED_FACE('',(#134),#1296,.F.);
#1369=ADVANCED_FACE('',(#135),#1297,.F.);
#1370=ADVANCED_FACE('',(#136),#1298,.F.);
#1371=ADVANCED_FACE('',(#137),#1299,.F.);
#1372=ADVANCED_FACE('',(#138),#1300,.F.);
#1373=ADVANCED_FACE('',(#139),#1301,.F.);
#1374=ADVANCED_FACE('',(#140),#1302,.F.);
#1375=ADVANCED_FACE('',(#141),#1303,.T.);
#1376=ADVANCED_FACE('',(#142),#1304,.T.);
#1377=ADVANCED_FACE('',(#143),#1305,.F.);
#1378=ADVANCED_FACE('',(#144),#1306,.F.);
#1379=ADVANCED_FACE('',(#145),#1307,.T.);
#1380=ADVANCED_FACE('',(#146),#1308,.T.);
#1381=ADVANCED_FACE('',(#147),#1309,.T.);
#1382=ADVANCED_FACE('',(#148),#1310,.F.);
#1383=ADVANCED_FACE('',(#149),#1311,.F.);
#1384=ADVANCED_FACE('',(#150),#1312,.F.);
#1385=ADVANCED_FACE('',(#151),#1313,.F.);
#1386=ADVANCED_FACE('',(#152),#1314,.F.);
#1387=ADVANCED_FACE('',(#153),#1315,.F.);
#1388=ADVANCED_FACE('',(#154),#1316,.F.);
#1389=ADVANCED_FACE('',(#155),#1317,.F.);
#1390=ADVANCED_FACE('',(#156),#1318,.F.);
#1391=CLOSED_SHELL('',(#1319,#1320,#1321,#1322,#1323,#1324,#1325,#1326,
#1327,#1328,#1329,#1330,#1331,#1332,#1333,#1334,#1335,#1336,#1337,#1338,
#1339,#1340,#1341,#1342,#1343,#1344,#1345,#1346,#1347,#1348,#1349,#1350,
#1351,#1352,#1353,#1354,#1355,#1356,#1357,#1358,#1359,#1360,#1361,#1362,
#1363,#1364,#1365,#1366,#1367,#1368,#1369,#1370,#1371,#1372,#1373,#1374,
#1375,#1376,#1377,#1378,#1379,#1380,#1381,#1382,#1383,#1384,#1385,#1386,
#1387,#1388,#1389,#1390));
#1392=DERIVED_UNIT_ELEMENT(#1394,1.);
#1393=DERIVED_UNIT_ELEMENT(#2301,-3.);
#1394=(
MASS_UNIT()
NAMED_UNIT(*)
SI_UNIT(.KILO.,.GRAM.)
);
#1395=DERIVED_UNIT((#1392,#1393));
#1396=MEASURE_REPRESENTATION_ITEM('density measure',
POSITIVE_RATIO_MEASURE(7850.),#1395);
#1397=PROPERTY_DEFINITION_REPRESENTATION(#1402,#1399);
#1398=PROPERTY_DEFINITION_REPRESENTATION(#1403,#1400);
#1399=REPRESENTATION('material name',(#1401),#2298);
#1400=REPRESENTATION('density',(#1396),#2298);
#1401=DESCRIPTIVE_REPRESENTATION_ITEM('Steel','Steel');
#1402=PROPERTY_DEFINITION('material property','material name',#2308);
#1403=PROPERTY_DEFINITION('material property','density of part',#2308);
#1404=AXIS2_PLACEMENT_3D('',#1899,#1517,#1518);
#1405=AXIS2_PLACEMENT_3D('',#1900,#1519,#1520);
#1406=AXIS2_PLACEMENT_3D('',#1911,#1526,#1527);
#1407=AXIS2_PLACEMENT_3D('',#1922,#1533,#1534);
#1408=AXIS2_PLACEMENT_3D('',#1933,#1540,#1541);
#1409=AXIS2_PLACEMENT_3D('',#1944,#1547,#1548);
#1410=AXIS2_PLACEMENT_3D('',#1955,#1554,#1555);
#1411=AXIS2_PLACEMENT_3D('',#1964,#1560,#1561);
#1412=AXIS2_PLACEMENT_3D('',#1973,#1566,#1567);
#1413=AXIS2_PLACEMENT_3D('',#1980,#1571,#1572);
#1414=AXIS2_PLACEMENT_3D('',#1988,#1577,#1578);
#1415=AXIS2_PLACEMENT_3D('',#1990,#1579,#1580);
#1416=AXIS2_PLACEMENT_3D('',#1992,#1581,#1582);
#1417=AXIS2_PLACEMENT_3D('',#1997,#1584,#1585);
#1418=AXIS2_PLACEMENT_3D('',#2001,#1587,#1588);
#1419=AXIS2_PLACEMENT_3D('',#2005,#1590,#1591);
#1420=AXIS2_PLACEMENT_3D('',#2008,#1593,#1594);
#1421=AXIS2_PLACEMENT_3D('',#2013,#1596,#1597);
#1422=AXIS2_PLACEMENT_3D('',#2017,#1599,#1600);
#1423=AXIS2_PLACEMENT_3D('',#2021,#1602,#1603);
#1424=AXIS2_PLACEMENT_3D('',#2024,#1605,#1606);
#1425=AXIS2_PLACEMENT_3D('',#2025,#1607,#1608);
#1426=AXIS2_PLACEMENT_3D('',#2034,#1613,#1614);
#1427=AXIS2_PLACEMENT_3D('',#2043,#1618,#1619);
#1428=AXIS2_PLACEMENT_3D('',#2047,#1622,#1623);
#1429=AXIS2_PLACEMENT_3D('',#2048,#1624,#1625);
#1430=AXIS2_PLACEMENT_3D('',#2056,#1630,#1631);
#1431=AXIS2_PLACEMENT_3D('',#2061,#1635,#1636);
#1432=AXIS2_PLACEMENT_3D('',#2066,#1639,#1640);
#1433=AXIS2_PLACEMENT_3D('',#2071,#1643,#1644);
#1434=AXIS2_PLACEMENT_3D('',#2072,#1645,#1646);
#1435=AXIS2_PLACEMENT_3D('',#2086,#1654,#1655);
#1436=AXIS2_PLACEMENT_3D('',#2100,#1663,#1664);
#1437=AXIS2_PLACEMENT_3D('',#2103,#1666,#1667);
#1438=AXIS2_PLACEMENT_3D('',#2110,#1671,#1672);
#1439=AXIS2_PLACEMENT_3D('',#2111,#1673,#1674);
#1440=AXIS2_PLACEMENT_3D('',#2116,#1678,#1679);
#1441=AXIS2_PLACEMENT_3D('',#2119,#1681,#1682);
#1442=AXIS2_PLACEMENT_3D('',#2123,#1685,#1686);
#1443=AXIS2_PLACEMENT_3D('',#2124,#1687,#1688);
#1444=AXIS2_PLACEMENT_3D('',#2135,#1695,#1696);
#1445=AXIS2_PLACEMENT_3D('',#2143,#1702,#1703);
#1446=AXIS2_PLACEMENT_3D('',#2144,#1704,#1705);
#1447=AXIS2_PLACEMENT_3D('',#2145,#1706,#1707);
#1448=AXIS2_PLACEMENT_3D('',#2146,#1708,#1709);
#1449=AXIS2_PLACEMENT_3D('',#2147,#1710,#1711);
#1450=AXIS2_PLACEMENT_3D('',#2152,#1713,#1714);
#1451=AXIS2_PLACEMENT_3D('',#2156,#1716,#1717);
#1452=AXIS2_PLACEMENT_3D('',#2160,#1719,#1720);
#1453=AXIS2_PLACEMENT_3D('',#2163,#1722,#1723);
#1454=AXIS2_PLACEMENT_3D('',#2168,#1725,#1726);
#1455=AXIS2_PLACEMENT_3D('',#2172,#1728,#1729);
#1456=AXIS2_PLACEMENT_3D('',#2176,#1731,#1732);
#1457=AXIS2_PLACEMENT_3D('',#2179,#1734,#1735);
#1458=AXIS2_PLACEMENT_3D('',#2181,#1736,#1737);
#1459=AXIS2_PLACEMENT_3D('',#2183,#1738,#1739);
#1460=AXIS2_PLACEMENT_3D('',#2184,#1740,#1741);
#1461=AXIS2_PLACEMENT_3D('',#2187,#1743,#1744);
#1462=AXIS2_PLACEMENT_3D('',#2188,#1745,#1746);
#1463=AXIS2_PLACEMENT_3D('',#2190,#1747,#1748);
#1464=AXIS2_PLACEMENT_3D('',#2191,#1749,#1750);
#1465=AXIS2_PLACEMENT_3D('',#2193,#1752,#1753);
#1466=AXIS2_PLACEMENT_3D('',#2196,#1755,#1756);
#1467=AXIS2_PLACEMENT_3D('',#2197,#1757,#1758);
#1468=AXIS2_PLACEMENT_3D('',#2199,#1759,#1760);
#1469=AXIS2_PLACEMENT_3D('',#2200,#1761,#1762);
#1470=AXIS2_PLACEMENT_3D('',#2202,#1764,#1765);
#1471=AXIS2_PLACEMENT_3D('',#2205,#1768,#1769);
#1472=AXIS2_PLACEMENT_3D('',#2208,#1772,#1773);
#1473=AXIS2_PLACEMENT_3D('',#2211,#1776,#1777);
#1474=AXIS2_PLACEMENT_3D('',#2214,#1780,#1781);
#1475=AXIS2_PLACEMENT_3D('',#2217,#1784,#1785);
#1476=AXIS2_PLACEMENT_3D('',#2220,#1788,#1789);
#1477=AXIS2_PLACEMENT_3D('',#2223,#1792,#1793);
#1478=AXIS2_PLACEMENT_3D('',#2226,#1796,#1797);
#1479=AXIS2_PLACEMENT_3D('',#2227,#1798,#1799);
#1480=AXIS2_PLACEMENT_3D('',#2228,#1800,#1801);
#1481=AXIS2_PLACEMENT_3D('',#2229,#1802,#1803);
#1482=AXIS2_PLACEMENT_3D('',#2230,#1804,#1805);
#1483=AXIS2_PLACEMENT_3D('',#2231,#1806,#1807);
#1484=AXIS2_PLACEMENT_3D('',#2232,#1808,#1809);
#1485=AXIS2_PLACEMENT_3D('',#2233,#1810,#1811);
#1486=AXIS2_PLACEMENT_3D('',#2234,#1812,#1813);
#1487=AXIS2_PLACEMENT_3D('',#2235,#1814,#1815);
#1488=AXIS2_PLACEMENT_3D('',#2236,#1816,#1817);
#1489=AXIS2_PLACEMENT_3D('',#2237,#1818,#1819);
#1490=AXIS2_PLACEMENT_3D('',#2238,#1820,#1821);
#1491=AXIS2_PLACEMENT_3D('',#2239,#1822,#1823);
#1492=AXIS2_PLACEMENT_3D('',#2240,#1824,#1825);
#1493=AXIS2_PLACEMENT_3D('',#2241,#1826,#1827);
#1494=AXIS2_PLACEMENT_3D('',#2242,#1828,#1829);
#1495=AXIS2_PLACEMENT_3D('',#2244,#1831,#1832);
#1496=AXIS2_PLACEMENT_3D('',#2246,#1834,#1835);
#1497=AXIS2_PLACEMENT_3D('',#2250,#1838,#1839);
#1498=AXIS2_PLACEMENT_3D('',#2254,#1842,#1843);
#1499=AXIS2_PLACEMENT_3D('',#2256,#1845,#1846);
#1500=AXIS2_PLACEMENT_3D('',#2260,#1849,#1850);
#1501=AXIS2_PLACEMENT_3D('',#2264,#1853,#1854);
#1502=AXIS2_PLACEMENT_3D('',#2266,#1856,#1857);
#1503=AXIS2_PLACEMENT_3D('',#2270,#1860,#1861);
#1504=AXIS2_PLACEMENT_3D('',#2274,#1864,#1865);
#1505=AXIS2_PLACEMENT_3D('',#2276,#1867,#1868);
#1506=AXIS2_PLACEMENT_3D('',#2278,#1870,#1871);
#1507=AXIS2_PLACEMENT_3D('',#2280,#1873,#1874);
#1508=AXIS2_PLACEMENT_3D('',#2281,#1875,#1876);
#1509=AXIS2_PLACEMENT_3D('',#2283,#1878,#1879);
#1510=AXIS2_PLACEMENT_3D('',#2285,#1881,#1882);
#1511=AXIS2_PLACEMENT_3D('',#2286,#1883,#1884);
#1512=AXIS2_PLACEMENT_3D('',#2288,#1886,#1887);
#1513=AXIS2_PLACEMENT_3D('',#2290,#1889,#1890);
#1514=AXIS2_PLACEMENT_3D('',#2291,#1891,#1892);
#1515=AXIS2_PLACEMENT_3D('',#2293,#1894,#1895);
#1516=AXIS2_PLACEMENT_3D('',#2295,#1897,#1898);
#1517=DIRECTION('axis',(0.,0.,1.));
#1518=DIRECTION('refdir',(1.,0.,0.));
#1519=DIRECTION('center_axis',(1.,0.,1.38777878078145E-16));
#1520=DIRECTION('ref_axis',(1.38777878078145E-16,0.,-1.));
#1521=DIRECTION('',(0.,-0.968669911264356,-0.248351772715849));
#1522=DIRECTION('',(0.,1.,0.));
#1523=DIRECTION('',(0.,0.,1.));
#1524=DIRECTION('',(0.,-1.,0.));
#1525=DIRECTION('',(0.,0.,1.));
#1526=DIRECTION('center_axis',(0.,0.,1.));
#1527=DIRECTION('ref_axis',(1.,0.,0.));
#1528=DIRECTION('',(0.248351772715842,-0.968669911264358,0.));
#1529=DIRECTION('',(0.,1.,0.));
#1530=DIRECTION('',(-1.,0.,0.));
#1531=DIRECTION('',(0.,-1.,0.));
#1532=DIRECTION('',(-1.,0.,0.));
#1533=DIRECTION('center_axis',(0.,0.,-1.));
#1534=DIRECTION('ref_axis',(-1.,0.,0.));
#1535=DIRECTION('',(1.,0.,0.));
#1536=DIRECTION('',(0.,1.,0.));
#1537=DIRECTION('',(0.248351772715842,-0.968669911264358,0.));
#1538=DIRECTION('',(1.,0.,0.));
#1539=DIRECTION('',(0.,-1.,0.));
#1540=DIRECTION('center_axis',(-1.,0.,1.38777878078145E-16));
#1541=DIRECTION('ref_axis',(1.38777878078145E-16,0.,1.));
#1542=DIRECTION('',(0.,1.,0.));
#1543=DIRECTION('',(0.,-0.968669911264356,-0.248351772715849));
#1544=DIRECTION('',(0.,0.,-1.));
#1545=DIRECTION('',(0.,-1.,0.));
#1546=DIRECTION('',(0.,0.,-1.));
#1547=DIRECTION('center_axis',(-1.,0.,1.38777878078145E-16));
#1548=DIRECTION('ref_axis',(1.38777878078145E-16,0.,1.));
#1549=DIRECTION('',(0.,1.,0.));
#1550=DIRECTION('',(0.,0.,-1.));
#1551=DIRECTION('',(0.,-1.,0.));
#1552=DIRECTION('',(0.,0.,-1.));
#1553=DIRECTION('',(0.,0.968669911264356,-0.248351772715849));
#1554=DIRECTION('center_axis',(0.,1.,0.));
#1555=DIRECTION('ref_axis',(0.,0.,1.));
#1556=DIRECTION('',(1.,0.,0.));
#1557=DIRECTION('',(0.,0.,-1.));
#1558=DIRECTION('',(-1.,0.,0.));
#1559=DIRECTION('',(0.,0.,1.));
#1560=DIRECTION('center_axis',(0.,1.,0.));
#1561=DIRECTION('ref_axis',(0.,0.,1.));
#1562=DIRECTION('',(2.22044604925031E-15,0.,1.));
#1563=DIRECTION('',(1.,0.,0.));
#1564=DIRECTION('',(0.,0.,-1.));
#1565=DIRECTION('',(-1.,0.,0.));
#1566=DIRECTION('center_axis',(0.,1.,0.));
#1567=DIRECTION('ref_axis',(0.,0.,1.));
#1568=DIRECTION('',(1.,0.,0.));
#1569=DIRECTION('',(0.,0.,-1.));
#1570=DIRECTION('',(-1.,0.,6.66133814775093E-15));
#1571=DIRECTION('center_axis',(0.,1.,0.));
#1572=DIRECTION('ref_axis',(0.,0.,1.));
#1573=DIRECTION('',(1.,0.,0.));
#1574=DIRECTION('',(-2.22044604925031E-15,0.,-1.));
#1575=DIRECTION('',(-1.,0.,0.));
#1576=DIRECTION('',(-2.22044604925031E-15,0.,1.));
#1577=DIRECTION('center_axis',(0.,1.,0.));
#1578=DIRECTION('ref_axis',(0.,0.,1.));
#1579=DIRECTION('center_axis',(0.,1.,0.));
#1580=DIRECTION('ref_axis',(0.,0.,1.));
#1581=DIRECTION('center_axis',(0.,1.,0.));
#1582=DIRECTION('ref_axis',(0.,0.,1.));
#1583=DIRECTION('',(0.,0.,-1.));
#1584=DIRECTION('center_axis',(0.,1.,0.));
#1585=DIRECTION('ref_axis',(0.,0.,1.));
#1586=DIRECTION('',(-1.,0.,0.));
#1587=DIRECTION('center_axis',(0.,1.,0.));
#1588=DIRECTION('ref_axis',(0.,0.,1.));
#1589=DIRECTION('',(0.,0.,1.));
#1590=DIRECTION('center_axis',(0.,1.,0.));
#1591=DIRECTION('ref_axis',(0.,0.,1.));
#1592=DIRECTION('',(1.,0.,0.));
#1593=DIRECTION('center_axis',(0.,1.,0.));
#1594=DIRECTION('ref_axis',(0.,0.,1.));
#1595=DIRECTION('',(0.,0.,-1.));
#1596=DIRECTION('center_axis',(0.,1.,0.));
#1597=DIRECTION('ref_axis',(0.,0.,1.));
#1598=DIRECTION('',(-1.,0.,0.));
#1599=DIRECTION('center_axis',(0.,1.,0.));
#1600=DIRECTION('ref_axis',(0.,0.,1.));
#1601=DIRECTION('',(0.,0.,1.));
#1602=DIRECTION('center_axis',(0.,1.,0.));
#1603=DIRECTION('ref_axis',(0.,0.,1.));
#1604=DIRECTION('',(1.,0.,0.));
#1605=DIRECTION('center_axis',(0.,1.,0.));
#1606=DIRECTION('ref_axis',(0.,0.,1.));
#1607=DIRECTION('center_axis',(0.,-1.,0.));
#1608=DIRECTION('ref_axis',(0.,0.,-1.));
#1609=DIRECTION('',(0.,0.,-1.));
#1610=DIRECTION('',(1.,0.,0.));
#1611=DIRECTION('',(-1.5272541457029E-16,0.,-1.));
#1612=DIRECTION('',(1.,0.,0.));
#1613=DIRECTION('center_axis',(0.,1.,0.));
#1614=DIRECTION('ref_axis',(0.,0.,1.));
#1615=DIRECTION('',(-1.,0.,0.));
#1616=DIRECTION('',(0.,0.,1.));
#1617=DIRECTION('',(-1.,0.,0.));
#1618=DIRECTION('center_axis',(0.,1.,0.));
#1619=DIRECTION('ref_axis',(0.,0.,1.));
#1620=DIRECTION('',(0.,0.,-1.));
#1621=DIRECTION('',(1.,0.,0.));
#1622=DIRECTION('center_axis',(0.,1.,0.));
#1623=DIRECTION('ref_axis',(0.,0.,1.));
#1624=DIRECTION('center_axis',(0.,0.,-1.));
#1625=DIRECTION('ref_axis',(-1.,0.,0.));
#1626=DIRECTION('',(-0.248351772715842,-0.968669911264358,0.));
#1627=DIRECTION('',(0.,1.,0.));
#1628=DIRECTION('',(0.,-1.,0.));
#1629=DIRECTION('',(1.,0.,0.));
#1630=DIRECTION('center_axis',(0.,0.,1.));
#1631=DIRECTION('ref_axis',(1.,0.,0.));
#1632=DIRECTION('',(0.,1.,0.));
#1633=DIRECTION('',(-0.248351772715842,-0.968669911264358,0.));
#1634=DIRECTION('',(0.,-1.,0.));
#1635=DIRECTION('center_axis',(0.,1.,0.));
#1636=DIRECTION('ref_axis',(0.,0.,1.));
#1637=DIRECTION('',(1.,0.,0.));
#1638=DIRECTION('',(0.,0.,1.));
#1639=DIRECTION('center_axis',(0.,1.,0.));
#1640=DIRECTION('ref_axis',(0.,0.,1.));
#1641=DIRECTION('',(1.,0.,0.));
#1642=DIRECTION('',(0.,0.,-1.));
#1643=DIRECTION('center_axis',(0.,1.,0.));
#1644=DIRECTION('ref_axis',(0.,0.,1.));
#1645=DIRECTION('center_axis',(0.,0.,-1.));
#1646=DIRECTION('ref_axis',(-1.,0.,0.));
#1647=DIRECTION('',(0.248351772715842,0.968669911264358,0.));
#1648=DIRECTION('',(-1.,0.,0.));
#1649=DIRECTION('',(-0.248351772715842,0.968669911264358,0.));
#1650=DIRECTION('',(-1.,0.,0.));
#1651=DIRECTION('',(0.,1.,0.));
#1652=DIRECTION('',(-1.,0.,0.));
#1653=DIRECTION('',(0.,1.,0.));
#1654=DIRECTION('center_axis',(0.,0.,1.));
#1655=DIRECTION('ref_axis',(1.,0.,0.));
#1656=DIRECTION('',(-0.248351772715842,-0.968669911264358,0.));
#1657=DIRECTION('',(0.,1.,0.));
#1658=DIRECTION('',(1.,0.,0.));
#1659=DIRECTION('',(0.,1.,0.));
#1660=DIRECTION('',(1.,0.,0.));
#1661=DIRECTION('',(0.248351772715842,-0.968669911264358,0.));
#1662=DIRECTION('',(1.,0.,0.));
#1663=DIRECTION('center_axis',(0.,1.,0.));
#1664=DIRECTION('ref_axis',(0.,0.,1.));
#1665=DIRECTION('',(0.,0.,1.));
#1666=DIRECTION('center_axis',(0.,1.,0.));
#1667=DIRECTION('ref_axis',(0.,0.,1.));
#1668=DIRECTION('',(0.,0.,1.));
#1669=DIRECTION('',(1.,0.,0.));
#1670=DIRECTION('',(0.,0.,1.));
#1671=DIRECTION('center_axis',(0.,1.,0.));
#1672=DIRECTION('ref_axis',(0.,0.,1.));
#1673=DIRECTION('center_axis',(1.,0.,1.38777878078145E-16));
#1674=DIRECTION('ref_axis',(1.38777878078145E-16,0.,-1.));
#1675=DIRECTION('',(0.,1.,0.));
#1676=DIRECTION('',(0.,0.968669911264356,-0.248351772715849));
#1677=DIRECTION('',(0.,-1.,0.));
#1678=DIRECTION('center_axis',(0.,1.,0.));
#1679=DIRECTION('ref_axis',(0.,0.,1.));
#1680=DIRECTION('',(0.,0.,1.));
#1681=DIRECTION('center_axis',(0.,1.,0.));
#1682=DIRECTION('ref_axis',(0.,0.,1.));
#1683=DIRECTION('',(0.,0.,1.));
#1684=DIRECTION('',(1.,0.,0.));
#1685=DIRECTION('center_axis',(0.,1.,0.));
#1686=DIRECTION('ref_axis',(0.,0.,1.));
#1687=DIRECTION('center_axis',(-1.,0.,-2.36553201269565E-16));
#1688=DIRECTION('ref_axis',(-2.36553201269565E-16,0.,1.));
#1689=DIRECTION('',(0.,-0.968669911264356,0.248351772715849));
#1690=DIRECTION('',(-1.5272541457029E-16,0.,1.));
#1691=DIRECTION('',(0.,0.968669911264356,0.248351772715849));
#1692=DIRECTION('',(0.,1.,0.));
#1693=DIRECTION('',(-3.1720657846433E-16,0.,1.));
#1694=DIRECTION('',(0.,1.,0.));
#1695=DIRECTION('center_axis',(1.,0.,-2.36553201269565E-16));
#1696=DIRECTION('ref_axis',(-2.36553201269565E-16,0.,-1.));
#1697=DIRECTION('',(0.,0.968669911264356,-0.248351772715849));
#1698=DIRECTION('',(0.,1.,0.));
#1699=DIRECTION('',(-3.1720657846433E-16,0.,-1.));
#1700=DIRECTION('',(0.,1.,0.));
#1701=DIRECTION('',(0.,-0.968669911264356,-0.248351772715849));
#1702=DIRECTION('center_axis',(0.,1.,0.));
#1703=DIRECTION('ref_axis',(0.,0.,1.));
#1704=DIRECTION('center_axis',(0.,1.,0.));
#1705=DIRECTION('ref_axis',(0.,0.,1.));
#1706=DIRECTION('center_axis',(0.,1.,0.));
#1707=DIRECTION('ref_axis',(0.,0.,1.));
#1708=DIRECTION('center_axis',(0.,1.,0.));
#1709=DIRECTION('ref_axis',(0.,0.,1.));
#1710=DIRECTION('center_axis',(0.,1.,0.));
#1711=DIRECTION('ref_axis',(0.,0.,1.));
#1712=DIRECTION('',(0.,0.,1.));
#1713=DIRECTION('center_axis',(0.,1.,0.));
#1714=DIRECTION('ref_axis',(0.,0.,1.));
#1715=DIRECTION('',(-1.,0.,0.));
#1716=DIRECTION('center_axis',(0.,1.,0.));
#1717=DIRECTION('ref_axis',(0.,0.,1.));
#1718=DIRECTION('',(0.,0.,-1.));
#1719=DIRECTION('center_axis',(0.,1.,0.));
#1720=DIRECTION('ref_axis',(0.,0.,1.));
#1721=DIRECTION('',(1.,0.,0.));
#1722=DIRECTION('center_axis',(0.,1.,0.));
#1723=DIRECTION('ref_axis',(0.,0.,1.));
#1724=DIRECTION('',(0.,0.,1.));
#1725=DIRECTION('center_axis',(0.,1.,0.));
#1726=DIRECTION('ref_axis',(0.,0.,1.));
#1727=DIRECTION('',(-1.,0.,0.));
#1728=DIRECTION('center_axis',(0.,1.,0.));
#1729=DIRECTION('ref_axis',(0.,0.,1.));
#1730=DIRECTION('',(0.,0.,-1.));
#1731=DIRECTION('center_axis',(0.,1.,0.));
#1732=DIRECTION('ref_axis',(0.,0.,1.));
#1733=DIRECTION('',(1.,0.,0.));
#1734=DIRECTION('center_axis',(0.,1.,0.));
#1735=DIRECTION('ref_axis',(0.,0.,1.));
#1736=DIRECTION('center_axis',(0.,1.,0.));
#1737=DIRECTION('ref_axis',(0.,0.,1.));
#1738=DIRECTION('center_axis',(0.,1.,0.));
#1739=DIRECTION('ref_axis',(0.,0.,1.));
#1740=DIRECTION('center_axis',(0.,1.,0.));
#1741=DIRECTION('ref_axis',(0.,0.,1.));
#1742=DIRECTION('',(0.,1.,0.));
#1743=DIRECTION('center_axis',(0.,1.,0.));
#1744=DIRECTION('ref_axis',(0.,0.,1.));
#1745=DIRECTION('center_axis',(0.,-1.,0.));
#1746=DIRECTION('ref_axis',(0.,0.,-1.));
#1747=DIRECTION('center_axis',(0.,1.,0.));
#1748=DIRECTION('ref_axis',(0.,0.,1.));
#1749=DIRECTION('center_axis',(0.,1.,0.));
#1750=DIRECTION('ref_axis',(0.,0.,1.));
#1751=DIRECTION('',(0.,1.,0.));
#1752=DIRECTION('center_axis',(0.,1.,0.));
#1753=DIRECTION('ref_axis',(0.,0.,1.));
#1754=DIRECTION('',(0.,1.,0.));
#1755=DIRECTION('center_axis',(0.,1.,0.));
#1756=DIRECTION('ref_axis',(0.,0.,1.));
#1757=DIRECTION('center_axis',(0.,-1.,0.));
#1758=DIRECTION('ref_axis',(0.,0.,-1.));
#1759=DIRECTION('center_axis',(0.,1.,0.));
#1760=DIRECTION('ref_axis',(0.,0.,1.));
#1761=DIRECTION('center_axis',(0.,1.,0.));
#1762=DIRECTION('ref_axis',(0.,0.,1.));
#1763=DIRECTION('',(0.,1.,0.));
#1764=DIRECTION('center_axis',(-1.,0.,0.));
#1765=DIRECTION('ref_axis',(0.,0.,1.));
#1766=DIRECTION('',(0.,1.,0.));
#1767=DIRECTION('',(0.,1.,0.));
#1768=DIRECTION('center_axis',(0.,0.,-1.));
#1769=DIRECTION('ref_axis',(-1.,0.,0.));
#1770=DIRECTION('',(0.,1.,0.));
#1771=DIRECTION('',(0.,1.,0.));
#1772=DIRECTION('center_axis',(1.,0.,0.));
#1773=DIRECTION('ref_axis',(0.,0.,-1.));
#1774=DIRECTION('',(0.,1.,0.));
#1775=DIRECTION('',(0.,1.,0.));
#1776=DIRECTION('center_axis',(0.,0.,1.));
#1777=DIRECTION('ref_axis',(1.,0.,0.));
#1778=DIRECTION('',(0.,1.,0.));
#1779=DIRECTION('',(0.,1.,0.));
#1780=DIRECTION('center_axis',(-1.,0.,0.));
#1781=DIRECTION('ref_axis',(0.,0.,1.));
#1782=DIRECTION('',(0.,1.,0.));
#1783=DIRECTION('',(0.,1.,0.));
#1784=DIRECTION('center_axis',(0.,0.,-1.));
#1785=DIRECTION('ref_axis',(-1.,0.,0.));
#1786=DIRECTION('',(0.,1.,0.));
#1787=DIRECTION('',(0.,1.,0.));
#1788=DIRECTION('center_axis',(1.,0.,0.));
#1789=DIRECTION('ref_axis',(0.,0.,-1.));
#1790=DIRECTION('',(0.,1.,0.));
#1791=DIRECTION('',(0.,1.,0.));
#1792=DIRECTION('center_axis',(0.,0.,1.));
#1793=DIRECTION('ref_axis',(1.,0.,0.));
#1794=DIRECTION('',(0.,1.,0.));
#1795=DIRECTION('',(0.,1.,0.));
#1796=DIRECTION('center_axis',(0.,-1.,0.));
#1797=DIRECTION('ref_axis',(0.,0.,-1.));
#1798=DIRECTION('center_axis',(0.,-1.,0.));
#1799=DIRECTION('ref_axis',(0.,0.,-1.));
#1800=DIRECTION('center_axis',(0.,-1.,0.));
#1801=DIRECTION('ref_axis',(0.,0.,-1.));
#1802=DIRECTION('center_axis',(0.,-1.,0.));
#1803=DIRECTION('ref_axis',(0.,0.,-1.));
#1804=DIRECTION('center_axis',(0.,-1.,0.));
#1805=DIRECTION('ref_axis',(0.,0.,-1.));
#1806=DIRECTION('center_axis',(0.,-1.,0.));
#1807=DIRECTION('ref_axis',(0.,0.,-1.));
#1808=DIRECTION('center_axis',(0.,-1.,0.));
#1809=DIRECTION('ref_axis',(0.,0.,-1.));
#1810=DIRECTION('center_axis',(0.,-1.,0.));
#1811=DIRECTION('ref_axis',(0.,0.,-1.));
#1812=DIRECTION('center_axis',(0.,-1.,0.));
#1813=DIRECTION('ref_axis',(0.,0.,-1.));
#1814=DIRECTION('center_axis',(0.,-1.,0.));
#1815=DIRECTION('ref_axis',(0.,0.,-1.));
#1816=DIRECTION('center_axis',(0.,-1.,0.));
#1817=DIRECTION('ref_axis',(0.,0.,-1.));
#1818=DIRECTION('center_axis',(0.,-1.,0.));
#1819=DIRECTION('ref_axis',(0.,0.,-1.));
#1820=DIRECTION('center_axis',(0.,-1.,0.));
#1821=DIRECTION('ref_axis',(0.,0.,-1.));
#1822=DIRECTION('center_axis',(0.,-1.,0.));
#1823=DIRECTION('ref_axis',(0.,0.,-1.));
#1824=DIRECTION('center_axis',(0.,-1.,0.));
#1825=DIRECTION('ref_axis',(0.,0.,-1.));
#1826=DIRECTION('center_axis',(0.,-1.,0.));
#1827=DIRECTION('ref_axis',(0.,0.,-1.));
#1828=DIRECTION('center_axis',(1.34429954843412E-16,-0.248351772715849,
0.968669911264356));
#1829=DIRECTION('ref_axis',(1.,0.,-1.38777878078145E-16));
#1830=DIRECTION('',(-1.,0.,6.66133814775093E-15));
#1831=DIRECTION('center_axis',(-1.34429954843412E-16,-0.248351772715849,
-0.968669911264356));
#1832=DIRECTION('ref_axis',(-1.,0.,1.38777878078145E-16));
#1833=DIRECTION('',(1.,0.,0.));
#1834=DIRECTION('center_axis',(-1.34429954843412E-16,-0.248351772715849,
-0.968669911264356));
#1835=DIRECTION('ref_axis',(-1.,0.,1.38777878078145E-16));
#1836=DIRECTION('',(1.,0.,0.));
#1837=DIRECTION('',(1.,0.,0.));
#1838=DIRECTION('center_axis',(0.,-1.,0.));
#1839=DIRECTION('ref_axis',(0.,0.,-1.));
#1840=DIRECTION('',(0.,0.,-1.));
#1841=DIRECTION('',(1.,0.,0.));
#1842=DIRECTION('center_axis',(1.34429954843412E-16,-0.248351772715849,
0.968669911264356));
#1843=DIRECTION('ref_axis',(1.,0.,-1.38777878078145E-16));
#1844=DIRECTION('',(1.,0.,0.));
#1845=DIRECTION('center_axis',(-0.968669911264358,-0.248351772715842,0.));
#1846=DIRECTION('ref_axis',(0.,0.,1.));
#1847=DIRECTION('',(-2.22044604925031E-15,0.,1.));
#1848=DIRECTION('',(0.,0.,1.));
#1849=DIRECTION('center_axis',(0.,-1.,0.));
#1850=DIRECTION('ref_axis',(0.,0.,-1.));
#1851=DIRECTION('',(-1.,0.,0.));
#1852=DIRECTION('',(0.,0.,1.));
#1853=DIRECTION('center_axis',(-0.968669911264358,0.248351772715842,0.));
#1854=DIRECTION('ref_axis',(0.,0.,1.));
#1855=DIRECTION('',(-2.22044604925031E-15,0.,-1.));
#1856=DIRECTION('center_axis',(-0.968669911264358,0.248351772715842,0.));
#1857=DIRECTION('ref_axis',(0.,0.,1.));
#1858=DIRECTION('',(0.,0.,1.));
#1859=DIRECTION('',(0.,0.,1.));
#1860=DIRECTION('center_axis',(0.,-1.,0.));
#1861=DIRECTION('ref_axis',(0.,0.,-1.));
#1862=DIRECTION('',(1.,0.,0.));
#1863=DIRECTION('',(0.,0.,1.));
#1864=DIRECTION('center_axis',(-0.968669911264358,-0.248351772715842,0.));
#1865=DIRECTION('ref_axis',(0.,0.,1.));
#1866=DIRECTION('',(0.,0.,1.));
#1867=DIRECTION('center_axis',(-6.93889390390722E-15,0.,-1.));
#1868=DIRECTION('ref_axis',(-1.,0.,6.93889390390722E-15));
#1869=DIRECTION('',(0.,1.,0.));
#1870=DIRECTION('center_axis',(1.,0.,0.));
#1871=DIRECTION('ref_axis',(0.,0.,-1.));
#1872=DIRECTION('',(0.,1.,0.));
#1873=DIRECTION('center_axis',(0.,0.,1.));
#1874=DIRECTION('ref_axis',(1.,0.,0.));
#1875=DIRECTION('center_axis',(-1.,0.,-1.73472347597681E-15));
#1876=DIRECTION('ref_axis',(-1.73472347597681E-15,0.,1.));
#1877=DIRECTION('',(0.,1.,0.));
#1878=DIRECTION('center_axis',(0.,0.,-1.));
#1879=DIRECTION('ref_axis',(-1.,0.,0.));
#1880=DIRECTION('',(0.,1.,0.));
#1881=DIRECTION('center_axis',(1.,0.,-1.73472347597681E-15));
#1882=DIRECTION('ref_axis',(-1.73472347597681E-15,0.,-1.));
#1883=DIRECTION('center_axis',(1.,0.,0.));
#1884=DIRECTION('ref_axis',(0.,0.,-1.));
#1885=DIRECTION('',(0.,1.,0.));
#1886=DIRECTION('center_axis',(0.,0.,1.));
#1887=DIRECTION('ref_axis',(1.,0.,0.));
#1888=DIRECTION('',(0.,1.,0.));
#1889=DIRECTION('center_axis',(-1.,0.,1.73472347597681E-15));
#1890=DIRECTION('ref_axis',(1.73472347597681E-15,0.,1.));
#1891=DIRECTION('center_axis',(0.,0.,-1.));
#1892=DIRECTION('ref_axis',(-1.,0.,0.));
#1893=DIRECTION('',(0.,1.,0.));
#1894=DIRECTION('center_axis',(1.,0.,0.));
#1895=DIRECTION('ref_axis',(0.,0.,-1.));
#1896=DIRECTION('',(0.,1.,0.));
#1897=DIRECTION('center_axis',(0.,0.,1.));
#1898=DIRECTION('ref_axis',(1.,0.,0.));
#1899=CARTESIAN_POINT('',(0.,0.,0.));
#1900=CARTESIAN_POINT('Origin',(-25.,19.,-25.));
#1901=CARTESIAN_POINT('',(-25.,19.,18.));
#1902=CARTESIAN_POINT('',(-25.,5.5,14.5388117327937));
#1903=CARTESIAN_POINT('',(-25.,19.,18.));
#1904=CARTESIAN_POINT('',(-25.,0.,14.5388117327937));
#1905=CARTESIAN_POINT('',(-25.,0.,14.5388117327937));
#1906=CARTESIAN_POINT('',(-25.,0.,24.));
#1907=CARTESIAN_POINT('',(-25.,0.,14.5388117327937));
#1908=CARTESIAN_POINT('',(-25.,19.,24.));
#1909=CARTESIAN_POINT('',(-25.,19.,24.));
#1910=CARTESIAN_POINT('',(-25.,19.,18.));
#1911=CARTESIAN_POINT('Origin',(-25.,19.,-25.));
#1912=CARTESIAN_POINT('',(-18.,19.,-25.));
#1913=CARTESIAN_POINT('',(-14.4954802303171,5.33099004206807,-25.));
#1914=CARTESIAN_POINT('',(-18.,19.,-25.));
#1915=CARTESIAN_POINT('',(-14.4954802303171,0.,-25.));
#1916=CARTESIAN_POINT('',(-14.4954802303171,0.,-25.));
#1917=CARTESIAN_POINT('',(-24.,0.,-25.));
#1918=CARTESIAN_POINT('',(-14.4954802303171,0.,-25.));
#1919=CARTESIAN_POINT('',(-24.,19.,-25.));
#1920=CARTESIAN_POINT('',(-24.,19.,-25.));
#1921=CARTESIAN_POINT('',(-18.,19.,-25.));
#1922=CARTESIAN_POINT('Origin',(-25.,19.,25.));
#1923=CARTESIAN_POINT('',(-24.,0.,25.));
#1924=CARTESIAN_POINT('',(-14.4954802303171,0.,25.));
#1925=CARTESIAN_POINT('',(-24.,0.,25.));
#1926=CARTESIAN_POINT('',(-14.4954802303171,5.33099004206807,25.));
#1927=CARTESIAN_POINT('',(-14.4954802303171,0.,25.));
#1928=CARTESIAN_POINT('',(-18.,19.,25.));
#1929=CARTESIAN_POINT('',(-18.,19.,25.));
#1930=CARTESIAN_POINT('',(-24.,19.,25.));
#1931=CARTESIAN_POINT('',(-24.,19.,25.));
#1932=CARTESIAN_POINT('',(-24.,19.,25.));
#1933=CARTESIAN_POINT('Origin',(25.,19.,-25.));
#1934=CARTESIAN_POINT('',(25.,0.,14.5388117327937));
#1935=CARTESIAN_POINT('',(25.,5.5,14.5388117327937));
#1936=CARTESIAN_POINT('',(25.,0.,14.5388117327937));
#1937=CARTESIAN_POINT('',(25.,19.,18.));
#1938=CARTESIAN_POINT('',(25.,19.,18.));
#1939=CARTESIAN_POINT('',(25.,19.,24.));
#1940=CARTESIAN_POINT('',(25.,19.,24.));
#1941=CARTESIAN_POINT('',(25.,0.,24.));
#1942=CARTESIAN_POINT('',(25.,19.,24.));
#1943=CARTESIAN_POINT('',(25.,0.,24.));
#1944=CARTESIAN_POINT('Origin',(25.,19.,-25.));
#1945=CARTESIAN_POINT('',(25.,0.,-14.5388117327937));
#1946=CARTESIAN_POINT('',(25.,5.5,-14.5388117327937));
#1947=CARTESIAN_POINT('',(25.,0.,-14.5388117327937));
#1948=CARTESIAN_POINT('',(25.,0.,-24.));
#1949=CARTESIAN_POINT('',(25.,0.,-14.5388117327937));
#1950=CARTESIAN_POINT('',(25.,19.,-24.));
#1951=CARTESIAN_POINT('',(25.,19.,-24.));
#1952=CARTESIAN_POINT('',(25.,19.,-18.));
#1953=CARTESIAN_POINT('',(25.,19.,-18.));
#1954=CARTESIAN_POINT('',(25.,5.5,-14.5388117327937));
#1955=CARTESIAN_POINT('Origin',(0.,0.,0.));
#1956=CARTESIAN_POINT('',(-24.,0.,14.5388117327937));
#1957=CARTESIAN_POINT('',(-25.,0.,14.5388117327937));
#1958=CARTESIAN_POINT('',(-24.,0.,-14.5388117327937));
#1959=CARTESIAN_POINT('',(-24.,0.,14.5388117327937));
#1960=CARTESIAN_POINT('',(-25.,0.,-14.5388117327937));
#1961=CARTESIAN_POINT('',(-24.,0.,-14.5388117327937));
#1962=CARTESIAN_POINT('',(-25.,0.,-24.));
#1963=CARTESIAN_POINT('',(-25.,0.,-24.));
#1964=CARTESIAN_POINT('Origin',(-24.,0.,-24.));
#1965=CARTESIAN_POINT('',(-14.4954802303171,0.,-24.));
#1966=CARTESIAN_POINT('',(-14.4954802303171,0.,-25.));
#1967=CARTESIAN_POINT('',(14.4954802303171,0.,-24.));
#1968=CARTESIAN_POINT('',(-14.4954802303171,0.,-24.));
#1969=CARTESIAN_POINT('',(14.4954802303171,0.,-25.));
#1970=CARTESIAN_POINT('',(14.4954802303171,0.,-24.));
#1971=CARTESIAN_POINT('',(24.,0.,-25.));
#1972=CARTESIAN_POINT('',(24.,0.,-25.));
#1973=CARTESIAN_POINT('Origin',(24.,0.,-24.));
#1974=CARTESIAN_POINT('',(24.,0.,-14.5388117327937));
#1975=CARTESIAN_POINT('',(24.,0.,-14.5388117327937));
#1976=CARTESIAN_POINT('',(24.,0.,14.5388117327937));
#1977=CARTESIAN_POINT('',(24.,0.,14.5388117327937));
#1978=CARTESIAN_POINT('',(25.,0.,14.5388117327937));
#1979=CARTESIAN_POINT('',(24.,0.,25.));
#1980=CARTESIAN_POINT('Origin',(24.,0.,24.));
#1981=CARTESIAN_POINT('',(14.4954802303171,0.,25.));
#1982=CARTESIAN_POINT('',(14.4954802303171,0.,25.));
#1983=CARTESIAN_POINT('',(14.4954802303171,0.,24.));
#1984=CARTESIAN_POINT('',(14.4954802303171,0.,25.));
#1985=CARTESIAN_POINT('',(-14.4954802303171,0.,24.));
#1986=CARTESIAN_POINT('',(14.4954802303171,0.,24.));
#1987=CARTESIAN_POINT('',(-14.4954802303171,0.,24.));
#1988=CARTESIAN_POINT('Origin',(-24.,0.,24.));
#1989=CARTESIAN_POINT('',(12.5,1.11022302462516E-15,-3.));
#1990=CARTESIAN_POINT('Origin',(12.5,8.67361737988404E-16,0.));
#1991=CARTESIAN_POINT('',(-12.5,1.11022302462516E-15,-3.));
#1992=CARTESIAN_POINT('Origin',(-12.5,8.67361737988404E-16,0.));
#1993=CARTESIAN_POINT('',(19.,0.,18.));
#1994=CARTESIAN_POINT('',(19.,0.,8.));
#1995=CARTESIAN_POINT('',(19.,0.,18.));
#1996=CARTESIAN_POINT('',(18.,0.,7.));
#1997=CARTESIAN_POINT('Origin',(18.,0.,8.));
#1998=CARTESIAN_POINT('',(-18.,0.,7.));
#1999=CARTESIAN_POINT('',(18.,0.,7.));
#2000=CARTESIAN_POINT('',(-19.,0.,8.));
#2001=CARTESIAN_POINT('Origin',(-18.,0.,8.));
#2002=CARTESIAN_POINT('',(-19.,0.,18.));
#2003=CARTESIAN_POINT('',(-19.,0.,8.));
#2004=CARTESIAN_POINT('',(-18.,0.,19.));
#2005=CARTESIAN_POINT('Origin',(-18.,0.,18.));
#2006=CARTESIAN_POINT('',(18.,0.,19.));
#2007=CARTESIAN_POINT('',(-18.,0.,19.));
#2008=CARTESIAN_POINT('Origin',(18.,0.,18.));
#2009=CARTESIAN_POINT('',(19.,0.,-8.));
#2010=CARTESIAN_POINT('',(19.,0.,-18.));
#2011=CARTESIAN_POINT('',(19.,0.,-8.));
#2012=CARTESIAN_POINT('',(18.,0.,-19.));
#2013=CARTESIAN_POINT('Origin',(18.,0.,-18.));
#2014=CARTESIAN_POINT('',(-18.,0.,-19.));
#2015=CARTESIAN_POINT('',(18.,0.,-19.));
#2016=CARTESIAN_POINT('',(-19.,0.,-18.));
#2017=CARTESIAN_POINT('Origin',(-18.,0.,-18.));
#2018=CARTESIAN_POINT('',(-19.,0.,-8.));
#2019=CARTESIAN_POINT('',(-19.,0.,-18.));
#2020=CARTESIAN_POINT('',(-18.,0.,-7.));
#2021=CARTESIAN_POINT('Origin',(-18.,0.,-8.));
#2022=CARTESIAN_POINT('',(18.,0.,-7.));
#2023=CARTESIAN_POINT('',(-18.,0.,-7.));
#2024=CARTESIAN_POINT('Origin',(18.,0.,-8.));
#2025=CARTESIAN_POINT('Origin',(-25.,5.5,-14.5388117327937));
#2026=CARTESIAN_POINT('',(24.,5.5,14.5388117327937));
#2027=CARTESIAN_POINT('',(24.,5.5,-14.5388117327937));
#2028=CARTESIAN_POINT('',(24.,5.5,14.5388117327937));
#2029=CARTESIAN_POINT('',(22.,5.5,-14.5388117327937));
#2030=CARTESIAN_POINT('',(22.,5.5,-14.5388117327937));
#2031=CARTESIAN_POINT('',(22.,5.5,14.5388117327937));
#2032=CARTESIAN_POINT('',(22.,5.5,14.5388117327937));
#2033=CARTESIAN_POINT('',(22.,5.5,14.5388117327937));
#2034=CARTESIAN_POINT('Origin',(0.,19.,0.));
#2035=CARTESIAN_POINT('',(24.,19.,-25.));
#2036=CARTESIAN_POINT('',(18.,19.,-25.));
#2037=CARTESIAN_POINT('',(24.,19.,-25.));
#2038=CARTESIAN_POINT('',(18.,19.,-22.));
#2039=CARTESIAN_POINT('',(18.,19.,-25.));
#2040=CARTESIAN_POINT('',(21.,19.,-22.));
#2041=CARTESIAN_POINT('',(21.,19.,-22.));
#2042=CARTESIAN_POINT('',(22.,19.,-21.));
#2043=CARTESIAN_POINT('Origin',(21.,19.,-21.));
#2044=CARTESIAN_POINT('',(22.,19.,-18.));
#2045=CARTESIAN_POINT('',(22.,19.,-18.));
#2046=CARTESIAN_POINT('',(22.,19.,-18.));
#2047=CARTESIAN_POINT('Origin',(24.,19.,-24.));
#2048=CARTESIAN_POINT('Origin',(-25.,19.,25.));
#2049=CARTESIAN_POINT('',(18.,19.,25.));
#2050=CARTESIAN_POINT('',(14.4954802303171,5.33099004206807,25.));
#2051=CARTESIAN_POINT('',(18.,19.,25.));
#2052=CARTESIAN_POINT('',(14.4954802303171,0.,25.));
#2053=CARTESIAN_POINT('',(24.,19.,25.));
#2054=CARTESIAN_POINT('',(24.,19.,25.));
#2055=CARTESIAN_POINT('',(18.,19.,25.));
#2056=CARTESIAN_POINT('Origin',(-25.,19.,-25.));
#2057=CARTESIAN_POINT('',(14.4954802303171,5.33099004206807,-25.));
#2058=CARTESIAN_POINT('',(14.4954802303171,0.,-25.));
#2059=CARTESIAN_POINT('',(18.,19.,-25.));
#2060=CARTESIAN_POINT('',(24.,19.,-25.));
#2061=CARTESIAN_POINT('Origin',(0.,19.,0.));
#2062=CARTESIAN_POINT('',(18.,19.,22.));
#2063=CARTESIAN_POINT('',(21.,19.,22.));
#2064=CARTESIAN_POINT('',(18.,19.,22.));
#2065=CARTESIAN_POINT('',(18.,19.,22.));
#2066=CARTESIAN_POINT('Origin',(24.,19.,24.));
#2067=CARTESIAN_POINT('',(22.,19.,18.));
#2068=CARTESIAN_POINT('',(22.,19.,18.));
#2069=CARTESIAN_POINT('',(22.,19.,21.));
#2070=CARTESIAN_POINT('',(22.,19.,21.));
#2071=CARTESIAN_POINT('Origin',(21.,19.,21.));
#2072=CARTESIAN_POINT('Origin',(-22.,3.,-22.));
#2073=CARTESIAN_POINT('',(14.4954802303171,5.33099004206807,-22.));
#2074=CARTESIAN_POINT('',(14.4954802303171,5.33099004206807,-22.));
#2075=CARTESIAN_POINT('',(-14.4954802303171,5.33099004206807,-22.));
#2076=CARTESIAN_POINT('',(14.4954802303171,5.33099004206807,-22.));
#2077=CARTESIAN_POINT('',(-18.,19.,-22.));
#2078=CARTESIAN_POINT('',(-14.4954802303171,5.33099004206807,-22.));
#2079=CARTESIAN_POINT('',(-21.,19.,-22.));
#2080=CARTESIAN_POINT('',(-18.,19.,-22.));
#2081=CARTESIAN_POINT('',(-21.,3.,-22.));
#2082=CARTESIAN_POINT('',(-21.,3.,-22.));
#2083=CARTESIAN_POINT('',(21.,3.,-22.));
#2084=CARTESIAN_POINT('',(21.,3.,-22.));
#2085=CARTESIAN_POINT('',(21.,3.,-22.));
#2086=CARTESIAN_POINT('Origin',(-22.,3.,22.));
#2087=CARTESIAN_POINT('',(14.4954802303171,5.33099004206807,22.));
#2088=CARTESIAN_POINT('',(18.,19.,22.));
#2089=CARTESIAN_POINT('',(21.,3.,22.));
#2090=CARTESIAN_POINT('',(21.,3.,22.));
#2091=CARTESIAN_POINT('',(-21.,3.,22.));
#2092=CARTESIAN_POINT('',(-21.,3.,22.));
#2093=CARTESIAN_POINT('',(-21.,19.,22.));
#2094=CARTESIAN_POINT('',(-21.,3.,22.));
#2095=CARTESIAN_POINT('',(-18.,19.,22.));
#2096=CARTESIAN_POINT('',(-21.,19.,22.));
#2097=CARTESIAN_POINT('',(-14.4954802303171,5.33099004206807,22.));
#2098=CARTESIAN_POINT('',(-18.,19.,22.));
#2099=CARTESIAN_POINT('',(-14.4954802303171,5.33099004206807,22.));
#2100=CARTESIAN_POINT('Origin',(0.,19.,0.));
#2101=CARTESIAN_POINT('',(-18.,19.,-25.));
#2102=CARTESIAN_POINT('',(-25.,19.,-24.));
#2103=CARTESIAN_POINT('Origin',(-24.,19.,-24.));
#2104=CARTESIAN_POINT('',(-25.,19.,-18.));
#2105=CARTESIAN_POINT('',(-25.,19.,-24.));
#2106=CARTESIAN_POINT('',(-22.,19.,-18.));
#2107=CARTESIAN_POINT('',(-25.,19.,-18.));
#2108=CARTESIAN_POINT('',(-22.,19.,-21.));
#2109=CARTESIAN_POINT('',(-22.,19.,-21.));
#2110=CARTESIAN_POINT('Origin',(-21.,19.,-21.));
#2111=CARTESIAN_POINT('Origin',(-25.,19.,-25.));
#2112=CARTESIAN_POINT('',(-25.,5.5,-14.5388117327937));
#2113=CARTESIAN_POINT('',(-25.,0.,-14.5388117327937));
#2114=CARTESIAN_POINT('',(-25.,5.5,-14.5388117327937));
#2115=CARTESIAN_POINT('',(-25.,19.,-24.));
#2116=CARTESIAN_POINT('Origin',(0.,19.,0.));
#2117=CARTESIAN_POINT('',(-18.,19.,22.));
#2118=CARTESIAN_POINT('',(-22.,19.,21.));
#2119=CARTESIAN_POINT('Origin',(-21.,19.,21.));
#2120=CARTESIAN_POINT('',(-22.,19.,18.));
#2121=CARTESIAN_POINT('',(-22.,19.,18.));
#2122=CARTESIAN_POINT('',(-25.,19.,18.));
#2123=CARTESIAN_POINT('Origin',(-24.,19.,24.));
#2124=CARTESIAN_POINT('Origin',(-22.,3.,-22.));
#2125=CARTESIAN_POINT('',(-22.,5.5,-14.5388117327937));
#2126=CARTESIAN_POINT('',(-22.,19.,-18.));
#2127=CARTESIAN_POINT('',(-22.,5.5,14.5388117327937));
#2128=CARTESIAN_POINT('',(-22.,5.5,-14.5388117327937));
#2129=CARTESIAN_POINT('',(-22.,5.5,14.5388117327937));
#2130=CARTESIAN_POINT('',(-22.,3.,21.));
#2131=CARTESIAN_POINT('',(-22.,3.,21.));
#2132=CARTESIAN_POINT('',(-22.,3.,-21.));
#2133=CARTESIAN_POINT('',(-22.,3.,-21.));
#2134=CARTESIAN_POINT('',(-22.,3.,-21.));
#2135=CARTESIAN_POINT('Origin',(22.,3.,-22.));
#2136=CARTESIAN_POINT('',(22.,5.5,-14.5388117327937));
#2137=CARTESIAN_POINT('',(22.,3.,-21.));
#2138=CARTESIAN_POINT('',(22.,3.,-21.));
#2139=CARTESIAN_POINT('',(22.,3.,21.));
#2140=CARTESIAN_POINT('',(22.,3.,21.));
#2141=CARTESIAN_POINT('',(22.,3.,21.));
#2142=CARTESIAN_POINT('',(22.,19.,18.));
#2143=CARTESIAN_POINT('Origin',(0.,3.,0.));
#2144=CARTESIAN_POINT('Origin',(-21.,3.,21.));
#2145=CARTESIAN_POINT('Origin',(21.,3.,21.));
#2146=CARTESIAN_POINT('Origin',(21.,3.,-21.));
#2147=CARTESIAN_POINT('Origin',(-21.,3.,-21.));
#2148=CARTESIAN_POINT('',(-19.,3.,-18.));
#2149=CARTESIAN_POINT('',(-19.,3.,-8.));
#2150=CARTESIAN_POINT('',(-19.,3.,-18.));
#2151=CARTESIAN_POINT('',(-18.,3.,-19.));
#2152=CARTESIAN_POINT('Origin',(-18.,3.,-18.));
#2153=CARTESIAN_POINT('',(18.,3.,-19.));
#2154=CARTESIAN_POINT('',(18.,3.,-19.));
#2155=CARTESIAN_POINT('',(19.,3.,-18.));
#2156=CARTESIAN_POINT('Origin',(18.,3.,-18.));
#2157=CARTESIAN_POINT('',(19.,3.,-8.));
#2158=CARTESIAN_POINT('',(19.,3.,-8.));
#2159=CARTESIAN_POINT('',(18.,3.,-7.));
#2160=CARTESIAN_POINT('Origin',(18.,3.,-8.));
#2161=CARTESIAN_POINT('',(-18.,3.,-7.));
#2162=CARTESIAN_POINT('',(-18.,3.,-7.));
#2163=CARTESIAN_POINT('Origin',(-18.,3.,-8.));
#2164=CARTESIAN_POINT('',(-19.,3.,8.));
#2165=CARTESIAN_POINT('',(-19.,3.,18.));
#2166=CARTESIAN_POINT('',(-19.,3.,8.));
#2167=CARTESIAN_POINT('',(-18.,3.,7.));
#2168=CARTESIAN_POINT('Origin',(-18.,3.,8.));
#2169=CARTESIAN_POINT('',(18.,3.,7.));
#2170=CARTESIAN_POINT('',(18.,3.,7.));
#2171=CARTESIAN_POINT('',(19.,3.,8.));
#2172=CARTESIAN_POINT('Origin',(18.,3.,8.));
#2173=CARTESIAN_POINT('',(19.,3.,18.));
#2174=CARTESIAN_POINT('',(19.,3.,18.));
#2175=CARTESIAN_POINT('',(18.,3.,19.));
#2176=CARTESIAN_POINT('Origin',(18.,3.,18.));
#2177=CARTESIAN_POINT('',(-18.,3.,19.));
#2178=CARTESIAN_POINT('',(-18.,3.,19.));
#2179=CARTESIAN_POINT('Origin',(-18.,3.,18.));
#2180=CARTESIAN_POINT('',(-12.5,3.,-5.5));
#2181=CARTESIAN_POINT('Origin',(-12.5,3.,0.));
#2182=CARTESIAN_POINT('',(12.5,3.,-5.5));
#2183=CARTESIAN_POINT('Origin',(12.5,3.,0.));
#2184=CARTESIAN_POINT('Origin',(12.5,3.,0.));
#2185=CARTESIAN_POINT('',(12.5,2.,-3.));
#2186=CARTESIAN_POINT('',(12.5,3.,-3.));
#2187=CARTESIAN_POINT('Origin',(12.5,2.,0.));
#2188=CARTESIAN_POINT('Origin',(15.5,2.,0.));
#2189=CARTESIAN_POINT('',(12.5,2.,-5.5));
#2190=CARTESIAN_POINT('Origin',(12.5,2.,0.));
#2191=CARTESIAN_POINT('Origin',(12.5,3.,0.));
#2192=CARTESIAN_POINT('',(12.5,3.,-5.5));
#2193=CARTESIAN_POINT('Origin',(-12.5,3.,0.));
#2194=CARTESIAN_POINT('',(-12.5,2.,-3.));
#2195=CARTESIAN_POINT('',(-12.5,3.,-3.));
#2196=CARTESIAN_POINT('Origin',(-12.5,2.,0.));
#2197=CARTESIAN_POINT('Origin',(-9.5,2.,0.));
#2198=CARTESIAN_POINT('',(-12.5,2.,-5.5));
#2199=CARTESIAN_POINT('Origin',(-12.5,2.,0.));
#2200=CARTESIAN_POINT('Origin',(-12.5,3.,0.));
#2201=CARTESIAN_POINT('',(-12.5,3.,-5.5));
#2202=CARTESIAN_POINT('Origin',(-19.,-13.,19.));
#2203=CARTESIAN_POINT('',(-19.,0.,8.));
#2204=CARTESIAN_POINT('',(-19.,0.,18.));
#2205=CARTESIAN_POINT('Origin',(-19.,-13.,7.));
#2206=CARTESIAN_POINT('',(18.,0.,7.));
#2207=CARTESIAN_POINT('',(-18.,0.,7.));
#2208=CARTESIAN_POINT('Origin',(19.,-13.,19.));
#2209=CARTESIAN_POINT('',(19.,0.,8.));
#2210=CARTESIAN_POINT('',(19.,0.,18.));
#2211=CARTESIAN_POINT('Origin',(-19.,-13.,19.));
#2212=CARTESIAN_POINT('',(18.,0.,19.));
#2213=CARTESIAN_POINT('',(-18.,0.,19.));
#2214=CARTESIAN_POINT('Origin',(-19.,-13.,-19.));
#2215=CARTESIAN_POINT('',(-19.,0.,-18.));
#2216=CARTESIAN_POINT('',(-19.,0.,-8.));
#2217=CARTESIAN_POINT('Origin',(-19.,-13.,-19.));
#2218=CARTESIAN_POINT('',(18.,0.,-19.));
#2219=CARTESIAN_POINT('',(-18.,0.,-19.));
#2220=CARTESIAN_POINT('Origin',(19.,-13.,-19.));
#2221=CARTESIAN_POINT('',(19.,0.,-8.));
#2222=CARTESIAN_POINT('',(19.,0.,-18.));
#2223=CARTESIAN_POINT('Origin',(-19.,-13.,-7.));
#2224=CARTESIAN_POINT('',(18.,0.,-7.));
#2225=CARTESIAN_POINT('',(-18.,0.,-7.));
#2226=CARTESIAN_POINT('Origin',(-21.,3.,21.));
#2227=CARTESIAN_POINT('Origin',(18.,-13.,8.));
#2228=CARTESIAN_POINT('Origin',(21.,3.,21.));
#2229=CARTESIAN_POINT('Origin',(18.,-13.,18.));
#2230=CARTESIAN_POINT('Origin',(18.,-13.,-8.));
#2231=CARTESIAN_POINT('Origin',(18.,-13.,-18.));
#2232=CARTESIAN_POINT('Origin',(21.,3.,-21.));
#2233=CARTESIAN_POINT('Origin',(-21.,3.,-21.));
#2234=CARTESIAN_POINT('Origin',(-18.,-13.,-18.));
#2235=CARTESIAN_POINT('Origin',(-18.,-13.,8.));
#2236=CARTESIAN_POINT('Origin',(-18.,-13.,18.));
#2237=CARTESIAN_POINT('Origin',(-18.,-13.,-8.));
#2238=CARTESIAN_POINT('Origin',(-24.,19.,-24.));
#2239=CARTESIAN_POINT('Origin',(24.,19.,-24.));
#2240=CARTESIAN_POINT('Origin',(24.,19.,24.));
#2241=CARTESIAN_POINT('Origin',(-24.,19.,24.));
#2242=CARTESIAN_POINT('Origin',(-25.,19.,18.));
#2243=CARTESIAN_POINT('',(25.,5.5,14.5388117327937));
#2244=CARTESIAN_POINT('Origin',(-25.,5.5,-14.5388117327937));
#2245=CARTESIAN_POINT('',(24.,5.5,-14.5388117327937));
#2246=CARTESIAN_POINT('Origin',(-25.,5.5,-14.5388117327937));
#2247=CARTESIAN_POINT('',(-24.,5.5,-14.5388117327937));
#2248=CARTESIAN_POINT('',(-25.,5.5,-14.5388117327937));
#2249=CARTESIAN_POINT('',(-24.,5.5,-14.5388117327937));
#2250=CARTESIAN_POINT('Origin',(-25.,5.5,-14.5388117327937));
#2251=CARTESIAN_POINT('',(-24.,5.5,14.5388117327937));
#2252=CARTESIAN_POINT('',(-24.,5.5,14.5388117327937));
#2253=CARTESIAN_POINT('',(-24.,5.5,14.5388117327937));
#2254=CARTESIAN_POINT('Origin',(-25.,19.,18.));
#2255=CARTESIAN_POINT('',(-25.,5.5,14.5388117327937));
#2256=CARTESIAN_POINT('Origin',(-18.,19.,-25.));
#2257=CARTESIAN_POINT('',(-14.4954802303171,5.33099004206807,24.));
#2258=CARTESIAN_POINT('',(-14.4954802303171,5.33099004206807,24.));
#2259=CARTESIAN_POINT('',(-14.4954802303171,5.33099004206807,22.));
#2260=CARTESIAN_POINT('Origin',(-14.4954802303171,5.33099004206807,-25.));
#2261=CARTESIAN_POINT('',(14.4954802303171,5.33099004206807,24.));
#2262=CARTESIAN_POINT('',(14.4954802303171,5.33099004206807,24.));
#2263=CARTESIAN_POINT('',(14.4954802303171,5.33099004206807,22.));
#2264=CARTESIAN_POINT('Origin',(18.,19.,-25.));
#2265=CARTESIAN_POINT('',(14.4954802303171,5.33099004206807,25.));
#2266=CARTESIAN_POINT('Origin',(18.,19.,-25.));
#2267=CARTESIAN_POINT('',(14.4954802303171,5.33099004206807,-24.));
#2268=CARTESIAN_POINT('',(14.4954802303171,5.33099004206807,-25.));
#2269=CARTESIAN_POINT('',(14.4954802303171,5.33099004206807,-24.));
#2270=CARTESIAN_POINT('Origin',(-14.4954802303171,5.33099004206807,-25.));
#2271=CARTESIAN_POINT('',(-14.4954802303171,5.33099004206807,-24.));
#2272=CARTESIAN_POINT('',(-14.4954802303171,5.33099004206807,-24.));
#2273=CARTESIAN_POINT('',(-14.4954802303171,5.33099004206807,-24.));
#2274=CARTESIAN_POINT('Origin',(-18.,19.,-25.));
#2275=CARTESIAN_POINT('',(-14.4954802303171,5.33099004206807,-25.));
#2276=CARTESIAN_POINT('Origin',(25.,-4.5,14.5388117327937));
#2277=CARTESIAN_POINT('',(24.,0.,14.5388117327937));
#2278=CARTESIAN_POINT('Origin',(24.,-4.5,14.5388117327937));
#2279=CARTESIAN_POINT('',(24.,0.,-14.5388117327937));
#2280=CARTESIAN_POINT('Origin',(24.,-4.5,-14.5388117327937));
#2281=CARTESIAN_POINT('Origin',(-14.4954802303171,-4.66900995793193,25.));
#2282=CARTESIAN_POINT('',(-14.4954802303171,0.,24.));
#2283=CARTESIAN_POINT('Origin',(-14.4954802303171,-4.66900995793193,24.));
#2284=CARTESIAN_POINT('',(14.4954802303171,0.,24.));
#2285=CARTESIAN_POINT('Origin',(14.4954802303171,-4.66900995793193,24.));
#2286=CARTESIAN_POINT('Origin',(14.4954802303171,-4.66900995793193,-25.));
#2287=CARTESIAN_POINT('',(14.4954802303171,0.,-24.));
#2288=CARTESIAN_POINT('Origin',(14.4954802303171,-4.66900995793193,-24.));
#2289=CARTESIAN_POINT('',(-14.4954802303171,0.,-24.));
#2290=CARTESIAN_POINT('Origin',(-14.4954802303171,-4.66900995793193,-25.));
#2291=CARTESIAN_POINT('Origin',(-25.,-4.5,-14.5388117327937));
#2292=CARTESIAN_POINT('',(-24.,0.,-14.5388117327937));
#2293=CARTESIAN_POINT('Origin',(-24.,-4.5,-14.5388117327937));
#2294=CARTESIAN_POINT('',(-24.,0.,14.5388117327937));
#2295=CARTESIAN_POINT('Origin',(-25.,-4.5,14.5388117327937));
#2296=UNCERTAINTY_MEASURE_WITH_UNIT(LENGTH_MEASURE(0.01),#2300,
'DISTANCE_ACCURACY_VALUE',
'Maximum model space distance between geometric entities at asserted c
onnectivities');
#2297=UNCERTAINTY_MEASURE_WITH_UNIT(LENGTH_MEASURE(0.01),#2300,
'DISTANCE_ACCURACY_VALUE',
'Maximum model space distance between geometric entities at asserted c
onnectivities');
#2298=(
GEOMETRIC_REPRESENTATION_CONTEXT(3)
GLOBAL_UNCERTAINTY_ASSIGNED_CONTEXT((#2296))
GLOBAL_UNIT_ASSIGNED_CONTEXT((#2300,#2302,#2303))
REPRESENTATION_CONTEXT('','3D')
);
#2299=(
GEOMETRIC_REPRESENTATION_CONTEXT(3)
GLOBAL_UNCERTAINTY_ASSIGNED_CONTEXT((#2297))
GLOBAL_UNIT_ASSIGNED_CONTEXT((#2300,#2302,#2303))
REPRESENTATION_CONTEXT('','3D')
);
#2300=(
LENGTH_UNIT()
NAMED_UNIT(*)
SI_UNIT(.MILLI.,.METRE.)
);
#2301=(
LENGTH_UNIT()
NAMED_UNIT(*)
SI_UNIT($,.METRE.)
);
#2302=(
NAMED_UNIT(*)
PLANE_ANGLE_UNIT()
SI_UNIT($,.RADIAN.)
);
#2303=(
NAMED_UNIT(*)
SI_UNIT($,.STERADIAN.)
SOLID_ANGLE_UNIT()
);
#2304=SHAPE_DEFINITION_REPRESENTATION(#2305,#2306);
#2305=PRODUCT_DEFINITION_SHAPE('',$,#2308);
#2306=SHAPE_REPRESENTATION('',(#1404),#2298);
#2307=PRODUCT_DEFINITION_CONTEXT('part definition',#2312,'design');
#2308=PRODUCT_DEFINITION('base_Final','base_Final.f3d ',#2309,#2307);
#2309=PRODUCT_DEFINITION_FORMATION('',$,#2314);
#2310=PRODUCT_RELATED_PRODUCT_CATEGORY('base_Final.f3d ',
'base_Final.f3d ',(#2314));
#2311=APPLICATION_PROTOCOL_DEFINITION('international standard',
'automotive_design',2009,#2312);
#2312=APPLICATION_CONTEXT(
'Core Data for Automotive Mechanical Design Process');
#2313=PRODUCT_CONTEXT('part definition',#2312,'mechanical');
#2314=PRODUCT('base_Final','base_Final.f3d ',$,(#2313));
#2315=PRESENTATION_STYLE_ASSIGNMENT((#2316));
#2316=SURFACE_STYLE_USAGE(.BOTH.,#2317);
#2317=SURFACE_SIDE_STYLE('',(#2318));
#2318=SURFACE_STYLE_FILL_AREA(#2319);
#2319=FILL_AREA_STYLE('Steel - Satin',(#2320));
#2320=FILL_AREA_STYLE_COLOUR('Steel - Satin',#2321);
#2321=COLOUR_RGB('Steel - Satin',0.627450980392157,0.627450980392157,0.627450980392157);
ENDSEC;
END-ISO-10303-21;
