ISO-10303-21;
HEADER;
/* Generated by software containing ST-Developer
 * from STEP Tools, Inc. (www.steptools.com) 
 */

FILE_DESCRIPTION(
/* description */ (''),
/* implementation_level */ '2;1');

FILE_NAME(
/* name */ 'MG400_End_Flange_3D v1.step',
/* time_stamp */ '2026-07-05T07:41:25+01:00',
/* author */ (''),
/* organization */ (''),
/* preprocessor_version */ 'ST-DEVELOPER v20.1',
/* originating_system */ 'Autodesk Translation Framework v15.8.0.0',
/* authorisation */ '');

FILE_SCHEMA (('AUTOMOTIVE_DESIGN { 1 0 10303 214 3 1 1 }'));
ENDSEC;

DATA;
#10=MECHANICAL_DESIGN_GEOMETRIC_PRESENTATION_REPRESENTATION('',(#13),#2023);
#11=SHAPE_REPRESENTATION_RELATIONSHIP('SRR','None',#2030,#12);
#12=ADVANCED_BREP_SHAPE_REPRESENTATION('',(#14),#2022);
#13=STYLED_ITEM('',(#2039),#14);
#14=MANIFOLD_SOLID_BREP('Body1',#1103);
#15=CONICAL_SURFACE('',#1139,4.25,0.785398163397448);
#16=CONICAL_SURFACE('',#1149,4.25,0.785398163397448);
#17=CONICAL_SURFACE('',#1163,19.74999999994,0.785398163397448);
#18=CONICAL_SURFACE('',#1169,19.74999999996,0.785398163397448);
#19=CONICAL_SURFACE('',#1182,4.249999998607,0.785398163397448);
#20=CONICAL_SURFACE('',#1183,1.349999995393,0.785398163397448);
#21=CONICAL_SURFACE('',#1189,1.349999995393,0.785398163397448);
#22=CONICAL_SURFACE('',#1190,1.349999995393,0.785398163397448);
#23=CONICAL_SURFACE('',#1196,1.349999995393,0.785398163397448);
#24=CONICAL_SURFACE('',#1197,1.349999995393,0.785398163397448);
#25=CONICAL_SURFACE('',#1201,1.349999995393,0.785398163397448);
#26=CONICAL_SURFACE('',#1202,1.349999995393,0.785398163397448);
#27=CONICAL_SURFACE('',#1208,1.349999995393,0.785398163397448);
#28=CONICAL_SURFACE('',#1209,1.699999995178,0.785398163397448);
#29=CONICAL_SURFACE('',#1213,1.699999995178,0.785398163397448);
#30=CONICAL_SURFACE('',#1214,1.699999995178,0.785398163397448);
#31=CONICAL_SURFACE('',#1220,1.699999995178,0.785398163397448);
#32=CONICAL_SURFACE('',#1221,1.699999995178,0.785398163397448);
#33=CONICAL_SURFACE('',#1227,1.699999995178,0.785398163397448);
#34=CONICAL_SURFACE('',#1228,1.699999995178,0.785398163397448);
#35=CONICAL_SURFACE('',#1234,1.699999995178,0.785398163397448);
#36=CONICAL_SURFACE('',#1235,1.599999995431,0.785398163397448);
#37=CONICAL_SURFACE('',#1241,1.599999995431,0.785398163397448);
#38=CONICAL_SURFACE('',#1254,10.75,0.785398163397448);
#39=FACE_BOUND('',#156,.T.);
#40=FACE_BOUND('',#163,.T.);
#41=FACE_BOUND('',#167,.T.);
#42=FACE_BOUND('',#168,.T.);
#43=FACE_BOUND('',#169,.T.);
#44=FACE_BOUND('',#170,.T.);
#45=FACE_BOUND('',#171,.T.);
#46=FACE_BOUND('',#172,.T.);
#47=FACE_BOUND('',#173,.T.);
#48=FACE_BOUND('',#174,.T.);
#49=FACE_BOUND('',#175,.T.);
#50=FACE_BOUND('',#176,.T.);
#51=FACE_BOUND('',#181,.T.);
#52=FACE_BOUND('',#182,.T.);
#53=FACE_BOUND('',#183,.T.);
#54=FACE_BOUND('',#184,.T.);
#55=FACE_BOUND('',#185,.T.);
#56=FACE_BOUND('',#186,.T.);
#57=FACE_BOUND('',#187,.T.);
#58=FACE_BOUND('',#188,.T.);
#59=FACE_BOUND('',#189,.T.);
#60=FACE_BOUND('',#190,.T.);
#61=FACE_BOUND('',#220,.T.);
#62=FACE_BOUND('',#221,.T.);
#63=FACE_BOUND('',#225,.T.);
#64=(
BOUNDED_CURVE()
B_SPLINE_CURVE(2,(#1693,#1694,#1695),.UNSPECIFIED.,.F.,.F.)
B_SPLINE_CURVE_WITH_KNOTS((3,3),(1.12906666372209,1.22031646579415),
 .UNSPECIFIED.)
CURVE()
GEOMETRIC_REPRESENTATION_ITEM()
RATIONAL_B_SPLINE_CURVE((1.02108905950238,1.01857254738897,1.01551152542287))
REPRESENTATION_ITEM('')
);
#65=(
BOUNDED_CURVE()
B_SPLINE_CURVE(2,(#1732,#1733,#1734),.UNSPECIFIED.,.F.,.F.)
B_SPLINE_CURVE_WITH_KNOTS((3,3),(0.194374888559952,0.285624690628001),
 .UNSPECIFIED.)
CURVE()
GEOMETRIC_REPRESENTATION_ITEM()
RATIONAL_B_SPLINE_CURVE((1.01551152542326,1.01857254738931,1.0210890595027))
REPRESENTATION_ITEM('')
);
#66=B_SPLINE_CURVE_WITH_KNOTS('',3,(#1670,#1671,#1672,#1673,#1674,#1675),
 .UNSPECIFIED.,.F.,.F.,(4,1,1,4),(0.,0.3333333333333,0.6666666666667,1.),
 .UNSPECIFIED.);
#67=B_SPLINE_CURVE_WITH_KNOTS('',3,(#1684,#1685,#1686,#1687,#1688,#1689),
 .UNSPECIFIED.,.F.,.F.,(4,1,1,4),(0.,0.3333333333333,0.6666666666667,1.),
 .UNSPECIFIED.);
#68=B_SPLINE_CURVE_WITH_KNOTS('',3,(#1717,#1718,#1719,#1720,#1721,#1722),
 .UNSPECIFIED.,.F.,.F.,(4,1,1,4),(0.,0.3333333333333,0.6666666666667,1.),
 .UNSPECIFIED.);
#69=B_SPLINE_CURVE_WITH_KNOTS('',3,(#1735,#1736,#1737,#1738,#1739,#1740),
 .UNSPECIFIED.,.F.,.F.,(4,1,1,4),(0.,0.3333333333333,0.6666666666667,1.),
 .UNSPECIFIED.);
#70=B_SPLINE_CURVE_WITH_KNOTS('',3,(#1931,#1932,#1933,#1934,#1935,#1936,
#1937,#1938,#1939,#1940,#1941,#1942,#1943,#1944,#1945,#1946,#1947,#1948,
#1949,#1950,#1951,#1952,#1953,#1954,#1955,#1956,#1957,#1958,#1959,#1960,
#1961,#1962,#1963,#1964,#1965),.UNSPECIFIED.,.F.,.F.,(4,2,2,2,2,2,2,2,3,
2,2,2,2,2,2,2,4),(-0.974089115920588,-0.971774512705653,-0.846655739171382,
-0.670206379981788,-0.493757020792193,-0.358118143330392,-0.22247926586859,
-0.111239632934295,0.,0.111239632934295,0.22247926586859,0.358118143330392,
0.493757020792194,0.670206379981788,0.846655739171382,0.971774512705653,
0.974089115920887),.UNSPECIFIED.);
#71=B_SPLINE_CURVE_WITH_KNOTS('',3,(#1968,#1969,#1970,#1971,#1972,#1973,
#1974,#1975,#1976,#1977,#1978,#1979,#1980,#1981,#1982,#1983,#1984,#1985,
#1986,#1987),.UNSPECIFIED.,.F.,.F.,(4,2,2,2,2,2,2,2,2,4),(-0.580174173182081,
-0.548555365782127,-0.516936558382173,-0.453698943582266,-0.365352852476023,
-0.27700676136978,-0.199624644733502,-0.122242528097223,-0.0611212640486115,
0.),.UNSPECIFIED.);
#72=B_SPLINE_CURVE_WITH_KNOTS('',3,(#1988,#1989,#1990,#1991,#1992,#1993,
#1994,#1995,#1996,#1997,#1998,#1999,#2000,#2001,#2002,#2003,#2004,#2005,
#2006,#2007),.UNSPECIFIED.,.F.,.F.,(4,2,2,2,2,2,2,2,2,4),(0.,0.0611212640486116,
0.122242528097223,0.199624644733502,0.27700676136978,0.365352852476023,
0.453698943582266,0.516936558382173,0.548555365782127,0.580174173182081),
 .UNSPECIFIED.);
#73=PLANE('',#1129);
#74=PLANE('',#1130);
#75=PLANE('',#1131);
#76=PLANE('',#1133);
#77=PLANE('',#1135);
#78=PLANE('',#1136);
#79=PLANE('',#1137);
#80=PLANE('',#1141);
#81=PLANE('',#1144);
#82=PLANE('',#1145);
#83=PLANE('',#1146);
#84=PLANE('',#1147);
#85=PLANE('',#1150);
#86=PLANE('',#1151);
#87=PLANE('',#1171);
#88=PLANE('',#1249);
#89=PLANE('',#1252);
#90=PLANE('',#1253);
#91=FACE_OUTER_BOUND('',#148,.T.);
#92=FACE_OUTER_BOUND('',#149,.T.);
#93=FACE_OUTER_BOUND('',#150,.T.);
#94=FACE_OUTER_BOUND('',#151,.T.);
#95=FACE_OUTER_BOUND('',#152,.T.);
#96=FACE_OUTER_BOUND('',#153,.T.);
#97=FACE_OUTER_BOUND('',#154,.T.);
#98=FACE_OUTER_BOUND('',#155,.T.);
#99=FACE_OUTER_BOUND('',#157,.T.);
#100=FACE_OUTER_BOUND('',#158,.T.);
#101=FACE_OUTER_BOUND('',#159,.T.);
#102=FACE_OUTER_BOUND('',#160,.T.);
#103=FACE_OUTER_BOUND('',#161,.T.);
#104=FACE_OUTER_BOUND('',#162,.T.);
#105=FACE_OUTER_BOUND('',#164,.T.);
#106=FACE_OUTER_BOUND('',#165,.T.);
#107=FACE_OUTER_BOUND('',#166,.T.);
#108=FACE_OUTER_BOUND('',#177,.T.);
#109=FACE_OUTER_BOUND('',#178,.T.);
#110=FACE_OUTER_BOUND('',#179,.T.);
#111=FACE_OUTER_BOUND('',#180,.T.);
#112=FACE_OUTER_BOUND('',#191,.T.);
#113=FACE_OUTER_BOUND('',#192,.T.);
#114=FACE_OUTER_BOUND('',#193,.T.);
#115=FACE_OUTER_BOUND('',#194,.T.);
#116=FACE_OUTER_BOUND('',#195,.T.);
#117=FACE_OUTER_BOUND('',#196,.T.);
#118=FACE_OUTER_BOUND('',#197,.T.);
#119=FACE_OUTER_BOUND('',#198,.T.);
#120=FACE_OUTER_BOUND('',#199,.T.);
#121=FACE_OUTER_BOUND('',#200,.T.);
#122=FACE_OUTER_BOUND('',#201,.T.);
#123=FACE_OUTER_BOUND('',#202,.T.);
#124=FACE_OUTER_BOUND('',#203,.T.);
#125=FACE_OUTER_BOUND('',#204,.T.);
#126=FACE_OUTER_BOUND('',#205,.T.);
#127=FACE_OUTER_BOUND('',#206,.T.);
#128=FACE_OUTER_BOUND('',#207,.T.);
#129=FACE_OUTER_BOUND('',#208,.T.);
#130=FACE_OUTER_BOUND('',#209,.T.);
#131=FACE_OUTER_BOUND('',#210,.T.);
#132=FACE_OUTER_BOUND('',#211,.T.);
#133=FACE_OUTER_BOUND('',#212,.T.);
#134=FACE_OUTER_BOUND('',#213,.T.);
#135=FACE_OUTER_BOUND('',#214,.T.);
#136=FACE_OUTER_BOUND('',#215,.T.);
#137=FACE_OUTER_BOUND('',#216,.T.);
#138=FACE_OUTER_BOUND('',#217,.T.);
#139=FACE_OUTER_BOUND('',#218,.T.);
#140=FACE_OUTER_BOUND('',#219,.T.);
#141=FACE_OUTER_BOUND('',#222,.T.);
#142=FACE_OUTER_BOUND('',#223,.T.);
#143=FACE_OUTER_BOUND('',#224,.T.);
#144=FACE_OUTER_BOUND('',#226,.T.);
#145=FACE_OUTER_BOUND('',#227,.T.);
#146=FACE_OUTER_BOUND('',#228,.T.);
#147=FACE_OUTER_BOUND('',#229,.T.);
#148=EDGE_LOOP('',(#713,#714,#715,#716,#717,#718,#719,#720,#721,#722,#723,
#724,#725,#726,#727,#728,#729,#730,#731,#732,#733));
#149=EDGE_LOOP('',(#734,#735,#736,#737));
#150=EDGE_LOOP('',(#738,#739,#740,#741));
#151=EDGE_LOOP('',(#742,#743,#744,#745));
#152=EDGE_LOOP('',(#746,#747,#748,#749));
#153=EDGE_LOOP('',(#750,#751,#752,#753,#754));
#154=EDGE_LOOP('',(#755,#756,#757,#758));
#155=EDGE_LOOP('',(#759,#760,#761,#762,#763,#764));
#156=EDGE_LOOP('',(#765));
#157=EDGE_LOOP('',(#766,#767,#768,#769));
#158=EDGE_LOOP('',(#770,#771,#772,#773,#774,#775,#776,#777));
#159=EDGE_LOOP('',(#778,#779,#780,#781));
#160=EDGE_LOOP('',(#782,#783,#784,#785,#786));
#161=EDGE_LOOP('',(#787,#788,#789,#790));
#162=EDGE_LOOP('',(#791,#792,#793,#794,#795,#796));
#163=EDGE_LOOP('',(#797));
#164=EDGE_LOOP('',(#798,#799,#800,#801));
#165=EDGE_LOOP('',(#802,#803,#804,#805));
#166=EDGE_LOOP('',(#806));
#167=EDGE_LOOP('',(#807));
#168=EDGE_LOOP('',(#808));
#169=EDGE_LOOP('',(#809));
#170=EDGE_LOOP('',(#810));
#171=EDGE_LOOP('',(#811));
#172=EDGE_LOOP('',(#812));
#173=EDGE_LOOP('',(#813));
#174=EDGE_LOOP('',(#814));
#175=EDGE_LOOP('',(#815,#816,#817,#818,#819));
#176=EDGE_LOOP('',(#820));
#177=EDGE_LOOP('',(#821,#822,#823,#824,#825));
#178=EDGE_LOOP('',(#826,#827,#828,#829,#830,#831));
#179=EDGE_LOOP('',(#832,#833,#834,#835,#836));
#180=EDGE_LOOP('',(#837));
#181=EDGE_LOOP('',(#838));
#182=EDGE_LOOP('',(#839));
#183=EDGE_LOOP('',(#840));
#184=EDGE_LOOP('',(#841));
#185=EDGE_LOOP('',(#842));
#186=EDGE_LOOP('',(#843));
#187=EDGE_LOOP('',(#844));
#188=EDGE_LOOP('',(#845));
#189=EDGE_LOOP('',(#846));
#190=EDGE_LOOP('',(#847));
#191=EDGE_LOOP('',(#848,#849,#850,#851,#852));
#192=EDGE_LOOP('',(#853,#854,#855,#856,#857));
#193=EDGE_LOOP('',(#858,#859,#860,#861,#862,#863));
#194=EDGE_LOOP('',(#864,#865,#866,#867,#868));
#195=EDGE_LOOP('',(#869,#870,#871,#872,#873));
#196=EDGE_LOOP('',(#874,#875,#876,#877,#878,#879));
#197=EDGE_LOOP('',(#880,#881,#882,#883,#884));
#198=EDGE_LOOP('',(#885,#886,#887,#888));
#199=EDGE_LOOP('',(#889,#890,#891,#892));
#200=EDGE_LOOP('',(#893,#894,#895,#896));
#201=EDGE_LOOP('',(#897,#898,#899,#900,#901));
#202=EDGE_LOOP('',(#902,#903,#904,#905,#906,#907));
#203=EDGE_LOOP('',(#908,#909,#910,#911,#912));
#204=EDGE_LOOP('',(#913,#914,#915,#916));
#205=EDGE_LOOP('',(#917,#918,#919,#920));
#206=EDGE_LOOP('',(#921,#922,#923,#924));
#207=EDGE_LOOP('',(#925,#926,#927,#928,#929));
#208=EDGE_LOOP('',(#930,#931,#932,#933,#934,#935));
#209=EDGE_LOOP('',(#936,#937,#938,#939,#940));
#210=EDGE_LOOP('',(#941,#942,#943,#944,#945));
#211=EDGE_LOOP('',(#946,#947,#948,#949,#950,#951));
#212=EDGE_LOOP('',(#952,#953,#954,#955,#956));
#213=EDGE_LOOP('',(#957,#958,#959,#960,#961));
#214=EDGE_LOOP('',(#962,#963,#964,#965,#966,#967));
#215=EDGE_LOOP('',(#968,#969,#970,#971,#972));
#216=EDGE_LOOP('',(#973,#974,#975,#976,#977));
#217=EDGE_LOOP('',(#978,#979,#980,#981,#982,#983));
#218=EDGE_LOOP('',(#984,#985,#986,#987,#988));
#219=EDGE_LOOP('',(#989,#990,#991,#992,#993,#994,#995,#996,#997,#998,#999,
#1000));
#220=EDGE_LOOP('',(#1001,#1002));
#221=EDGE_LOOP('',(#1003,#1004));
#222=EDGE_LOOP('',(#1005,#1006,#1007,#1008,#1009));
#223=EDGE_LOOP('',(#1010,#1011,#1012,#1013));
#224=EDGE_LOOP('',(#1014,#1015));
#225=EDGE_LOOP('',(#1016));
#226=EDGE_LOOP('',(#1017,#1018));
#227=EDGE_LOOP('',(#1019,#1020,#1021,#1022));
#228=EDGE_LOOP('',(#1023,#1024,#1025,#1026));
#229=EDGE_LOOP('',(#1027,#1028,#1029,#1030));
#230=LINE('',#1608,#299);
#231=LINE('',#1612,#300);
#232=LINE('',#1616,#301);
#233=LINE('',#1620,#302);
#234=LINE('',#1624,#303);
#235=LINE('',#1631,#304);
#236=LINE('',#1635,#305);
#237=LINE('',#1639,#306);
#238=LINE('',#1642,#307);
#239=LINE('',#1645,#308);
#240=LINE('',#1647,#309);
#241=LINE('',#1648,#310);
#242=LINE('',#1652,#311);
#243=LINE('',#1653,#312);
#244=LINE('',#1654,#313);
#245=LINE('',#1658,#314);
#246=LINE('',#1662,#315);
#247=LINE('',#1665,#316);
#248=LINE('',#1667,#317);
#249=LINE('',#1669,#318);
#250=LINE('',#1678,#319);
#251=LINE('',#1679,#320);
#252=LINE('',#1682,#321);
#253=LINE('',#1691,#322);
#254=LINE('',#1696,#323);
#255=LINE('',#1703,#324);
#256=LINE('',#1705,#325);
#257=LINE('',#1709,#326);
#258=LINE('',#1713,#327);
#259=LINE('',#1714,#328);
#260=LINE('',#1716,#329);
#261=LINE('',#1725,#330);
#262=LINE('',#1726,#331);
#263=LINE('',#1729,#332);
#264=LINE('',#1731,#333);
#265=LINE('',#1771,#334);
#266=LINE('',#1778,#335);
#267=LINE('',#1781,#336);
#268=LINE('',#1805,#337);
#269=LINE('',#1810,#338);
#270=LINE('',#1816,#339);
#271=LINE('',#1819,#340);
#272=LINE('',#1824,#341);
#273=LINE('',#1831,#342);
#274=LINE('',#1833,#343);
#275=LINE('',#1837,#344);
#276=LINE('',#1841,#345);
#277=LINE('',#1843,#346);
#278=LINE('',#1848,#347);
#279=LINE('',#1854,#348);
#280=LINE('',#1857,#349);
#281=LINE('',#1861,#350);
#282=LINE('',#1864,#351);
#283=LINE('',#1867,#352);
#284=LINE('',#1872,#353);
#285=LINE('',#1876,#354);
#286=LINE('',#1881,#355);
#287=LINE('',#1886,#356);
#288=LINE('',#1890,#357);
#289=LINE('',#1895,#358);
#290=LINE('',#1900,#359);
#291=LINE('',#1904,#360);
#292=LINE('',#1909,#361);
#293=LINE('',#1914,#362);
#294=LINE('',#1918,#363);
#295=LINE('',#1923,#364);
#296=LINE('',#1930,#365);
#297=LINE('',#2009,#366);
#298=LINE('',#2012,#367);
#299=VECTOR('',#1261,9.5);
#300=VECTOR('',#1264,7.5);
#301=VECTOR('',#1267,1.);
#302=VECTOR('',#1270,1.);
#303=VECTOR('',#1273,4.);
#304=VECTOR('',#1280,1.);
#305=VECTOR('',#1283,1.);
#306=VECTOR('',#1286,7.5);
#307=VECTOR('',#1289,9.5);
#308=VECTOR('',#1292,7.352552211254);
#309=VECTOR('',#1293,1.);
#310=VECTOR('',#1294,7.352552211254);
#311=VECTOR('',#1297,1.);
#312=VECTOR('',#1298,7.352552211254);
#313=VECTOR('',#1299,7.352552211254);
#314=VECTOR('',#1304,7.020003521321);
#315=VECTOR('',#1309,7.020003521321);
#316=VECTOR('',#1312,1.031373033403);
#317=VECTOR('',#1313,10.);
#318=VECTOR('',#1314,0.5278640450004);
#319=VECTOR('',#1317,1.);
#320=VECTOR('',#1318,7.020003521321);
#321=VECTOR('',#1321,7.020003521321);
#322=VECTOR('',#1322,6.015952526702);
#323=VECTOR('',#1323,7.5);
#324=VECTOR('',#1332,1.);
#325=VECTOR('',#1333,0.5278640450004);
#326=VECTOR('',#1336,6.015952526702);
#327=VECTOR('',#1341,1.);
#328=VECTOR('',#1342,10.);
#329=VECTOR('',#1345,1.031373033403);
#330=VECTOR('',#1348,7.020003521321);
#331=VECTOR('',#1349,1.);
#332=VECTOR('',#1352,7.020003521321);
#333=VECTOR('',#1353,7.5);
#334=VECTOR('',#1388,19.74999999994);
#335=VECTOR('',#1397,20.);
#336=VECTOR('',#1400,19.74999999996);
#337=VECTOR('',#1427,4.249999998607);
#338=VECTOR('',#1432,1.349999995393);
#339=VECTOR('',#1439,1.25);
#340=VECTOR('',#1444,1.349999995393);
#341=VECTOR('',#1449,1.349999995393);
#342=VECTOR('',#1458,1.25);
#343=VECTOR('',#1461,1.349999995393);
#344=VECTOR('',#1466,1.349999995393);
#345=VECTOR('',#1471,1.25);
#346=VECTOR('',#1474,1.349999995393);
#347=VECTOR('',#1479,1.349999995393);
#348=VECTOR('',#1486,1.25);
#349=VECTOR('',#1491,1.349999995393);
#350=VECTOR('',#1496,1.699999995178);
#351=VECTOR('',#1499,1.6);
#352=VECTOR('',#1504,1.699999995178);
#353=VECTOR('',#1509,1.699999995178);
#354=VECTOR('',#1514,1.6);
#355=VECTOR('',#1521,1.699999995178);
#356=VECTOR('',#1526,1.699999995178);
#357=VECTOR('',#1531,1.6);
#358=VECTOR('',#1538,1.699999995178);
#359=VECTOR('',#1543,1.699999995178);
#360=VECTOR('',#1548,1.6);
#361=VECTOR('',#1555,1.699999995178);
#362=VECTOR('',#1560,1.599999995431);
#363=VECTOR('',#1565,1.5);
#364=VECTOR('',#1572,1.599999995431);
#365=VECTOR('',#1581,2.164648327889);
#366=VECTOR('',#1584,1.65);
#367=VECTOR('',#1587,1.65);
#368=CIRCLE('',#1118,4.);
#369=CIRCLE('',#1119,4.);
#370=CIRCLE('',#1120,4.);
#371=CIRCLE('',#1121,4.);
#372=CIRCLE('',#1122,4.);
#373=CIRCLE('',#1123,4.);
#374=CIRCLE('',#1124,4.);
#375=CIRCLE('',#1125,4.);
#376=CIRCLE('',#1126,4.);
#377=CIRCLE('',#1127,4.);
#378=CIRCLE('',#1128,4.);
#379=CIRCLE('',#1132,11.);
#380=CIRCLE('',#1134,11.);
#381=CIRCLE('',#1138,1.65);
#382=CIRCLE('',#1140,4.5);
#383=CIRCLE('',#1142,4.5);
#384=CIRCLE('',#1143,10.5);
#385=CIRCLE('',#1148,1.65);
#386=CIRCLE('',#1152,19.5);
#387=CIRCLE('',#1153,1.45);
#388=CIRCLE('',#1154,1.45);
#389=CIRCLE('',#1155,1.45);
#390=CIRCLE('',#1156,1.45);
#391=CIRCLE('',#1157,1.8);
#392=CIRCLE('',#1158,1.8);
#393=CIRCLE('',#1159,1.8);
#394=CIRCLE('',#1160,1.8);
#395=CIRCLE('',#1161,11.);
#396=CIRCLE('',#1162,1.7);
#397=CIRCLE('',#1164,20.);
#398=CIRCLE('',#1165,20.);
#399=CIRCLE('',#1167,20.);
#400=CIRCLE('',#1168,20.);
#401=CIRCLE('',#1170,19.5);
#402=CIRCLE('',#1172,4.5);
#403=CIRCLE('',#1173,1.45);
#404=CIRCLE('',#1174,1.45);
#405=CIRCLE('',#1175,1.45);
#406=CIRCLE('',#1176,1.45);
#407=CIRCLE('',#1177,1.8);
#408=CIRCLE('',#1178,1.8);
#409=CIRCLE('',#1179,1.8);
#410=CIRCLE('',#1180,1.8);
#411=CIRCLE('',#1181,1.7);
#412=CIRCLE('',#1184,1.25);
#413=CIRCLE('',#1185,1.25);
#414=CIRCLE('',#1187,1.25);
#415=CIRCLE('',#1188,1.25);
#416=CIRCLE('',#1191,1.25);
#417=CIRCLE('',#1192,1.25);
#418=CIRCLE('',#1194,1.25);
#419=CIRCLE('',#1195,1.25);
#420=CIRCLE('',#1198,1.25);
#421=CIRCLE('',#1200,1.25);
#422=CIRCLE('',#1203,1.25);
#423=CIRCLE('',#1204,1.25);
#424=CIRCLE('',#1206,1.25);
#425=CIRCLE('',#1207,1.25);
#426=CIRCLE('',#1210,1.6);
#427=CIRCLE('',#1212,1.6);
#428=CIRCLE('',#1215,1.6);
#429=CIRCLE('',#1216,1.6);
#430=CIRCLE('',#1218,1.6);
#431=CIRCLE('',#1219,1.6);
#432=CIRCLE('',#1222,1.6);
#433=CIRCLE('',#1223,1.6);
#434=CIRCLE('',#1225,1.6);
#435=CIRCLE('',#1226,1.6);
#436=CIRCLE('',#1229,1.6);
#437=CIRCLE('',#1230,1.6);
#438=CIRCLE('',#1232,1.6);
#439=CIRCLE('',#1233,1.6);
#440=CIRCLE('',#1236,1.5);
#441=CIRCLE('',#1237,1.5);
#442=CIRCLE('',#1239,1.5);
#443=CIRCLE('',#1240,1.5);
#444=CIRCLE('',#1243,11.);
#445=CIRCLE('',#1244,11.);
#446=CIRCLE('',#1245,11.);
#447=CIRCLE('',#1248,1.65);
#448=CIRCLE('',#1250,3.);
#449=VERTEX_POINT('',#1604);
#450=VERTEX_POINT('',#1605);
#451=VERTEX_POINT('',#1607);
#452=VERTEX_POINT('',#1609);
#453=VERTEX_POINT('',#1611);
#454=VERTEX_POINT('',#1613);
#455=VERTEX_POINT('',#1615);
#456=VERTEX_POINT('',#1617);
#457=VERTEX_POINT('',#1619);
#458=VERTEX_POINT('',#1621);
#459=VERTEX_POINT('',#1623);
#460=VERTEX_POINT('',#1625);
#461=VERTEX_POINT('',#1628);
#462=VERTEX_POINT('',#1630);
#463=VERTEX_POINT('',#1632);
#464=VERTEX_POINT('',#1634);
#465=VERTEX_POINT('',#1636);
#466=VERTEX_POINT('',#1638);
#467=VERTEX_POINT('',#1640);
#468=VERTEX_POINT('',#1644);
#469=VERTEX_POINT('',#1646);
#470=VERTEX_POINT('',#1650);
#471=VERTEX_POINT('',#1651);
#472=VERTEX_POINT('',#1656);
#473=VERTEX_POINT('',#1660);
#474=VERTEX_POINT('',#1664);
#475=VERTEX_POINT('',#1666);
#476=VERTEX_POINT('',#1668);
#477=VERTEX_POINT('',#1677);
#478=VERTEX_POINT('',#1681);
#479=VERTEX_POINT('',#1683);
#480=VERTEX_POINT('',#1690);
#481=VERTEX_POINT('',#1692);
#482=VERTEX_POINT('',#1697);
#483=VERTEX_POINT('',#1702);
#484=VERTEX_POINT('',#1704);
#485=VERTEX_POINT('',#1706);
#486=VERTEX_POINT('',#1708);
#487=VERTEX_POINT('',#1712);
#488=VERTEX_POINT('',#1724);
#489=VERTEX_POINT('',#1728);
#490=VERTEX_POINT('',#1730);
#491=VERTEX_POINT('',#1741);
#492=VERTEX_POINT('',#1746);
#493=VERTEX_POINT('',#1748);
#494=VERTEX_POINT('',#1750);
#495=VERTEX_POINT('',#1752);
#496=VERTEX_POINT('',#1754);
#497=VERTEX_POINT('',#1756);
#498=VERTEX_POINT('',#1758);
#499=VERTEX_POINT('',#1760);
#500=VERTEX_POINT('',#1762);
#501=VERTEX_POINT('',#1765);
#502=VERTEX_POINT('',#1768);
#503=VERTEX_POINT('',#1769);
#504=VERTEX_POINT('',#1774);
#505=VERTEX_POINT('',#1775);
#506=VERTEX_POINT('',#1780);
#507=VERTEX_POINT('',#1784);
#508=VERTEX_POINT('',#1786);
#509=VERTEX_POINT('',#1788);
#510=VERTEX_POINT('',#1790);
#511=VERTEX_POINT('',#1792);
#512=VERTEX_POINT('',#1794);
#513=VERTEX_POINT('',#1796);
#514=VERTEX_POINT('',#1798);
#515=VERTEX_POINT('',#1800);
#516=VERTEX_POINT('',#1802);
#517=VERTEX_POINT('',#1807);
#518=VERTEX_POINT('',#1808);
#519=VERTEX_POINT('',#1813);
#520=VERTEX_POINT('',#1814);
#521=VERTEX_POINT('',#1821);
#522=VERTEX_POINT('',#1822);
#523=VERTEX_POINT('',#1827);
#524=VERTEX_POINT('',#1828);
#525=VERTEX_POINT('',#1835);
#526=VERTEX_POINT('',#1839);
#527=VERTEX_POINT('',#1845);
#528=VERTEX_POINT('',#1846);
#529=VERTEX_POINT('',#1851);
#530=VERTEX_POINT('',#1852);
#531=VERTEX_POINT('',#1859);
#532=VERTEX_POINT('',#1863);
#533=VERTEX_POINT('',#1869);
#534=VERTEX_POINT('',#1870);
#535=VERTEX_POINT('',#1875);
#536=VERTEX_POINT('',#1877);
#537=VERTEX_POINT('',#1883);
#538=VERTEX_POINT('',#1884);
#539=VERTEX_POINT('',#1889);
#540=VERTEX_POINT('',#1891);
#541=VERTEX_POINT('',#1897);
#542=VERTEX_POINT('',#1898);
#543=VERTEX_POINT('',#1903);
#544=VERTEX_POINT('',#1905);
#545=VERTEX_POINT('',#1911);
#546=VERTEX_POINT('',#1912);
#547=VERTEX_POINT('',#1917);
#548=VERTEX_POINT('',#1919);
#549=VERTEX_POINT('',#1928);
#550=VERTEX_POINT('',#1929);
#551=VERTEX_POINT('',#1966);
#552=VERTEX_POINT('',#1967);
#553=VERTEX_POINT('',#2011);
#554=EDGE_CURVE('',#449,#450,#368,.T.);
#555=EDGE_CURVE('',#451,#449,#230,.T.);
#556=EDGE_CURVE('',#451,#452,#369,.T.);
#557=EDGE_CURVE('',#452,#453,#231,.T.);
#558=EDGE_CURVE('',#453,#454,#370,.T.);
#559=EDGE_CURVE('',#454,#455,#232,.T.);
#560=EDGE_CURVE('',#456,#455,#371,.T.);
#561=EDGE_CURVE('',#456,#457,#233,.T.);
#562=EDGE_CURVE('',#458,#457,#372,.T.);
#563=EDGE_CURVE('',#458,#459,#234,.T.);
#564=EDGE_CURVE('',#460,#459,#373,.T.);
#565=EDGE_CURVE('',#459,#460,#374,.T.);
#566=EDGE_CURVE('',#461,#458,#375,.T.);
#567=EDGE_CURVE('',#462,#461,#235,.T.);
#568=EDGE_CURVE('',#463,#462,#376,.T.);
#569=EDGE_CURVE('',#464,#463,#236,.T.);
#570=EDGE_CURVE('',#464,#465,#377,.T.);
#571=EDGE_CURVE('',#466,#465,#237,.T.);
#572=EDGE_CURVE('',#466,#467,#378,.T.);
#573=EDGE_CURVE('',#467,#450,#238,.T.);
#574=EDGE_CURVE('',#454,#468,#239,.T.);
#575=EDGE_CURVE('',#468,#469,#240,.T.);
#576=EDGE_CURVE('',#469,#455,#241,.T.);
#577=EDGE_CURVE('',#470,#471,#242,.T.);
#578=EDGE_CURVE('',#470,#464,#243,.T.);
#579=EDGE_CURVE('',#463,#471,#244,.T.);
#580=EDGE_CURVE('',#472,#469,#379,.T.);
#581=EDGE_CURVE('',#472,#456,#245,.T.);
#582=EDGE_CURVE('',#471,#473,#380,.T.);
#583=EDGE_CURVE('',#473,#462,#246,.T.);
#584=EDGE_CURVE('',#474,#449,#247,.T.);
#585=EDGE_CURVE('',#475,#474,#248,.T.);
#586=EDGE_CURVE('',#476,#475,#249,.T.);
#587=EDGE_CURVE('',#476,#451,#66,.T.);
#588=EDGE_CURVE('',#472,#477,#250,.T.);
#589=EDGE_CURVE('',#457,#477,#251,.T.);
#590=EDGE_CURVE('',#478,#453,#252,.T.);
#591=EDGE_CURVE('',#452,#479,#67,.T.);
#592=EDGE_CURVE('',#480,#479,#253,.T.);
#593=EDGE_CURVE('',#481,#480,#64,.T.);
#594=EDGE_CURVE('',#481,#478,#254,.T.);
#595=EDGE_CURVE('',#482,#482,#381,.T.);
#596=EDGE_CURVE('',#476,#479,#382,.T.);
#597=EDGE_CURVE('',#483,#475,#255,.T.);
#598=EDGE_CURVE('',#484,#483,#256,.T.);
#599=EDGE_CURVE('',#485,#484,#383,.T.);
#600=EDGE_CURVE('',#486,#485,#257,.T.);
#601=EDGE_CURVE('',#486,#480,#384,.T.);
#602=EDGE_CURVE('',#487,#474,#258,.T.);
#603=EDGE_CURVE('',#483,#487,#259,.T.);
#604=EDGE_CURVE('',#450,#487,#260,.T.);
#605=EDGE_CURVE('',#467,#484,#68,.T.);
#606=EDGE_CURVE('',#488,#461,#261,.T.);
#607=EDGE_CURVE('',#473,#488,#262,.T.);
#608=EDGE_CURVE('',#489,#465,#263,.T.);
#609=EDGE_CURVE('',#490,#489,#264,.T.);
#610=EDGE_CURVE('',#486,#490,#65,.T.);
#611=EDGE_CURVE('',#485,#466,#69,.T.);
#612=EDGE_CURVE('',#491,#491,#385,.T.);
#613=EDGE_CURVE('',#492,#492,#386,.T.);
#614=EDGE_CURVE('',#493,#493,#387,.T.);
#615=EDGE_CURVE('',#494,#494,#388,.T.);
#616=EDGE_CURVE('',#495,#495,#389,.T.);
#617=EDGE_CURVE('',#496,#496,#390,.T.);
#618=EDGE_CURVE('',#497,#497,#391,.T.);
#619=EDGE_CURVE('',#498,#498,#392,.T.);
#620=EDGE_CURVE('',#499,#499,#393,.T.);
#621=EDGE_CURVE('',#500,#500,#394,.T.);
#622=EDGE_CURVE('',#477,#488,#395,.T.);
#623=EDGE_CURVE('',#501,#501,#396,.T.);
#624=EDGE_CURVE('',#502,#503,#397,.T.);
#625=EDGE_CURVE('',#503,#492,#265,.T.);
#626=EDGE_CURVE('',#503,#502,#398,.T.);
#627=EDGE_CURVE('',#504,#505,#399,.T.);
#628=EDGE_CURVE('',#505,#504,#400,.T.);
#629=EDGE_CURVE('',#504,#502,#266,.T.);
#630=EDGE_CURVE('',#505,#506,#267,.T.);
#631=EDGE_CURVE('',#506,#506,#401,.T.);
#632=EDGE_CURVE('',#507,#507,#402,.T.);
#633=EDGE_CURVE('',#508,#508,#403,.T.);
#634=EDGE_CURVE('',#509,#509,#404,.T.);
#635=EDGE_CURVE('',#510,#510,#405,.T.);
#636=EDGE_CURVE('',#511,#511,#406,.T.);
#637=EDGE_CURVE('',#512,#512,#407,.T.);
#638=EDGE_CURVE('',#513,#513,#408,.T.);
#639=EDGE_CURVE('',#514,#514,#409,.T.);
#640=EDGE_CURVE('',#515,#515,#410,.T.);
#641=EDGE_CURVE('',#516,#516,#411,.T.);
#642=EDGE_CURVE('',#460,#507,#268,.T.);
#643=EDGE_CURVE('',#517,#518,#412,.T.);
#644=EDGE_CURVE('',#518,#508,#269,.T.);
#645=EDGE_CURVE('',#518,#517,#413,.T.);
#646=EDGE_CURVE('',#519,#520,#414,.T.);
#647=EDGE_CURVE('',#519,#517,#270,.T.);
#648=EDGE_CURVE('',#520,#519,#415,.T.);
#649=EDGE_CURVE('',#520,#496,#271,.T.);
#650=EDGE_CURVE('',#521,#522,#416,.T.);
#651=EDGE_CURVE('',#522,#509,#272,.T.);
#652=EDGE_CURVE('',#522,#521,#417,.T.);
#653=EDGE_CURVE('',#523,#524,#418,.T.);
#654=EDGE_CURVE('',#524,#523,#419,.T.);
#655=EDGE_CURVE('',#524,#521,#273,.T.);
#656=EDGE_CURVE('',#523,#495,#274,.T.);
#657=EDGE_CURVE('',#525,#525,#420,.T.);
#658=EDGE_CURVE('',#525,#510,#275,.T.);
#659=EDGE_CURVE('',#526,#526,#421,.T.);
#660=EDGE_CURVE('',#526,#525,#276,.T.);
#661=EDGE_CURVE('',#526,#494,#277,.T.);
#662=EDGE_CURVE('',#527,#528,#422,.T.);
#663=EDGE_CURVE('',#528,#511,#278,.T.);
#664=EDGE_CURVE('',#528,#527,#423,.T.);
#665=EDGE_CURVE('',#529,#530,#424,.T.);
#666=EDGE_CURVE('',#529,#527,#279,.T.);
#667=EDGE_CURVE('',#530,#529,#425,.T.);
#668=EDGE_CURVE('',#530,#493,#280,.T.);
#669=EDGE_CURVE('',#531,#531,#426,.T.);
#670=EDGE_CURVE('',#531,#512,#281,.T.);
#671=EDGE_CURVE('',#531,#532,#282,.T.);
#672=EDGE_CURVE('',#532,#532,#427,.T.);
#673=EDGE_CURVE('',#532,#500,#283,.T.);
#674=EDGE_CURVE('',#533,#534,#428,.T.);
#675=EDGE_CURVE('',#534,#513,#284,.T.);
#676=EDGE_CURVE('',#534,#533,#429,.T.);
#677=EDGE_CURVE('',#533,#535,#285,.T.);
#678=EDGE_CURVE('',#536,#535,#430,.T.);
#679=EDGE_CURVE('',#535,#536,#431,.T.);
#680=EDGE_CURVE('',#536,#497,#286,.T.);
#681=EDGE_CURVE('',#537,#538,#432,.T.);
#682=EDGE_CURVE('',#538,#514,#287,.T.);
#683=EDGE_CURVE('',#538,#537,#433,.T.);
#684=EDGE_CURVE('',#537,#539,#288,.T.);
#685=EDGE_CURVE('',#540,#539,#434,.T.);
#686=EDGE_CURVE('',#539,#540,#435,.T.);
#687=EDGE_CURVE('',#540,#498,#289,.T.);
#688=EDGE_CURVE('',#541,#542,#436,.T.);
#689=EDGE_CURVE('',#542,#515,#290,.T.);
#690=EDGE_CURVE('',#542,#541,#437,.T.);
#691=EDGE_CURVE('',#541,#543,#291,.T.);
#692=EDGE_CURVE('',#544,#543,#438,.T.);
#693=EDGE_CURVE('',#543,#544,#439,.T.);
#694=EDGE_CURVE('',#544,#499,#292,.T.);
#695=EDGE_CURVE('',#545,#546,#440,.T.);
#696=EDGE_CURVE('',#546,#516,#293,.T.);
#697=EDGE_CURVE('',#546,#545,#441,.T.);
#698=EDGE_CURVE('',#545,#547,#294,.T.);
#699=EDGE_CURVE('',#548,#547,#442,.T.);
#700=EDGE_CURVE('',#547,#548,#443,.T.);
#701=EDGE_CURVE('',#548,#501,#295,.T.);
#702=EDGE_CURVE('',#478,#468,#444,.T.);
#703=EDGE_CURVE('',#481,#490,#445,.T.);
#704=EDGE_CURVE('',#470,#489,#446,.T.);
#705=EDGE_CURVE('',#549,#550,#296,.T.);
#706=EDGE_CURVE('',#550,#549,#70,.T.);
#707=EDGE_CURVE('',#551,#552,#71,.T.);
#708=EDGE_CURVE('',#552,#551,#72,.T.);
#709=EDGE_CURVE('',#552,#491,#297,.T.);
#710=EDGE_CURVE('',#482,#553,#298,.T.);
#711=EDGE_CURVE('',#553,#553,#447,.T.);
#712=EDGE_CURVE('',#549,#550,#448,.T.);
#713=ORIENTED_EDGE('',*,*,#554,.F.);
#714=ORIENTED_EDGE('',*,*,#555,.F.);
#715=ORIENTED_EDGE('',*,*,#556,.T.);
#716=ORIENTED_EDGE('',*,*,#557,.T.);
#717=ORIENTED_EDGE('',*,*,#558,.T.);
#718=ORIENTED_EDGE('',*,*,#559,.T.);
#719=ORIENTED_EDGE('',*,*,#560,.F.);
#720=ORIENTED_EDGE('',*,*,#561,.T.);
#721=ORIENTED_EDGE('',*,*,#562,.F.);
#722=ORIENTED_EDGE('',*,*,#563,.T.);
#723=ORIENTED_EDGE('',*,*,#564,.F.);
#724=ORIENTED_EDGE('',*,*,#565,.F.);
#725=ORIENTED_EDGE('',*,*,#563,.F.);
#726=ORIENTED_EDGE('',*,*,#566,.F.);
#727=ORIENTED_EDGE('',*,*,#567,.F.);
#728=ORIENTED_EDGE('',*,*,#568,.F.);
#729=ORIENTED_EDGE('',*,*,#569,.F.);
#730=ORIENTED_EDGE('',*,*,#570,.T.);
#731=ORIENTED_EDGE('',*,*,#571,.F.);
#732=ORIENTED_EDGE('',*,*,#572,.T.);
#733=ORIENTED_EDGE('',*,*,#573,.T.);
#734=ORIENTED_EDGE('',*,*,#559,.F.);
#735=ORIENTED_EDGE('',*,*,#574,.T.);
#736=ORIENTED_EDGE('',*,*,#575,.T.);
#737=ORIENTED_EDGE('',*,*,#576,.T.);
#738=ORIENTED_EDGE('',*,*,#577,.F.);
#739=ORIENTED_EDGE('',*,*,#578,.T.);
#740=ORIENTED_EDGE('',*,*,#569,.T.);
#741=ORIENTED_EDGE('',*,*,#579,.T.);
#742=ORIENTED_EDGE('',*,*,#560,.T.);
#743=ORIENTED_EDGE('',*,*,#576,.F.);
#744=ORIENTED_EDGE('',*,*,#580,.F.);
#745=ORIENTED_EDGE('',*,*,#581,.T.);
#746=ORIENTED_EDGE('',*,*,#582,.F.);
#747=ORIENTED_EDGE('',*,*,#579,.F.);
#748=ORIENTED_EDGE('',*,*,#568,.T.);
#749=ORIENTED_EDGE('',*,*,#583,.F.);
#750=ORIENTED_EDGE('',*,*,#555,.T.);
#751=ORIENTED_EDGE('',*,*,#584,.F.);
#752=ORIENTED_EDGE('',*,*,#585,.F.);
#753=ORIENTED_EDGE('',*,*,#586,.F.);
#754=ORIENTED_EDGE('',*,*,#587,.T.);
#755=ORIENTED_EDGE('',*,*,#581,.F.);
#756=ORIENTED_EDGE('',*,*,#588,.T.);
#757=ORIENTED_EDGE('',*,*,#589,.F.);
#758=ORIENTED_EDGE('',*,*,#561,.F.);
#759=ORIENTED_EDGE('',*,*,#590,.T.);
#760=ORIENTED_EDGE('',*,*,#557,.F.);
#761=ORIENTED_EDGE('',*,*,#591,.T.);
#762=ORIENTED_EDGE('',*,*,#592,.F.);
#763=ORIENTED_EDGE('',*,*,#593,.F.);
#764=ORIENTED_EDGE('',*,*,#594,.T.);
#765=ORIENTED_EDGE('',*,*,#595,.T.);
#766=ORIENTED_EDGE('',*,*,#587,.F.);
#767=ORIENTED_EDGE('',*,*,#596,.T.);
#768=ORIENTED_EDGE('',*,*,#591,.F.);
#769=ORIENTED_EDGE('',*,*,#556,.F.);
#770=ORIENTED_EDGE('',*,*,#597,.F.);
#771=ORIENTED_EDGE('',*,*,#598,.F.);
#772=ORIENTED_EDGE('',*,*,#599,.F.);
#773=ORIENTED_EDGE('',*,*,#600,.F.);
#774=ORIENTED_EDGE('',*,*,#601,.T.);
#775=ORIENTED_EDGE('',*,*,#592,.T.);
#776=ORIENTED_EDGE('',*,*,#596,.F.);
#777=ORIENTED_EDGE('',*,*,#586,.T.);
#778=ORIENTED_EDGE('',*,*,#597,.T.);
#779=ORIENTED_EDGE('',*,*,#585,.T.);
#780=ORIENTED_EDGE('',*,*,#602,.F.);
#781=ORIENTED_EDGE('',*,*,#603,.F.);
#782=ORIENTED_EDGE('',*,*,#598,.T.);
#783=ORIENTED_EDGE('',*,*,#603,.T.);
#784=ORIENTED_EDGE('',*,*,#604,.F.);
#785=ORIENTED_EDGE('',*,*,#573,.F.);
#786=ORIENTED_EDGE('',*,*,#605,.T.);
#787=ORIENTED_EDGE('',*,*,#583,.T.);
#788=ORIENTED_EDGE('',*,*,#567,.T.);
#789=ORIENTED_EDGE('',*,*,#606,.F.);
#790=ORIENTED_EDGE('',*,*,#607,.F.);
#791=ORIENTED_EDGE('',*,*,#608,.F.);
#792=ORIENTED_EDGE('',*,*,#609,.F.);
#793=ORIENTED_EDGE('',*,*,#610,.F.);
#794=ORIENTED_EDGE('',*,*,#600,.T.);
#795=ORIENTED_EDGE('',*,*,#611,.T.);
#796=ORIENTED_EDGE('',*,*,#571,.T.);
#797=ORIENTED_EDGE('',*,*,#612,.F.);
#798=ORIENTED_EDGE('',*,*,#611,.F.);
#799=ORIENTED_EDGE('',*,*,#599,.T.);
#800=ORIENTED_EDGE('',*,*,#605,.F.);
#801=ORIENTED_EDGE('',*,*,#572,.F.);
#802=ORIENTED_EDGE('',*,*,#584,.T.);
#803=ORIENTED_EDGE('',*,*,#554,.T.);
#804=ORIENTED_EDGE('',*,*,#604,.T.);
#805=ORIENTED_EDGE('',*,*,#602,.T.);
#806=ORIENTED_EDGE('',*,*,#613,.T.);
#807=ORIENTED_EDGE('',*,*,#614,.T.);
#808=ORIENTED_EDGE('',*,*,#615,.T.);
#809=ORIENTED_EDGE('',*,*,#616,.T.);
#810=ORIENTED_EDGE('',*,*,#617,.T.);
#811=ORIENTED_EDGE('',*,*,#618,.T.);
#812=ORIENTED_EDGE('',*,*,#619,.T.);
#813=ORIENTED_EDGE('',*,*,#620,.T.);
#814=ORIENTED_EDGE('',*,*,#621,.T.);
#815=ORIENTED_EDGE('',*,*,#622,.T.);
#816=ORIENTED_EDGE('',*,*,#606,.T.);
#817=ORIENTED_EDGE('',*,*,#566,.T.);
#818=ORIENTED_EDGE('',*,*,#562,.T.);
#819=ORIENTED_EDGE('',*,*,#589,.T.);
#820=ORIENTED_EDGE('',*,*,#623,.T.);
#821=ORIENTED_EDGE('',*,*,#624,.T.);
#822=ORIENTED_EDGE('',*,*,#625,.T.);
#823=ORIENTED_EDGE('',*,*,#613,.F.);
#824=ORIENTED_EDGE('',*,*,#625,.F.);
#825=ORIENTED_EDGE('',*,*,#626,.T.);
#826=ORIENTED_EDGE('',*,*,#627,.T.);
#827=ORIENTED_EDGE('',*,*,#628,.T.);
#828=ORIENTED_EDGE('',*,*,#629,.T.);
#829=ORIENTED_EDGE('',*,*,#626,.F.);
#830=ORIENTED_EDGE('',*,*,#624,.F.);
#831=ORIENTED_EDGE('',*,*,#629,.F.);
#832=ORIENTED_EDGE('',*,*,#627,.F.);
#833=ORIENTED_EDGE('',*,*,#628,.F.);
#834=ORIENTED_EDGE('',*,*,#630,.T.);
#835=ORIENTED_EDGE('',*,*,#631,.T.);
#836=ORIENTED_EDGE('',*,*,#630,.F.);
#837=ORIENTED_EDGE('',*,*,#631,.F.);
#838=ORIENTED_EDGE('',*,*,#632,.T.);
#839=ORIENTED_EDGE('',*,*,#633,.T.);
#840=ORIENTED_EDGE('',*,*,#634,.T.);
#841=ORIENTED_EDGE('',*,*,#635,.T.);
#842=ORIENTED_EDGE('',*,*,#636,.T.);
#843=ORIENTED_EDGE('',*,*,#637,.T.);
#844=ORIENTED_EDGE('',*,*,#638,.T.);
#845=ORIENTED_EDGE('',*,*,#639,.T.);
#846=ORIENTED_EDGE('',*,*,#640,.T.);
#847=ORIENTED_EDGE('',*,*,#641,.T.);
#848=ORIENTED_EDGE('',*,*,#565,.T.);
#849=ORIENTED_EDGE('',*,*,#642,.T.);
#850=ORIENTED_EDGE('',*,*,#632,.F.);
#851=ORIENTED_EDGE('',*,*,#642,.F.);
#852=ORIENTED_EDGE('',*,*,#564,.T.);
#853=ORIENTED_EDGE('',*,*,#643,.T.);
#854=ORIENTED_EDGE('',*,*,#644,.T.);
#855=ORIENTED_EDGE('',*,*,#633,.F.);
#856=ORIENTED_EDGE('',*,*,#644,.F.);
#857=ORIENTED_EDGE('',*,*,#645,.T.);
#858=ORIENTED_EDGE('',*,*,#646,.F.);
#859=ORIENTED_EDGE('',*,*,#647,.T.);
#860=ORIENTED_EDGE('',*,*,#645,.F.);
#861=ORIENTED_EDGE('',*,*,#643,.F.);
#862=ORIENTED_EDGE('',*,*,#647,.F.);
#863=ORIENTED_EDGE('',*,*,#648,.F.);
#864=ORIENTED_EDGE('',*,*,#646,.T.);
#865=ORIENTED_EDGE('',*,*,#649,.T.);
#866=ORIENTED_EDGE('',*,*,#617,.F.);
#867=ORIENTED_EDGE('',*,*,#649,.F.);
#868=ORIENTED_EDGE('',*,*,#648,.T.);
#869=ORIENTED_EDGE('',*,*,#650,.T.);
#870=ORIENTED_EDGE('',*,*,#651,.T.);
#871=ORIENTED_EDGE('',*,*,#634,.F.);
#872=ORIENTED_EDGE('',*,*,#651,.F.);
#873=ORIENTED_EDGE('',*,*,#652,.T.);
#874=ORIENTED_EDGE('',*,*,#653,.F.);
#875=ORIENTED_EDGE('',*,*,#654,.F.);
#876=ORIENTED_EDGE('',*,*,#655,.T.);
#877=ORIENTED_EDGE('',*,*,#652,.F.);
#878=ORIENTED_EDGE('',*,*,#650,.F.);
#879=ORIENTED_EDGE('',*,*,#655,.F.);
#880=ORIENTED_EDGE('',*,*,#653,.T.);
#881=ORIENTED_EDGE('',*,*,#654,.T.);
#882=ORIENTED_EDGE('',*,*,#656,.T.);
#883=ORIENTED_EDGE('',*,*,#616,.F.);
#884=ORIENTED_EDGE('',*,*,#656,.F.);
#885=ORIENTED_EDGE('',*,*,#657,.T.);
#886=ORIENTED_EDGE('',*,*,#658,.T.);
#887=ORIENTED_EDGE('',*,*,#635,.F.);
#888=ORIENTED_EDGE('',*,*,#658,.F.);
#889=ORIENTED_EDGE('',*,*,#659,.F.);
#890=ORIENTED_EDGE('',*,*,#660,.T.);
#891=ORIENTED_EDGE('',*,*,#657,.F.);
#892=ORIENTED_EDGE('',*,*,#660,.F.);
#893=ORIENTED_EDGE('',*,*,#659,.T.);
#894=ORIENTED_EDGE('',*,*,#661,.T.);
#895=ORIENTED_EDGE('',*,*,#615,.F.);
#896=ORIENTED_EDGE('',*,*,#661,.F.);
#897=ORIENTED_EDGE('',*,*,#662,.T.);
#898=ORIENTED_EDGE('',*,*,#663,.T.);
#899=ORIENTED_EDGE('',*,*,#636,.F.);
#900=ORIENTED_EDGE('',*,*,#663,.F.);
#901=ORIENTED_EDGE('',*,*,#664,.T.);
#902=ORIENTED_EDGE('',*,*,#665,.F.);
#903=ORIENTED_EDGE('',*,*,#666,.T.);
#904=ORIENTED_EDGE('',*,*,#664,.F.);
#905=ORIENTED_EDGE('',*,*,#662,.F.);
#906=ORIENTED_EDGE('',*,*,#666,.F.);
#907=ORIENTED_EDGE('',*,*,#667,.F.);
#908=ORIENTED_EDGE('',*,*,#665,.T.);
#909=ORIENTED_EDGE('',*,*,#668,.T.);
#910=ORIENTED_EDGE('',*,*,#614,.F.);
#911=ORIENTED_EDGE('',*,*,#668,.F.);
#912=ORIENTED_EDGE('',*,*,#667,.T.);
#913=ORIENTED_EDGE('',*,*,#669,.T.);
#914=ORIENTED_EDGE('',*,*,#670,.T.);
#915=ORIENTED_EDGE('',*,*,#637,.F.);
#916=ORIENTED_EDGE('',*,*,#670,.F.);
#917=ORIENTED_EDGE('',*,*,#669,.F.);
#918=ORIENTED_EDGE('',*,*,#671,.T.);
#919=ORIENTED_EDGE('',*,*,#672,.F.);
#920=ORIENTED_EDGE('',*,*,#671,.F.);
#921=ORIENTED_EDGE('',*,*,#672,.T.);
#922=ORIENTED_EDGE('',*,*,#673,.T.);
#923=ORIENTED_EDGE('',*,*,#621,.F.);
#924=ORIENTED_EDGE('',*,*,#673,.F.);
#925=ORIENTED_EDGE('',*,*,#674,.T.);
#926=ORIENTED_EDGE('',*,*,#675,.T.);
#927=ORIENTED_EDGE('',*,*,#638,.F.);
#928=ORIENTED_EDGE('',*,*,#675,.F.);
#929=ORIENTED_EDGE('',*,*,#676,.T.);
#930=ORIENTED_EDGE('',*,*,#674,.F.);
#931=ORIENTED_EDGE('',*,*,#677,.T.);
#932=ORIENTED_EDGE('',*,*,#678,.F.);
#933=ORIENTED_EDGE('',*,*,#679,.F.);
#934=ORIENTED_EDGE('',*,*,#677,.F.);
#935=ORIENTED_EDGE('',*,*,#676,.F.);
#936=ORIENTED_EDGE('',*,*,#679,.T.);
#937=ORIENTED_EDGE('',*,*,#680,.T.);
#938=ORIENTED_EDGE('',*,*,#618,.F.);
#939=ORIENTED_EDGE('',*,*,#680,.F.);
#940=ORIENTED_EDGE('',*,*,#678,.T.);
#941=ORIENTED_EDGE('',*,*,#681,.T.);
#942=ORIENTED_EDGE('',*,*,#682,.T.);
#943=ORIENTED_EDGE('',*,*,#639,.F.);
#944=ORIENTED_EDGE('',*,*,#682,.F.);
#945=ORIENTED_EDGE('',*,*,#683,.T.);
#946=ORIENTED_EDGE('',*,*,#681,.F.);
#947=ORIENTED_EDGE('',*,*,#684,.T.);
#948=ORIENTED_EDGE('',*,*,#685,.F.);
#949=ORIENTED_EDGE('',*,*,#686,.F.);
#950=ORIENTED_EDGE('',*,*,#684,.F.);
#951=ORIENTED_EDGE('',*,*,#683,.F.);
#952=ORIENTED_EDGE('',*,*,#685,.T.);
#953=ORIENTED_EDGE('',*,*,#686,.T.);
#954=ORIENTED_EDGE('',*,*,#687,.T.);
#955=ORIENTED_EDGE('',*,*,#619,.F.);
#956=ORIENTED_EDGE('',*,*,#687,.F.);
#957=ORIENTED_EDGE('',*,*,#688,.T.);
#958=ORIENTED_EDGE('',*,*,#689,.T.);
#959=ORIENTED_EDGE('',*,*,#640,.F.);
#960=ORIENTED_EDGE('',*,*,#689,.F.);
#961=ORIENTED_EDGE('',*,*,#690,.T.);
#962=ORIENTED_EDGE('',*,*,#688,.F.);
#963=ORIENTED_EDGE('',*,*,#691,.T.);
#964=ORIENTED_EDGE('',*,*,#692,.F.);
#965=ORIENTED_EDGE('',*,*,#693,.F.);
#966=ORIENTED_EDGE('',*,*,#691,.F.);
#967=ORIENTED_EDGE('',*,*,#690,.F.);
#968=ORIENTED_EDGE('',*,*,#693,.T.);
#969=ORIENTED_EDGE('',*,*,#694,.T.);
#970=ORIENTED_EDGE('',*,*,#620,.F.);
#971=ORIENTED_EDGE('',*,*,#694,.F.);
#972=ORIENTED_EDGE('',*,*,#692,.T.);
#973=ORIENTED_EDGE('',*,*,#695,.T.);
#974=ORIENTED_EDGE('',*,*,#696,.T.);
#975=ORIENTED_EDGE('',*,*,#641,.F.);
#976=ORIENTED_EDGE('',*,*,#696,.F.);
#977=ORIENTED_EDGE('',*,*,#697,.T.);
#978=ORIENTED_EDGE('',*,*,#695,.F.);
#979=ORIENTED_EDGE('',*,*,#698,.T.);
#980=ORIENTED_EDGE('',*,*,#699,.F.);
#981=ORIENTED_EDGE('',*,*,#700,.F.);
#982=ORIENTED_EDGE('',*,*,#698,.F.);
#983=ORIENTED_EDGE('',*,*,#697,.F.);
#984=ORIENTED_EDGE('',*,*,#700,.T.);
#985=ORIENTED_EDGE('',*,*,#701,.T.);
#986=ORIENTED_EDGE('',*,*,#623,.F.);
#987=ORIENTED_EDGE('',*,*,#701,.F.);
#988=ORIENTED_EDGE('',*,*,#699,.T.);
#989=ORIENTED_EDGE('',*,*,#575,.F.);
#990=ORIENTED_EDGE('',*,*,#702,.F.);
#991=ORIENTED_EDGE('',*,*,#594,.F.);
#992=ORIENTED_EDGE('',*,*,#703,.T.);
#993=ORIENTED_EDGE('',*,*,#609,.T.);
#994=ORIENTED_EDGE('',*,*,#704,.F.);
#995=ORIENTED_EDGE('',*,*,#577,.T.);
#996=ORIENTED_EDGE('',*,*,#582,.T.);
#997=ORIENTED_EDGE('',*,*,#607,.T.);
#998=ORIENTED_EDGE('',*,*,#622,.F.);
#999=ORIENTED_EDGE('',*,*,#588,.F.);
#1000=ORIENTED_EDGE('',*,*,#580,.T.);
#1001=ORIENTED_EDGE('',*,*,#705,.T.);
#1002=ORIENTED_EDGE('',*,*,#706,.T.);
#1003=ORIENTED_EDGE('',*,*,#707,.T.);
#1004=ORIENTED_EDGE('',*,*,#708,.T.);
#1005=ORIENTED_EDGE('',*,*,#707,.F.);
#1006=ORIENTED_EDGE('',*,*,#708,.F.);
#1007=ORIENTED_EDGE('',*,*,#709,.T.);
#1008=ORIENTED_EDGE('',*,*,#612,.T.);
#1009=ORIENTED_EDGE('',*,*,#709,.F.);
#1010=ORIENTED_EDGE('',*,*,#595,.F.);
#1011=ORIENTED_EDGE('',*,*,#710,.T.);
#1012=ORIENTED_EDGE('',*,*,#711,.T.);
#1013=ORIENTED_EDGE('',*,*,#710,.F.);
#1014=ORIENTED_EDGE('',*,*,#705,.F.);
#1015=ORIENTED_EDGE('',*,*,#712,.T.);
#1016=ORIENTED_EDGE('',*,*,#711,.F.);
#1017=ORIENTED_EDGE('',*,*,#712,.F.);
#1018=ORIENTED_EDGE('',*,*,#706,.F.);
#1019=ORIENTED_EDGE('',*,*,#558,.F.);
#1020=ORIENTED_EDGE('',*,*,#590,.F.);
#1021=ORIENTED_EDGE('',*,*,#702,.T.);
#1022=ORIENTED_EDGE('',*,*,#574,.F.);
#1023=ORIENTED_EDGE('',*,*,#704,.T.);
#1024=ORIENTED_EDGE('',*,*,#608,.T.);
#1025=ORIENTED_EDGE('',*,*,#570,.F.);
#1026=ORIENTED_EDGE('',*,*,#578,.F.);
#1027=ORIENTED_EDGE('',*,*,#703,.F.);
#1028=ORIENTED_EDGE('',*,*,#593,.T.);
#1029=ORIENTED_EDGE('',*,*,#601,.F.);
#1030=ORIENTED_EDGE('',*,*,#610,.T.);
#1031=CYLINDRICAL_SURFACE('',#1117,4.);
#1032=CYLINDRICAL_SURFACE('',#1166,20.);
#1033=CYLINDRICAL_SURFACE('',#1186,1.25);
#1034=CYLINDRICAL_SURFACE('',#1193,1.25);
#1035=CYLINDRICAL_SURFACE('',#1199,1.25);
#1036=CYLINDRICAL_SURFACE('',#1205,1.25);
#1037=CYLINDRICAL_SURFACE('',#1211,1.6);
#1038=CYLINDRICAL_SURFACE('',#1217,1.6);
#1039=CYLINDRICAL_SURFACE('',#1224,1.6);
#1040=CYLINDRICAL_SURFACE('',#1231,1.6);
#1041=CYLINDRICAL_SURFACE('',#1238,1.5);
#1042=CYLINDRICAL_SURFACE('',#1242,11.);
#1043=CYLINDRICAL_SURFACE('',#1246,1.65);
#1044=CYLINDRICAL_SURFACE('',#1247,1.65);
#1045=CYLINDRICAL_SURFACE('',#1251,3.);
#1046=ADVANCED_FACE('',(#91),#1031,.F.);
#1047=ADVANCED_FACE('',(#92),#73,.T.);
#1048=ADVANCED_FACE('',(#93),#74,.T.);
#1049=ADVANCED_FACE('',(#94),#75,.F.);
#1050=ADVANCED_FACE('',(#95),#76,.F.);
#1051=ADVANCED_FACE('',(#96),#77,.F.);
#1052=ADVANCED_FACE('',(#97),#78,.F.);
#1053=ADVANCED_FACE('',(#98,#39),#79,.F.);
#1054=ADVANCED_FACE('',(#99),#15,.F.);
#1055=ADVANCED_FACE('',(#100),#80,.F.);
#1056=ADVANCED_FACE('',(#101),#81,.F.);
#1057=ADVANCED_FACE('',(#102),#82,.F.);
#1058=ADVANCED_FACE('',(#103),#83,.F.);
#1059=ADVANCED_FACE('',(#104,#40),#84,.F.);
#1060=ADVANCED_FACE('',(#105),#16,.F.);
#1061=ADVANCED_FACE('',(#106),#85,.F.);
#1062=ADVANCED_FACE('',(#107,#41,#42,#43,#44,#45,#46,#47,#48,#49,#50),#86,
 .F.);
#1063=ADVANCED_FACE('',(#108),#17,.T.);
#1064=ADVANCED_FACE('',(#109),#1032,.T.);
#1065=ADVANCED_FACE('',(#110),#18,.T.);
#1066=ADVANCED_FACE('',(#111,#51,#52,#53,#54,#55,#56,#57,#58,#59,#60),#87,
 .T.);
#1067=ADVANCED_FACE('',(#112),#19,.F.);
#1068=ADVANCED_FACE('',(#113),#20,.F.);
#1069=ADVANCED_FACE('',(#114),#1033,.F.);
#1070=ADVANCED_FACE('',(#115),#21,.F.);
#1071=ADVANCED_FACE('',(#116),#22,.F.);
#1072=ADVANCED_FACE('',(#117),#1034,.F.);
#1073=ADVANCED_FACE('',(#118),#23,.F.);
#1074=ADVANCED_FACE('',(#119),#24,.F.);
#1075=ADVANCED_FACE('',(#120),#1035,.F.);
#1076=ADVANCED_FACE('',(#121),#25,.F.);
#1077=ADVANCED_FACE('',(#122),#26,.F.);
#1078=ADVANCED_FACE('',(#123),#1036,.F.);
#1079=ADVANCED_FACE('',(#124),#27,.F.);
#1080=ADVANCED_FACE('',(#125),#28,.F.);
#1081=ADVANCED_FACE('',(#126),#1037,.F.);
#1082=ADVANCED_FACE('',(#127),#29,.F.);
#1083=ADVANCED_FACE('',(#128),#30,.F.);
#1084=ADVANCED_FACE('',(#129),#1038,.F.);
#1085=ADVANCED_FACE('',(#130),#31,.F.);
#1086=ADVANCED_FACE('',(#131),#32,.F.);
#1087=ADVANCED_FACE('',(#132),#1039,.F.);
#1088=ADVANCED_FACE('',(#133),#33,.F.);
#1089=ADVANCED_FACE('',(#134),#34,.F.);
#1090=ADVANCED_FACE('',(#135),#1040,.F.);
#1091=ADVANCED_FACE('',(#136),#35,.F.);
#1092=ADVANCED_FACE('',(#137),#36,.F.);
#1093=ADVANCED_FACE('',(#138),#1041,.F.);
#1094=ADVANCED_FACE('',(#139),#37,.F.);
#1095=ADVANCED_FACE('',(#140,#61,#62),#1042,.T.);
#1096=ADVANCED_FACE('',(#141),#1043,.F.);
#1097=ADVANCED_FACE('',(#142),#1044,.F.);
#1098=ADVANCED_FACE('',(#143,#63),#88,.T.);
#1099=ADVANCED_FACE('',(#144),#1045,.F.);
#1100=ADVANCED_FACE('',(#145),#89,.F.);
#1101=ADVANCED_FACE('',(#146),#90,.F.);
#1102=ADVANCED_FACE('',(#147),#38,.T.);
#1103=CLOSED_SHELL('',(#1046,#1047,#1048,#1049,#1050,#1051,#1052,#1053,
#1054,#1055,#1056,#1057,#1058,#1059,#1060,#1061,#1062,#1063,#1064,#1065,
#1066,#1067,#1068,#1069,#1070,#1071,#1072,#1073,#1074,#1075,#1076,#1077,
#1078,#1079,#1080,#1081,#1082,#1083,#1084,#1085,#1086,#1087,#1088,#1089,
#1090,#1091,#1092,#1093,#1094,#1095,#1096,#1097,#1098,#1099,#1100,#1101,
#1102));
#1104=DERIVED_UNIT_ELEMENT(#1106,1.);
#1105=DERIVED_UNIT_ELEMENT(#2025,-3.);
#1106=(
MASS_UNIT()
NAMED_UNIT(*)
SI_UNIT(.KILO.,.GRAM.)
);
#1107=DERIVED_UNIT((#1104,#1105));
#1108=MEASURE_REPRESENTATION_ITEM('density measure',
POSITIVE_RATIO_MEASURE(7850.),#1107);
#1109=PROPERTY_DEFINITION_REPRESENTATION(#1114,#1111);
#1110=PROPERTY_DEFINITION_REPRESENTATION(#1115,#1112);
#1111=REPRESENTATION('material name',(#1113),#2022);
#1112=REPRESENTATION('density',(#1108),#2022);
#1113=DESCRIPTIVE_REPRESENTATION_ITEM('Steel','Steel');
#1114=PROPERTY_DEFINITION('material property','material name',#2032);
#1115=PROPERTY_DEFINITION('material property','density of part',#2032);
#1116=AXIS2_PLACEMENT_3D('',#1602,#1255,#1256);
#1117=AXIS2_PLACEMENT_3D('',#1603,#1257,#1258);
#1118=AXIS2_PLACEMENT_3D('',#1606,#1259,#1260);
#1119=AXIS2_PLACEMENT_3D('',#1610,#1262,#1263);
#1120=AXIS2_PLACEMENT_3D('',#1614,#1265,#1266);
#1121=AXIS2_PLACEMENT_3D('',#1618,#1268,#1269);
#1122=AXIS2_PLACEMENT_3D('',#1622,#1271,#1272);
#1123=AXIS2_PLACEMENT_3D('',#1626,#1274,#1275);
#1124=AXIS2_PLACEMENT_3D('',#1627,#1276,#1277);
#1125=AXIS2_PLACEMENT_3D('',#1629,#1278,#1279);
#1126=AXIS2_PLACEMENT_3D('',#1633,#1281,#1282);
#1127=AXIS2_PLACEMENT_3D('',#1637,#1284,#1285);
#1128=AXIS2_PLACEMENT_3D('',#1641,#1287,#1288);
#1129=AXIS2_PLACEMENT_3D('',#1643,#1290,#1291);
#1130=AXIS2_PLACEMENT_3D('',#1649,#1295,#1296);
#1131=AXIS2_PLACEMENT_3D('',#1655,#1300,#1301);
#1132=AXIS2_PLACEMENT_3D('',#1657,#1302,#1303);
#1133=AXIS2_PLACEMENT_3D('',#1659,#1305,#1306);
#1134=AXIS2_PLACEMENT_3D('',#1661,#1307,#1308);
#1135=AXIS2_PLACEMENT_3D('',#1663,#1310,#1311);
#1136=AXIS2_PLACEMENT_3D('',#1676,#1315,#1316);
#1137=AXIS2_PLACEMENT_3D('',#1680,#1319,#1320);
#1138=AXIS2_PLACEMENT_3D('',#1698,#1324,#1325);
#1139=AXIS2_PLACEMENT_3D('',#1699,#1326,#1327);
#1140=AXIS2_PLACEMENT_3D('',#1700,#1328,#1329);
#1141=AXIS2_PLACEMENT_3D('',#1701,#1330,#1331);
#1142=AXIS2_PLACEMENT_3D('',#1707,#1334,#1335);
#1143=AXIS2_PLACEMENT_3D('',#1710,#1337,#1338);
#1144=AXIS2_PLACEMENT_3D('',#1711,#1339,#1340);
#1145=AXIS2_PLACEMENT_3D('',#1715,#1343,#1344);
#1146=AXIS2_PLACEMENT_3D('',#1723,#1346,#1347);
#1147=AXIS2_PLACEMENT_3D('',#1727,#1350,#1351);
#1148=AXIS2_PLACEMENT_3D('',#1742,#1354,#1355);
#1149=AXIS2_PLACEMENT_3D('',#1743,#1356,#1357);
#1150=AXIS2_PLACEMENT_3D('',#1744,#1358,#1359);
#1151=AXIS2_PLACEMENT_3D('',#1745,#1360,#1361);
#1152=AXIS2_PLACEMENT_3D('',#1747,#1362,#1363);
#1153=AXIS2_PLACEMENT_3D('',#1749,#1364,#1365);
#1154=AXIS2_PLACEMENT_3D('',#1751,#1366,#1367);
#1155=AXIS2_PLACEMENT_3D('',#1753,#1368,#1369);
#1156=AXIS2_PLACEMENT_3D('',#1755,#1370,#1371);
#1157=AXIS2_PLACEMENT_3D('',#1757,#1372,#1373);
#1158=AXIS2_PLACEMENT_3D('',#1759,#1374,#1375);
#1159=AXIS2_PLACEMENT_3D('',#1761,#1376,#1377);
#1160=AXIS2_PLACEMENT_3D('',#1763,#1378,#1379);
#1161=AXIS2_PLACEMENT_3D('',#1764,#1380,#1381);
#1162=AXIS2_PLACEMENT_3D('',#1766,#1382,#1383);
#1163=AXIS2_PLACEMENT_3D('',#1767,#1384,#1385);
#1164=AXIS2_PLACEMENT_3D('',#1770,#1386,#1387);
#1165=AXIS2_PLACEMENT_3D('',#1772,#1389,#1390);
#1166=AXIS2_PLACEMENT_3D('',#1773,#1391,#1392);
#1167=AXIS2_PLACEMENT_3D('',#1776,#1393,#1394);
#1168=AXIS2_PLACEMENT_3D('',#1777,#1395,#1396);
#1169=AXIS2_PLACEMENT_3D('',#1779,#1398,#1399);
#1170=AXIS2_PLACEMENT_3D('',#1782,#1401,#1402);
#1171=AXIS2_PLACEMENT_3D('',#1783,#1403,#1404);
#1172=AXIS2_PLACEMENT_3D('',#1785,#1405,#1406);
#1173=AXIS2_PLACEMENT_3D('',#1787,#1407,#1408);
#1174=AXIS2_PLACEMENT_3D('',#1789,#1409,#1410);
#1175=AXIS2_PLACEMENT_3D('',#1791,#1411,#1412);
#1176=AXIS2_PLACEMENT_3D('',#1793,#1413,#1414);
#1177=AXIS2_PLACEMENT_3D('',#1795,#1415,#1416);
#1178=AXIS2_PLACEMENT_3D('',#1797,#1417,#1418);
#1179=AXIS2_PLACEMENT_3D('',#1799,#1419,#1420);
#1180=AXIS2_PLACEMENT_3D('',#1801,#1421,#1422);
#1181=AXIS2_PLACEMENT_3D('',#1803,#1423,#1424);
#1182=AXIS2_PLACEMENT_3D('',#1804,#1425,#1426);
#1183=AXIS2_PLACEMENT_3D('',#1806,#1428,#1429);
#1184=AXIS2_PLACEMENT_3D('',#1809,#1430,#1431);
#1185=AXIS2_PLACEMENT_3D('',#1811,#1433,#1434);
#1186=AXIS2_PLACEMENT_3D('',#1812,#1435,#1436);
#1187=AXIS2_PLACEMENT_3D('',#1815,#1437,#1438);
#1188=AXIS2_PLACEMENT_3D('',#1817,#1440,#1441);
#1189=AXIS2_PLACEMENT_3D('',#1818,#1442,#1443);
#1190=AXIS2_PLACEMENT_3D('',#1820,#1445,#1446);
#1191=AXIS2_PLACEMENT_3D('',#1823,#1447,#1448);
#1192=AXIS2_PLACEMENT_3D('',#1825,#1450,#1451);
#1193=AXIS2_PLACEMENT_3D('',#1826,#1452,#1453);
#1194=AXIS2_PLACEMENT_3D('',#1829,#1454,#1455);
#1195=AXIS2_PLACEMENT_3D('',#1830,#1456,#1457);
#1196=AXIS2_PLACEMENT_3D('',#1832,#1459,#1460);
#1197=AXIS2_PLACEMENT_3D('',#1834,#1462,#1463);
#1198=AXIS2_PLACEMENT_3D('',#1836,#1464,#1465);
#1199=AXIS2_PLACEMENT_3D('',#1838,#1467,#1468);
#1200=AXIS2_PLACEMENT_3D('',#1840,#1469,#1470);
#1201=AXIS2_PLACEMENT_3D('',#1842,#1472,#1473);
#1202=AXIS2_PLACEMENT_3D('',#1844,#1475,#1476);
#1203=AXIS2_PLACEMENT_3D('',#1847,#1477,#1478);
#1204=AXIS2_PLACEMENT_3D('',#1849,#1480,#1481);
#1205=AXIS2_PLACEMENT_3D('',#1850,#1482,#1483);
#1206=AXIS2_PLACEMENT_3D('',#1853,#1484,#1485);
#1207=AXIS2_PLACEMENT_3D('',#1855,#1487,#1488);
#1208=AXIS2_PLACEMENT_3D('',#1856,#1489,#1490);
#1209=AXIS2_PLACEMENT_3D('',#1858,#1492,#1493);
#1210=AXIS2_PLACEMENT_3D('',#1860,#1494,#1495);
#1211=AXIS2_PLACEMENT_3D('',#1862,#1497,#1498);
#1212=AXIS2_PLACEMENT_3D('',#1865,#1500,#1501);
#1213=AXIS2_PLACEMENT_3D('',#1866,#1502,#1503);
#1214=AXIS2_PLACEMENT_3D('',#1868,#1505,#1506);
#1215=AXIS2_PLACEMENT_3D('',#1871,#1507,#1508);
#1216=AXIS2_PLACEMENT_3D('',#1873,#1510,#1511);
#1217=AXIS2_PLACEMENT_3D('',#1874,#1512,#1513);
#1218=AXIS2_PLACEMENT_3D('',#1878,#1515,#1516);
#1219=AXIS2_PLACEMENT_3D('',#1879,#1517,#1518);
#1220=AXIS2_PLACEMENT_3D('',#1880,#1519,#1520);
#1221=AXIS2_PLACEMENT_3D('',#1882,#1522,#1523);
#1222=AXIS2_PLACEMENT_3D('',#1885,#1524,#1525);
#1223=AXIS2_PLACEMENT_3D('',#1887,#1527,#1528);
#1224=AXIS2_PLACEMENT_3D('',#1888,#1529,#1530);
#1225=AXIS2_PLACEMENT_3D('',#1892,#1532,#1533);
#1226=AXIS2_PLACEMENT_3D('',#1893,#1534,#1535);
#1227=AXIS2_PLACEMENT_3D('',#1894,#1536,#1537);
#1228=AXIS2_PLACEMENT_3D('',#1896,#1539,#1540);
#1229=AXIS2_PLACEMENT_3D('',#1899,#1541,#1542);
#1230=AXIS2_PLACEMENT_3D('',#1901,#1544,#1545);
#1231=AXIS2_PLACEMENT_3D('',#1902,#1546,#1547);
#1232=AXIS2_PLACEMENT_3D('',#1906,#1549,#1550);
#1233=AXIS2_PLACEMENT_3D('',#1907,#1551,#1552);
#1234=AXIS2_PLACEMENT_3D('',#1908,#1553,#1554);
#1235=AXIS2_PLACEMENT_3D('',#1910,#1556,#1557);
#1236=AXIS2_PLACEMENT_3D('',#1913,#1558,#1559);
#1237=AXIS2_PLACEMENT_3D('',#1915,#1561,#1562);
#1238=AXIS2_PLACEMENT_3D('',#1916,#1563,#1564);
#1239=AXIS2_PLACEMENT_3D('',#1920,#1566,#1567);
#1240=AXIS2_PLACEMENT_3D('',#1921,#1568,#1569);
#1241=AXIS2_PLACEMENT_3D('',#1922,#1570,#1571);
#1242=AXIS2_PLACEMENT_3D('',#1924,#1573,#1574);
#1243=AXIS2_PLACEMENT_3D('',#1925,#1575,#1576);
#1244=AXIS2_PLACEMENT_3D('',#1926,#1577,#1578);
#1245=AXIS2_PLACEMENT_3D('',#1927,#1579,#1580);
#1246=AXIS2_PLACEMENT_3D('',#2008,#1582,#1583);
#1247=AXIS2_PLACEMENT_3D('',#2010,#1585,#1586);
#1248=AXIS2_PLACEMENT_3D('',#2013,#1588,#1589);
#1249=AXIS2_PLACEMENT_3D('',#2014,#1590,#1591);
#1250=AXIS2_PLACEMENT_3D('',#2015,#1592,#1593);
#1251=AXIS2_PLACEMENT_3D('',#2016,#1594,#1595);
#1252=AXIS2_PLACEMENT_3D('',#2017,#1596,#1597);
#1253=AXIS2_PLACEMENT_3D('',#2018,#1598,#1599);
#1254=AXIS2_PLACEMENT_3D('',#2019,#1600,#1601);
#1255=DIRECTION('axis',(0.,0.,1.));
#1256=DIRECTION('refdir',(1.,0.,0.));
#1257=DIRECTION('center_axis',(0.,1.,0.));
#1258=DIRECTION('ref_axis',(1.,0.,0.));
#1259=DIRECTION('center_axis',(0.,1.,0.));
#1260=DIRECTION('ref_axis',(0.992156741649221,0.,0.125000000000003));
#1261=DIRECTION('',(0.,1.,0.));
#1262=DIRECTION('center_axis',(0.,-1.,0.));
#1263=DIRECTION('ref_axis',(0.992156741649221,0.,0.125000000000003));
#1264=DIRECTION('',(0.,1.,0.));
#1265=DIRECTION('center_axis',(0.,1.,0.));
#1266=DIRECTION('ref_axis',(-0.992156741649221,0.,0.125000000000003));
#1267=DIRECTION('',(0.,1.,0.));
#1268=DIRECTION('center_axis',(0.,1.,0.));
#1269=DIRECTION('ref_axis',(-0.992156741649221,0.,0.125000000000003));
#1270=DIRECTION('',(0.,1.,0.));
#1271=DIRECTION('center_axis',(0.,1.,0.));
#1272=DIRECTION('ref_axis',(-0.992156741649221,0.,-0.125000000000003));
#1273=DIRECTION('',(0.,1.,0.));
#1274=DIRECTION('center_axis',(0.,-1.,0.));
#1275=DIRECTION('ref_axis',(1.,0.,0.));
#1276=DIRECTION('center_axis',(0.,-1.,0.));
#1277=DIRECTION('ref_axis',(1.,0.,0.));
#1278=DIRECTION('center_axis',(0.,1.,0.));
#1279=DIRECTION('ref_axis',(-0.992156741649221,0.,-0.125000000000003));
#1280=DIRECTION('',(0.,1.,0.));
#1281=DIRECTION('center_axis',(0.,1.,0.));
#1282=DIRECTION('ref_axis',(-0.500000000000017,0.,-0.866025403784429));
#1283=DIRECTION('',(0.,1.,0.));
#1284=DIRECTION('center_axis',(0.,1.,0.));
#1285=DIRECTION('ref_axis',(-0.500000000000017,0.,-0.866025403784429));
#1286=DIRECTION('',(0.,1.,0.));
#1287=DIRECTION('center_axis',(0.,-1.,0.));
#1288=DIRECTION('ref_axis',(-0.992156741649221,0.,-0.125000000000003));
#1289=DIRECTION('',(0.,1.,0.));
#1290=DIRECTION('center_axis',(-1.,0.,0.));
#1291=DIRECTION('ref_axis',(0.,-1.,0.));
#1292=DIRECTION('',(0.,0.,1.));
#1293=DIRECTION('',(0.,1.,0.));
#1294=DIRECTION('',(0.,0.,-1.));
#1295=DIRECTION('center_axis',(-1.,0.,0.));
#1296=DIRECTION('ref_axis',(0.,-1.,0.));
#1297=DIRECTION('',(0.,1.,0.));
#1298=DIRECTION('',(0.,0.,1.));
#1299=DIRECTION('',(0.,0.,-1.));
#1300=DIRECTION('center_axis',(0.,1.,0.));
#1301=DIRECTION('ref_axis',(0.,0.,-1.));
#1302=DIRECTION('center_axis',(0.,1.,0.));
#1303=DIRECTION('ref_axis',(-0.998966407992541,0.,0.0454545454545519));
#1304=DIRECTION('',(1.,0.,0.));
#1305=DIRECTION('center_axis',(0.,1.,0.));
#1306=DIRECTION('ref_axis',(0.,0.,-1.));
#1307=DIRECTION('center_axis',(0.,1.,0.));
#1308=DIRECTION('ref_axis',(-0.181818181818205,0.,-0.983332166035629));
#1309=DIRECTION('',(1.,0.,0.));
#1310=DIRECTION('center_axis',(0.,0.,1.));
#1311=DIRECTION('ref_axis',(-1.,0.,0.));
#1312=DIRECTION('',(-1.,0.,0.));
#1313=DIRECTION('',(0.,1.,0.));
#1314=DIRECTION('',(1.,0.,0.));
#1315=DIRECTION('center_axis',(0.,0.,1.));
#1316=DIRECTION('ref_axis',(-1.,0.,0.));
#1317=DIRECTION('',(0.,1.,0.));
#1318=DIRECTION('',(-1.,0.,0.));
#1319=DIRECTION('center_axis',(0.,0.,1.));
#1320=DIRECTION('ref_axis',(-1.,0.,0.));
#1321=DIRECTION('',(1.,0.,0.));
#1322=DIRECTION('',(1.,0.,0.));
#1323=DIRECTION('',(0.,1.,0.));
#1324=DIRECTION('center_axis',(0.,0.,1.));
#1325=DIRECTION('ref_axis',(-1.,0.,0.));
#1326=DIRECTION('center_axis',(0.,-1.,0.));
#1327=DIRECTION('ref_axis',(1.22464679914735E-16,0.,1.));
#1328=DIRECTION('center_axis',(0.,-1.,0.));
#1329=DIRECTION('ref_axis',(0.993807989999908,0.,0.111111111111101));
#1330=DIRECTION('center_axis',(0.,1.,0.));
#1331=DIRECTION('ref_axis',(1.,0.,0.));
#1332=DIRECTION('',(0.,0.,1.));
#1333=DIRECTION('',(1.,0.,0.));
#1334=DIRECTION('center_axis',(0.,-1.,0.));
#1335=DIRECTION('ref_axis',(-0.993807989999908,0.,-0.111111111111101));
#1336=DIRECTION('',(1.,0.,0.));
#1337=DIRECTION('center_axis',(0.,-1.,0.));
#1338=DIRECTION('ref_axis',(-0.998865569685859,0.,-0.047619047619048));
#1339=DIRECTION('center_axis',(1.,0.,0.));
#1340=DIRECTION('ref_axis',(0.,0.,1.));
#1341=DIRECTION('',(0.,0.,1.));
#1342=DIRECTION('',(0.,1.,0.));
#1343=DIRECTION('center_axis',(0.,0.,-1.));
#1344=DIRECTION('ref_axis',(1.,0.,0.));
#1345=DIRECTION('',(1.,0.,0.));
#1346=DIRECTION('center_axis',(0.,0.,-1.));
#1347=DIRECTION('ref_axis',(1.,0.,0.));
#1348=DIRECTION('',(1.,0.,0.));
#1349=DIRECTION('',(0.,1.,0.));
#1350=DIRECTION('center_axis',(0.,0.,-1.));
#1351=DIRECTION('ref_axis',(1.,0.,0.));
#1352=DIRECTION('',(1.,0.,0.));
#1353=DIRECTION('',(0.,1.,0.));
#1354=DIRECTION('center_axis',(0.,0.,1.));
#1355=DIRECTION('ref_axis',(-1.,0.,0.));
#1356=DIRECTION('center_axis',(0.,-1.,0.));
#1357=DIRECTION('ref_axis',(0.,0.,-1.));
#1358=DIRECTION('center_axis',(0.,1.,0.));
#1359=DIRECTION('ref_axis',(1.,0.,0.));
#1360=DIRECTION('center_axis',(0.,1.,0.));
#1361=DIRECTION('ref_axis',(1.,0.,0.));
#1362=DIRECTION('center_axis',(0.,-1.,0.));
#1363=DIRECTION('ref_axis',(1.,0.,0.));
#1364=DIRECTION('center_axis',(0.,1.,0.));
#1365=DIRECTION('ref_axis',(1.,0.,0.));
#1366=DIRECTION('center_axis',(0.,1.,0.));
#1367=DIRECTION('ref_axis',(0.,0.,1.));
#1368=DIRECTION('center_axis',(0.,1.,0.));
#1369=DIRECTION('ref_axis',(0.,0.,1.));
#1370=DIRECTION('center_axis',(0.,1.,0.));
#1371=DIRECTION('ref_axis',(-1.,0.,0.));
#1372=DIRECTION('center_axis',(0.,1.,0.));
#1373=DIRECTION('ref_axis',(1.,0.,0.));
#1374=DIRECTION('center_axis',(0.,1.,0.));
#1375=DIRECTION('ref_axis',(0.,0.,-1.));
#1376=DIRECTION('center_axis',(0.,1.,0.));
#1377=DIRECTION('ref_axis',(1.,0.,0.));
#1378=DIRECTION('center_axis',(0.,1.,0.));
#1379=DIRECTION('ref_axis',(0.,0.,1.));
#1380=DIRECTION('center_axis',(0.,1.,0.));
#1381=DIRECTION('ref_axis',(-0.998966407992541,0.,0.0454545454545519));
#1382=DIRECTION('center_axis',(0.,1.,0.));
#1383=DIRECTION('ref_axis',(1.,0.,0.));
#1384=DIRECTION('center_axis',(0.,1.,0.));
#1385=DIRECTION('ref_axis',(0.,0.,-1.));
#1386=DIRECTION('center_axis',(0.,-1.,0.));
#1387=DIRECTION('ref_axis',(1.,0.,0.));
#1388=DIRECTION('',(-8.65956056235493E-17,-0.707106781186547,-0.707106781186547));
#1389=DIRECTION('center_axis',(0.,-1.,0.));
#1390=DIRECTION('ref_axis',(1.,0.,0.));
#1391=DIRECTION('center_axis',(0.,1.,0.));
#1392=DIRECTION('ref_axis',(1.,0.,0.));
#1393=DIRECTION('center_axis',(0.,-1.,0.));
#1394=DIRECTION('ref_axis',(-1.,0.,0.));
#1395=DIRECTION('center_axis',(0.,-1.,0.));
#1396=DIRECTION('ref_axis',(-1.,0.,0.));
#1397=DIRECTION('',(0.,-1.,0.));
#1398=DIRECTION('center_axis',(0.,-1.,0.));
#1399=DIRECTION('ref_axis',(0.,0.,-1.));
#1400=DIRECTION('',(8.65956056235493E-17,0.707106781186547,-0.707106781186547));
#1401=DIRECTION('center_axis',(0.,-1.,0.));
#1402=DIRECTION('ref_axis',(-1.,0.,0.));
#1403=DIRECTION('center_axis',(0.,1.,0.));
#1404=DIRECTION('ref_axis',(1.,0.,0.));
#1405=DIRECTION('center_axis',(0.,-1.,0.));
#1406=DIRECTION('ref_axis',(1.,0.,0.));
#1407=DIRECTION('center_axis',(0.,-1.,0.));
#1408=DIRECTION('ref_axis',(-1.,0.,0.));
#1409=DIRECTION('center_axis',(0.,-1.,0.));
#1410=DIRECTION('ref_axis',(0.,0.,1.));
#1411=DIRECTION('center_axis',(0.,-1.,0.));
#1412=DIRECTION('ref_axis',(0.,0.,-1.));
#1413=DIRECTION('center_axis',(0.,-1.,0.));
#1414=DIRECTION('ref_axis',(-1.,0.,0.));
#1415=DIRECTION('center_axis',(0.,-1.,0.));
#1416=DIRECTION('ref_axis',(0.,0.,-1.));
#1417=DIRECTION('center_axis',(0.,-1.,0.));
#1418=DIRECTION('ref_axis',(-1.,0.,0.));
#1419=DIRECTION('center_axis',(0.,-1.,0.));
#1420=DIRECTION('ref_axis',(0.,0.,1.));
#1421=DIRECTION('center_axis',(0.,-1.,0.));
#1422=DIRECTION('ref_axis',(-1.,0.,0.));
#1423=DIRECTION('center_axis',(0.,-1.,0.));
#1424=DIRECTION('ref_axis',(-1.,0.,0.));
#1425=DIRECTION('center_axis',(0.,1.,0.));
#1426=DIRECTION('ref_axis',(0.,0.,-1.));
#1427=DIRECTION('',(8.65956056235493E-17,0.707106781186548,0.707106781186548));
#1428=DIRECTION('center_axis',(0.,1.,0.));
#1429=DIRECTION('ref_axis',(0.,0.,-1.));
#1430=DIRECTION('center_axis',(0.,-1.,0.));
#1431=DIRECTION('ref_axis',(-1.,0.,0.));
#1432=DIRECTION('',(8.65956056235493E-17,0.707106781186548,0.707106781186548));
#1433=DIRECTION('center_axis',(0.,-1.,0.));
#1434=DIRECTION('ref_axis',(-1.,0.,0.));
#1435=DIRECTION('center_axis',(0.,1.,0.));
#1436=DIRECTION('ref_axis',(-1.,0.,0.));
#1437=DIRECTION('center_axis',(0.,1.,0.));
#1438=DIRECTION('ref_axis',(-1.,0.,0.));
#1439=DIRECTION('',(0.,1.,0.));
#1440=DIRECTION('center_axis',(0.,1.,0.));
#1441=DIRECTION('ref_axis',(-1.,0.,0.));
#1442=DIRECTION('center_axis',(0.,-1.,0.));
#1443=DIRECTION('ref_axis',(0.,0.,-1.));
#1444=DIRECTION('',(-8.65956056235493E-17,-0.707106781186548,0.707106781186548));
#1445=DIRECTION('center_axis',(0.,1.,0.));
#1446=DIRECTION('ref_axis',(0.,0.,-1.));
#1447=DIRECTION('center_axis',(0.,-1.,0.));
#1448=DIRECTION('ref_axis',(0.,0.,1.));
#1449=DIRECTION('',(8.65956056235493E-17,0.707106781186548,0.707106781186548));
#1450=DIRECTION('center_axis',(0.,-1.,0.));
#1451=DIRECTION('ref_axis',(0.,0.,1.));
#1452=DIRECTION('center_axis',(0.,1.,0.));
#1453=DIRECTION('ref_axis',(0.,0.,1.));
#1454=DIRECTION('center_axis',(0.,1.,0.));
#1455=DIRECTION('ref_axis',(0.,0.,1.));
#1456=DIRECTION('center_axis',(0.,1.,0.));
#1457=DIRECTION('ref_axis',(0.,0.,1.));
#1458=DIRECTION('',(0.,1.,0.));
#1459=DIRECTION('center_axis',(0.,-1.,0.));
#1460=DIRECTION('ref_axis',(0.,0.,-1.));
#1461=DIRECTION('',(-8.65956056235493E-17,-0.707106781186548,0.707106781186548));
#1462=DIRECTION('center_axis',(0.,1.,0.));
#1463=DIRECTION('ref_axis',(0.,0.,-1.));
#1464=DIRECTION('center_axis',(0.,-1.,0.));
#1465=DIRECTION('ref_axis',(0.,0.,-1.));
#1466=DIRECTION('',(8.65956056235493E-17,0.707106781186548,0.707106781186548));
#1467=DIRECTION('center_axis',(0.,1.,0.));
#1468=DIRECTION('ref_axis',(0.,0.,-1.));
#1469=DIRECTION('center_axis',(0.,1.,0.));
#1470=DIRECTION('ref_axis',(0.,0.,-1.));
#1471=DIRECTION('',(0.,1.,0.));
#1472=DIRECTION('center_axis',(0.,-1.,0.));
#1473=DIRECTION('ref_axis',(0.,0.,-1.));
#1474=DIRECTION('',(-8.65956056235493E-17,-0.707106781186548,0.707106781186548));
#1475=DIRECTION('center_axis',(0.,1.,0.));
#1476=DIRECTION('ref_axis',(0.,0.,-1.));
#1477=DIRECTION('center_axis',(0.,-1.,0.));
#1478=DIRECTION('ref_axis',(-1.,0.,0.));
#1479=DIRECTION('',(8.65956056235493E-17,0.707106781186548,0.707106781186548));
#1480=DIRECTION('center_axis',(0.,-1.,0.));
#1481=DIRECTION('ref_axis',(-1.,0.,0.));
#1482=DIRECTION('center_axis',(0.,1.,0.));
#1483=DIRECTION('ref_axis',(1.,0.,0.));
#1484=DIRECTION('center_axis',(0.,1.,0.));
#1485=DIRECTION('ref_axis',(-1.,0.,0.));
#1486=DIRECTION('',(0.,1.,0.));
#1487=DIRECTION('center_axis',(0.,1.,0.));
#1488=DIRECTION('ref_axis',(-1.,0.,0.));
#1489=DIRECTION('center_axis',(0.,-1.,0.));
#1490=DIRECTION('ref_axis',(0.,0.,-1.));
#1491=DIRECTION('',(-8.65956056235493E-17,-0.707106781186548,0.707106781186548));
#1492=DIRECTION('center_axis',(0.,1.,0.));
#1493=DIRECTION('ref_axis',(0.,0.,-1.));
#1494=DIRECTION('center_axis',(0.,-1.,0.));
#1495=DIRECTION('ref_axis',(0.,0.,-1.));
#1496=DIRECTION('',(8.65956056235493E-17,0.707106781186548,0.707106781186548));
#1497=DIRECTION('center_axis',(0.,-1.,0.));
#1498=DIRECTION('ref_axis',(0.,0.,-1.));
#1499=DIRECTION('',(0.,-1.,0.));
#1500=DIRECTION('center_axis',(0.,1.,0.));
#1501=DIRECTION('ref_axis',(0.,0.,-1.));
#1502=DIRECTION('center_axis',(0.,-1.,0.));
#1503=DIRECTION('ref_axis',(0.,0.,-1.));
#1504=DIRECTION('',(-8.65956056235493E-17,-0.707106781186548,0.707106781186548));
#1505=DIRECTION('center_axis',(0.,1.,0.));
#1506=DIRECTION('ref_axis',(0.,0.,-1.));
#1507=DIRECTION('center_axis',(0.,-1.,0.));
#1508=DIRECTION('ref_axis',(-1.,0.,0.));
#1509=DIRECTION('',(8.65956056235493E-17,0.707106781186548,0.707106781186548));
#1510=DIRECTION('center_axis',(0.,-1.,0.));
#1511=DIRECTION('ref_axis',(-1.,0.,0.));
#1512=DIRECTION('center_axis',(0.,-1.,0.));
#1513=DIRECTION('ref_axis',(-1.,0.,0.));
#1514=DIRECTION('',(0.,-1.,0.));
#1515=DIRECTION('center_axis',(0.,1.,0.));
#1516=DIRECTION('ref_axis',(-1.,0.,0.));
#1517=DIRECTION('center_axis',(0.,1.,0.));
#1518=DIRECTION('ref_axis',(-1.,0.,0.));
#1519=DIRECTION('center_axis',(0.,-1.,0.));
#1520=DIRECTION('ref_axis',(0.,0.,-1.));
#1521=DIRECTION('',(-8.65956056235493E-17,-0.707106781186548,0.707106781186548));
#1522=DIRECTION('center_axis',(0.,1.,0.));
#1523=DIRECTION('ref_axis',(0.,0.,-1.));
#1524=DIRECTION('center_axis',(0.,-1.,0.));
#1525=DIRECTION('ref_axis',(0.,0.,1.));
#1526=DIRECTION('',(8.65956056235493E-17,0.707106781186548,0.707106781186548));
#1527=DIRECTION('center_axis',(0.,-1.,0.));
#1528=DIRECTION('ref_axis',(0.,0.,1.));
#1529=DIRECTION('center_axis',(0.,-1.,0.));
#1530=DIRECTION('ref_axis',(0.,0.,1.));
#1531=DIRECTION('',(0.,-1.,0.));
#1532=DIRECTION('center_axis',(0.,1.,0.));
#1533=DIRECTION('ref_axis',(0.,0.,1.));
#1534=DIRECTION('center_axis',(0.,1.,0.));
#1535=DIRECTION('ref_axis',(0.,0.,1.));
#1536=DIRECTION('center_axis',(0.,-1.,0.));
#1537=DIRECTION('ref_axis',(0.,0.,-1.));
#1538=DIRECTION('',(-8.65956056235493E-17,-0.707106781186548,0.707106781186548));
#1539=DIRECTION('center_axis',(0.,1.,0.));
#1540=DIRECTION('ref_axis',(0.,0.,-1.));
#1541=DIRECTION('center_axis',(0.,-1.,0.));
#1542=DIRECTION('ref_axis',(-1.,0.,0.));
#1543=DIRECTION('',(8.65956056235493E-17,0.707106781186548,0.707106781186548));
#1544=DIRECTION('center_axis',(0.,-1.,0.));
#1545=DIRECTION('ref_axis',(-1.,0.,0.));
#1546=DIRECTION('center_axis',(0.,-1.,0.));
#1547=DIRECTION('ref_axis',(1.,0.,0.));
#1548=DIRECTION('',(0.,-1.,0.));
#1549=DIRECTION('center_axis',(0.,1.,0.));
#1550=DIRECTION('ref_axis',(-1.,0.,0.));
#1551=DIRECTION('center_axis',(0.,1.,0.));
#1552=DIRECTION('ref_axis',(-1.,0.,0.));
#1553=DIRECTION('center_axis',(0.,-1.,0.));
#1554=DIRECTION('ref_axis',(0.,0.,-1.));
#1555=DIRECTION('',(-8.65956056235493E-17,-0.707106781186548,0.707106781186548));
#1556=DIRECTION('center_axis',(0.,1.,0.));
#1557=DIRECTION('ref_axis',(0.,0.,-1.));
#1558=DIRECTION('center_axis',(0.,-1.,0.));
#1559=DIRECTION('ref_axis',(-1.,0.,0.));
#1560=DIRECTION('',(8.65956056235493E-17,0.707106781186548,0.707106781186548));
#1561=DIRECTION('center_axis',(0.,-1.,0.));
#1562=DIRECTION('ref_axis',(-1.,0.,0.));
#1563=DIRECTION('center_axis',(0.,-1.,0.));
#1564=DIRECTION('ref_axis',(1.,0.,0.));
#1565=DIRECTION('',(0.,-1.,0.));
#1566=DIRECTION('center_axis',(0.,1.,0.));
#1567=DIRECTION('ref_axis',(-1.,0.,0.));
#1568=DIRECTION('center_axis',(0.,1.,0.));
#1569=DIRECTION('ref_axis',(-1.,0.,0.));
#1570=DIRECTION('center_axis',(0.,-1.,0.));
#1571=DIRECTION('ref_axis',(0.,0.,-1.));
#1572=DIRECTION('',(-8.65956056235493E-17,-0.707106781186548,0.707106781186548));
#1573=DIRECTION('center_axis',(0.,1.,0.));
#1574=DIRECTION('ref_axis',(1.,0.,0.));
#1575=DIRECTION('center_axis',(0.,1.,0.));
#1576=DIRECTION('ref_axis',(-0.998966407992541,0.,0.0454545454545519));
#1577=DIRECTION('center_axis',(0.,1.,0.));
#1578=DIRECTION('ref_axis',(-0.998966407992541,0.,0.0454545454545519));
#1579=DIRECTION('center_axis',(0.,1.,0.));
#1580=DIRECTION('ref_axis',(-0.181818181818205,0.,-0.983332166035629));
#1581=DIRECTION('',(0.,1.,0.));
#1582=DIRECTION('center_axis',(0.,0.,1.));
#1583=DIRECTION('ref_axis',(-1.,0.,0.));
#1584=DIRECTION('',(0.,0.,1.));
#1585=DIRECTION('center_axis',(0.,0.,1.));
#1586=DIRECTION('ref_axis',(-1.,0.,0.));
#1587=DIRECTION('',(0.,0.,1.));
#1588=DIRECTION('center_axis',(0.,0.,1.));
#1589=DIRECTION('ref_axis',(-1.,0.,0.));
#1590=DIRECTION('center_axis',(0.,0.,1.));
#1591=DIRECTION('ref_axis',(-1.,0.,0.));
#1592=DIRECTION('center_axis',(0.,0.,1.));
#1593=DIRECTION('ref_axis',(-0.932652990377576,-0.360774721314791,0.));
#1594=DIRECTION('center_axis',(0.,0.,1.));
#1595=DIRECTION('ref_axis',(1.,-6.22291447679852E-13,0.));
#1596=DIRECTION('center_axis',(0.,-1.,0.));
#1597=DIRECTION('ref_axis',(0.,0.,1.));
#1598=DIRECTION('center_axis',(0.,-1.,0.));
#1599=DIRECTION('ref_axis',(0.,0.,1.));
#1600=DIRECTION('center_axis',(0.,1.,0.));
#1601=DIRECTION('ref_axis',(1.,0.,4.37044395851782E-14));
#1602=CARTESIAN_POINT('',(0.,0.,0.));
#1603=CARTESIAN_POINT('Origin',(0.,-14.7,0.));
#1604=CARTESIAN_POINT('',(3.968626966597,-4.,0.5));
#1605=CARTESIAN_POINT('',(3.968626966597,-4.,-0.5));
#1606=CARTESIAN_POINT('Origin',(0.,-4.,0.));
#1607=CARTESIAN_POINT('',(3.968626966597,-13.5,0.5));
#1608=CARTESIAN_POINT('',(3.968626966597,-13.5,0.5));
#1609=CARTESIAN_POINT('',(-3.968626966597,-13.5,0.5));
#1610=CARTESIAN_POINT('Origin',(0.,-13.5,0.));
#1611=CARTESIAN_POINT('',(-3.968626966597,-6.,0.5));
#1612=CARTESIAN_POINT('',(-3.968626966597,-13.5,0.5));
#1613=CARTESIAN_POINT('',(-2.,-6.,3.464101615138));
#1614=CARTESIAN_POINT('Origin',(0.,-6.,0.));
#1615=CARTESIAN_POINT('',(-2.,-5.,3.464101615138));
#1616=CARTESIAN_POINT('',(-2.,-6.,3.464101615138));
#1617=CARTESIAN_POINT('',(-3.968626966597,-5.,0.5));
#1618=CARTESIAN_POINT('Origin',(0.,-5.,0.));
#1619=CARTESIAN_POINT('',(-3.968626966597,-4.,0.5));
#1620=CARTESIAN_POINT('',(-3.968626966597,-5.,0.5));
#1621=CARTESIAN_POINT('',(-4.,-4.,4.89858719658941E-16));
#1622=CARTESIAN_POINT('Origin',(0.,-4.,0.));
#1623=CARTESIAN_POINT('',(-4.,-0.5,4.89858719658941E-16));
#1624=CARTESIAN_POINT('',(-4.,-14.7,4.89858719658941E-16));
#1625=CARTESIAN_POINT('',(4.89858719658972E-16,-0.50000000000025,4.00000000000025));
#1626=CARTESIAN_POINT('Origin',(0.,-0.5,0.));
#1627=CARTESIAN_POINT('Origin',(0.,-0.5,0.));
#1628=CARTESIAN_POINT('',(-3.968626966597,-4.,-0.5));
#1629=CARTESIAN_POINT('Origin',(0.,-4.,0.));
#1630=CARTESIAN_POINT('',(-3.968626966597,-5.,-0.5));
#1631=CARTESIAN_POINT('',(-3.968626966597,-5.,-0.5));
#1632=CARTESIAN_POINT('',(-2.,-5.,-3.464101615138));
#1633=CARTESIAN_POINT('Origin',(0.,-5.,0.));
#1634=CARTESIAN_POINT('',(-2.,-6.,-3.464101615138));
#1635=CARTESIAN_POINT('',(-2.,-6.,-3.464101615138));
#1636=CARTESIAN_POINT('',(-3.968626966597,-6.,-0.5));
#1637=CARTESIAN_POINT('Origin',(0.,-6.,0.));
#1638=CARTESIAN_POINT('',(-3.968626966597,-13.5,-0.5));
#1639=CARTESIAN_POINT('',(-3.968626966597,-13.5,-0.5));
#1640=CARTESIAN_POINT('',(3.968626966597,-13.5,-0.5));
#1641=CARTESIAN_POINT('Origin',(0.,-13.5,0.));
#1642=CARTESIAN_POINT('',(3.968626966597,-13.5,-0.5));
#1643=CARTESIAN_POINT('Origin',(-2.,0.,0.));
#1644=CARTESIAN_POINT('',(-2.,-6.,10.81665382639));
#1645=CARTESIAN_POINT('',(-2.,-6.,3.464101615138));
#1646=CARTESIAN_POINT('',(-2.,-5.,10.81665382639));
#1647=CARTESIAN_POINT('',(-2.,-6.,10.81665382639));
#1648=CARTESIAN_POINT('',(-2.,-5.,10.81665382639));
#1649=CARTESIAN_POINT('Origin',(-2.,0.,0.));
#1650=CARTESIAN_POINT('',(-2.,-6.,-10.81665382639));
#1651=CARTESIAN_POINT('',(-2.,-5.,-10.81665382639));
#1652=CARTESIAN_POINT('',(-2.,-6.,-10.81665382639));
#1653=CARTESIAN_POINT('',(-2.,-6.,-10.81665382639));
#1654=CARTESIAN_POINT('',(-2.,-5.,-3.464101615138));
#1655=CARTESIAN_POINT('Origin',(-2.,-5.,11.));
#1656=CARTESIAN_POINT('',(-10.98863048792,-5.,0.5));
#1657=CARTESIAN_POINT('Origin',(0.,-5.,0.));
#1658=CARTESIAN_POINT('',(-10.98863048792,-5.,0.5));
#1659=CARTESIAN_POINT('Origin',(-2.,-5.,11.));
#1660=CARTESIAN_POINT('',(-10.98863048792,-5.,-0.5));
#1661=CARTESIAN_POINT('Origin',(0.,-5.,0.));
#1662=CARTESIAN_POINT('',(-10.98863048792,-5.,-0.5));
#1663=CARTESIAN_POINT('Origin',(5.,-14.,0.5));
#1664=CARTESIAN_POINT('',(5.,-4.,0.5));
#1665=CARTESIAN_POINT('',(5.,-4.,0.5));
#1666=CARTESIAN_POINT('',(5.,-14.,0.5));
#1667=CARTESIAN_POINT('',(5.,-14.,0.5));
#1668=CARTESIAN_POINT('',(4.472135955,-14.,0.5));
#1669=CARTESIAN_POINT('',(4.472135955,-14.,0.5));
#1670=CARTESIAN_POINT('Ctrl Pts',(4.472135955,-14.,0.5));
#1671=CARTESIAN_POINT('Ctrl Pts',(4.415478439607,-13.94369330851,0.5));
#1672=CARTESIAN_POINT('Ctrl Pts',(4.302639259657,-13.83157922222,0.5));
#1673=CARTESIAN_POINT('Ctrl Pts',(4.134791476808,-13.66489694256,0.5));
#1674=CARTESIAN_POINT('Ctrl Pts',(4.023856511777,-13.55479636559,0.5));
#1675=CARTESIAN_POINT('Ctrl Pts',(3.968626966597,-13.5,0.5));
#1676=CARTESIAN_POINT('Origin',(5.,-14.,0.5));
#1677=CARTESIAN_POINT('',(-10.98863048792,-4.,0.5));
#1678=CARTESIAN_POINT('',(-10.98863048792,-5.,0.5));
#1679=CARTESIAN_POINT('',(-3.968626966597,-4.,0.5));
#1680=CARTESIAN_POINT('Origin',(5.,-14.,0.5));
#1681=CARTESIAN_POINT('',(-10.98863048792,-6.,0.5));
#1682=CARTESIAN_POINT('',(-10.98863048792,-6.,0.5));
#1683=CARTESIAN_POINT('',(-4.472135955,-14.,0.5));
#1684=CARTESIAN_POINT('Ctrl Pts',(-3.968626966597,-13.5,0.5));
#1685=CARTESIAN_POINT('Ctrl Pts',(-4.023842124239,-13.5547820909,0.5));
#1686=CARTESIAN_POINT('Ctrl Pts',(-4.134757916135,-13.66486362687,0.5));
#1687=CARTESIAN_POINT('Ctrl Pts',(-4.302605806988,-13.83154599026,0.5));
#1688=CARTESIAN_POINT('Ctrl Pts',(-4.415464106139,-13.94367906379,0.5));
#1689=CARTESIAN_POINT('Ctrl Pts',(-4.472135955,-14.,0.5));
#1690=CARTESIAN_POINT('',(-10.4880884817,-14.,0.5));
#1691=CARTESIAN_POINT('',(-10.4880884817,-14.,0.5));
#1692=CARTESIAN_POINT('',(-10.98863048792,-13.5,0.5));
#1693=CARTESIAN_POINT('Ctrl Pts',(-10.9886304879412,-13.4999999999771,0.5));
#1694=CARTESIAN_POINT('Ctrl Pts',(-10.7325392289281,-13.7558265651117,0.5));
#1695=CARTESIAN_POINT('Ctrl Pts',(-10.4880884817005,-14.0000000000012,0.5));
#1696=CARTESIAN_POINT('',(-10.98863048792,-13.5,0.5));
#1697=CARTESIAN_POINT('',(-5.35,-10.,0.5));
#1698=CARTESIAN_POINT('Origin',(-7.,-10.,0.5));
#1699=CARTESIAN_POINT('Origin',(0.,-13.75,0.));
#1700=CARTESIAN_POINT('Origin',(0.,-14.,0.));
#1701=CARTESIAN_POINT('Origin',(0.,-14.,0.));
#1702=CARTESIAN_POINT('',(5.,-14.,-0.5));
#1703=CARTESIAN_POINT('',(5.,-14.,-0.5));
#1704=CARTESIAN_POINT('',(4.472135955,-14.,-0.5));
#1705=CARTESIAN_POINT('',(4.472135955,-14.,-0.5));
#1706=CARTESIAN_POINT('',(-4.472135955,-14.,-0.5));
#1707=CARTESIAN_POINT('Origin',(0.,-14.,0.));
#1708=CARTESIAN_POINT('',(-10.4880884817,-14.,-0.5));
#1709=CARTESIAN_POINT('',(-10.4880884817,-14.,-0.5));
#1710=CARTESIAN_POINT('Origin',(0.,-14.,0.));
#1711=CARTESIAN_POINT('Origin',(5.,-14.,-0.5));
#1712=CARTESIAN_POINT('',(5.,-4.,-0.5));
#1713=CARTESIAN_POINT('',(5.,-4.,-0.5));
#1714=CARTESIAN_POINT('',(5.,-14.,-0.5));
#1715=CARTESIAN_POINT('Origin',(-22.3369420071,-14.,-0.5));
#1716=CARTESIAN_POINT('',(3.968626966597,-4.,-0.5));
#1717=CARTESIAN_POINT('Ctrl Pts',(3.968626966597,-13.5,-0.5));
#1718=CARTESIAN_POINT('Ctrl Pts',(4.023842124239,-13.5547820909,-0.5));
#1719=CARTESIAN_POINT('Ctrl Pts',(4.134757916135,-13.66486362687,-0.5));
#1720=CARTESIAN_POINT('Ctrl Pts',(4.302605806988,-13.83154599026,-0.5));
#1721=CARTESIAN_POINT('Ctrl Pts',(4.415464106139,-13.94367906379,-0.5));
#1722=CARTESIAN_POINT('Ctrl Pts',(4.472135955,-14.,-0.5));
#1723=CARTESIAN_POINT('Origin',(-22.3369420071,-14.,-0.5));
#1724=CARTESIAN_POINT('',(-10.98863048792,-4.,-0.5));
#1725=CARTESIAN_POINT('',(-10.98863048792,-4.,-0.5));
#1726=CARTESIAN_POINT('',(-10.98863048792,-5.,-0.5));
#1727=CARTESIAN_POINT('Origin',(-22.3369420071,-14.,-0.5));
#1728=CARTESIAN_POINT('',(-10.98863048792,-6.,-0.5));
#1729=CARTESIAN_POINT('',(-10.98863048792,-6.,-0.5));
#1730=CARTESIAN_POINT('',(-10.98863048792,-13.5,-0.5));
#1731=CARTESIAN_POINT('',(-10.98863048792,-13.5,-0.5));
#1732=CARTESIAN_POINT('Ctrl Pts',(-10.4880884817005,-14.0000000000012,-0.5));
#1733=CARTESIAN_POINT('Ctrl Pts',(-10.7325392289176,-13.7558265651221,-0.5));
#1734=CARTESIAN_POINT('Ctrl Pts',(-10.9886304879191,-13.4999999999991,-0.5));
#1735=CARTESIAN_POINT('Ctrl Pts',(-4.472135955,-14.,-0.5));
#1736=CARTESIAN_POINT('Ctrl Pts',(-4.415478439607,-13.94369330851,-0.5));
#1737=CARTESIAN_POINT('Ctrl Pts',(-4.302639259657,-13.83157922222,-0.5));
#1738=CARTESIAN_POINT('Ctrl Pts',(-4.134791476808,-13.66489694256,-0.5));
#1739=CARTESIAN_POINT('Ctrl Pts',(-4.023856511777,-13.55479636559,-0.5));
#1740=CARTESIAN_POINT('Ctrl Pts',(-3.968626966597,-13.5,-0.5));
#1741=CARTESIAN_POINT('',(-5.35,-10.,-0.5));
#1742=CARTESIAN_POINT('Origin',(-7.,-10.,-0.5));
#1743=CARTESIAN_POINT('Origin',(0.,-13.75,0.));
#1744=CARTESIAN_POINT('Origin',(0.,-4.,0.));
#1745=CARTESIAN_POINT('Origin',(0.,-4.,0.));
#1746=CARTESIAN_POINT('',(2.38806125833758E-15,-4.000000000002,19.500000000002));
#1747=CARTESIAN_POINT('Origin',(0.,-4.,0.));
#1748=CARTESIAN_POINT('',(5.740251485476,-4.,15.30819298767));
#1749=CARTESIAN_POINT('Origin',(5.740251485476,-4.,13.85819298767));
#1750=CARTESIAN_POINT('',(13.85819298767,-4.,-4.290251485476));
#1751=CARTESIAN_POINT('Origin',(13.85819298767,-4.,-5.740251485476));
#1752=CARTESIAN_POINT('',(-13.85819298767,-4.,7.190251485476));
#1753=CARTESIAN_POINT('Origin',(-13.85819298767,-4.,5.740251485476));
#1754=CARTESIAN_POINT('',(-5.740251485476,-4.,-12.40819298767));
#1755=CARTESIAN_POINT('Origin',(-5.740251485476,-4.,-13.85819298767));
#1756=CARTESIAN_POINT('',(-5.740251485476,-4.,15.65819298767));
#1757=CARTESIAN_POINT('Origin',(-5.740251485476,-4.,13.85819298767));
#1758=CARTESIAN_POINT('',(13.85819298767,-4.,7.540251485476));
#1759=CARTESIAN_POINT('Origin',(13.85819298767,-4.,5.740251485476));
#1760=CARTESIAN_POINT('',(5.740251485476,-4.,-12.05819298767));
#1761=CARTESIAN_POINT('Origin',(5.740251485476,-4.,-13.85819298767));
#1762=CARTESIAN_POINT('',(-13.85819298767,-4.,-3.940251485476));
#1763=CARTESIAN_POINT('Origin',(-13.85819298767,-4.,-5.740251485476));
#1764=CARTESIAN_POINT('Origin',(0.,-4.,0.));
#1765=CARTESIAN_POINT('',(15.,-4.,1.7));
#1766=CARTESIAN_POINT('Origin',(15.,-4.,0.));
#1767=CARTESIAN_POINT('Origin',(0.,-3.750000000064,0.));
#1768=CARTESIAN_POINT('',(-20.,-3.5,0.));
#1769=CARTESIAN_POINT('',(2.44929359829495E-15,-3.500000000002,20.000000000002));
#1770=CARTESIAN_POINT('Origin',(0.,-3.5,0.));
#1771=CARTESIAN_POINT('',(2.41867742830867E-15,-3.750000000064,19.74999999994));
#1772=CARTESIAN_POINT('Origin',(0.,-3.5,0.));
#1773=CARTESIAN_POINT('Origin',(0.,-14.7,0.));
#1774=CARTESIAN_POINT('',(-20.,-0.5,0.));
#1775=CARTESIAN_POINT('',(-2.44929359829451E-15,-0.5000000000016,19.9999999999984));
#1776=CARTESIAN_POINT('Origin',(0.,-0.5,0.));
#1777=CARTESIAN_POINT('Origin',(0.,-0.5,0.));
#1778=CARTESIAN_POINT('',(-20.,-14.7,2.44929359829471E-15));
#1779=CARTESIAN_POINT('Origin',(0.,-0.2499999999632,0.));
#1780=CARTESIAN_POINT('',(-2.38806125833714E-15,-1.5988599333383E-12,19.4999999999984));
#1781=CARTESIAN_POINT('',(-2.41867742831112E-15,-0.2499999999632,19.74999999996));
#1782=CARTESIAN_POINT('Origin',(0.,0.,0.));
#1783=CARTESIAN_POINT('Origin',(0.,0.,0.));
#1784=CARTESIAN_POINT('',(5.5109105961634E-16,-2.49557319254023E-13,4.50000000000025));
#1785=CARTESIAN_POINT('Origin',(0.,0.,0.));
#1786=CARTESIAN_POINT('',(-5.740251485476,1.0023232244194E-13,-12.4081929876701));
#1787=CARTESIAN_POINT('Origin',(-5.740251485476,0.,-13.85819298767));
#1788=CARTESIAN_POINT('',(-13.85819298767,1.00267016911459E-13,7.1902514854759));
#1789=CARTESIAN_POINT('Origin',(-13.85819298767,0.,5.740251485476));
#1790=CARTESIAN_POINT('',(13.85819298767,0.,-4.290251485476));
#1791=CARTESIAN_POINT('Origin',(13.85819298767,0.,-5.740251485476));
#1792=CARTESIAN_POINT('',(5.740251485476,1.0023232244194E-13,15.3081929876699));
#1793=CARTESIAN_POINT('Origin',(5.740251485476,0.,13.85819298767));
#1794=CARTESIAN_POINT('',(-13.85819298767,0.,-3.940251485476));
#1795=CARTESIAN_POINT('Origin',(-13.85819298767,0.,-5.740251485476));
#1796=CARTESIAN_POINT('',(-5.740251485476,2.00377908710081E-13,15.6581929876698));
#1797=CARTESIAN_POINT('Origin',(-5.740251485476,0.,13.85819298767));
#1798=CARTESIAN_POINT('',(13.85819298767,2.00412603179601E-13,7.5402514854758));
#1799=CARTESIAN_POINT('Origin',(13.85819298767,0.,5.740251485476));
#1800=CARTESIAN_POINT('',(5.740251485476,2.00377908710081E-13,-12.0581929876702));
#1801=CARTESIAN_POINT('Origin',(5.740251485476,0.,-13.85819298767));
#1802=CARTESIAN_POINT('',(15.,1.00041502859582E-13,1.6999999999999));
#1803=CARTESIAN_POINT('Origin',(15.,0.,0.));
#1804=CARTESIAN_POINT('Origin',(0.,-0.2500000013935,0.));
#1805=CARTESIAN_POINT('',(5.20474889467032E-16,-0.2500000013935,4.249999998607));
#1806=CARTESIAN_POINT('Origin',(-5.740251485476,-0.1000000046068,-13.85819298767));
#1807=CARTESIAN_POINT('',(-4.490251485476,-0.2,-13.85819298767));
#1808=CARTESIAN_POINT('',(-5.740251485476,-0.199999999999901,-12.6081929876701));
#1809=CARTESIAN_POINT('Origin',(-5.740251485476,-0.2,-13.85819298767));
#1810=CARTESIAN_POINT('',(-5.740251485476,-0.1000000046068,-12.508192992277));
#1811=CARTESIAN_POINT('Origin',(-5.740251485476,-0.2,-13.85819298767));
#1812=CARTESIAN_POINT('Origin',(-5.740251485476,-16.17000000053,-13.85819298767));
#1813=CARTESIAN_POINT('',(-4.490251485476,-3.8,-13.85819298767));
#1814=CARTESIAN_POINT('',(-5.740251485476,-3.8,-12.60819298767));
#1815=CARTESIAN_POINT('Origin',(-5.740251485476,-3.8,-13.85819298767));
#1816=CARTESIAN_POINT('',(-4.490251485476,-16.17000000053,-13.85819298767));
#1817=CARTESIAN_POINT('Origin',(-5.740251485476,-3.8,-13.85819298767));
#1818=CARTESIAN_POINT('Origin',(-5.740251485476,-3.899999995393,-13.85819298767));
#1819=CARTESIAN_POINT('',(-5.740251485476,-3.899999995393,-12.508192992277));
#1820=CARTESIAN_POINT('Origin',(-13.85819298767,-0.1000000046068,5.740251485476));
#1821=CARTESIAN_POINT('',(-13.85819298767,-0.2,4.490251485476));
#1822=CARTESIAN_POINT('',(-13.85819298767,-0.199999999999901,6.9902514854759));
#1823=CARTESIAN_POINT('Origin',(-13.85819298767,-0.2,5.740251485476));
#1824=CARTESIAN_POINT('',(-13.85819298767,-0.1000000046068,7.090251480869));
#1825=CARTESIAN_POINT('Origin',(-13.85819298767,-0.2,5.740251485476));
#1826=CARTESIAN_POINT('Origin',(-13.85819298767,-16.17000000053,5.740251485476));
#1827=CARTESIAN_POINT('',(-13.85819298767,-3.8,6.990251485476));
#1828=CARTESIAN_POINT('',(-13.85819298767,-3.8,4.490251485476));
#1829=CARTESIAN_POINT('Origin',(-13.85819298767,-3.8,5.740251485476));
#1830=CARTESIAN_POINT('Origin',(-13.85819298767,-3.8,5.740251485476));
#1831=CARTESIAN_POINT('',(-13.85819298767,-16.17000000053,4.490251485476));
#1832=CARTESIAN_POINT('Origin',(-13.85819298767,-3.899999995393,5.740251485476));
#1833=CARTESIAN_POINT('',(-13.85819298767,-3.899999995393,7.090251480869));
#1834=CARTESIAN_POINT('Origin',(13.85819298767,-0.1000000046068,-5.740251485476));
#1835=CARTESIAN_POINT('',(13.85819298767,-0.2,-4.490251485476));
#1836=CARTESIAN_POINT('Origin',(13.85819298767,-0.2,-5.740251485476));
#1837=CARTESIAN_POINT('',(13.85819298767,-0.1000000046068,-4.390251490083));
#1838=CARTESIAN_POINT('Origin',(13.85819298767,-16.17000000053,-5.740251485476));
#1839=CARTESIAN_POINT('',(13.85819298767,-3.8,-4.490251485476));
#1840=CARTESIAN_POINT('Origin',(13.85819298767,-3.8,-5.740251485476));
#1841=CARTESIAN_POINT('',(13.85819298767,-16.17000000053,-4.490251485476));
#1842=CARTESIAN_POINT('Origin',(13.85819298767,-3.899999995393,-5.740251485476));
#1843=CARTESIAN_POINT('',(13.85819298767,-3.899999995393,-4.390251490083));
#1844=CARTESIAN_POINT('Origin',(5.740251485476,-0.1000000046068,13.85819298767));
#1845=CARTESIAN_POINT('',(4.490251485476,-0.2,13.85819298767));
#1846=CARTESIAN_POINT('',(5.740251485476,-0.199999999999901,15.1081929876699));
#1847=CARTESIAN_POINT('Origin',(5.740251485476,-0.2,13.85819298767));
#1848=CARTESIAN_POINT('',(5.740251485476,-0.1000000046068,15.208192983063));
#1849=CARTESIAN_POINT('Origin',(5.740251485476,-0.2,13.85819298767));
#1850=CARTESIAN_POINT('Origin',(5.740251485476,-16.17000000053,13.85819298767));
#1851=CARTESIAN_POINT('',(4.490251485476,-3.8,13.85819298767));
#1852=CARTESIAN_POINT('',(5.740251485476,-3.8,15.10819298767));
#1853=CARTESIAN_POINT('Origin',(5.740251485476,-3.8,13.85819298767));
#1854=CARTESIAN_POINT('',(4.490251485476,-16.17000000053,13.85819298767));
#1855=CARTESIAN_POINT('Origin',(5.740251485476,-3.8,13.85819298767));
#1856=CARTESIAN_POINT('Origin',(5.740251485476,-3.899999995393,13.85819298767));
#1857=CARTESIAN_POINT('',(5.740251485476,-3.899999995393,15.208192983063));
#1858=CARTESIAN_POINT('Origin',(-13.85819298767,-0.1000000048216,-5.740251485476));
#1859=CARTESIAN_POINT('',(-13.85819298767,-0.2,-4.140251485476));
#1860=CARTESIAN_POINT('Origin',(-13.85819298767,-0.2,-5.740251485476));
#1861=CARTESIAN_POINT('',(-13.85819298767,-0.1000000048216,-4.040251490298));
#1862=CARTESIAN_POINT('Origin',(-13.85819298767,0.,-5.740251485476));
#1863=CARTESIAN_POINT('',(-13.85819298767,-3.8,-4.140251485476));
#1864=CARTESIAN_POINT('',(-13.85819298767,0.,-4.140251485476));
#1865=CARTESIAN_POINT('Origin',(-13.85819298767,-3.8,-5.740251485476));
#1866=CARTESIAN_POINT('Origin',(-13.85819298767,-3.899999995178,-5.740251485476));
#1867=CARTESIAN_POINT('',(-13.85819298767,-3.899999995178,-4.040251490298));
#1868=CARTESIAN_POINT('Origin',(-5.740251485476,-0.1000000048216,13.85819298767));
#1869=CARTESIAN_POINT('',(-4.140251485476,-0.2,13.85819298767));
#1870=CARTESIAN_POINT('',(-5.740251485476,-0.1999999999998,15.4581929876698));
#1871=CARTESIAN_POINT('Origin',(-5.740251485476,-0.2,13.85819298767));
#1872=CARTESIAN_POINT('',(-5.740251485476,-0.1000000048216,15.558192982848));
#1873=CARTESIAN_POINT('Origin',(-5.740251485476,-0.2,13.85819298767));
#1874=CARTESIAN_POINT('Origin',(-5.740251485476,0.,13.85819298767));
#1875=CARTESIAN_POINT('',(-4.140251485476,-3.8,13.85819298767));
#1876=CARTESIAN_POINT('',(-4.140251485476,0.,13.85819298767));
#1877=CARTESIAN_POINT('',(-5.740251485476,-3.8,15.45819298767));
#1878=CARTESIAN_POINT('Origin',(-5.740251485476,-3.8,13.85819298767));
#1879=CARTESIAN_POINT('Origin',(-5.740251485476,-3.8,13.85819298767));
#1880=CARTESIAN_POINT('Origin',(-5.740251485476,-3.899999995178,13.85819298767));
#1881=CARTESIAN_POINT('',(-5.740251485476,-3.899999995178,15.558192982848));
#1882=CARTESIAN_POINT('Origin',(13.85819298767,-0.1000000048216,5.740251485476));
#1883=CARTESIAN_POINT('',(13.85819298767,-0.2,4.140251485476));
#1884=CARTESIAN_POINT('',(13.85819298767,-0.1999999999998,7.3402514854758));
#1885=CARTESIAN_POINT('Origin',(13.85819298767,-0.2,5.740251485476));
#1886=CARTESIAN_POINT('',(13.85819298767,-0.1000000048216,7.440251480654));
#1887=CARTESIAN_POINT('Origin',(13.85819298767,-0.2,5.740251485476));
#1888=CARTESIAN_POINT('Origin',(13.85819298767,0.,5.740251485476));
#1889=CARTESIAN_POINT('',(13.85819298767,-3.8,4.140251485476));
#1890=CARTESIAN_POINT('',(13.85819298767,0.,4.140251485476));
#1891=CARTESIAN_POINT('',(13.85819298767,-3.8,7.340251485476));
#1892=CARTESIAN_POINT('Origin',(13.85819298767,-3.8,5.740251485476));
#1893=CARTESIAN_POINT('Origin',(13.85819298767,-3.8,5.740251485476));
#1894=CARTESIAN_POINT('Origin',(13.85819298767,-3.899999995178,5.740251485476));
#1895=CARTESIAN_POINT('',(13.85819298767,-3.899999995178,7.440251480654));
#1896=CARTESIAN_POINT('Origin',(5.740251485476,-0.1000000048216,-13.85819298767));
#1897=CARTESIAN_POINT('',(4.140251485476,-0.2,-13.85819298767));
#1898=CARTESIAN_POINT('',(5.740251485476,-0.1999999999998,-12.2581929876702));
#1899=CARTESIAN_POINT('Origin',(5.740251485476,-0.2,-13.85819298767));
#1900=CARTESIAN_POINT('',(5.740251485476,-0.1000000048216,-12.158192992492));
#1901=CARTESIAN_POINT('Origin',(5.740251485476,-0.2,-13.85819298767));
#1902=CARTESIAN_POINT('Origin',(5.740251485476,0.,-13.85819298767));
#1903=CARTESIAN_POINT('',(4.140251485476,-3.8,-13.85819298767));
#1904=CARTESIAN_POINT('',(4.140251485476,0.,-13.85819298767));
#1905=CARTESIAN_POINT('',(5.740251485476,-3.8,-12.25819298767));
#1906=CARTESIAN_POINT('Origin',(5.740251485476,-3.8,-13.85819298767));
#1907=CARTESIAN_POINT('Origin',(5.740251485476,-3.8,-13.85819298767));
#1908=CARTESIAN_POINT('Origin',(5.740251485476,-3.899999995178,-13.85819298767));
#1909=CARTESIAN_POINT('',(5.740251485476,-3.899999995178,-12.158192992492));
#1910=CARTESIAN_POINT('Origin',(15.,-0.1000000045688,0.));
#1911=CARTESIAN_POINT('',(13.5,-0.2,-1.83697019872103E-16));
#1912=CARTESIAN_POINT('',(15.,-0.199999999999901,1.4999999999999));
#1913=CARTESIAN_POINT('Origin',(15.,-0.2,0.));
#1914=CARTESIAN_POINT('',(15.,-0.1000000045688,1.599999995431));
#1915=CARTESIAN_POINT('Origin',(15.,-0.2,0.));
#1916=CARTESIAN_POINT('Origin',(15.,0.,0.));
#1917=CARTESIAN_POINT('',(13.5,-3.8,0.));
#1918=CARTESIAN_POINT('',(13.5,0.,-1.83697019872103E-16));
#1919=CARTESIAN_POINT('',(15.,-3.8,1.5));
#1920=CARTESIAN_POINT('Origin',(15.,-3.8,0.));
#1921=CARTESIAN_POINT('Origin',(15.,-3.8,0.));
#1922=CARTESIAN_POINT('Origin',(15.,-3.899999995431,0.));
#1923=CARTESIAN_POINT('',(15.,-3.899999995431,1.599999995431));
#1924=CARTESIAN_POINT('Origin',(0.,-14.7,0.));
#1925=CARTESIAN_POINT('Origin',(0.,-6.,0.));
#1926=CARTESIAN_POINT('Origin',(0.,-13.5,0.));
#1927=CARTESIAN_POINT('Origin',(0.,-6.,0.));
#1928=CARTESIAN_POINT('',(-9.797958971133,-11.08232416394,5.));
#1929=CARTESIAN_POINT('',(-9.797958971133,-8.917675836056,5.));
#1930=CARTESIAN_POINT('',(-9.797958971133,-11.08232416394,5.));
#1931=CARTESIAN_POINT('Ctrl Pts',(-9.79795897113283,-8.91767583605589,4.99999999999977));
#1932=CARTESIAN_POINT('Ctrl Pts',(-9.79564488539363,-8.91169360155567,5.00453466342545));
#1933=CARTESIAN_POINT('Ctrl Pts',(-9.79331439101614,-8.90572595113638,5.00909369937688));
#1934=CARTESIAN_POINT('Ctrl Pts',(-9.66411118222348,-8.57797451599482,5.26140875362392));
#1935=CARTESIAN_POINT('Ctrl Pts',(-9.48855122474859,-8.29921074104048,5.57593072746836));
#1936=CARTESIAN_POINT('Ctrl Pts',(-9.03610375984265,-7.75846764659487,6.29242897459671));
#1937=CARTESIAN_POINT('Ctrl Pts',(-8.69561440310649,-7.48656310442859,6.76382179748422));
#1938=CARTESIAN_POINT('Ctrl Pts',(-7.90487672362,-7.10627073390932,7.67306479040193));
#1939=CARTESIAN_POINT('Ctrl Pts',(-7.45370377606903,-7.,8.11099485474549));
#1940=CARTESIAN_POINT('Ctrl Pts',(-6.65123210892447,-7.,8.77300020521815));
#1941=CARTESIAN_POINT('Ctrl Pts',(-6.2546343568083,-7.06474090449418,9.06008798132327));
#1942=CARTESIAN_POINT('Ctrl Pts',(-5.48766585778366,-7.37623115179369,9.54416921079279));
#1943=CARTESIAN_POINT('Ctrl Pts',(-5.11847214811557,-7.62438211459957,9.74212343527895));
#1944=CARTESIAN_POINT('Ctrl Pts',(-4.58157679930108,-8.19036217201509,10.0040796489236));
#1945=CARTESIAN_POINT('Ctrl Pts',(-4.36416615292918,-8.51576682537242,10.0984581690459));
#1946=CARTESIAN_POINT('Ctrl Pts',(-4.07327333477492,-9.23525106108127,10.2192586045327));
#1947=CARTESIAN_POINT('Ctrl Pts',(-4.,-9.62920122355235,10.2469507659596));
#1948=CARTESIAN_POINT('Ctrl Pts',(-4.,-10.,10.2469507659596));
#1949=CARTESIAN_POINT('Ctrl Pts',(-4.,-10.3707987764477,10.2469507659596));
#1950=CARTESIAN_POINT('Ctrl Pts',(-4.07327333477492,-10.7647489389187,10.2192586045327));
#1951=CARTESIAN_POINT('Ctrl Pts',(-4.36416615292918,-11.4842331746276,10.0984581690459));
#1952=CARTESIAN_POINT('Ctrl Pts',(-4.58157679930108,-11.8096378279849,10.0040796489236));
#1953=CARTESIAN_POINT('Ctrl Pts',(-5.11847214811557,-12.3756178854004,9.74212343527895));
#1954=CARTESIAN_POINT('Ctrl Pts',(-5.48766585778365,-12.6237688482063,9.54416921079279));
#1955=CARTESIAN_POINT('Ctrl Pts',(-6.2546343568083,-12.9352590955058,9.06008798132327));
#1956=CARTESIAN_POINT('Ctrl Pts',(-6.65123210892447,-13.,8.77300020521815));
#1957=CARTESIAN_POINT('Ctrl Pts',(-7.45370377606903,-13.,8.11099485474549));
#1958=CARTESIAN_POINT('Ctrl Pts',(-7.90487672362,-12.8937292660907,7.67306479040193));
#1959=CARTESIAN_POINT('Ctrl Pts',(-8.69561440310649,-12.5134368955714,6.76382179748422));
#1960=CARTESIAN_POINT('Ctrl Pts',(-9.03610375984265,-12.2415323534051,6.29242897459671));
#1961=CARTESIAN_POINT('Ctrl Pts',(-9.48855122474859,-11.7007892589595,5.57593072746836));
#1962=CARTESIAN_POINT('Ctrl Pts',(-9.66411118222348,-11.4220254840052,5.26140875362392));
#1963=CARTESIAN_POINT('Ctrl Pts',(-9.79331439101644,-11.0942740488629,5.00909369937628));
#1964=CARTESIAN_POINT('Ctrl Pts',(-9.79564488539423,-11.0883063984428,5.00453466342427));
#1965=CARTESIAN_POINT('Ctrl Pts',(-9.79795897113373,-11.0823241639418,4.99999999999801));
#1966=CARTESIAN_POINT('',(-8.65,-10.,-6.795402857815));
#1967=CARTESIAN_POINT('',(-5.35,-10.,-9.6113214492077));
#1968=CARTESIAN_POINT('Ctrl Pts',(-8.65,-10.,-6.79540285781498));
#1969=CARTESIAN_POINT('Ctrl Pts',(-8.65,-10.1053960246665,-6.79540285781498));
#1970=CARTESIAN_POINT('Ctrl Pts',(-8.63975950517632,-10.211044248088,-6.80849555146565));
#1971=CARTESIAN_POINT('Ctrl Pts',(-8.60015111168362,-10.4158363291867,-6.85845302730095));
#1972=CARTESIAN_POINT('Ctrl Pts',(-8.57077589544953,-10.514981959846,-6.89530473863719));
#1973=CARTESIAN_POINT('Ctrl Pts',(-8.4599647044467,-10.7944663867496,-7.03155066855437));
#1974=CARTESIAN_POINT('Ctrl Pts',(-8.35477384764541,-10.9569181156153,-7.15722974769393));
#1975=CARTESIAN_POINT('Ctrl Pts',(-8.08833579633743,-11.2624792612663,-7.45880898905453));
#1976=CARTESIAN_POINT('Ctrl Pts',(-7.89361290681726,-11.4070136520077,-7.66688939602593));
#1977=CARTESIAN_POINT('Ctrl Pts',(-7.46321847708176,-11.6011433578019,-8.08645087981698));
#1978=CARTESIAN_POINT('Ctrl Pts',(-7.22716407313654,-11.65,-8.2978805749223));
#1979=CARTESIAN_POINT('Ctrl Pts',(-6.80102756575971,-11.65,-8.6494252580125));
#1980=CARTESIAN_POINT('Ctrl Pts',(-6.57938858794437,-11.6119223817636,-8.81925510704418));
#1981=CARTESIAN_POINT('Ctrl Pts',(-6.15531719131541,-11.435868709332,-9.12028972318182));
#1982=CARTESIAN_POINT('Ctrl Pts',(-5.95325986329928,-11.2974307829065,-9.25175242022379));
#1983=CARTESIAN_POINT('Ctrl Pts',(-5.66363288132471,-10.9858331835222,-9.43111145569504));
#1984=CARTESIAN_POINT('Ctrl Pts',(-5.54718890026201,-10.8100773460244,-9.49930915926193));
#1985=CARTESIAN_POINT('Ctrl Pts',(-5.39025030738381,-10.4190367223745,-9.58923252361835));
#1986=CARTESIAN_POINT('Ctrl Pts',(-5.35,-10.2037375468287,-9.6113214492077));
#1987=CARTESIAN_POINT('Ctrl Pts',(-5.35,-10.,-9.6113214492077));
#1988=CARTESIAN_POINT('Ctrl Pts',(-5.35,-10.,-9.6113214492077));
#1989=CARTESIAN_POINT('Ctrl Pts',(-5.35,-9.79626245317129,-9.6113214492077));
#1990=CARTESIAN_POINT('Ctrl Pts',(-5.39025030738381,-9.58096327762549,-9.58923252361835));
#1991=CARTESIAN_POINT('Ctrl Pts',(-5.54718890026201,-9.18992265397564,-9.49930915926193));
#1992=CARTESIAN_POINT('Ctrl Pts',(-5.66363288132471,-9.01416681647778,-9.43111145569504));
#1993=CARTESIAN_POINT('Ctrl Pts',(-5.95325986329928,-8.70256921709348,-9.25175242022379));
#1994=CARTESIAN_POINT('Ctrl Pts',(-6.15531719131541,-8.56413129066798,-9.12028972318182));
#1995=CARTESIAN_POINT('Ctrl Pts',(-6.57938858794437,-8.38807761823641,-8.81925510704418));
#1996=CARTESIAN_POINT('Ctrl Pts',(-6.80102756575971,-8.35,-8.6494252580125));
#1997=CARTESIAN_POINT('Ctrl Pts',(-7.22716407313654,-8.35,-8.2978805749223));
#1998=CARTESIAN_POINT('Ctrl Pts',(-7.46321847708176,-8.3988566421981,-8.08645087981698));
#1999=CARTESIAN_POINT('Ctrl Pts',(-7.89361290681726,-8.59298634799229,-7.66688939602593));
#2000=CARTESIAN_POINT('Ctrl Pts',(-8.08833579633743,-8.73752073873366,-7.45880898905453));
#2001=CARTESIAN_POINT('Ctrl Pts',(-8.35477384764541,-9.04308188438474,-7.15722974769393));
#2002=CARTESIAN_POINT('Ctrl Pts',(-8.4599647044467,-9.20553361325044,-7.03155066855437));
#2003=CARTESIAN_POINT('Ctrl Pts',(-8.57077589544953,-9.48501804015404,-6.89530473863719));
#2004=CARTESIAN_POINT('Ctrl Pts',(-8.60015111168362,-9.58416367081332,-6.85845302730095));
#2005=CARTESIAN_POINT('Ctrl Pts',(-8.63975950517632,-9.78895575191195,-6.80849555146565));
#2006=CARTESIAN_POINT('Ctrl Pts',(-8.65,-9.89460397533349,-6.79540285781498));
#2007=CARTESIAN_POINT('Ctrl Pts',(-8.65,-10.,-6.79540285781498));
#2008=CARTESIAN_POINT('Origin',(-7.,-10.,-25.75));
#2009=CARTESIAN_POINT('',(-5.35,-10.,-25.75));
#2010=CARTESIAN_POINT('Origin',(-7.,-10.,-25.75));
#2011=CARTESIAN_POINT('',(-5.35,-10.,5.));
#2012=CARTESIAN_POINT('',(-5.35,-10.,-25.75));
#2013=CARTESIAN_POINT('Origin',(-7.,-10.,5.));
#2014=CARTESIAN_POINT('Origin',(-7.,-10.,5.));
#2015=CARTESIAN_POINT('Origin',(-7.,-10.,5.));
#2016=CARTESIAN_POINT('Origin',(-7.,-10.,-25.75));
#2017=CARTESIAN_POINT('Origin',(-2.,-6.,-11.));
#2018=CARTESIAN_POINT('Origin',(-2.,-6.,-11.));
#2019=CARTESIAN_POINT('Origin',(0.,-13.75,0.));
#2020=UNCERTAINTY_MEASURE_WITH_UNIT(LENGTH_MEASURE(0.01),#2024,
'DISTANCE_ACCURACY_VALUE',
'Maximum model space distance between geometric entities at asserted c
onnectivities');
#2021=UNCERTAINTY_MEASURE_WITH_UNIT(LENGTH_MEASURE(0.01),#2024,
'DISTANCE_ACCURACY_VALUE',
'Maximum model space distance between geometric entities at asserted c
onnectivities');
#2022=(
GEOMETRIC_REPRESENTATION_CONTEXT(3)
GLOBAL_UNCERTAINTY_ASSIGNED_CONTEXT((#2020))
GLOBAL_UNIT_ASSIGNED_CONTEXT((#2024,#2026,#2027))
REPRESENTATION_CONTEXT('','3D')
);
#2023=(
GEOMETRIC_REPRESENTATION_CONTEXT(3)
GLOBAL_UNCERTAINTY_ASSIGNED_CONTEXT((#2021))
GLOBAL_UNIT_ASSIGNED_CONTEXT((#2024,#2026,#2027))
REPRESENTATION_CONTEXT('','3D')
);
#2024=(
LENGTH_UNIT()
NAMED_UNIT(*)
SI_UNIT(.MILLI.,.METRE.)
);
#2025=(
LENGTH_UNIT()
NAMED_UNIT(*)
SI_UNIT($,.METRE.)
);
#2026=(
NAMED_UNIT(*)
PLANE_ANGLE_UNIT()
SI_UNIT($,.RADIAN.)
);
#2027=(
NAMED_UNIT(*)
SI_UNIT($,.STERADIAN.)
SOLID_ANGLE_UNIT()
);
#2028=SHAPE_DEFINITION_REPRESENTATION(#2029,#2030);
#2029=PRODUCT_DEFINITION_SHAPE('',$,#2032);
#2030=SHAPE_REPRESENTATION('',(#1116),#2022);
#2031=PRODUCT_DEFINITION_CONTEXT('part definition',#2036,'design');
#2032=PRODUCT_DEFINITION('MG400_End_Flange_3D v1',
'MG400_End_Flange_3D v1 v1',#2033,#2031);
#2033=PRODUCT_DEFINITION_FORMATION('',$,#2038);
#2034=PRODUCT_RELATED_PRODUCT_CATEGORY('MG400_End_Flange_3D v1 v1',
'MG400_End_Flange_3D v1 v1',(#2038));
#2035=APPLICATION_PROTOCOL_DEFINITION('international standard',
'automotive_design',2009,#2036);
#2036=APPLICATION_CONTEXT(
'Core Data for Automotive Mechanical Design Process');
#2037=PRODUCT_CONTEXT('part definition',#2036,'mechanical');
#2038=PRODUCT('MG400_End_Flange_3D v1','MG400_End_Flange_3D v1 v1',$,(#2037));
#2039=PRESENTATION_STYLE_ASSIGNMENT((#2040));
#2040=SURFACE_STYLE_USAGE(.BOTH.,#2041);
#2041=SURFACE_SIDE_STYLE('',(#2042));
#2042=SURFACE_STYLE_FILL_AREA(#2043);
#2043=FILL_AREA_STYLE('Steel - Satin',(#2044));
#2044=FILL_AREA_STYLE_COLOUR('Steel - Satin',#2045);
#2045=COLOUR_RGB('Steel - Satin',0.627450980392157,0.627450980392157,0.627450980392157);
ENDSEC;
END-ISO-10303-21;
