ISO-10303-21;
HEADER;
/* Generated by software containing ST-Developer
 * from STEP Tools, Inc. (www.steptools.com) 
 */

FILE_DESCRIPTION(
/* description */ (''),
/* implementation_level */ '2;1');

FILE_NAME(
/* name */ 'MG400 Calibration Servo Mount.step',
/* time_stamp */ '2026-07-05T07:38:15+01:00',
/* author */ (''),
/* organization */ (''),
/* preprocessor_version */ 'ST-DEVELOPER v20.1',
/* originating_system */ 'Autodesk Translation Framework v15.8.0.0',
/* authorisation */ '');

FILE_SCHEMA (('AUTOMOTIVE_DESIGN { 1 0 10303 214 3 1 1 }'));
ENDSEC;

DATA;
#10=MECHANICAL_DESIGN_GEOMETRIC_PRESENTATION_REPRESENTATION('',(#13),#1735);
#11=SHAPE_REPRESENTATION_RELATIONSHIP('SRR','None',#1742,#12);
#12=ADVANCED_BREP_SHAPE_REPRESENTATION('',(#14),#1734);
#13=STYLED_ITEM('',(#1751),#14);
#14=MANIFOLD_SOLID_BREP('Body6',#1059);
#15=FACE_BOUND('',#155,.T.);
#16=FACE_BOUND('',#164,.T.);
#17=FACE_BOUND('',#172,.T.);
#18=FACE_BOUND('',#180,.T.);
#19=FACE_BOUND('',#184,.T.);
#20=FACE_BOUND('',#185,.T.);
#21=FACE_BOUND('',#188,.T.);
#22=FACE_BOUND('',#189,.T.);
#23=FACE_BOUND('',#190,.T.);
#24=FACE_BOUND('',#195,.T.);
#25=FACE_BOUND('',#196,.T.);
#26=FACE_BOUND('',#201,.T.);
#27=FACE_BOUND('',#205,.T.);
#28=FACE_BOUND('',#206,.T.);
#29=CIRCLE('',#1077,7.);
#30=CIRCLE('',#1078,7.00000000000001);
#31=CIRCLE('',#1084,1.6);
#32=CIRCLE('',#1085,1.6);
#33=CIRCLE('',#1087,1.6);
#34=CIRCLE('',#1088,1.6);
#35=CIRCLE('',#1095,1.6);
#36=CIRCLE('',#1101,10.);
#37=CIRCLE('',#1102,10.);
#38=CIRCLE('',#1105,1.6);
#39=CIRCLE('',#1107,1.6);
#40=CIRCLE('',#1115,1.6);
#41=CIRCLE('',#1123,1.6);
#42=CIRCLE('',#1125,1.6);
#43=CIRCLE('',#1127,1.6);
#44=CIRCLE('',#1130,10.);
#45=CIRCLE('',#1133,10.);
#46=CIRCLE('',#1135,7.00000000000001);
#47=CIRCLE('',#1136,7.);
#48=CIRCLE('',#1143,1.6);
#49=PLANE('',#1076);
#50=PLANE('',#1082);
#51=PLANE('',#1089);
#52=PLANE('',#1091);
#53=PLANE('',#1092);
#54=PLANE('',#1094);
#55=PLANE('',#1096);
#56=PLANE('',#1097);
#57=PLANE('',#1098);
#58=PLANE('',#1099);
#59=PLANE('',#1103);
#60=PLANE('',#1106);
#61=PLANE('',#1108);
#62=PLANE('',#1109);
#63=PLANE('',#1110);
#64=PLANE('',#1111);
#65=PLANE('',#1112);
#66=PLANE('',#1113);
#67=PLANE('',#1114);
#68=PLANE('',#1116);
#69=PLANE('',#1117);
#70=PLANE('',#1118);
#71=PLANE('',#1119);
#72=PLANE('',#1120);
#73=PLANE('',#1121);
#74=PLANE('',#1122);
#75=PLANE('',#1128);
#76=PLANE('',#1129);
#77=PLANE('',#1131);
#78=PLANE('',#1132);
#79=PLANE('',#1134);
#80=PLANE('',#1137);
#81=PLANE('',#1138);
#82=PLANE('',#1140);
#83=PLANE('',#1141);
#84=PLANE('',#1142);
#85=PLANE('',#1144);
#86=PLANE('',#1145);
#87=PLANE('',#1146);
#88=PLANE('',#1148);
#89=PLANE('',#1150);
#90=PLANE('',#1151);
#91=FACE_OUTER_BOUND('',#145,.T.);
#92=FACE_OUTER_BOUND('',#146,.T.);
#93=FACE_OUTER_BOUND('',#147,.T.);
#94=FACE_OUTER_BOUND('',#148,.T.);
#95=FACE_OUTER_BOUND('',#149,.T.);
#96=FACE_OUTER_BOUND('',#150,.T.);
#97=FACE_OUTER_BOUND('',#151,.T.);
#98=FACE_OUTER_BOUND('',#152,.T.);
#99=FACE_OUTER_BOUND('',#153,.T.);
#100=FACE_OUTER_BOUND('',#154,.T.);
#101=FACE_OUTER_BOUND('',#156,.T.);
#102=FACE_OUTER_BOUND('',#157,.T.);
#103=FACE_OUTER_BOUND('',#158,.T.);
#104=FACE_OUTER_BOUND('',#159,.T.);
#105=FACE_OUTER_BOUND('',#160,.T.);
#106=FACE_OUTER_BOUND('',#161,.T.);
#107=FACE_OUTER_BOUND('',#162,.T.);
#108=FACE_OUTER_BOUND('',#163,.T.);
#109=FACE_OUTER_BOUND('',#165,.T.);
#110=FACE_OUTER_BOUND('',#166,.T.);
#111=FACE_OUTER_BOUND('',#167,.T.);
#112=FACE_OUTER_BOUND('',#168,.T.);
#113=FACE_OUTER_BOUND('',#169,.T.);
#114=FACE_OUTER_BOUND('',#170,.T.);
#115=FACE_OUTER_BOUND('',#171,.T.);
#116=FACE_OUTER_BOUND('',#173,.T.);
#117=FACE_OUTER_BOUND('',#174,.T.);
#118=FACE_OUTER_BOUND('',#175,.T.);
#119=FACE_OUTER_BOUND('',#176,.T.);
#120=FACE_OUTER_BOUND('',#177,.T.);
#121=FACE_OUTER_BOUND('',#178,.T.);
#122=FACE_OUTER_BOUND('',#179,.T.);
#123=FACE_OUTER_BOUND('',#181,.T.);
#124=FACE_OUTER_BOUND('',#182,.T.);
#125=FACE_OUTER_BOUND('',#183,.T.);
#126=FACE_OUTER_BOUND('',#186,.T.);
#127=FACE_OUTER_BOUND('',#187,.T.);
#128=FACE_OUTER_BOUND('',#191,.T.);
#129=FACE_OUTER_BOUND('',#192,.T.);
#130=FACE_OUTER_BOUND('',#193,.T.);
#131=FACE_OUTER_BOUND('',#194,.T.);
#132=FACE_OUTER_BOUND('',#197,.T.);
#133=FACE_OUTER_BOUND('',#198,.T.);
#134=FACE_OUTER_BOUND('',#199,.T.);
#135=FACE_OUTER_BOUND('',#200,.T.);
#136=FACE_OUTER_BOUND('',#202,.T.);
#137=FACE_OUTER_BOUND('',#203,.T.);
#138=FACE_OUTER_BOUND('',#204,.T.);
#139=FACE_OUTER_BOUND('',#207,.T.);
#140=FACE_OUTER_BOUND('',#208,.T.);
#141=FACE_OUTER_BOUND('',#209,.T.);
#142=FACE_OUTER_BOUND('',#210,.T.);
#143=FACE_OUTER_BOUND('',#211,.T.);
#144=FACE_OUTER_BOUND('',#212,.T.);
#145=EDGE_LOOP('',(#701,#702,#703,#704));
#146=EDGE_LOOP('',(#705,#706,#707,#708,#709,#710,#711,#712));
#147=EDGE_LOOP('',(#713,#714,#715,#716));
#148=EDGE_LOOP('',(#717,#718,#719,#720));
#149=EDGE_LOOP('',(#721,#722,#723,#724));
#150=EDGE_LOOP('',(#725,#726,#727,#728));
#151=EDGE_LOOP('',(#729,#730,#731,#732,#733,#734));
#152=EDGE_LOOP('',(#735,#736,#737,#738));
#153=EDGE_LOOP('',(#739,#740,#741,#742,#743,#744));
#154=EDGE_LOOP('',(#745,#746,#747,#748,#749,#750));
#155=EDGE_LOOP('',(#751));
#156=EDGE_LOOP('',(#752,#753,#754,#755));
#157=EDGE_LOOP('',(#756,#757,#758,#759));
#158=EDGE_LOOP('',(#760,#761,#762,#763));
#159=EDGE_LOOP('',(#764,#765,#766,#767));
#160=EDGE_LOOP('',(#768,#769,#770,#771,#772,#773,#774,#775));
#161=EDGE_LOOP('',(#776,#777,#778,#779));
#162=EDGE_LOOP('',(#780,#781,#782,#783));
#163=EDGE_LOOP('',(#784,#785,#786,#787,#788,#789,#790,#791,#792,#793));
#164=EDGE_LOOP('',(#794));
#165=EDGE_LOOP('',(#795,#796,#797,#798));
#166=EDGE_LOOP('',(#799,#800,#801,#802));
#167=EDGE_LOOP('',(#803,#804,#805,#806));
#168=EDGE_LOOP('',(#807,#808,#809,#810));
#169=EDGE_LOOP('',(#811,#812,#813,#814));
#170=EDGE_LOOP('',(#815,#816,#817,#818));
#171=EDGE_LOOP('',(#819,#820,#821,#822,#823,#824));
#172=EDGE_LOOP('',(#825));
#173=EDGE_LOOP('',(#826,#827,#828,#829));
#174=EDGE_LOOP('',(#830,#831,#832,#833));
#175=EDGE_LOOP('',(#834,#835,#836,#837));
#176=EDGE_LOOP('',(#838,#839,#840,#841));
#177=EDGE_LOOP('',(#842,#843,#844,#845));
#178=EDGE_LOOP('',(#846,#847,#848,#849));
#179=EDGE_LOOP('',(#850,#851,#852,#853,#854,#855));
#180=EDGE_LOOP('',(#856));
#181=EDGE_LOOP('',(#857,#858,#859,#860));
#182=EDGE_LOOP('',(#861,#862,#863,#864));
#183=EDGE_LOOP('',(#865,#866,#867,#868,#869,#870));
#184=EDGE_LOOP('',(#871,#872,#873,#874,#875,#876));
#185=EDGE_LOOP('',(#877,#878,#879,#880,#881,#882));
#186=EDGE_LOOP('',(#883,#884,#885,#886,#887,#888,#889,#890,#891,#892,#893,
#894));
#187=EDGE_LOOP('',(#895,#896,#897,#898,#899,#900));
#188=EDGE_LOOP('',(#901));
#189=EDGE_LOOP('',(#902));
#190=EDGE_LOOP('',(#903));
#191=EDGE_LOOP('',(#904,#905,#906,#907,#908,#909,#910,#911,#912,#913,#914,
#915));
#192=EDGE_LOOP('',(#916,#917,#918,#919,#920,#921,#922,#923));
#193=EDGE_LOOP('',(#924,#925,#926,#927,#928));
#194=EDGE_LOOP('',(#929,#930,#931,#932));
#195=EDGE_LOOP('',(#933));
#196=EDGE_LOOP('',(#934));
#197=EDGE_LOOP('',(#935,#936,#937,#938));
#198=EDGE_LOOP('',(#939,#940,#941,#942));
#199=EDGE_LOOP('',(#943,#944,#945,#946));
#200=EDGE_LOOP('',(#947,#948,#949,#950));
#201=EDGE_LOOP('',(#951));
#202=EDGE_LOOP('',(#952,#953,#954,#955,#956));
#203=EDGE_LOOP('',(#957,#958,#959,#960,#961,#962));
#204=EDGE_LOOP('',(#963,#964,#965,#966));
#205=EDGE_LOOP('',(#967));
#206=EDGE_LOOP('',(#968));
#207=EDGE_LOOP('',(#969,#970,#971,#972));
#208=EDGE_LOOP('',(#973,#974,#975,#976));
#209=EDGE_LOOP('',(#977,#978,#979,#980));
#210=EDGE_LOOP('',(#981,#982,#983,#984));
#211=EDGE_LOOP('',(#985,#986,#987,#988));
#212=EDGE_LOOP('',(#989,#990,#991,#992));
#213=LINE('',#1441,#333);
#214=LINE('',#1444,#334);
#215=LINE('',#1447,#335);
#216=LINE('',#1449,#336);
#217=LINE('',#1453,#337);
#218=LINE('',#1457,#338);
#219=LINE('',#1458,#339);
#220=LINE('',#1464,#340);
#221=LINE('',#1467,#341);
#222=LINE('',#1469,#342);
#223=LINE('',#1470,#343);
#224=LINE('',#1475,#344);
#225=LINE('',#1481,#345);
#226=LINE('',#1486,#346);
#227=LINE('',#1488,#347);
#228=LINE('',#1490,#348);
#229=LINE('',#1492,#349);
#230=LINE('',#1495,#350);
#231=LINE('',#1498,#351);
#232=LINE('',#1500,#352);
#233=LINE('',#1501,#353);
#234=LINE('',#1506,#354);
#235=LINE('',#1508,#355);
#236=LINE('',#1510,#356);
#237=LINE('',#1511,#357);
#238=LINE('',#1514,#358);
#239=LINE('',#1516,#359);
#240=LINE('',#1517,#360);
#241=LINE('',#1523,#361);
#242=LINE('',#1524,#362);
#243=LINE('',#1525,#363);
#244=LINE('',#1527,#364);
#245=LINE('',#1529,#365);
#246=LINE('',#1532,#366);
#247=LINE('',#1534,#367);
#248=LINE('',#1535,#368);
#249=LINE('',#1538,#369);
#250=LINE('',#1542,#370);
#251=LINE('',#1546,#371);
#252=LINE('',#1547,#372);
#253=LINE('',#1551,#373);
#254=LINE('',#1554,#374);
#255=LINE('',#1556,#375);
#256=LINE('',#1557,#376);
#257=LINE('',#1563,#377);
#258=LINE('',#1565,#378);
#259=LINE('',#1567,#379);
#260=LINE('',#1568,#380);
#261=LINE('',#1571,#381);
#262=LINE('',#1573,#382);
#263=LINE('',#1574,#383);
#264=LINE('',#1577,#384);
#265=LINE('',#1579,#385);
#266=LINE('',#1580,#386);
#267=LINE('',#1583,#387);
#268=LINE('',#1585,#388);
#269=LINE('',#1586,#389);
#270=LINE('',#1589,#390);
#271=LINE('',#1591,#391);
#272=LINE('',#1592,#392);
#273=LINE('',#1594,#393);
#274=LINE('',#1595,#394);
#275=LINE('',#1602,#395);
#276=LINE('',#1604,#396);
#277=LINE('',#1606,#397);
#278=LINE('',#1607,#398);
#279=LINE('',#1610,#399);
#280=LINE('',#1612,#400);
#281=LINE('',#1613,#401);
#282=LINE('',#1616,#402);
#283=LINE('',#1618,#403);
#284=LINE('',#1619,#404);
#285=LINE('',#1622,#405);
#286=LINE('',#1624,#406);
#287=LINE('',#1625,#407);
#288=LINE('',#1628,#408);
#289=LINE('',#1630,#409);
#290=LINE('',#1631,#410);
#291=LINE('',#1633,#411);
#292=LINE('',#1634,#412);
#293=LINE('',#1641,#413);
#294=LINE('',#1645,#414);
#295=LINE('',#1648,#415);
#296=LINE('',#1649,#416);
#297=LINE('',#1653,#417);
#298=LINE('',#1655,#418);
#299=LINE('',#1657,#419);
#300=LINE('',#1658,#420);
#301=LINE('',#1660,#421);
#302=LINE('',#1664,#422);
#303=LINE('',#1666,#423);
#304=LINE('',#1667,#424);
#305=LINE('',#1670,#425);
#306=LINE('',#1672,#426);
#307=LINE('',#1673,#427);
#308=LINE('',#1674,#428);
#309=LINE('',#1677,#429);
#310=LINE('',#1679,#430);
#311=LINE('',#1681,#431);
#312=LINE('',#1684,#432);
#313=LINE('',#1686,#433);
#314=LINE('',#1688,#434);
#315=LINE('',#1689,#435);
#316=LINE('',#1692,#436);
#317=LINE('',#1694,#437);
#318=LINE('',#1698,#438);
#319=LINE('',#1701,#439);
#320=LINE('',#1703,#440);
#321=LINE('',#1705,#441);
#322=LINE('',#1706,#442);
#323=LINE('',#1708,#443);
#324=LINE('',#1711,#444);
#325=LINE('',#1713,#445);
#326=LINE('',#1717,#446);
#327=LINE('',#1719,#447);
#328=LINE('',#1721,#448);
#329=LINE('',#1723,#449);
#330=LINE('',#1725,#450);
#331=LINE('',#1727,#451);
#332=LINE('',#1731,#452);
#333=VECTOR('',#1159,10.);
#334=VECTOR('',#1162,10.);
#335=VECTOR('',#1165,10.);
#336=VECTOR('',#1166,10.);
#337=VECTOR('',#1169,10.);
#338=VECTOR('',#1172,10.);
#339=VECTOR('',#1173,10.);
#340=VECTOR('',#1178,10.);
#341=VECTOR('',#1181,10.);
#342=VECTOR('',#1184,10.);
#343=VECTOR('',#1185,10.);
#344=VECTOR('',#1190,1.6);
#345=VECTOR('',#1197,1.6);
#346=VECTOR('',#1202,10.);
#347=VECTOR('',#1203,10.);
#348=VECTOR('',#1204,10.);
#349=VECTOR('',#1205,10.);
#350=VECTOR('',#1208,10.);
#351=VECTOR('',#1211,10.);
#352=VECTOR('',#1212,10.);
#353=VECTOR('',#1213,10.);
#354=VECTOR('',#1218,10.);
#355=VECTOR('',#1219,10.);
#356=VECTOR('',#1220,10.);
#357=VECTOR('',#1221,10.);
#358=VECTOR('',#1224,10.);
#359=VECTOR('',#1225,10.);
#360=VECTOR('',#1226,10.);
#361=VECTOR('',#1231,10.);
#362=VECTOR('',#1232,10.);
#363=VECTOR('',#1233,10.);
#364=VECTOR('',#1236,10.);
#365=VECTOR('',#1239,10.);
#366=VECTOR('',#1242,10.);
#367=VECTOR('',#1243,10.);
#368=VECTOR('',#1244,10.);
#369=VECTOR('',#1247,10.);
#370=VECTOR('',#1250,10.);
#371=VECTOR('',#1255,10.);
#372=VECTOR('',#1256,10.);
#373=VECTOR('',#1261,1.6);
#374=VECTOR('',#1264,10.);
#375=VECTOR('',#1265,10.);
#376=VECTOR('',#1266,10.);
#377=VECTOR('',#1271,10.);
#378=VECTOR('',#1272,10.);
#379=VECTOR('',#1273,10.);
#380=VECTOR('',#1274,10.);
#381=VECTOR('',#1277,10.);
#382=VECTOR('',#1278,10.);
#383=VECTOR('',#1279,10.);
#384=VECTOR('',#1282,10.);
#385=VECTOR('',#1283,10.);
#386=VECTOR('',#1284,10.);
#387=VECTOR('',#1287,10.);
#388=VECTOR('',#1288,10.);
#389=VECTOR('',#1289,10.);
#390=VECTOR('',#1292,10.);
#391=VECTOR('',#1293,10.);
#392=VECTOR('',#1294,10.);
#393=VECTOR('',#1297,10.);
#394=VECTOR('',#1298,10.);
#395=VECTOR('',#1305,10.);
#396=VECTOR('',#1306,10.);
#397=VECTOR('',#1307,10.);
#398=VECTOR('',#1308,10.);
#399=VECTOR('',#1311,10.);
#400=VECTOR('',#1312,10.);
#401=VECTOR('',#1313,10.);
#402=VECTOR('',#1316,10.);
#403=VECTOR('',#1317,10.);
#404=VECTOR('',#1318,10.);
#405=VECTOR('',#1321,10.);
#406=VECTOR('',#1322,10.);
#407=VECTOR('',#1323,10.);
#408=VECTOR('',#1326,10.);
#409=VECTOR('',#1327,10.);
#410=VECTOR('',#1328,10.);
#411=VECTOR('',#1331,10.);
#412=VECTOR('',#1332,10.);
#413=VECTOR('',#1341,1.6);
#414=VECTOR('',#1346,1.6);
#415=VECTOR('',#1349,10.);
#416=VECTOR('',#1350,10.);
#417=VECTOR('',#1353,10.);
#418=VECTOR('',#1354,10.);
#419=VECTOR('',#1355,10.);
#420=VECTOR('',#1356,10.);
#421=VECTOR('',#1357,10.);
#422=VECTOR('',#1360,10.);
#423=VECTOR('',#1361,10.);
#424=VECTOR('',#1362,10.);
#425=VECTOR('',#1365,10.);
#426=VECTOR('',#1366,10.);
#427=VECTOR('',#1367,10.);
#428=VECTOR('',#1368,10.);
#429=VECTOR('',#1371,10.);
#430=VECTOR('',#1372,10.);
#431=VECTOR('',#1373,10.);
#432=VECTOR('',#1376,10.);
#433=VECTOR('',#1377,10.);
#434=VECTOR('',#1378,10.);
#435=VECTOR('',#1379,10.);
#436=VECTOR('',#1382,10.);
#437=VECTOR('',#1383,10.);
#438=VECTOR('',#1386,10.);
#439=VECTOR('',#1389,10.);
#440=VECTOR('',#1392,10.);
#441=VECTOR('',#1395,10.);
#442=VECTOR('',#1396,10.);
#443=VECTOR('',#1399,10.);
#444=VECTOR('',#1404,10.);
#445=VECTOR('',#1407,10.);
#446=VECTOR('',#1412,10.);
#447=VECTOR('',#1415,10.);
#448=VECTOR('',#1418,10.);
#449=VECTOR('',#1421,10.);
#450=VECTOR('',#1424,10.);
#451=VECTOR('',#1427,10.);
#452=VECTOR('',#1434,1.6);
#453=ELLIPSE('',#1074,6.8716339713766,4.);
#454=ELLIPSE('',#1075,4.00182520603147,4.);
#455=ELLIPSE('',#1080,6.8716339713766,4.);
#456=ELLIPSE('',#1081,4.00182520603147,4.);
#457=ELLIPSE('',#1090,11.5470053837925,10.);
#458=ELLIPSE('',#1093,11.5470053837925,10.);
#459=VERTEX_POINT('',#1437);
#460=VERTEX_POINT('',#1438);
#461=VERTEX_POINT('',#1440);
#462=VERTEX_POINT('',#1442);
#463=VERTEX_POINT('',#1446);
#464=VERTEX_POINT('',#1448);
#465=VERTEX_POINT('',#1450);
#466=VERTEX_POINT('',#1452);
#467=VERTEX_POINT('',#1454);
#468=VERTEX_POINT('',#1456);
#469=VERTEX_POINT('',#1460);
#470=VERTEX_POINT('',#1461);
#471=VERTEX_POINT('',#1463);
#472=VERTEX_POINT('',#1465);
#473=VERTEX_POINT('',#1472);
#474=VERTEX_POINT('',#1474);
#475=VERTEX_POINT('',#1478);
#476=VERTEX_POINT('',#1480);
#477=VERTEX_POINT('',#1484);
#478=VERTEX_POINT('',#1485);
#479=VERTEX_POINT('',#1487);
#480=VERTEX_POINT('',#1489);
#481=VERTEX_POINT('',#1491);
#482=VERTEX_POINT('',#1493);
#483=VERTEX_POINT('',#1497);
#484=VERTEX_POINT('',#1499);
#485=VERTEX_POINT('',#1503);
#486=VERTEX_POINT('',#1505);
#487=VERTEX_POINT('',#1507);
#488=VERTEX_POINT('',#1509);
#489=VERTEX_POINT('',#1513);
#490=VERTEX_POINT('',#1515);
#491=VERTEX_POINT('',#1518);
#492=VERTEX_POINT('',#1521);
#493=VERTEX_POINT('',#1522);
#494=VERTEX_POINT('',#1531);
#495=VERTEX_POINT('',#1533);
#496=VERTEX_POINT('',#1537);
#497=VERTEX_POINT('',#1539);
#498=VERTEX_POINT('',#1541);
#499=VERTEX_POINT('',#1545);
#500=VERTEX_POINT('',#1549);
#501=VERTEX_POINT('',#1553);
#502=VERTEX_POINT('',#1555);
#503=VERTEX_POINT('',#1558);
#504=VERTEX_POINT('',#1561);
#505=VERTEX_POINT('',#1562);
#506=VERTEX_POINT('',#1564);
#507=VERTEX_POINT('',#1566);
#508=VERTEX_POINT('',#1570);
#509=VERTEX_POINT('',#1572);
#510=VERTEX_POINT('',#1576);
#511=VERTEX_POINT('',#1578);
#512=VERTEX_POINT('',#1582);
#513=VERTEX_POINT('',#1584);
#514=VERTEX_POINT('',#1588);
#515=VERTEX_POINT('',#1590);
#516=VERTEX_POINT('',#1597);
#517=VERTEX_POINT('',#1600);
#518=VERTEX_POINT('',#1601);
#519=VERTEX_POINT('',#1603);
#520=VERTEX_POINT('',#1605);
#521=VERTEX_POINT('',#1609);
#522=VERTEX_POINT('',#1611);
#523=VERTEX_POINT('',#1615);
#524=VERTEX_POINT('',#1617);
#525=VERTEX_POINT('',#1621);
#526=VERTEX_POINT('',#1623);
#527=VERTEX_POINT('',#1627);
#528=VERTEX_POINT('',#1629);
#529=VERTEX_POINT('',#1636);
#530=VERTEX_POINT('',#1639);
#531=VERTEX_POINT('',#1643);
#532=VERTEX_POINT('',#1647);
#533=VERTEX_POINT('',#1651);
#534=VERTEX_POINT('',#1652);
#535=VERTEX_POINT('',#1654);
#536=VERTEX_POINT('',#1656);
#537=VERTEX_POINT('',#1659);
#538=VERTEX_POINT('',#1661);
#539=VERTEX_POINT('',#1663);
#540=VERTEX_POINT('',#1665);
#541=VERTEX_POINT('',#1669);
#542=VERTEX_POINT('',#1671);
#543=VERTEX_POINT('',#1676);
#544=VERTEX_POINT('',#1678);
#545=VERTEX_POINT('',#1680);
#546=VERTEX_POINT('',#1682);
#547=VERTEX_POINT('',#1685);
#548=VERTEX_POINT('',#1687);
#549=VERTEX_POINT('',#1691);
#550=VERTEX_POINT('',#1693);
#551=VERTEX_POINT('',#1695);
#552=VERTEX_POINT('',#1697);
#553=VERTEX_POINT('',#1699);
#554=VERTEX_POINT('',#1714);
#555=EDGE_CURVE('',#459,#460,#453,.F.);
#556=EDGE_CURVE('',#459,#461,#213,.T.);
#557=EDGE_CURVE('',#461,#462,#454,.T.);
#558=EDGE_CURVE('',#462,#460,#214,.T.);
#559=EDGE_CURVE('',#462,#463,#215,.T.);
#560=EDGE_CURVE('',#464,#463,#216,.T.);
#561=EDGE_CURVE('',#465,#464,#29,.T.);
#562=EDGE_CURVE('',#466,#465,#217,.T.);
#563=EDGE_CURVE('',#467,#466,#30,.T.);
#564=EDGE_CURVE('',#468,#467,#218,.T.);
#565=EDGE_CURVE('',#468,#460,#219,.T.);
#566=EDGE_CURVE('',#469,#470,#455,.T.);
#567=EDGE_CURVE('',#470,#471,#220,.T.);
#568=EDGE_CURVE('',#471,#472,#456,.T.);
#569=EDGE_CURVE('',#472,#469,#221,.T.);
#570=EDGE_CURVE('',#459,#469,#222,.T.);
#571=EDGE_CURVE('',#461,#472,#223,.T.);
#572=EDGE_CURVE('',#473,#473,#31,.T.);
#573=EDGE_CURVE('',#473,#474,#224,.T.);
#574=EDGE_CURVE('',#474,#474,#32,.T.);
#575=EDGE_CURVE('',#475,#475,#33,.T.);
#576=EDGE_CURVE('',#475,#476,#225,.T.);
#577=EDGE_CURVE('',#476,#476,#34,.T.);
#578=EDGE_CURVE('',#477,#478,#226,.T.);
#579=EDGE_CURVE('',#479,#477,#227,.T.);
#580=EDGE_CURVE('',#479,#480,#228,.T.);
#581=EDGE_CURVE('',#481,#480,#229,.T.);
#582=EDGE_CURVE('',#482,#481,#457,.T.);
#583=EDGE_CURVE('',#478,#482,#230,.T.);
#584=EDGE_CURVE('',#481,#483,#231,.T.);
#585=EDGE_CURVE('',#480,#484,#232,.T.);
#586=EDGE_CURVE('',#484,#483,#233,.T.);
#587=EDGE_CURVE('',#483,#485,#458,.T.);
#588=EDGE_CURVE('',#484,#486,#234,.T.);
#589=EDGE_CURVE('',#486,#487,#235,.T.);
#590=EDGE_CURVE('',#488,#487,#236,.T.);
#591=EDGE_CURVE('',#485,#488,#237,.T.);
#592=EDGE_CURVE('',#489,#479,#238,.T.);
#593=EDGE_CURVE('',#490,#489,#239,.T.);
#594=EDGE_CURVE('',#486,#490,#240,.T.);
#595=EDGE_CURVE('',#491,#491,#35,.T.);
#596=EDGE_CURVE('',#492,#493,#241,.T.);
#597=EDGE_CURVE('',#490,#492,#242,.T.);
#598=EDGE_CURVE('',#489,#493,#243,.T.);
#599=EDGE_CURVE('',#493,#477,#244,.T.);
#600=EDGE_CURVE('',#487,#492,#245,.T.);
#601=EDGE_CURVE('',#494,#482,#246,.T.);
#602=EDGE_CURVE('',#495,#494,#247,.T.);
#603=EDGE_CURVE('',#478,#495,#248,.T.);
#604=EDGE_CURVE('',#485,#496,#249,.T.);
#605=EDGE_CURVE('',#497,#496,#36,.T.);
#606=EDGE_CURVE('',#498,#497,#250,.T.);
#607=EDGE_CURVE('',#494,#498,#37,.T.);
#608=EDGE_CURVE('',#499,#488,#251,.T.);
#609=EDGE_CURVE('',#496,#499,#252,.T.);
#610=EDGE_CURVE('',#500,#500,#38,.T.);
#611=EDGE_CURVE('',#500,#491,#253,.T.);
#612=EDGE_CURVE('',#495,#501,#254,.T.);
#613=EDGE_CURVE('',#501,#502,#255,.T.);
#614=EDGE_CURVE('',#502,#499,#256,.T.);
#615=EDGE_CURVE('',#503,#503,#39,.T.);
#616=EDGE_CURVE('',#504,#505,#257,.T.);
#617=EDGE_CURVE('',#504,#506,#258,.T.);
#618=EDGE_CURVE('',#506,#507,#259,.T.);
#619=EDGE_CURVE('',#505,#507,#260,.T.);
#620=EDGE_CURVE('',#508,#504,#261,.T.);
#621=EDGE_CURVE('',#508,#509,#262,.T.);
#622=EDGE_CURVE('',#509,#506,#263,.T.);
#623=EDGE_CURVE('',#510,#508,#264,.T.);
#624=EDGE_CURVE('',#510,#511,#265,.T.);
#625=EDGE_CURVE('',#511,#509,#266,.T.);
#626=EDGE_CURVE('',#512,#510,#267,.T.);
#627=EDGE_CURVE('',#512,#513,#268,.T.);
#628=EDGE_CURVE('',#513,#511,#269,.T.);
#629=EDGE_CURVE('',#514,#512,#270,.T.);
#630=EDGE_CURVE('',#514,#515,#271,.T.);
#631=EDGE_CURVE('',#515,#513,#272,.T.);
#632=EDGE_CURVE('',#505,#514,#273,.T.);
#633=EDGE_CURVE('',#507,#515,#274,.T.);
#634=EDGE_CURVE('',#516,#516,#40,.T.);
#635=EDGE_CURVE('',#517,#518,#275,.T.);
#636=EDGE_CURVE('',#517,#519,#276,.T.);
#637=EDGE_CURVE('',#519,#520,#277,.T.);
#638=EDGE_CURVE('',#518,#520,#278,.T.);
#639=EDGE_CURVE('',#521,#517,#279,.T.);
#640=EDGE_CURVE('',#521,#522,#280,.T.);
#641=EDGE_CURVE('',#522,#519,#281,.T.);
#642=EDGE_CURVE('',#523,#521,#282,.T.);
#643=EDGE_CURVE('',#523,#524,#283,.T.);
#644=EDGE_CURVE('',#524,#522,#284,.T.);
#645=EDGE_CURVE('',#525,#523,#285,.T.);
#646=EDGE_CURVE('',#525,#526,#286,.T.);
#647=EDGE_CURVE('',#526,#524,#287,.T.);
#648=EDGE_CURVE('',#527,#525,#288,.T.);
#649=EDGE_CURVE('',#527,#528,#289,.T.);
#650=EDGE_CURVE('',#528,#526,#290,.T.);
#651=EDGE_CURVE('',#518,#527,#291,.T.);
#652=EDGE_CURVE('',#520,#528,#292,.T.);
#653=EDGE_CURVE('',#529,#529,#41,.T.);
#654=EDGE_CURVE('',#530,#530,#42,.T.);
#655=EDGE_CURVE('',#530,#516,#293,.T.);
#656=EDGE_CURVE('',#531,#531,#43,.T.);
#657=EDGE_CURVE('',#531,#529,#294,.T.);
#658=EDGE_CURVE('',#532,#471,#295,.T.);
#659=EDGE_CURVE('',#463,#532,#296,.T.);
#660=EDGE_CURVE('',#533,#534,#297,.T.);
#661=EDGE_CURVE('',#533,#535,#298,.T.);
#662=EDGE_CURVE('',#535,#536,#299,.T.);
#663=EDGE_CURVE('',#536,#501,#300,.T.);
#664=EDGE_CURVE('',#537,#498,#301,.T.);
#665=EDGE_CURVE('',#537,#538,#44,.T.);
#666=EDGE_CURVE('',#538,#539,#302,.T.);
#667=EDGE_CURVE('',#539,#540,#303,.T.);
#668=EDGE_CURVE('',#534,#540,#304,.T.);
#669=EDGE_CURVE('',#541,#459,#305,.T.);
#670=EDGE_CURVE('',#542,#541,#306,.T.);
#671=EDGE_CURVE('',#533,#542,#307,.T.);
#672=EDGE_CURVE('',#534,#469,#308,.T.);
#673=EDGE_CURVE('',#541,#543,#309,.T.);
#674=EDGE_CURVE('',#543,#544,#310,.T.);
#675=EDGE_CURVE('',#544,#545,#311,.T.);
#676=EDGE_CURVE('',#545,#546,#45,.T.);
#677=EDGE_CURVE('',#546,#497,#312,.T.);
#678=EDGE_CURVE('',#547,#502,#313,.T.);
#679=EDGE_CURVE('',#548,#547,#314,.T.);
#680=EDGE_CURVE('',#548,#542,#315,.T.);
#681=EDGE_CURVE('',#549,#470,#316,.T.);
#682=EDGE_CURVE('',#550,#549,#317,.T.);
#683=EDGE_CURVE('',#551,#550,#46,.T.);
#684=EDGE_CURVE('',#552,#551,#318,.T.);
#685=EDGE_CURVE('',#553,#552,#47,.T.);
#686=EDGE_CURVE('',#532,#553,#319,.T.);
#687=EDGE_CURVE('',#540,#549,#320,.T.);
#688=EDGE_CURVE('',#538,#545,#321,.T.);
#689=EDGE_CURVE('',#539,#544,#322,.T.);
#690=EDGE_CURVE('',#537,#546,#323,.T.);
#691=EDGE_CURVE('',#547,#536,#324,.T.);
#692=EDGE_CURVE('',#535,#548,#325,.T.);
#693=EDGE_CURVE('',#554,#554,#48,.T.);
#694=EDGE_CURVE('',#468,#543,#326,.T.);
#695=EDGE_CURVE('',#549,#468,#327,.T.);
#696=EDGE_CURVE('',#550,#467,#328,.T.);
#697=EDGE_CURVE('',#551,#466,#329,.T.);
#698=EDGE_CURVE('',#552,#465,#330,.T.);
#699=EDGE_CURVE('',#553,#464,#331,.T.);
#700=EDGE_CURVE('',#503,#554,#332,.T.);
#701=ORIENTED_EDGE('',*,*,#555,.F.);
#702=ORIENTED_EDGE('',*,*,#556,.T.);
#703=ORIENTED_EDGE('',*,*,#557,.T.);
#704=ORIENTED_EDGE('',*,*,#558,.T.);
#705=ORIENTED_EDGE('',*,*,#558,.F.);
#706=ORIENTED_EDGE('',*,*,#559,.T.);
#707=ORIENTED_EDGE('',*,*,#560,.F.);
#708=ORIENTED_EDGE('',*,*,#561,.F.);
#709=ORIENTED_EDGE('',*,*,#562,.F.);
#710=ORIENTED_EDGE('',*,*,#563,.F.);
#711=ORIENTED_EDGE('',*,*,#564,.F.);
#712=ORIENTED_EDGE('',*,*,#565,.T.);
#713=ORIENTED_EDGE('',*,*,#566,.T.);
#714=ORIENTED_EDGE('',*,*,#567,.T.);
#715=ORIENTED_EDGE('',*,*,#568,.T.);
#716=ORIENTED_EDGE('',*,*,#569,.T.);
#717=ORIENTED_EDGE('',*,*,#556,.F.);
#718=ORIENTED_EDGE('',*,*,#570,.T.);
#719=ORIENTED_EDGE('',*,*,#569,.F.);
#720=ORIENTED_EDGE('',*,*,#571,.F.);
#721=ORIENTED_EDGE('',*,*,#572,.F.);
#722=ORIENTED_EDGE('',*,*,#573,.T.);
#723=ORIENTED_EDGE('',*,*,#574,.F.);
#724=ORIENTED_EDGE('',*,*,#573,.F.);
#725=ORIENTED_EDGE('',*,*,#575,.F.);
#726=ORIENTED_EDGE('',*,*,#576,.T.);
#727=ORIENTED_EDGE('',*,*,#577,.F.);
#728=ORIENTED_EDGE('',*,*,#576,.F.);
#729=ORIENTED_EDGE('',*,*,#578,.F.);
#730=ORIENTED_EDGE('',*,*,#579,.F.);
#731=ORIENTED_EDGE('',*,*,#580,.T.);
#732=ORIENTED_EDGE('',*,*,#581,.F.);
#733=ORIENTED_EDGE('',*,*,#582,.F.);
#734=ORIENTED_EDGE('',*,*,#583,.F.);
#735=ORIENTED_EDGE('',*,*,#584,.F.);
#736=ORIENTED_EDGE('',*,*,#581,.T.);
#737=ORIENTED_EDGE('',*,*,#585,.T.);
#738=ORIENTED_EDGE('',*,*,#586,.T.);
#739=ORIENTED_EDGE('',*,*,#587,.F.);
#740=ORIENTED_EDGE('',*,*,#586,.F.);
#741=ORIENTED_EDGE('',*,*,#588,.T.);
#742=ORIENTED_EDGE('',*,*,#589,.T.);
#743=ORIENTED_EDGE('',*,*,#590,.F.);
#744=ORIENTED_EDGE('',*,*,#591,.F.);
#745=ORIENTED_EDGE('',*,*,#592,.F.);
#746=ORIENTED_EDGE('',*,*,#593,.F.);
#747=ORIENTED_EDGE('',*,*,#594,.F.);
#748=ORIENTED_EDGE('',*,*,#588,.F.);
#749=ORIENTED_EDGE('',*,*,#585,.F.);
#750=ORIENTED_EDGE('',*,*,#580,.F.);
#751=ORIENTED_EDGE('',*,*,#595,.F.);
#752=ORIENTED_EDGE('',*,*,#596,.F.);
#753=ORIENTED_EDGE('',*,*,#597,.F.);
#754=ORIENTED_EDGE('',*,*,#593,.T.);
#755=ORIENTED_EDGE('',*,*,#598,.T.);
#756=ORIENTED_EDGE('',*,*,#599,.F.);
#757=ORIENTED_EDGE('',*,*,#598,.F.);
#758=ORIENTED_EDGE('',*,*,#592,.T.);
#759=ORIENTED_EDGE('',*,*,#579,.T.);
#760=ORIENTED_EDGE('',*,*,#600,.F.);
#761=ORIENTED_EDGE('',*,*,#589,.F.);
#762=ORIENTED_EDGE('',*,*,#594,.T.);
#763=ORIENTED_EDGE('',*,*,#597,.T.);
#764=ORIENTED_EDGE('',*,*,#583,.T.);
#765=ORIENTED_EDGE('',*,*,#601,.F.);
#766=ORIENTED_EDGE('',*,*,#602,.F.);
#767=ORIENTED_EDGE('',*,*,#603,.F.);
#768=ORIENTED_EDGE('',*,*,#582,.T.);
#769=ORIENTED_EDGE('',*,*,#584,.T.);
#770=ORIENTED_EDGE('',*,*,#587,.T.);
#771=ORIENTED_EDGE('',*,*,#604,.T.);
#772=ORIENTED_EDGE('',*,*,#605,.F.);
#773=ORIENTED_EDGE('',*,*,#606,.F.);
#774=ORIENTED_EDGE('',*,*,#607,.F.);
#775=ORIENTED_EDGE('',*,*,#601,.T.);
#776=ORIENTED_EDGE('',*,*,#591,.T.);
#777=ORIENTED_EDGE('',*,*,#608,.F.);
#778=ORIENTED_EDGE('',*,*,#609,.F.);
#779=ORIENTED_EDGE('',*,*,#604,.F.);
#780=ORIENTED_EDGE('',*,*,#610,.F.);
#781=ORIENTED_EDGE('',*,*,#611,.T.);
#782=ORIENTED_EDGE('',*,*,#595,.T.);
#783=ORIENTED_EDGE('',*,*,#611,.F.);
#784=ORIENTED_EDGE('',*,*,#578,.T.);
#785=ORIENTED_EDGE('',*,*,#603,.T.);
#786=ORIENTED_EDGE('',*,*,#612,.T.);
#787=ORIENTED_EDGE('',*,*,#613,.T.);
#788=ORIENTED_EDGE('',*,*,#614,.T.);
#789=ORIENTED_EDGE('',*,*,#608,.T.);
#790=ORIENTED_EDGE('',*,*,#590,.T.);
#791=ORIENTED_EDGE('',*,*,#600,.T.);
#792=ORIENTED_EDGE('',*,*,#596,.T.);
#793=ORIENTED_EDGE('',*,*,#599,.T.);
#794=ORIENTED_EDGE('',*,*,#615,.T.);
#795=ORIENTED_EDGE('',*,*,#616,.F.);
#796=ORIENTED_EDGE('',*,*,#617,.T.);
#797=ORIENTED_EDGE('',*,*,#618,.T.);
#798=ORIENTED_EDGE('',*,*,#619,.F.);
#799=ORIENTED_EDGE('',*,*,#620,.F.);
#800=ORIENTED_EDGE('',*,*,#621,.T.);
#801=ORIENTED_EDGE('',*,*,#622,.T.);
#802=ORIENTED_EDGE('',*,*,#617,.F.);
#803=ORIENTED_EDGE('',*,*,#623,.F.);
#804=ORIENTED_EDGE('',*,*,#624,.T.);
#805=ORIENTED_EDGE('',*,*,#625,.T.);
#806=ORIENTED_EDGE('',*,*,#621,.F.);
#807=ORIENTED_EDGE('',*,*,#626,.F.);
#808=ORIENTED_EDGE('',*,*,#627,.T.);
#809=ORIENTED_EDGE('',*,*,#628,.T.);
#810=ORIENTED_EDGE('',*,*,#624,.F.);
#811=ORIENTED_EDGE('',*,*,#629,.F.);
#812=ORIENTED_EDGE('',*,*,#630,.T.);
#813=ORIENTED_EDGE('',*,*,#631,.T.);
#814=ORIENTED_EDGE('',*,*,#627,.F.);
#815=ORIENTED_EDGE('',*,*,#632,.F.);
#816=ORIENTED_EDGE('',*,*,#619,.T.);
#817=ORIENTED_EDGE('',*,*,#633,.T.);
#818=ORIENTED_EDGE('',*,*,#630,.F.);
#819=ORIENTED_EDGE('',*,*,#633,.F.);
#820=ORIENTED_EDGE('',*,*,#618,.F.);
#821=ORIENTED_EDGE('',*,*,#622,.F.);
#822=ORIENTED_EDGE('',*,*,#625,.F.);
#823=ORIENTED_EDGE('',*,*,#628,.F.);
#824=ORIENTED_EDGE('',*,*,#631,.F.);
#825=ORIENTED_EDGE('',*,*,#634,.F.);
#826=ORIENTED_EDGE('',*,*,#635,.F.);
#827=ORIENTED_EDGE('',*,*,#636,.T.);
#828=ORIENTED_EDGE('',*,*,#637,.T.);
#829=ORIENTED_EDGE('',*,*,#638,.F.);
#830=ORIENTED_EDGE('',*,*,#639,.F.);
#831=ORIENTED_EDGE('',*,*,#640,.T.);
#832=ORIENTED_EDGE('',*,*,#641,.T.);
#833=ORIENTED_EDGE('',*,*,#636,.F.);
#834=ORIENTED_EDGE('',*,*,#642,.F.);
#835=ORIENTED_EDGE('',*,*,#643,.T.);
#836=ORIENTED_EDGE('',*,*,#644,.T.);
#837=ORIENTED_EDGE('',*,*,#640,.F.);
#838=ORIENTED_EDGE('',*,*,#645,.F.);
#839=ORIENTED_EDGE('',*,*,#646,.T.);
#840=ORIENTED_EDGE('',*,*,#647,.T.);
#841=ORIENTED_EDGE('',*,*,#643,.F.);
#842=ORIENTED_EDGE('',*,*,#648,.F.);
#843=ORIENTED_EDGE('',*,*,#649,.T.);
#844=ORIENTED_EDGE('',*,*,#650,.T.);
#845=ORIENTED_EDGE('',*,*,#646,.F.);
#846=ORIENTED_EDGE('',*,*,#651,.F.);
#847=ORIENTED_EDGE('',*,*,#638,.T.);
#848=ORIENTED_EDGE('',*,*,#652,.T.);
#849=ORIENTED_EDGE('',*,*,#649,.F.);
#850=ORIENTED_EDGE('',*,*,#652,.F.);
#851=ORIENTED_EDGE('',*,*,#637,.F.);
#852=ORIENTED_EDGE('',*,*,#641,.F.);
#853=ORIENTED_EDGE('',*,*,#644,.F.);
#854=ORIENTED_EDGE('',*,*,#647,.F.);
#855=ORIENTED_EDGE('',*,*,#650,.F.);
#856=ORIENTED_EDGE('',*,*,#653,.F.);
#857=ORIENTED_EDGE('',*,*,#654,.F.);
#858=ORIENTED_EDGE('',*,*,#655,.T.);
#859=ORIENTED_EDGE('',*,*,#634,.T.);
#860=ORIENTED_EDGE('',*,*,#655,.F.);
#861=ORIENTED_EDGE('',*,*,#656,.F.);
#862=ORIENTED_EDGE('',*,*,#657,.T.);
#863=ORIENTED_EDGE('',*,*,#653,.T.);
#864=ORIENTED_EDGE('',*,*,#657,.F.);
#865=ORIENTED_EDGE('',*,*,#658,.F.);
#866=ORIENTED_EDGE('',*,*,#659,.F.);
#867=ORIENTED_EDGE('',*,*,#559,.F.);
#868=ORIENTED_EDGE('',*,*,#557,.F.);
#869=ORIENTED_EDGE('',*,*,#571,.T.);
#870=ORIENTED_EDGE('',*,*,#568,.F.);
#871=ORIENTED_EDGE('',*,*,#616,.T.);
#872=ORIENTED_EDGE('',*,*,#632,.T.);
#873=ORIENTED_EDGE('',*,*,#629,.T.);
#874=ORIENTED_EDGE('',*,*,#626,.T.);
#875=ORIENTED_EDGE('',*,*,#623,.T.);
#876=ORIENTED_EDGE('',*,*,#620,.T.);
#877=ORIENTED_EDGE('',*,*,#635,.T.);
#878=ORIENTED_EDGE('',*,*,#651,.T.);
#879=ORIENTED_EDGE('',*,*,#648,.T.);
#880=ORIENTED_EDGE('',*,*,#645,.T.);
#881=ORIENTED_EDGE('',*,*,#642,.T.);
#882=ORIENTED_EDGE('',*,*,#639,.T.);
#883=ORIENTED_EDGE('',*,*,#660,.F.);
#884=ORIENTED_EDGE('',*,*,#661,.T.);
#885=ORIENTED_EDGE('',*,*,#662,.T.);
#886=ORIENTED_EDGE('',*,*,#663,.T.);
#887=ORIENTED_EDGE('',*,*,#612,.F.);
#888=ORIENTED_EDGE('',*,*,#602,.T.);
#889=ORIENTED_EDGE('',*,*,#607,.T.);
#890=ORIENTED_EDGE('',*,*,#664,.F.);
#891=ORIENTED_EDGE('',*,*,#665,.T.);
#892=ORIENTED_EDGE('',*,*,#666,.T.);
#893=ORIENTED_EDGE('',*,*,#667,.T.);
#894=ORIENTED_EDGE('',*,*,#668,.F.);
#895=ORIENTED_EDGE('',*,*,#669,.F.);
#896=ORIENTED_EDGE('',*,*,#670,.F.);
#897=ORIENTED_EDGE('',*,*,#671,.F.);
#898=ORIENTED_EDGE('',*,*,#660,.T.);
#899=ORIENTED_EDGE('',*,*,#672,.T.);
#900=ORIENTED_EDGE('',*,*,#570,.F.);
#901=ORIENTED_EDGE('',*,*,#610,.T.);
#902=ORIENTED_EDGE('',*,*,#654,.T.);
#903=ORIENTED_EDGE('',*,*,#656,.T.);
#904=ORIENTED_EDGE('',*,*,#670,.T.);
#905=ORIENTED_EDGE('',*,*,#673,.T.);
#906=ORIENTED_EDGE('',*,*,#674,.T.);
#907=ORIENTED_EDGE('',*,*,#675,.T.);
#908=ORIENTED_EDGE('',*,*,#676,.T.);
#909=ORIENTED_EDGE('',*,*,#677,.T.);
#910=ORIENTED_EDGE('',*,*,#605,.T.);
#911=ORIENTED_EDGE('',*,*,#609,.T.);
#912=ORIENTED_EDGE('',*,*,#614,.F.);
#913=ORIENTED_EDGE('',*,*,#678,.F.);
#914=ORIENTED_EDGE('',*,*,#679,.F.);
#915=ORIENTED_EDGE('',*,*,#680,.T.);
#916=ORIENTED_EDGE('',*,*,#567,.F.);
#917=ORIENTED_EDGE('',*,*,#681,.F.);
#918=ORIENTED_EDGE('',*,*,#682,.F.);
#919=ORIENTED_EDGE('',*,*,#683,.F.);
#920=ORIENTED_EDGE('',*,*,#684,.F.);
#921=ORIENTED_EDGE('',*,*,#685,.F.);
#922=ORIENTED_EDGE('',*,*,#686,.F.);
#923=ORIENTED_EDGE('',*,*,#658,.T.);
#924=ORIENTED_EDGE('',*,*,#668,.T.);
#925=ORIENTED_EDGE('',*,*,#687,.T.);
#926=ORIENTED_EDGE('',*,*,#681,.T.);
#927=ORIENTED_EDGE('',*,*,#566,.F.);
#928=ORIENTED_EDGE('',*,*,#672,.F.);
#929=ORIENTED_EDGE('',*,*,#688,.T.);
#930=ORIENTED_EDGE('',*,*,#675,.F.);
#931=ORIENTED_EDGE('',*,*,#689,.F.);
#932=ORIENTED_EDGE('',*,*,#666,.F.);
#933=ORIENTED_EDGE('',*,*,#572,.T.);
#934=ORIENTED_EDGE('',*,*,#575,.T.);
#935=ORIENTED_EDGE('',*,*,#690,.T.);
#936=ORIENTED_EDGE('',*,*,#676,.F.);
#937=ORIENTED_EDGE('',*,*,#688,.F.);
#938=ORIENTED_EDGE('',*,*,#665,.F.);
#939=ORIENTED_EDGE('',*,*,#606,.T.);
#940=ORIENTED_EDGE('',*,*,#677,.F.);
#941=ORIENTED_EDGE('',*,*,#690,.F.);
#942=ORIENTED_EDGE('',*,*,#664,.T.);
#943=ORIENTED_EDGE('',*,*,#691,.F.);
#944=ORIENTED_EDGE('',*,*,#678,.T.);
#945=ORIENTED_EDGE('',*,*,#613,.F.);
#946=ORIENTED_EDGE('',*,*,#663,.F.);
#947=ORIENTED_EDGE('',*,*,#692,.T.);
#948=ORIENTED_EDGE('',*,*,#679,.T.);
#949=ORIENTED_EDGE('',*,*,#691,.T.);
#950=ORIENTED_EDGE('',*,*,#662,.F.);
#951=ORIENTED_EDGE('',*,*,#693,.F.);
#952=ORIENTED_EDGE('',*,*,#673,.F.);
#953=ORIENTED_EDGE('',*,*,#669,.T.);
#954=ORIENTED_EDGE('',*,*,#555,.T.);
#955=ORIENTED_EDGE('',*,*,#565,.F.);
#956=ORIENTED_EDGE('',*,*,#694,.T.);
#957=ORIENTED_EDGE('',*,*,#689,.T.);
#958=ORIENTED_EDGE('',*,*,#674,.F.);
#959=ORIENTED_EDGE('',*,*,#694,.F.);
#960=ORIENTED_EDGE('',*,*,#695,.F.);
#961=ORIENTED_EDGE('',*,*,#687,.F.);
#962=ORIENTED_EDGE('',*,*,#667,.F.);
#963=ORIENTED_EDGE('',*,*,#682,.T.);
#964=ORIENTED_EDGE('',*,*,#695,.T.);
#965=ORIENTED_EDGE('',*,*,#564,.T.);
#966=ORIENTED_EDGE('',*,*,#696,.F.);
#967=ORIENTED_EDGE('',*,*,#574,.T.);
#968=ORIENTED_EDGE('',*,*,#577,.T.);
#969=ORIENTED_EDGE('',*,*,#683,.T.);
#970=ORIENTED_EDGE('',*,*,#696,.T.);
#971=ORIENTED_EDGE('',*,*,#563,.T.);
#972=ORIENTED_EDGE('',*,*,#697,.F.);
#973=ORIENTED_EDGE('',*,*,#684,.T.);
#974=ORIENTED_EDGE('',*,*,#697,.T.);
#975=ORIENTED_EDGE('',*,*,#562,.T.);
#976=ORIENTED_EDGE('',*,*,#698,.F.);
#977=ORIENTED_EDGE('',*,*,#685,.T.);
#978=ORIENTED_EDGE('',*,*,#698,.T.);
#979=ORIENTED_EDGE('',*,*,#561,.T.);
#980=ORIENTED_EDGE('',*,*,#699,.F.);
#981=ORIENTED_EDGE('',*,*,#659,.T.);
#982=ORIENTED_EDGE('',*,*,#686,.T.);
#983=ORIENTED_EDGE('',*,*,#699,.T.);
#984=ORIENTED_EDGE('',*,*,#560,.T.);
#985=ORIENTED_EDGE('',*,*,#671,.T.);
#986=ORIENTED_EDGE('',*,*,#680,.F.);
#987=ORIENTED_EDGE('',*,*,#692,.F.);
#988=ORIENTED_EDGE('',*,*,#661,.F.);
#989=ORIENTED_EDGE('',*,*,#615,.F.);
#990=ORIENTED_EDGE('',*,*,#700,.T.);
#991=ORIENTED_EDGE('',*,*,#693,.T.);
#992=ORIENTED_EDGE('',*,*,#700,.F.);
#993=CYLINDRICAL_SURFACE('',#1073,4.);
#994=CYLINDRICAL_SURFACE('',#1079,4.);
#995=CYLINDRICAL_SURFACE('',#1083,1.6);
#996=CYLINDRICAL_SURFACE('',#1086,1.6);
#997=CYLINDRICAL_SURFACE('',#1100,10.);
#998=CYLINDRICAL_SURFACE('',#1104,1.6);
#999=CYLINDRICAL_SURFACE('',#1124,1.6);
#1000=CYLINDRICAL_SURFACE('',#1126,1.6);
#1001=CYLINDRICAL_SURFACE('',#1139,10.);
#1002=CYLINDRICAL_SURFACE('',#1147,7.00000000000001);
#1003=CYLINDRICAL_SURFACE('',#1149,7.);
#1004=CYLINDRICAL_SURFACE('',#1152,1.6);
#1005=ADVANCED_FACE('',(#91),#993,.F.);
#1006=ADVANCED_FACE('',(#92),#49,.F.);
#1007=ADVANCED_FACE('',(#93),#994,.F.);
#1008=ADVANCED_FACE('',(#94),#50,.T.);
#1009=ADVANCED_FACE('',(#95),#995,.F.);
#1010=ADVANCED_FACE('',(#96),#996,.F.);
#1011=ADVANCED_FACE('',(#97),#51,.F.);
#1012=ADVANCED_FACE('',(#98),#52,.F.);
#1013=ADVANCED_FACE('',(#99),#53,.F.);
#1014=ADVANCED_FACE('',(#100,#15),#54,.T.);
#1015=ADVANCED_FACE('',(#101),#55,.F.);
#1016=ADVANCED_FACE('',(#102),#56,.F.);
#1017=ADVANCED_FACE('',(#103),#57,.F.);
#1018=ADVANCED_FACE('',(#104),#58,.T.);
#1019=ADVANCED_FACE('',(#105),#997,.T.);
#1020=ADVANCED_FACE('',(#106),#59,.T.);
#1021=ADVANCED_FACE('',(#107),#998,.F.);
#1022=ADVANCED_FACE('',(#108,#16),#60,.T.);
#1023=ADVANCED_FACE('',(#109),#61,.F.);
#1024=ADVANCED_FACE('',(#110),#62,.F.);
#1025=ADVANCED_FACE('',(#111),#63,.F.);
#1026=ADVANCED_FACE('',(#112),#64,.F.);
#1027=ADVANCED_FACE('',(#113),#65,.F.);
#1028=ADVANCED_FACE('',(#114),#66,.F.);
#1029=ADVANCED_FACE('',(#115,#17),#67,.T.);
#1030=ADVANCED_FACE('',(#116),#68,.F.);
#1031=ADVANCED_FACE('',(#117),#69,.F.);
#1032=ADVANCED_FACE('',(#118),#70,.F.);
#1033=ADVANCED_FACE('',(#119),#71,.F.);
#1034=ADVANCED_FACE('',(#120),#72,.F.);
#1035=ADVANCED_FACE('',(#121),#73,.F.);
#1036=ADVANCED_FACE('',(#122,#18),#74,.T.);
#1037=ADVANCED_FACE('',(#123),#999,.F.);
#1038=ADVANCED_FACE('',(#124),#1000,.F.);
#1039=ADVANCED_FACE('',(#125,#19,#20),#75,.T.);
#1040=ADVANCED_FACE('',(#126),#76,.T.);
#1041=ADVANCED_FACE('',(#127,#21,#22,#23),#77,.T.);
#1042=ADVANCED_FACE('',(#128),#78,.T.);
#1043=ADVANCED_FACE('',(#129),#79,.T.);
#1044=ADVANCED_FACE('',(#130),#80,.F.);
#1045=ADVANCED_FACE('',(#131,#24,#25),#81,.T.);
#1046=ADVANCED_FACE('',(#132),#1001,.T.);
#1047=ADVANCED_FACE('',(#133),#82,.T.);
#1048=ADVANCED_FACE('',(#134),#83,.T.);
#1049=ADVANCED_FACE('',(#135,#26),#84,.F.);
#1050=ADVANCED_FACE('',(#136),#85,.T.);
#1051=ADVANCED_FACE('',(#137),#86,.T.);
#1052=ADVANCED_FACE('',(#138,#27,#28),#87,.T.);
#1053=ADVANCED_FACE('',(#139),#1002,.F.);
#1054=ADVANCED_FACE('',(#140),#88,.T.);
#1055=ADVANCED_FACE('',(#141),#1003,.F.);
#1056=ADVANCED_FACE('',(#142),#89,.T.);
#1057=ADVANCED_FACE('',(#143),#90,.T.);
#1058=ADVANCED_FACE('',(#144),#1004,.F.);
#1059=CLOSED_SHELL('',(#1005,#1006,#1007,#1008,#1009,#1010,#1011,#1012,
#1013,#1014,#1015,#1016,#1017,#1018,#1019,#1020,#1021,#1022,#1023,#1024,
#1025,#1026,#1027,#1028,#1029,#1030,#1031,#1032,#1033,#1034,#1035,#1036,
#1037,#1038,#1039,#1040,#1041,#1042,#1043,#1044,#1045,#1046,#1047,#1048,
#1049,#1050,#1051,#1052,#1053,#1054,#1055,#1056,#1057,#1058));
#1060=DERIVED_UNIT_ELEMENT(#1062,1.);
#1061=DERIVED_UNIT_ELEMENT(#1737,-3.);
#1062=(
MASS_UNIT()
NAMED_UNIT(*)
SI_UNIT(.KILO.,.GRAM.)
);
#1063=DERIVED_UNIT((#1060,#1061));
#1064=MEASURE_REPRESENTATION_ITEM('density measure',
POSITIVE_RATIO_MEASURE(7850.),#1063);
#1065=PROPERTY_DEFINITION_REPRESENTATION(#1070,#1067);
#1066=PROPERTY_DEFINITION_REPRESENTATION(#1071,#1068);
#1067=REPRESENTATION('material name',(#1069),#1734);
#1068=REPRESENTATION('density',(#1064),#1734);
#1069=DESCRIPTIVE_REPRESENTATION_ITEM('Steel','Steel');
#1070=PROPERTY_DEFINITION('material property','material name',#1744);
#1071=PROPERTY_DEFINITION('material property','density of part',#1744);
#1072=AXIS2_PLACEMENT_3D('',#1435,#1153,#1154);
#1073=AXIS2_PLACEMENT_3D('',#1436,#1155,#1156);
#1074=AXIS2_PLACEMENT_3D('',#1439,#1157,#1158);
#1075=AXIS2_PLACEMENT_3D('',#1443,#1160,#1161);
#1076=AXIS2_PLACEMENT_3D('',#1445,#1163,#1164);
#1077=AXIS2_PLACEMENT_3D('',#1451,#1167,#1168);
#1078=AXIS2_PLACEMENT_3D('',#1455,#1170,#1171);
#1079=AXIS2_PLACEMENT_3D('',#1459,#1174,#1175);
#1080=AXIS2_PLACEMENT_3D('',#1462,#1176,#1177);
#1081=AXIS2_PLACEMENT_3D('',#1466,#1179,#1180);
#1082=AXIS2_PLACEMENT_3D('',#1468,#1182,#1183);
#1083=AXIS2_PLACEMENT_3D('',#1471,#1186,#1187);
#1084=AXIS2_PLACEMENT_3D('',#1473,#1188,#1189);
#1085=AXIS2_PLACEMENT_3D('',#1476,#1191,#1192);
#1086=AXIS2_PLACEMENT_3D('',#1477,#1193,#1194);
#1087=AXIS2_PLACEMENT_3D('',#1479,#1195,#1196);
#1088=AXIS2_PLACEMENT_3D('',#1482,#1198,#1199);
#1089=AXIS2_PLACEMENT_3D('',#1483,#1200,#1201);
#1090=AXIS2_PLACEMENT_3D('',#1494,#1206,#1207);
#1091=AXIS2_PLACEMENT_3D('',#1496,#1209,#1210);
#1092=AXIS2_PLACEMENT_3D('',#1502,#1214,#1215);
#1093=AXIS2_PLACEMENT_3D('',#1504,#1216,#1217);
#1094=AXIS2_PLACEMENT_3D('',#1512,#1222,#1223);
#1095=AXIS2_PLACEMENT_3D('',#1519,#1227,#1228);
#1096=AXIS2_PLACEMENT_3D('',#1520,#1229,#1230);
#1097=AXIS2_PLACEMENT_3D('',#1526,#1234,#1235);
#1098=AXIS2_PLACEMENT_3D('',#1528,#1237,#1238);
#1099=AXIS2_PLACEMENT_3D('',#1530,#1240,#1241);
#1100=AXIS2_PLACEMENT_3D('',#1536,#1245,#1246);
#1101=AXIS2_PLACEMENT_3D('',#1540,#1248,#1249);
#1102=AXIS2_PLACEMENT_3D('',#1543,#1251,#1252);
#1103=AXIS2_PLACEMENT_3D('',#1544,#1253,#1254);
#1104=AXIS2_PLACEMENT_3D('',#1548,#1257,#1258);
#1105=AXIS2_PLACEMENT_3D('',#1550,#1259,#1260);
#1106=AXIS2_PLACEMENT_3D('',#1552,#1262,#1263);
#1107=AXIS2_PLACEMENT_3D('',#1559,#1267,#1268);
#1108=AXIS2_PLACEMENT_3D('',#1560,#1269,#1270);
#1109=AXIS2_PLACEMENT_3D('',#1569,#1275,#1276);
#1110=AXIS2_PLACEMENT_3D('',#1575,#1280,#1281);
#1111=AXIS2_PLACEMENT_3D('',#1581,#1285,#1286);
#1112=AXIS2_PLACEMENT_3D('',#1587,#1290,#1291);
#1113=AXIS2_PLACEMENT_3D('',#1593,#1295,#1296);
#1114=AXIS2_PLACEMENT_3D('',#1596,#1299,#1300);
#1115=AXIS2_PLACEMENT_3D('',#1598,#1301,#1302);
#1116=AXIS2_PLACEMENT_3D('',#1599,#1303,#1304);
#1117=AXIS2_PLACEMENT_3D('',#1608,#1309,#1310);
#1118=AXIS2_PLACEMENT_3D('',#1614,#1314,#1315);
#1119=AXIS2_PLACEMENT_3D('',#1620,#1319,#1320);
#1120=AXIS2_PLACEMENT_3D('',#1626,#1324,#1325);
#1121=AXIS2_PLACEMENT_3D('',#1632,#1329,#1330);
#1122=AXIS2_PLACEMENT_3D('',#1635,#1333,#1334);
#1123=AXIS2_PLACEMENT_3D('',#1637,#1335,#1336);
#1124=AXIS2_PLACEMENT_3D('',#1638,#1337,#1338);
#1125=AXIS2_PLACEMENT_3D('',#1640,#1339,#1340);
#1126=AXIS2_PLACEMENT_3D('',#1642,#1342,#1343);
#1127=AXIS2_PLACEMENT_3D('',#1644,#1344,#1345);
#1128=AXIS2_PLACEMENT_3D('',#1646,#1347,#1348);
#1129=AXIS2_PLACEMENT_3D('',#1650,#1351,#1352);
#1130=AXIS2_PLACEMENT_3D('',#1662,#1358,#1359);
#1131=AXIS2_PLACEMENT_3D('',#1668,#1363,#1364);
#1132=AXIS2_PLACEMENT_3D('',#1675,#1369,#1370);
#1133=AXIS2_PLACEMENT_3D('',#1683,#1374,#1375);
#1134=AXIS2_PLACEMENT_3D('',#1690,#1380,#1381);
#1135=AXIS2_PLACEMENT_3D('',#1696,#1384,#1385);
#1136=AXIS2_PLACEMENT_3D('',#1700,#1387,#1388);
#1137=AXIS2_PLACEMENT_3D('',#1702,#1390,#1391);
#1138=AXIS2_PLACEMENT_3D('',#1704,#1393,#1394);
#1139=AXIS2_PLACEMENT_3D('',#1707,#1397,#1398);
#1140=AXIS2_PLACEMENT_3D('',#1709,#1400,#1401);
#1141=AXIS2_PLACEMENT_3D('',#1710,#1402,#1403);
#1142=AXIS2_PLACEMENT_3D('',#1712,#1405,#1406);
#1143=AXIS2_PLACEMENT_3D('',#1715,#1408,#1409);
#1144=AXIS2_PLACEMENT_3D('',#1716,#1410,#1411);
#1145=AXIS2_PLACEMENT_3D('',#1718,#1413,#1414);
#1146=AXIS2_PLACEMENT_3D('',#1720,#1416,#1417);
#1147=AXIS2_PLACEMENT_3D('',#1722,#1419,#1420);
#1148=AXIS2_PLACEMENT_3D('',#1724,#1422,#1423);
#1149=AXIS2_PLACEMENT_3D('',#1726,#1425,#1426);
#1150=AXIS2_PLACEMENT_3D('',#1728,#1428,#1429);
#1151=AXIS2_PLACEMENT_3D('',#1729,#1430,#1431);
#1152=AXIS2_PLACEMENT_3D('',#1730,#1432,#1433);
#1153=DIRECTION('axis',(0.,0.,1.));
#1154=DIRECTION('refdir',(1.,0.,0.));
#1155=DIRECTION('center_axis',(0.,-0.0301989861145485,0.999543906608236));
#1156=DIRECTION('ref_axis',(-0.707106781186547,0.706784274456377,0.0213539078665557));
#1157=DIRECTION('center_axis',(0.,-0.795165145386452,-0.606392934954343));
#1158=DIRECTION('ref_axis',(-4.03915222074447E-17,0.606392934954343,-0.795165145386452));
#1159=DIRECTION('',(0.,-0.0301989861145485,0.999543906608236));
#1160=DIRECTION('center_axis',(0.,0.,1.));
#1161=DIRECTION('ref_axis',(1.3871458240503E-16,1.,0.));
#1162=DIRECTION('',(0.,0.0301989861145485,-0.999543906608236));
#1163=DIRECTION('center_axis',(-1.,0.,0.));
#1164=DIRECTION('ref_axis',(0.,-1.,0.));
#1165=DIRECTION('',(0.,1.,0.));
#1166=DIRECTION('',(0.,0.,-1.));
#1167=DIRECTION('center_axis',(-1.,0.,0.));
#1168=DIRECTION('ref_axis',(0.,1.,0.));
#1169=DIRECTION('',(0.,0.752357844530763,-0.658754638521069));
#1170=DIRECTION('center_axis',(-1.,0.,0.));
#1171=DIRECTION('ref_axis',(0.,0.658754638521065,0.752357844530767));
#1172=DIRECTION('',(0.,1.,1.29012443597397E-15));
#1173=DIRECTION('',(0.,0.606392934954343,-0.795165145386452));
#1174=DIRECTION('center_axis',(0.,0.0301989861145485,-0.999543906608236));
#1175=DIRECTION('ref_axis',(0.707106781186547,0.706784274456377,0.0213539078665557));
#1176=DIRECTION('center_axis',(0.,-0.795165145386452,-0.606392934954343));
#1177=DIRECTION('ref_axis',(4.03915222074447E-17,0.606392934954343,-0.795165145386452));
#1178=DIRECTION('',(0.,-0.0301989861145485,0.999543906608236));
#1179=DIRECTION('center_axis',(0.,0.,1.));
#1180=DIRECTION('ref_axis',(-1.3871458240503E-16,1.,0.));
#1181=DIRECTION('',(0.,0.0301989861145485,-0.999543906608236));
#1182=DIRECTION('center_axis',(0.,-0.999543906608236,-0.0301989861145485));
#1183=DIRECTION('ref_axis',(0.,0.0301989861145485,-0.999543906608236));
#1184=DIRECTION('',(1.,0.,0.));
#1185=DIRECTION('',(1.,0.,0.));
#1186=DIRECTION('center_axis',(0.,0.,-1.));
#1187=DIRECTION('ref_axis',(-1.,0.,0.));
#1188=DIRECTION('center_axis',(0.,0.,-1.));
#1189=DIRECTION('ref_axis',(-1.,0.,0.));
#1190=DIRECTION('',(0.,0.,-1.));
#1191=DIRECTION('center_axis',(0.,-1.29012443597397E-15,1.));
#1192=DIRECTION('ref_axis',(-1.,0.,0.));
#1193=DIRECTION('center_axis',(0.,0.,-1.));
#1194=DIRECTION('ref_axis',(-1.,0.,0.));
#1195=DIRECTION('center_axis',(0.,0.,-1.));
#1196=DIRECTION('ref_axis',(-1.,0.,0.));
#1197=DIRECTION('',(0.,0.,-1.));
#1198=DIRECTION('center_axis',(0.,-1.29012443597397E-15,1.));
#1199=DIRECTION('ref_axis',(-1.,0.,0.));
#1200=DIRECTION('center_axis',(0.866025403784437,-0.500000000000003,0.));
#1201=DIRECTION('ref_axis',(0.500000000000003,0.866025403784437,0.));
#1202=DIRECTION('',(-0.500000000000003,-0.866025403784437,0.));
#1203=DIRECTION('',(0.,0.,1.));
#1204=DIRECTION('',(-0.500000000000003,-0.866025403784437,0.));
#1205=DIRECTION('',(0.,0.,-1.));
#1206=DIRECTION('center_axis',(0.866025403784437,-0.500000000000003,0.));
#1207=DIRECTION('ref_axis',(0.500000000000003,0.866025403784437,0.));
#1208=DIRECTION('',(0.,0.,1.));
#1209=DIRECTION('center_axis',(-1.39851831736986E-15,-1.,0.));
#1210=DIRECTION('ref_axis',(1.,-1.39851831736986E-15,0.));
#1211=DIRECTION('',(-1.,0.,0.));
#1212=DIRECTION('',(-1.,1.39851831736986E-15,0.));
#1213=DIRECTION('',(0.,0.,1.));
#1214=DIRECTION('center_axis',(-0.866025403784441,-0.499999999999997,0.));
#1215=DIRECTION('ref_axis',(0.499999999999997,-0.866025403784441,0.));
#1216=DIRECTION('center_axis',(-0.866025403784441,-0.499999999999997,0.));
#1217=DIRECTION('ref_axis',(-0.499999999999997,0.866025403784441,0.));
#1218=DIRECTION('',(-0.499999999999997,0.866025403784441,0.));
#1219=DIRECTION('',(0.,0.,1.));
#1220=DIRECTION('',(-0.499999999999997,0.866025403784441,0.));
#1221=DIRECTION('',(0.,0.,-1.));
#1222=DIRECTION('center_axis',(0.,0.,1.));
#1223=DIRECTION('ref_axis',(1.,0.,0.));
#1224=DIRECTION('',(0.499999999999996,-0.866025403784441,0.));
#1225=DIRECTION('',(1.,-2.79703663473972E-15,0.));
#1226=DIRECTION('',(0.500000000000003,0.866025403784437,0.));
#1227=DIRECTION('center_axis',(0.,0.,1.));
#1228=DIRECTION('ref_axis',(1.,0.,0.));
#1229=DIRECTION('center_axis',(2.79703663473972E-15,1.,0.));
#1230=DIRECTION('ref_axis',(-1.,2.79703663473972E-15,0.));
#1231=DIRECTION('',(1.,-2.79703663473972E-15,0.));
#1232=DIRECTION('',(0.,0.,1.));
#1233=DIRECTION('',(0.,0.,1.));
#1234=DIRECTION('center_axis',(0.866025403784441,0.499999999999996,0.));
#1235=DIRECTION('ref_axis',(-0.499999999999996,0.866025403784441,0.));
#1236=DIRECTION('',(0.499999999999996,-0.866025403784441,0.));
#1237=DIRECTION('center_axis',(-0.866025403784437,0.500000000000003,0.));
#1238=DIRECTION('ref_axis',(-0.500000000000003,-0.866025403784437,0.));
#1239=DIRECTION('',(0.500000000000003,0.866025403784437,0.));
#1240=DIRECTION('center_axis',(0.,1.,0.));
#1241=DIRECTION('ref_axis',(0.,0.,-1.));
#1242=DIRECTION('',(-1.,0.,0.));
#1243=DIRECTION('',(0.,0.,1.));
#1244=DIRECTION('',(1.,0.,0.));
#1245=DIRECTION('center_axis',(-1.,0.,0.));
#1246=DIRECTION('ref_axis',(0.,1.,0.));
#1247=DIRECTION('',(-1.,0.,0.));
#1248=DIRECTION('center_axis',(-1.,0.,0.));
#1249=DIRECTION('ref_axis',(0.,1.,0.));
#1250=DIRECTION('',(-1.,0.,0.));
#1251=DIRECTION('center_axis',(1.,0.,0.));
#1252=DIRECTION('ref_axis',(0.,1.,0.));
#1253=DIRECTION('center_axis',(0.,1.,0.));
#1254=DIRECTION('ref_axis',(0.,0.,-1.));
#1255=DIRECTION('',(1.,0.,0.));
#1256=DIRECTION('',(0.,0.,-1.));
#1257=DIRECTION('center_axis',(0.,0.,1.));
#1258=DIRECTION('ref_axis',(1.,0.,0.));
#1259=DIRECTION('center_axis',(0.,2.23534837172849E-16,1.));
#1260=DIRECTION('ref_axis',(1.,0.,0.));
#1261=DIRECTION('',(0.,0.,1.));
#1262=DIRECTION('center_axis',(0.,0.,1.));
#1263=DIRECTION('ref_axis',(1.,0.,0.));
#1264=DIRECTION('',(0.,1.,0.));
#1265=DIRECTION('',(-1.,9.97953280561939E-17,0.));
#1266=DIRECTION('',(0.,-1.,0.));
#1267=DIRECTION('center_axis',(0.,0.,-1.));
#1268=DIRECTION('ref_axis',(1.,0.,0.));
#1269=DIRECTION('center_axis',(0.866025403784436,0.500000000000005,0.));
#1270=DIRECTION('ref_axis',(0.500000000000005,-0.866025403784436,0.));
#1271=DIRECTION('',(0.500000000000005,-0.866025403784436,0.));
#1272=DIRECTION('',(0.,0.,-1.));
#1273=DIRECTION('',(0.500000000000005,-0.866025403784436,0.));
#1274=DIRECTION('',(0.,0.,-1.));
#1275=DIRECTION('center_axis',(-6.99259158684931E-15,1.,0.));
#1276=DIRECTION('ref_axis',(1.,6.99259158684931E-15,0.));
#1277=DIRECTION('',(1.,6.99259158684931E-15,0.));
#1278=DIRECTION('',(0.,0.,-1.));
#1279=DIRECTION('',(1.,6.99259158684931E-15,0.));
#1280=DIRECTION('center_axis',(-0.866025403784441,0.499999999999995,0.));
#1281=DIRECTION('ref_axis',(0.499999999999995,0.866025403784441,0.));
#1282=DIRECTION('',(0.499999999999995,0.866025403784441,0.));
#1283=DIRECTION('',(0.,0.,-1.));
#1284=DIRECTION('',(0.499999999999995,0.866025403784441,0.));
#1285=DIRECTION('center_axis',(-0.866025403784435,-0.500000000000006,0.));
#1286=DIRECTION('ref_axis',(-0.500000000000006,0.866025403784435,0.));
#1287=DIRECTION('',(-0.500000000000006,0.866025403784435,0.));
#1288=DIRECTION('',(0.,0.,-1.));
#1289=DIRECTION('',(-0.500000000000006,0.866025403784435,0.));
#1290=DIRECTION('center_axis',(5.59407326947945E-15,-1.,0.));
#1291=DIRECTION('ref_axis',(-1.,-5.59407326947945E-15,0.));
#1292=DIRECTION('',(-1.,-5.59407326947945E-15,0.));
#1293=DIRECTION('',(0.,0.,-1.));
#1294=DIRECTION('',(-1.,-5.59407326947945E-15,0.));
#1295=DIRECTION('center_axis',(0.866025403784441,-0.499999999999995,0.));
#1296=DIRECTION('ref_axis',(-0.499999999999995,-0.866025403784441,0.));
#1297=DIRECTION('',(-0.499999999999995,-0.866025403784441,0.));
#1298=DIRECTION('',(-0.499999999999995,-0.866025403784441,0.));
#1299=DIRECTION('center_axis',(0.,0.,1.));
#1300=DIRECTION('ref_axis',(1.,0.,0.));
#1301=DIRECTION('center_axis',(0.,0.,1.));
#1302=DIRECTION('ref_axis',(1.,0.,0.));
#1303=DIRECTION('center_axis',(-0.866025403784436,0.500000000000005,0.));
#1304=DIRECTION('ref_axis',(0.500000000000005,0.866025403784436,0.));
#1305=DIRECTION('',(0.500000000000005,0.866025403784436,0.));
#1306=DIRECTION('',(0.,0.,-1.));
#1307=DIRECTION('',(0.500000000000005,0.866025403784436,0.));
#1308=DIRECTION('',(0.,0.,-1.));
#1309=DIRECTION('center_axis',(-0.866025403784441,-0.499999999999995,0.));
#1310=DIRECTION('ref_axis',(-0.499999999999995,0.866025403784441,0.));
#1311=DIRECTION('',(-0.499999999999995,0.866025403784441,0.));
#1312=DIRECTION('',(0.,0.,-1.));
#1313=DIRECTION('',(-0.499999999999995,0.866025403784441,0.));
#1314=DIRECTION('center_axis',(-5.59407326947945E-15,-1.,0.));
#1315=DIRECTION('ref_axis',(-1.,5.59407326947945E-15,0.));
#1316=DIRECTION('',(-1.,5.59407326947945E-15,0.));
#1317=DIRECTION('',(0.,0.,-1.));
#1318=DIRECTION('',(-1.,5.59407326947945E-15,0.));
#1319=DIRECTION('center_axis',(0.866025403784435,-0.500000000000006,0.));
#1320=DIRECTION('ref_axis',(-0.500000000000006,-0.866025403784435,0.));
#1321=DIRECTION('',(-0.500000000000006,-0.866025403784435,0.));
#1322=DIRECTION('',(0.,0.,-1.));
#1323=DIRECTION('',(-0.500000000000006,-0.866025403784435,0.));
#1324=DIRECTION('center_axis',(0.866025403784441,0.499999999999995,0.));
#1325=DIRECTION('ref_axis',(0.499999999999995,-0.866025403784441,0.));
#1326=DIRECTION('',(0.499999999999995,-0.866025403784441,0.));
#1327=DIRECTION('',(0.,0.,-1.));
#1328=DIRECTION('',(0.499999999999995,-0.866025403784441,0.));
#1329=DIRECTION('center_axis',(6.99259158684931E-15,1.,0.));
#1330=DIRECTION('ref_axis',(1.,-6.99259158684931E-15,0.));
#1331=DIRECTION('',(1.,-6.99259158684931E-15,0.));
#1332=DIRECTION('',(1.,-6.99259158684931E-15,0.));
#1333=DIRECTION('center_axis',(0.,0.,1.));
#1334=DIRECTION('ref_axis',(1.,0.,0.));
#1335=DIRECTION('center_axis',(0.,0.,1.));
#1336=DIRECTION('ref_axis',(1.,0.,0.));
#1337=DIRECTION('center_axis',(0.,0.,1.));
#1338=DIRECTION('ref_axis',(1.,0.,0.));
#1339=DIRECTION('center_axis',(0.,2.23534837172849E-16,1.));
#1340=DIRECTION('ref_axis',(1.,0.,0.));
#1341=DIRECTION('',(0.,0.,1.));
#1342=DIRECTION('center_axis',(0.,0.,1.));
#1343=DIRECTION('ref_axis',(1.,0.,0.));
#1344=DIRECTION('center_axis',(0.,2.23534837172849E-16,1.));
#1345=DIRECTION('ref_axis',(1.,0.,0.));
#1346=DIRECTION('',(0.,0.,1.));
#1347=DIRECTION('center_axis',(0.,0.,1.));
#1348=DIRECTION('ref_axis',(0.,-1.,0.));
#1349=DIRECTION('',(0.,-1.,0.));
#1350=DIRECTION('',(1.,0.,0.));
#1351=DIRECTION('center_axis',(1.,0.,0.));
#1352=DIRECTION('ref_axis',(0.,1.,0.));
#1353=DIRECTION('',(0.,-1.,2.23534837172849E-16));
#1354=DIRECTION('',(0.,0.718602141766588,0.695421427516059));
#1355=DIRECTION('',(0.,1.,0.));
#1356=DIRECTION('',(0.,0.,1.));
#1357=DIRECTION('',(0.,0.752357844530763,-0.658754638521068));
#1358=DIRECTION('center_axis',(1.,0.,0.));
#1359=DIRECTION('ref_axis',(0.,0.658754638521066,0.752357844530766));
#1360=DIRECTION('',(0.,-1.,0.));
#1361=DIRECTION('',(0.,0.,-1.));
#1362=DIRECTION('',(0.,-0.606392934954343,0.795165145386452));
#1363=DIRECTION('center_axis',(0.,-2.23534837172849E-16,-1.));
#1364=DIRECTION('ref_axis',(0.,-1.,2.23534837172849E-16));
#1365=DIRECTION('',(1.,0.,0.));
#1366=DIRECTION('',(0.,-1.,2.23534837172849E-16));
#1367=DIRECTION('',(-1.,0.,0.));
#1368=DIRECTION('',(-1.,0.,0.));
#1369=DIRECTION('center_axis',(-1.,0.,0.));
#1370=DIRECTION('ref_axis',(0.,-1.,0.));
#1371=DIRECTION('',(0.,-0.606392934954343,0.795165145386452));
#1372=DIRECTION('',(0.,0.,1.));
#1373=DIRECTION('',(0.,1.,0.));
#1374=DIRECTION('center_axis',(-1.,0.,0.));
#1375=DIRECTION('ref_axis',(0.,0.658754638521066,0.752357844530766));
#1376=DIRECTION('',(0.,0.752357844530763,-0.658754638521068));
#1377=DIRECTION('',(0.,0.,1.));
#1378=DIRECTION('',(0.,1.,0.));
#1379=DIRECTION('',(0.,-0.718602141766588,-0.695421427516059));
#1380=DIRECTION('center_axis',(-1.,0.,0.));
#1381=DIRECTION('ref_axis',(0.,-1.,0.));
#1382=DIRECTION('',(0.,0.606392934954343,-0.795165145386452));
#1383=DIRECTION('',(0.,-1.,-1.29012443597397E-15));
#1384=DIRECTION('center_axis',(1.,0.,0.));
#1385=DIRECTION('ref_axis',(0.,0.658754638521065,0.752357844530767));
#1386=DIRECTION('',(0.,-0.752357844530763,0.658754638521069));
#1387=DIRECTION('center_axis',(1.,0.,0.));
#1388=DIRECTION('ref_axis',(0.,1.,0.));
#1389=DIRECTION('',(0.,0.,1.));
#1390=DIRECTION('center_axis',(0.,0.795165145386452,0.606392934954343));
#1391=DIRECTION('ref_axis',(0.,0.606392934954343,-0.795165145386452));
#1392=DIRECTION('',(-1.,0.,0.));
#1393=DIRECTION('center_axis',(0.,0.,1.));
#1394=DIRECTION('ref_axis',(0.,1.,0.));
#1395=DIRECTION('',(-1.,0.,0.));
#1396=DIRECTION('',(-1.,0.,0.));
#1397=DIRECTION('center_axis',(-1.,0.,0.));
#1398=DIRECTION('ref_axis',(0.,0.658754638521066,0.752357844530766));
#1399=DIRECTION('',(-1.,0.,0.));
#1400=DIRECTION('center_axis',(0.,0.658754638521069,0.752357844530763));
#1401=DIRECTION('ref_axis',(0.,0.752357844530763,-0.658754638521069));
#1402=DIRECTION('center_axis',(9.97953280561939E-17,1.,0.));
#1403=DIRECTION('ref_axis',(-1.,9.97953280561939E-17,0.));
#1404=DIRECTION('',(1.,-9.97953280561939E-17,0.));
#1405=DIRECTION('center_axis',(0.,0.,1.));
#1406=DIRECTION('ref_axis',(1.,0.,0.));
#1407=DIRECTION('',(-1.,0.,0.));
#1408=DIRECTION('center_axis',(0.,0.,-1.));
#1409=DIRECTION('ref_axis',(1.,0.,0.));
#1410=DIRECTION('center_axis',(0.,-0.795165145386452,-0.606392934954343));
#1411=DIRECTION('ref_axis',(0.,0.606392934954343,-0.795165145386452));
#1412=DIRECTION('',(-1.,0.,0.));
#1413=DIRECTION('center_axis',(0.,-1.,0.));
#1414=DIRECTION('ref_axis',(0.,0.,1.));
#1415=DIRECTION('',(-1.,0.,0.));
#1416=DIRECTION('center_axis',(0.,1.29012443597397E-15,-1.));
#1417=DIRECTION('ref_axis',(0.,-1.,-1.29012443597397E-15));
#1418=DIRECTION('',(-1.,0.,0.));
#1419=DIRECTION('center_axis',(-1.,0.,0.));
#1420=DIRECTION('ref_axis',(0.,0.658754638521065,0.752357844530767));
#1421=DIRECTION('',(-1.,0.,0.));
#1422=DIRECTION('center_axis',(0.,-0.658754638521069,-0.752357844530763));
#1423=DIRECTION('ref_axis',(0.,-0.752357844530763,0.658754638521069));
#1424=DIRECTION('',(-1.,0.,0.));
#1425=DIRECTION('center_axis',(-1.,0.,0.));
#1426=DIRECTION('ref_axis',(0.,1.,0.));
#1427=DIRECTION('',(-1.,0.,0.));
#1428=DIRECTION('center_axis',(0.,-1.,0.));
#1429=DIRECTION('ref_axis',(0.,0.,1.));
#1430=DIRECTION('center_axis',(0.,0.695421427516059,-0.718602141766588));
#1431=DIRECTION('ref_axis',(0.,-0.718602141766588,-0.695421427516059));
#1432=DIRECTION('center_axis',(0.,0.,1.));
#1433=DIRECTION('ref_axis',(1.,0.,0.));
#1434=DIRECTION('',(0.,0.,-1.));
#1435=CARTESIAN_POINT('',(0.,0.,0.));
#1436=CARTESIAN_POINT('Origin',(-10.5,-50.2931912331719,5.14380512366379));
#1437=CARTESIAN_POINT('',(-10.5,-46.,-4.5));
#1438=CARTESIAN_POINT('',(-14.5,-50.166910291835,0.964083825892156));
#1439=CARTESIAN_POINT('Origin',(-10.5,-50.166910291835,0.964083825892152));
#1440=CARTESIAN_POINT('',(-10.5,-46.1963829787234,2.));
#1441=CARTESIAN_POINT('',(-10.5,-46.295015606739,5.26460106812198));
#1442=CARTESIAN_POINT('',(-14.5,-50.1982081847548,2.));
#1443=CARTESIAN_POINT('Origin',(-10.5,-50.1982081847548,2.));
#1444=CARTESIAN_POINT('',(-14.5,-50.2931912331719,5.14380512366379));
#1445=CARTESIAN_POINT('Origin',(-14.5,-39.085549927337,8.75));
#1446=CARTESIAN_POINT('',(-14.5,-35.45,2.));
#1447=CARTESIAN_POINT('',(-14.5,-37.2677749636685,2.));
#1448=CARTESIAN_POINT('',(-14.5,-35.45,8.27));
#1449=CARTESIAN_POINT('',(-14.5,-35.45,2.125));
#1450=CARTESIAN_POINT('',(-14.5,-37.8387175303525,13.5365049117154));
#1451=CARTESIAN_POINT('Origin',(-14.5,-42.45,8.27));
#1452=CARTESIAN_POINT('',(-14.5,-42.0987175303526,17.2665049117154));
#1453=CARTESIAN_POINT('',(-14.5,-37.0054555703292,12.8069116931972));
#1454=CARTESIAN_POINT('',(-14.5,-46.71,19.));
#1455=CARTESIAN_POINT('Origin',(-14.5,-46.71,12.));
#1456=CARTESIAN_POINT('',(-14.5,-63.9210998546741,19.));
#1457=CARTESIAN_POINT('',(-14.5,-42.8977749636685,19.));
#1458=CARTESIAN_POINT('',(-14.5,-46.,-4.5));
#1459=CARTESIAN_POINT('Origin',(10.5,-50.2931912331719,5.14380512366379));
#1460=CARTESIAN_POINT('',(10.5,-46.,-4.5));
#1461=CARTESIAN_POINT('',(14.5,-50.166910291835,0.964083825892156));
#1462=CARTESIAN_POINT('Origin',(10.5,-50.166910291835,0.964083825892152));
#1463=CARTESIAN_POINT('',(14.5,-50.1982081847548,2.));
#1464=CARTESIAN_POINT('',(14.5,-50.2931912331719,5.14380512366379));
#1465=CARTESIAN_POINT('',(10.5,-46.1963829787234,2.));
#1466=CARTESIAN_POINT('Origin',(10.5,-50.1982081847548,2.));
#1467=CARTESIAN_POINT('',(10.5,-46.295015606739,5.26460106812198));
#1468=CARTESIAN_POINT('Origin',(-17.5,-46.1963829787234,2.));
#1469=CARTESIAN_POINT('',(-17.5,-46.,-4.5));
#1470=CARTESIAN_POINT('',(-17.5,-46.1963829787234,2.));
#1471=CARTESIAN_POINT('Origin',(-10.,-58.46,22.));
#1472=CARTESIAN_POINT('',(-8.4,-58.46,22.));
#1473=CARTESIAN_POINT('Origin',(-10.,-58.46,22.));
#1474=CARTESIAN_POINT('',(-8.4,-58.46,19.));
#1475=CARTESIAN_POINT('',(-8.4,-58.46,22.));
#1476=CARTESIAN_POINT('Origin',(-10.,-58.46,19.));
#1477=CARTESIAN_POINT('Origin',(10.,-58.46,22.));
#1478=CARTESIAN_POINT('',(11.6,-58.46,22.));
#1479=CARTESIAN_POINT('Origin',(10.,-58.46,22.));
#1480=CARTESIAN_POINT('',(11.6,-58.46,19.));
#1481=CARTESIAN_POINT('',(11.6,-58.46,22.));
#1482=CARTESIAN_POINT('Origin',(10.,-58.46,19.));
#1483=CARTESIAN_POINT('Origin',(1.58771324027146,-34.5,2.));
#1484=CARTESIAN_POINT('',(3.17542648054295,-31.75,2.));
#1485=CARTESIAN_POINT('',(2.7712812921102,-32.45,2.));
#1486=CARTESIAN_POINT('',(3.80329489828666,-30.6625,2.));
#1487=CARTESIAN_POINT('',(3.17542648054295,-31.75,-1.));
#1488=CARTESIAN_POINT('',(3.17542648054295,-31.75,2.));
#1489=CARTESIAN_POINT('',(1.58771324027147,-34.5,-1.));
#1490=CARTESIAN_POINT('',(2.77849817047508,-32.4375,-1.));
#1491=CARTESIAN_POINT('',(1.58771324027146,-34.5,14.3360942953436));
#1492=CARTESIAN_POINT('',(1.58771324027147,-34.5,2.));
#1493=CARTESIAN_POINT('',(2.7712812921102,-32.45,8.27));
#1494=CARTESIAN_POINT('Origin',(-3.00222139978611,-42.45,8.27));
#1495=CARTESIAN_POINT('',(2.7712812921102,-32.45,5.135));
#1496=CARTESIAN_POINT('Origin',(-1.58771324027148,-34.5,2.));
#1497=CARTESIAN_POINT('',(-1.58771324027148,-34.5,14.3360942953436));
#1498=CARTESIAN_POINT('',(17.5,-34.5,14.3360942953436));
#1499=CARTESIAN_POINT('',(-1.58771324027148,-34.5,-1.));
#1500=CARTESIAN_POINT('',(0.793856620135731,-34.5,-1.));
#1501=CARTESIAN_POINT('',(-1.58771324027148,-34.5,2.));
#1502=CARTESIAN_POINT('Origin',(-3.17542648054295,-31.75,2.));
#1503=CARTESIAN_POINT('',(-2.77128129211019,-32.45,8.27));
#1504=CARTESIAN_POINT('Origin',(3.00222139978602,-42.45,8.27));
#1505=CARTESIAN_POINT('',(-3.17542648054295,-31.75,-1.));
#1506=CARTESIAN_POINT('',(-1.98464155033935,-33.8125,-1.));
#1507=CARTESIAN_POINT('',(-3.17542648054295,-31.75,2.));
#1508=CARTESIAN_POINT('',(-3.17542648054295,-31.75,2.));
#1509=CARTESIAN_POINT('',(-2.77128129211019,-32.45,2.));
#1510=CARTESIAN_POINT('',(-4.59715151842239,-29.2875,2.));
#1511=CARTESIAN_POINT('',(-2.77128129211019,-32.45,5.135));
#1512=CARTESIAN_POINT('Origin',(5.55111512312578E-16,-31.75,-1.));
#1513=CARTESIAN_POINT('',(1.58771324027149,-29.,-1.));
#1514=CARTESIAN_POINT('',(1.98464155033935,-29.6875,-1.));
#1515=CARTESIAN_POINT('',(-1.58771324027146,-29.,-1.));
#1516=CARTESIAN_POINT('',(-0.793856620135727,-29.,-1.));
#1517=CARTESIAN_POINT('',(-2.77849817047507,-31.0625,-1.));
#1518=CARTESIAN_POINT('',(-1.6,-31.75,-1.));
#1519=CARTESIAN_POINT('Origin',(0.,-31.75,-1.));
#1520=CARTESIAN_POINT('Origin',(1.58771324027149,-29.,2.));
#1521=CARTESIAN_POINT('',(-1.58771324027146,-29.,2.));
#1522=CARTESIAN_POINT('',(1.58771324027149,-29.,2.));
#1523=CARTESIAN_POINT('',(0.793856620135734,-29.,2.));
#1524=CARTESIAN_POINT('',(-1.58771324027146,-29.,2.));
#1525=CARTESIAN_POINT('',(1.58771324027149,-29.,2.));
#1526=CARTESIAN_POINT('Origin',(3.17542648054295,-31.75,2.));
#1527=CARTESIAN_POINT('',(0.959844822527775,-27.9125,2.));
#1528=CARTESIAN_POINT('Origin',(-1.58771324027146,-29.,2.));
#1529=CARTESIAN_POINT('',(-0.16598820239201,-26.5375,2.));
#1530=CARTESIAN_POINT('Origin',(17.5,-32.45,8.27));
#1531=CARTESIAN_POINT('',(17.5,-32.45,8.27));
#1532=CARTESIAN_POINT('',(17.5,-32.45,8.27));
#1533=CARTESIAN_POINT('',(17.5,-32.45,2.));
#1534=CARTESIAN_POINT('',(17.5,-32.45,0.));
#1535=CARTESIAN_POINT('',(17.5,-32.45,2.));
#1536=CARTESIAN_POINT('Origin',(17.5,-42.45,8.27));
#1537=CARTESIAN_POINT('',(-17.5,-32.45,8.27));
#1538=CARTESIAN_POINT('',(17.5,-32.45,8.27));
#1539=CARTESIAN_POINT('',(-17.5,-35.8624536147893,15.7935784453077));
#1540=CARTESIAN_POINT('Origin',(-17.5,-42.45,8.27));
#1541=CARTESIAN_POINT('',(17.5,-35.8624536147893,15.7935784453077));
#1542=CARTESIAN_POINT('',(17.5,-35.8624536147893,15.7935784453077));
#1543=CARTESIAN_POINT('Origin',(17.5,-42.45,8.27));
#1544=CARTESIAN_POINT('Origin',(17.5,-32.45,8.27));
#1545=CARTESIAN_POINT('',(-17.5,-32.45,2.));
#1546=CARTESIAN_POINT('',(17.5,-32.45,2.));
#1547=CARTESIAN_POINT('',(-17.5,-32.45,0.));
#1548=CARTESIAN_POINT('Origin',(0.,-31.75,-4.5));
#1549=CARTESIAN_POINT('',(-1.6,-31.75,-4.5));
#1550=CARTESIAN_POINT('Origin',(0.,-31.75,-4.5));
#1551=CARTESIAN_POINT('',(-1.6,-31.75,-4.5));
#1552=CARTESIAN_POINT('Origin',(-2.22044604925031E-15,-23.35,2.));
#1553=CARTESIAN_POINT('',(17.5,-14.25,2.));
#1554=CARTESIAN_POINT('',(17.5,-22.25,2.));
#1555=CARTESIAN_POINT('',(-17.5,-14.25,2.));
#1556=CARTESIAN_POINT('',(-22.25,-14.25,2.));
#1557=CARTESIAN_POINT('',(-17.5,-22.25,2.));
#1558=CARTESIAN_POINT('',(-1.6,-18.,2.));
#1559=CARTESIAN_POINT('Origin',(-3.50180932028614E-16,-18.,2.));
#1560=CARTESIAN_POINT('Origin',(-7.91228675972854,-37.5,2.));
#1561=CARTESIAN_POINT('',(-7.91228675972854,-37.5,2.));
#1562=CARTESIAN_POINT('',(-6.32457351945705,-40.25,2.));
#1563=CARTESIAN_POINT('',(-9.55458893420201,-34.6554491924311,2.));
#1564=CARTESIAN_POINT('',(-7.91228675972854,-37.5,-1.));
#1565=CARTESIAN_POINT('',(-7.91228675972854,-37.5,2.));
#1566=CARTESIAN_POINT('',(-6.32457351945705,-40.25,-1.));
#1567=CARTESIAN_POINT('',(-5.5340018295249,-41.619310333988,-1.));
#1568=CARTESIAN_POINT('',(-6.32457351945705,-40.25,2.));
#1569=CARTESIAN_POINT('Origin',(-11.0877132402715,-37.5,2.));
#1570=CARTESIAN_POINT('',(-11.0877132402715,-37.5,2.));
#1571=CARTESIAN_POINT('',(-14.2938566201357,-37.5,2.));
#1572=CARTESIAN_POINT('',(-11.0877132402715,-37.5,-1.));
#1573=CARTESIAN_POINT('',(-11.0877132402715,-37.5,2.));
#1574=CARTESIAN_POINT('',(-3.95614337986428,-37.4999999999999,-1.));
#1575=CARTESIAN_POINT('Origin',(-12.6754264805429,-40.25,2.));
#1576=CARTESIAN_POINT('',(-12.6754264805429,-40.25,2.));
#1577=CARTESIAN_POINT('',(-12.2392676859338,-39.4945508075688,2.));
#1578=CARTESIAN_POINT('',(-12.6754264805429,-40.25,-1.));
#1579=CARTESIAN_POINT('',(-12.6754264805429,-40.25,2.));
#1580=CARTESIAN_POINT('',(-10.2971415503394,-36.1306896660119,-1.));
#1581=CARTESIAN_POINT('Origin',(-11.0877132402715,-43.,2.));
#1582=CARTESIAN_POINT('',(-11.0877132402715,-43.,2.));
#1583=CARTESIAN_POINT('',(-13.5238720348807,-38.7804491924311,2.));
#1584=CARTESIAN_POINT('',(-11.0877132402715,-43.,-1.));
#1585=CARTESIAN_POINT('',(-11.0877132402715,-43.,2.));
#1586=CARTESIAN_POINT('',(-11.090998170475,-42.994310333988,-1.));
#1587=CARTESIAN_POINT('Origin',(-7.91228675972851,-43.,2.));
#1588=CARTESIAN_POINT('',(-7.91228675972851,-43.,2.));
#1589=CARTESIAN_POINT('',(-12.7061433798642,-43.,2.));
#1590=CARTESIAN_POINT('',(-7.91228675972851,-43.,-1.));
#1591=CARTESIAN_POINT('',(-7.91228675972851,-43.,2.));
#1592=CARTESIAN_POINT('',(-5.54385662013572,-43.,-1.));
#1593=CARTESIAN_POINT('Origin',(-6.32457351945705,-40.25,2.));
#1594=CARTESIAN_POINT('',(-6.68227134498359,-40.8695508075688,2.));
#1595=CARTESIAN_POINT('',(-6.32785844966067,-40.2556896660119,-1.));
#1596=CARTESIAN_POINT('Origin',(0.,-40.25,-1.));
#1597=CARTESIAN_POINT('',(-11.1,-40.25,-1.));
#1598=CARTESIAN_POINT('Origin',(-9.5,-40.25,-1.));
#1599=CARTESIAN_POINT('Origin',(6.32457351945705,-40.25,2.));
#1600=CARTESIAN_POINT('',(6.32457351945705,-40.25,2.));
#1601=CARTESIAN_POINT('',(7.91228675972854,-37.5,2.));
#1602=CARTESIAN_POINT('',(4.38573231406618,-43.608171475545,2.));
#1603=CARTESIAN_POINT('',(6.32457351945705,-40.25,-1.));
#1604=CARTESIAN_POINT('',(6.32457351945705,-40.25,2.));
#1605=CARTESIAN_POINT('',(7.91228675972854,-37.5,-1.));
#1606=CARTESIAN_POINT('',(6.32785844966065,-40.244310333988,-1.));
#1607=CARTESIAN_POINT('',(7.91228675972854,-37.5,2.));
#1608=CARTESIAN_POINT('Origin',(7.91228675972851,-43.,2.));
#1609=CARTESIAN_POINT('',(7.91228675972851,-43.,2.));
#1610=CARTESIAN_POINT('',(3.1011279651194,-34.666828524455,2.));
#1611=CARTESIAN_POINT('',(7.91228675972851,-43.,-1.));
#1612=CARTESIAN_POINT('',(7.91228675972851,-43.,2.));
#1613=CARTESIAN_POINT('',(5.53400182952494,-38.8806896660119,-1.));
#1614=CARTESIAN_POINT('Origin',(11.0877132402715,-43.,2.));
#1615=CARTESIAN_POINT('',(11.0877132402715,-43.,2.));
#1616=CARTESIAN_POINT('',(-3.20614337986429,-42.9999999999999,2.));
#1617=CARTESIAN_POINT('',(11.0877132402715,-43.,-1.));
#1618=CARTESIAN_POINT('',(11.0877132402715,-43.,2.));
#1619=CARTESIAN_POINT('',(3.95614337986425,-42.9999999999999,-1.));
#1620=CARTESIAN_POINT('Origin',(12.675426480543,-40.25,2.));
#1621=CARTESIAN_POINT('',(12.6754264805429,-40.25,2.));
#1622=CARTESIAN_POINT('',(9.94272865501633,-44.983171475545,2.));
#1623=CARTESIAN_POINT('',(12.6754264805429,-40.25,-1.));
#1624=CARTESIAN_POINT('',(12.6754264805429,-40.25,2.));
#1625=CARTESIAN_POINT('',(10.2971415503393,-44.369310333988,-1.));
#1626=CARTESIAN_POINT('Origin',(11.0877132402715,-37.5,2.));
#1627=CARTESIAN_POINT('',(11.0877132402715,-37.5,2.));
#1628=CARTESIAN_POINT('',(7.07041106579811,-30.5418285244551,2.));
#1629=CARTESIAN_POINT('',(11.0877132402715,-37.5,-1.));
#1630=CARTESIAN_POINT('',(11.0877132402715,-37.5,2.));
#1631=CARTESIAN_POINT('',(11.0909981704751,-37.505689666012,-1.));
#1632=CARTESIAN_POINT('Origin',(7.91228675972854,-37.5,2.));
#1633=CARTESIAN_POINT('',(-4.79385662013574,-37.4999999999999,2.));
#1634=CARTESIAN_POINT('',(5.54385662013576,-37.4999999999999,-1.));
#1635=CARTESIAN_POINT('Origin',(0.,-40.25,-1.));
#1636=CARTESIAN_POINT('',(7.9,-40.25,-1.));
#1637=CARTESIAN_POINT('Origin',(9.5,-40.25,-1.));
#1638=CARTESIAN_POINT('Origin',(-9.5,-40.25,-4.5));
#1639=CARTESIAN_POINT('',(-11.1,-40.25,-4.5));
#1640=CARTESIAN_POINT('Origin',(-9.5,-40.25,-4.5));
#1641=CARTESIAN_POINT('',(-11.1,-40.25,-4.5));
#1642=CARTESIAN_POINT('Origin',(9.5,-40.25,-4.5));
#1643=CARTESIAN_POINT('',(7.9,-40.25,-4.5));
#1644=CARTESIAN_POINT('Origin',(9.5,-40.25,-4.5));
#1645=CARTESIAN_POINT('',(7.9,-40.25,-4.5));
#1646=CARTESIAN_POINT('Origin',(-17.5,-35.45,2.));
#1647=CARTESIAN_POINT('',(14.5,-35.45,2.));
#1648=CARTESIAN_POINT('',(14.5,-37.2677749636685,2.));
#1649=CARTESIAN_POINT('',(-2.22044604925031E-15,-35.45,2.));
#1650=CARTESIAN_POINT('Origin',(17.5,-32.45,0.));
#1651=CARTESIAN_POINT('',(17.5,-28.,-4.5));
#1652=CARTESIAN_POINT('',(17.5,-46.,-4.5));
#1653=CARTESIAN_POINT('',(17.5,-28.,-4.5));
#1654=CARTESIAN_POINT('',(17.5,-23.35,0.));
#1655=CARTESIAN_POINT('',(17.5,-28.,-4.5));
#1656=CARTESIAN_POINT('',(17.5,-14.25,0.));
#1657=CARTESIAN_POINT('',(17.5,-22.25,0.));
#1658=CARTESIAN_POINT('',(17.5,-14.25,0.));
#1659=CARTESIAN_POINT('',(17.5,-40.1224536147894,19.5235784453077));
#1660=CARTESIAN_POINT('',(17.5,-40.1224536147894,19.5235784453077));
#1661=CARTESIAN_POINT('',(17.5,-46.71,22.));
#1662=CARTESIAN_POINT('Origin',(17.5,-46.71,12.));
#1663=CARTESIAN_POINT('',(17.5,-63.9210998546741,22.));
#1664=CARTESIAN_POINT('',(17.5,-46.71,22.));
#1665=CARTESIAN_POINT('',(17.5,-63.9210998546741,19.));
#1666=CARTESIAN_POINT('',(17.5,-63.9210998546741,22.));
#1667=CARTESIAN_POINT('',(17.5,-46.,-4.5));
#1668=CARTESIAN_POINT('Origin',(17.5,-28.,-4.5));
#1669=CARTESIAN_POINT('',(-17.5,-46.,-4.5));
#1670=CARTESIAN_POINT('',(-17.5,-46.,-4.5));
#1671=CARTESIAN_POINT('',(-17.5,-28.,-4.5));
#1672=CARTESIAN_POINT('',(-17.5,-28.,-4.5));
#1673=CARTESIAN_POINT('',(17.5,-28.,-4.5));
#1674=CARTESIAN_POINT('',(17.5,-46.,-4.5));
#1675=CARTESIAN_POINT('Origin',(-17.5,-14.25,0.));
#1676=CARTESIAN_POINT('',(-17.5,-63.9210998546741,19.));
#1677=CARTESIAN_POINT('',(-17.5,-46.,-4.5));
#1678=CARTESIAN_POINT('',(-17.5,-63.9210998546741,22.));
#1679=CARTESIAN_POINT('',(-17.5,-63.9210998546741,22.));
#1680=CARTESIAN_POINT('',(-17.5,-46.71,22.));
#1681=CARTESIAN_POINT('',(-17.5,-46.71,22.));
#1682=CARTESIAN_POINT('',(-17.5,-40.1224536147894,19.5235784453077));
#1683=CARTESIAN_POINT('Origin',(-17.5,-46.71,12.));
#1684=CARTESIAN_POINT('',(-17.5,-40.1224536147894,19.5235784453077));
#1685=CARTESIAN_POINT('',(-17.5,-14.25,0.));
#1686=CARTESIAN_POINT('',(-17.5,-14.25,0.));
#1687=CARTESIAN_POINT('',(-17.5,-23.35,0.));
#1688=CARTESIAN_POINT('',(-17.5,-22.25,0.));
#1689=CARTESIAN_POINT('',(-17.5,-28.,-4.5));
#1690=CARTESIAN_POINT('Origin',(14.5,-39.085549927337,8.75));
#1691=CARTESIAN_POINT('',(14.5,-63.9210998546741,19.));
#1692=CARTESIAN_POINT('',(14.5,-46.,-4.5));
#1693=CARTESIAN_POINT('',(14.5,-46.71,19.));
#1694=CARTESIAN_POINT('',(14.5,-42.8977749636685,19.));
#1695=CARTESIAN_POINT('',(14.5,-42.0987175303526,17.2665049117154));
#1696=CARTESIAN_POINT('Origin',(14.5,-46.71,12.));
#1697=CARTESIAN_POINT('',(14.5,-37.8387175303525,13.5365049117154));
#1698=CARTESIAN_POINT('',(14.5,-37.0054555703292,12.8069116931972));
#1699=CARTESIAN_POINT('',(14.5,-35.45,8.27));
#1700=CARTESIAN_POINT('Origin',(14.5,-42.45,8.27));
#1701=CARTESIAN_POINT('',(14.5,-35.45,2.125));
#1702=CARTESIAN_POINT('Origin',(17.5,-63.9210998546741,19.));
#1703=CARTESIAN_POINT('',(17.5,-63.9210998546741,19.));
#1704=CARTESIAN_POINT('Origin',(17.5,-63.9210998546741,22.));
#1705=CARTESIAN_POINT('',(17.5,-46.71,22.));
#1706=CARTESIAN_POINT('',(17.5,-63.9210998546741,22.));
#1707=CARTESIAN_POINT('Origin',(17.5,-46.71,12.));
#1708=CARTESIAN_POINT('',(17.5,-40.1224536147894,19.5235784453077));
#1709=CARTESIAN_POINT('Origin',(17.5,-40.1224536147894,19.5235784453077));
#1710=CARTESIAN_POINT('Origin',(17.5,-14.25,0.));
#1711=CARTESIAN_POINT('',(-22.25,-14.25,0.));
#1712=CARTESIAN_POINT('Origin',(-2.22044604925031E-15,-23.35,0.));
#1713=CARTESIAN_POINT('',(8.75,-23.35,0.));
#1714=CARTESIAN_POINT('',(-1.6,-18.,0.));
#1715=CARTESIAN_POINT('Origin',(-3.50180932028614E-16,-18.,0.));
#1716=CARTESIAN_POINT('Origin',(-17.5,-63.9210998546741,19.));
#1717=CARTESIAN_POINT('',(17.5,-63.9210998546741,19.));
#1718=CARTESIAN_POINT('Origin',(17.5,-63.9210998546741,19.));
#1719=CARTESIAN_POINT('',(17.5,-63.9210998546741,19.));
#1720=CARTESIAN_POINT('Origin',(17.5,-46.71,19.));
#1721=CARTESIAN_POINT('',(17.5,-46.71,19.));
#1722=CARTESIAN_POINT('Origin',(17.5,-46.71,12.));
#1723=CARTESIAN_POINT('',(17.5,-42.0987175303526,17.2665049117154));
#1724=CARTESIAN_POINT('Origin',(17.5,-37.8387175303525,13.5365049117154));
#1725=CARTESIAN_POINT('',(17.5,-37.8387175303525,13.5365049117154));
#1726=CARTESIAN_POINT('Origin',(17.5,-42.45,8.27));
#1727=CARTESIAN_POINT('',(17.5,-35.45,8.27));
#1728=CARTESIAN_POINT('Origin',(17.5,-35.45,-4.5));
#1729=CARTESIAN_POINT('Origin',(17.5,-23.35,0.));
#1730=CARTESIAN_POINT('Origin',(-3.50180932028614E-16,-18.,0.));
#1731=CARTESIAN_POINT('',(-1.6,-18.,0.));
#1732=UNCERTAINTY_MEASURE_WITH_UNIT(LENGTH_MEASURE(0.01),#1736,
'DISTANCE_ACCURACY_VALUE',
'Maximum model space distance between geometric entities at asserted c
onnectivities');
#1733=UNCERTAINTY_MEASURE_WITH_UNIT(LENGTH_MEASURE(0.01),#1736,
'DISTANCE_ACCURACY_VALUE',
'Maximum model space distance between geometric entities at asserted c
onnectivities');
#1734=(
GEOMETRIC_REPRESENTATION_CONTEXT(3)
GLOBAL_UNCERTAINTY_ASSIGNED_CONTEXT((#1732))
GLOBAL_UNIT_ASSIGNED_CONTEXT((#1736,#1738,#1739))
REPRESENTATION_CONTEXT('','3D')
);
#1735=(
GEOMETRIC_REPRESENTATION_CONTEXT(3)
GLOBAL_UNCERTAINTY_ASSIGNED_CONTEXT((#1733))
GLOBAL_UNIT_ASSIGNED_CONTEXT((#1736,#1738,#1739))
REPRESENTATION_CONTEXT('','3D')
);
#1736=(
LENGTH_UNIT()
NAMED_UNIT(*)
SI_UNIT(.MILLI.,.METRE.)
);
#1737=(
LENGTH_UNIT()
NAMED_UNIT(*)
SI_UNIT($,.METRE.)
);
#1738=(
NAMED_UNIT(*)
PLANE_ANGLE_UNIT()
SI_UNIT($,.RADIAN.)
);
#1739=(
NAMED_UNIT(*)
SI_UNIT($,.STERADIAN.)
SOLID_ANGLE_UNIT()
);
#1740=SHAPE_DEFINITION_REPRESENTATION(#1741,#1742);
#1741=PRODUCT_DEFINITION_SHAPE('',$,#1744);
#1742=SHAPE_REPRESENTATION('',(#1072),#1734);
#1743=PRODUCT_DEFINITION_CONTEXT('part definition',#1748,'design');
#1744=PRODUCT_DEFINITION('MG400 Calibration Servo Mount',
'MG400 Calibration Servo Mount v19',#1745,#1743);
#1745=PRODUCT_DEFINITION_FORMATION('',$,#1750);
#1746=PRODUCT_RELATED_PRODUCT_CATEGORY(
'MG400 Calibration Servo Mount v19','MG400 Calibration Servo Mount v19',
(#1750));
#1747=APPLICATION_PROTOCOL_DEFINITION('international standard',
'automotive_design',2009,#1748);
#1748=APPLICATION_CONTEXT(
'Core Data for Automotive Mechanical Design Process');
#1749=PRODUCT_CONTEXT('part definition',#1748,'mechanical');
#1750=PRODUCT('MG400 Calibration Servo Mount',
'MG400 Calibration Servo Mount v19',$,(#1749));
#1751=PRESENTATION_STYLE_ASSIGNMENT((#1752));
#1752=SURFACE_STYLE_USAGE(.BOTH.,#1753);
#1753=SURFACE_SIDE_STYLE('',(#1754));
#1754=SURFACE_STYLE_FILL_AREA(#1755);
#1755=FILL_AREA_STYLE('Steel - Satin',(#1756));
#1756=FILL_AREA_STYLE_COLOUR('Steel - Satin',#1757);
#1757=COLOUR_RGB('Steel - Satin',0.627450980392157,0.627450980392157,0.627450980392157);
ENDSEC;
END-ISO-10303-21;
