ISO-10303-21;
HEADER;
/* Generated by software containing ST-Developer
 * from STEP Tools, Inc. (www.steptools.com) 
 */

FILE_DESCRIPTION(
/* description */ (''),
/* implementation_level */ '2;1');

FILE_NAME(
/* name */ '52mmStandOff.step',
/* time_stamp */ '2026-07-05T08:06:47+01:00',
/* author */ (''),
/* organization */ (''),
/* preprocessor_version */ 'ST-DEVELOPER v20.1',
/* originating_system */ 'Autodesk Translation Framework v15.8.0.0',
/* authorisation */ '');

FILE_SCHEMA (('AUTOMOTIVE_DESIGN { 1 0 10303 214 3 1 1 }'));
ENDSEC;

DATA;
#10=MECHANICAL_DESIGN_GEOMETRIC_PRESENTATION_REPRESENTATION('',(#13),#947);
#11=SHAPE_REPRESENTATION_RELATIONSHIP('SRR','None',#954,#12);
#12=ADVANCED_BREP_SHAPE_REPRESENTATION('',(#14),#946);
#13=STYLED_ITEM('',(#963),#14);
#14=MANIFOLD_SOLID_BREP('Body1',#433);
#15=FACE_BOUND('',#129,.T.);
#16=FACE_BOUND('',#132,.T.);
#17=FACE_BOUND('',#135,.T.);
#18=FACE_BOUND('',#142,.T.);
#19=FACE_BOUND('',#143,.T.);
#20=FACE_BOUND('',#149,.T.);
#21=FACE_BOUND('',#151,.T.);
#22=FACE_BOUND('',#152,.T.);
#23=FACE_BOUND('',#153,.T.);
#24=FACE_BOUND('',#154,.T.);
#25=PLANE('',#468);
#26=PLANE('',#472);
#27=PLANE('',#476);
#28=PLANE('',#497);
#29=PLANE('',#502);
#30=PLANE('',#503);
#31=B_SPLINE_CURVE_WITH_KNOTS('',3,(#682,#683,#684,#685,#686,#687,#688,
#689,#690,#691,#692,#693,#694,#695),.UNSPECIFIED.,.F.,.F.,(4,2,2,2,2,2,
4),(-3.72726550742671,-3.62832214663023,-3.42876637325635,-3.20430052940622,
-2.96715254332498,-2.73989554216721,-2.7392487533674),.UNSPECIFIED.);
#32=B_SPLINE_CURVE_WITH_KNOTS('',3,(#696,#697,#698,#699,#700,#701,#702,
#703,#704,#705,#706,#707,#708,#709,#710,#711,#712,#713,#714,#715,#716,#717,
#718,#719,#720,#721,#722,#723),.UNSPECIFIED.,.F.,.F.,(4,2,2,2,2,2,2,2,2,
2,2,2,2,4),(-2.7392487533674,-2.52966850389082,-2.32433433471279,-2.1181273860492,
-1.90771812272437,-1.69153791731156,-1.47640151903435,-1.26259097382078,
-1.04448491082293,-0.805824041824218,-0.56585265476089,-0.336810484920799,
-0.149682857394053,0.),.UNSPECIFIED.);
#33=B_SPLINE_CURVE_WITH_KNOTS('',3,(#733,#734,#735,#736,#737,#738,#739,
#740,#741,#742,#743,#744,#745,#746,#747,#748,#749,#750,#751,#752,#753,#754),
 .UNSPECIFIED.,.F.,.F.,(4,2,2,2,2,2,2,2,2,2,4),(-3.72726550742516,-3.62832214662868,
-3.42876637325483,-3.20430052940468,-2.96715254332339,-2.7398955421656,
-2.52966850388923,-2.32433433471127,-2.11812738604777,-1.90771812272302,
-1.86514457957591),.UNSPECIFIED.);
#34=B_SPLINE_CURVE_WITH_KNOTS('',3,(#755,#756,#757,#758,#759,#760,#761,
#762,#763,#764,#765,#766,#767,#768,#769,#770,#771,#772,#773,#774),
 .UNSPECIFIED.,.F.,.F.,(4,2,2,2,2,2,2,2,2,4),(-1.86514457957591,-1.69153791731036,
-1.47640151903333,-1.26259097381995,-1.04448491082232,-0.805824041823889,
-0.56585265476087,-0.336810484920884,-0.149682857394069,0.),
 .UNSPECIFIED.);
#35=B_SPLINE_CURVE_WITH_KNOTS('',3,(#784,#785,#786,#787,#788,#789,#790,
#791,#792,#793,#794,#795,#796,#797,#798,#799,#800,#801,#802,#803,#804,#805,
#806,#807,#808,#809,#810,#811,#812,#813),.UNSPECIFIED.,.F.,.F.,(4,2,2,2,
2,2,2,2,2,2,2,2,2,2,4),(-3.72726550742311,-3.62832214662664,-3.42876637325282,
-3.20430052940289,-2.96715254332201,-2.73989554216457,-2.52966850388847,
-2.32433433471074,-2.11812738604743,-1.90771812272284,-1.69153791731029,
-1.47640151903333,-1.26259097381999,-1.04448491082235,-0.991285343950375),
 .UNSPECIFIED.);
#36=B_SPLINE_CURVE_WITH_KNOTS('',3,(#814,#815,#816,#817,#818,#819,#820,
#821,#822,#823,#824,#825),.UNSPECIFIED.,.F.,.F.,(4,2,2,2,2,4),(-0.991285343950375,
-0.805824041823869,-0.565852654760754,-0.336810484920779,-0.149682857394049,
0.),.UNSPECIFIED.);
#37=B_SPLINE_CURVE_WITH_KNOTS('',3,(#848,#849,#850,#851,#852,#853,#854,
#855,#856,#857,#858,#859,#860,#861,#862,#863),.UNSPECIFIED.,.F.,.F.,(4,
2,2,2,2,2,2,4),(-2.61897314858092,-2.27933552336033,-1.8360652643749,-1.50937603821629,
-1.22208764402702,-0.917758834249481,-0.531297798813333,0.),
 .UNSPECIFIED.);
#38=B_SPLINE_CURVE_WITH_KNOTS('',3,(#872,#873,#874,#875,#876,#877,#878,
#879,#880,#881,#882,#883,#884,#885,#886,#887),.UNSPECIFIED.,.F.,.F.,(4,
2,2,2,2,2,2,4),(-2.61897314858108,-2.27933552336044,-1.83606526437497,-1.50937603821633,
-1.22208764402702,-0.917758834249462,-0.531297798813329,0.),
 .UNSPECIFIED.);
#39=B_SPLINE_CURVE_WITH_KNOTS('',3,(#898,#899,#900,#901,#902,#903,#904,
#905,#906,#907,#908,#909,#910,#911,#912,#913,#914,#915,#916,#917,#918,#919,
#920,#921,#922,#923,#924,#925,#926,#927,#928),.UNSPECIFIED.,.F.,.F.,(4,
2,2,2,2,2,2,3,2,2,2,2,2,2,4),(21.4895257595139,22.0836762374767,22.6778267154396,
23.0159833591346,23.3541400028296,23.9246403084314,24.2098904612323,24.4951406140332,
24.7803907668341,25.065640919635,25.6361412252368,25.9742978689318,26.3124545126269,
26.9066049905897,27.5007554685525),.UNSPECIFIED.);
#40=CYLINDRICAL_SURFACE('',#454,15.);
#41=CYLINDRICAL_SURFACE('',#456,2.5);
#42=CYLINDRICAL_SURFACE('',#462,12.);
#43=CYLINDRICAL_SURFACE('',#464,20.);
#44=CYLINDRICAL_SURFACE('',#466,6.);
#45=CYLINDRICAL_SURFACE('',#470,6.);
#46=CYLINDRICAL_SURFACE('',#474,6.);
#47=CYLINDRICAL_SURFACE('',#478,3.2);
#48=CYLINDRICAL_SURFACE('',#480,3.2);
#49=CYLINDRICAL_SURFACE('',#482,3.2);
#50=CYLINDRICAL_SURFACE('',#484,17.);
#51=CYLINDRICAL_SURFACE('',#486,17.);
#52=CYLINDRICAL_SURFACE('',#495,35.);
#53=CYLINDRICAL_SURFACE('',#498,35.);
#54=CYLINDRICAL_SURFACE('',#500,35.);
#55=LINE('',#648,#74);
#56=LINE('',#654,#75);
#57=LINE('',#660,#76);
#58=LINE('',#667,#77);
#59=LINE('',#670,#78);
#60=LINE('',#674,#79);
#61=LINE('',#680,#80);
#62=LINE('',#731,#81);
#63=LINE('',#782,#82);
#64=LINE('',#832,#83);
#65=LINE('',#836,#84);
#66=LINE('',#840,#85);
#67=LINE('',#846,#86);
#68=LINE('',#864,#87);
#69=LINE('',#870,#88);
#70=LINE('',#888,#89);
#71=LINE('',#933,#90);
#72=LINE('',#936,#91);
#73=LINE('',#937,#92);
#74=VECTOR('',#516,17.5);
#75=VECTOR('',#523,15.);
#76=VECTOR('',#530,2.5);
#77=VECTOR('',#539,7.);
#78=VECTOR('',#542,12.);
#79=VECTOR('',#547,20.);
#80=VECTOR('',#554,6.);
#81=VECTOR('',#563,6.);
#82=VECTOR('',#572,6.);
#83=VECTOR('',#581,3.2);
#84=VECTOR('',#586,3.2);
#85=VECTOR('',#591,3.2);
#86=VECTOR('',#596,10.);
#87=VECTOR('',#597,10.);
#88=VECTOR('',#602,10.);
#89=VECTOR('',#603,10.);
#90=VECTOR('',#622,10.);
#91=VECTOR('',#625,10.);
#92=VECTOR('',#626,10.);
#93=CONICAL_SURFACE('',#451,17.5,0.785398163397448);
#94=CONICAL_SURFACE('',#460,7.,0.785398163397448);
#95=FACE_OUTER_BOUND('',#120,.T.);
#96=FACE_OUTER_BOUND('',#121,.T.);
#97=FACE_OUTER_BOUND('',#122,.T.);
#98=FACE_OUTER_BOUND('',#123,.T.);
#99=FACE_OUTER_BOUND('',#124,.T.);
#100=FACE_OUTER_BOUND('',#125,.T.);
#101=FACE_OUTER_BOUND('',#126,.T.);
#102=FACE_OUTER_BOUND('',#127,.T.);
#103=FACE_OUTER_BOUND('',#128,.T.);
#104=FACE_OUTER_BOUND('',#130,.T.);
#105=FACE_OUTER_BOUND('',#131,.T.);
#106=FACE_OUTER_BOUND('',#133,.T.);
#107=FACE_OUTER_BOUND('',#134,.T.);
#108=FACE_OUTER_BOUND('',#136,.T.);
#109=FACE_OUTER_BOUND('',#137,.T.);
#110=FACE_OUTER_BOUND('',#138,.T.);
#111=FACE_OUTER_BOUND('',#139,.T.);
#112=FACE_OUTER_BOUND('',#140,.T.);
#113=FACE_OUTER_BOUND('',#141,.T.);
#114=FACE_OUTER_BOUND('',#144,.T.);
#115=FACE_OUTER_BOUND('',#145,.T.);
#116=FACE_OUTER_BOUND('',#146,.T.);
#117=FACE_OUTER_BOUND('',#147,.T.);
#118=FACE_OUTER_BOUND('',#148,.T.);
#119=FACE_OUTER_BOUND('',#150,.T.);
#120=EDGE_LOOP('',(#286,#287,#288,#289));
#121=EDGE_LOOP('',(#290,#291,#292,#293,#294));
#122=EDGE_LOOP('',(#295,#296,#297,#298));
#123=EDGE_LOOP('',(#299,#300,#301,#302,#303));
#124=EDGE_LOOP('',(#304,#305,#306,#307,#308));
#125=EDGE_LOOP('',(#309,#310,#311,#312));
#126=EDGE_LOOP('',(#313,#314,#315,#316,#317));
#127=EDGE_LOOP('',(#318,#319,#320,#321,#322));
#128=EDGE_LOOP('',(#323));
#129=EDGE_LOOP('',(#324));
#130=EDGE_LOOP('',(#325,#326,#327,#328,#329));
#131=EDGE_LOOP('',(#330));
#132=EDGE_LOOP('',(#331));
#133=EDGE_LOOP('',(#332,#333,#334,#335,#336));
#134=EDGE_LOOP('',(#337));
#135=EDGE_LOOP('',(#338));
#136=EDGE_LOOP('',(#339,#340,#341,#342));
#137=EDGE_LOOP('',(#343,#344,#345,#346));
#138=EDGE_LOOP('',(#347,#348,#349,#350));
#139=EDGE_LOOP('',(#351,#352,#353,#354));
#140=EDGE_LOOP('',(#355,#356,#357,#358));
#141=EDGE_LOOP('',(#359,#360,#361,#362,#363,#364,#365,#366,#367,#368,#369,
#370,#371,#372));
#142=EDGE_LOOP('',(#373,#374));
#143=EDGE_LOOP('',(#375,#376));
#144=EDGE_LOOP('',(#377,#378,#379,#380));
#145=EDGE_LOOP('',(#381,#382,#383,#384));
#146=EDGE_LOOP('',(#385,#386,#387,#388));
#147=EDGE_LOOP('',(#389,#390,#391,#392,#393));
#148=EDGE_LOOP('',(#394));
#149=EDGE_LOOP('',(#395));
#150=EDGE_LOOP('',(#396,#397,#398,#399,#400,#401));
#151=EDGE_LOOP('',(#402));
#152=EDGE_LOOP('',(#403));
#153=EDGE_LOOP('',(#404));
#154=EDGE_LOOP('',(#405));
#155=CIRCLE('',#448,15.);
#156=CIRCLE('',#449,11.);
#157=CIRCLE('',#450,18.221825406948);
#158=CIRCLE('',#452,20.);
#159=CIRCLE('',#453,20.);
#160=CIRCLE('',#455,15.);
#161=CIRCLE('',#457,2.5);
#162=CIRCLE('',#458,2.5);
#163=CIRCLE('',#459,2.5);
#164=CIRCLE('',#461,12.);
#165=CIRCLE('',#463,12.);
#166=CIRCLE('',#465,20.);
#167=CIRCLE('',#467,6.);
#168=CIRCLE('',#469,3.2);
#169=CIRCLE('',#471,6.);
#170=CIRCLE('',#473,3.2);
#171=CIRCLE('',#475,6.);
#172=CIRCLE('',#477,3.2);
#173=CIRCLE('',#479,3.2);
#174=CIRCLE('',#481,3.2);
#175=CIRCLE('',#483,3.2);
#176=CIRCLE('',#485,17.);
#177=CIRCLE('',#487,17.);
#178=CIRCLE('',#489,35.);
#179=CIRCLE('',#490,20.);
#180=CIRCLE('',#491,20.);
#181=CIRCLE('',#492,35.);
#182=CIRCLE('',#493,35.);
#183=CIRCLE('',#494,35.);
#184=CIRCLE('',#496,35.);
#185=CIRCLE('',#499,35.);
#186=CIRCLE('',#501,35.);
#187=VERTEX_POINT('',#641);
#188=VERTEX_POINT('',#643);
#189=VERTEX_POINT('',#647);
#190=VERTEX_POINT('',#649);
#191=VERTEX_POINT('',#653);
#192=VERTEX_POINT('',#657);
#193=VERTEX_POINT('',#659);
#194=VERTEX_POINT('',#661);
#195=VERTEX_POINT('',#665);
#196=VERTEX_POINT('',#669);
#197=VERTEX_POINT('',#673);
#198=VERTEX_POINT('',#677);
#199=VERTEX_POINT('',#679);
#200=VERTEX_POINT('',#681);
#201=VERTEX_POINT('',#725);
#202=VERTEX_POINT('',#728);
#203=VERTEX_POINT('',#730);
#204=VERTEX_POINT('',#732);
#205=VERTEX_POINT('',#776);
#206=VERTEX_POINT('',#779);
#207=VERTEX_POINT('',#781);
#208=VERTEX_POINT('',#783);
#209=VERTEX_POINT('',#827);
#210=VERTEX_POINT('',#830);
#211=VERTEX_POINT('',#834);
#212=VERTEX_POINT('',#838);
#213=VERTEX_POINT('',#842);
#214=VERTEX_POINT('',#843);
#215=VERTEX_POINT('',#845);
#216=VERTEX_POINT('',#847);
#217=VERTEX_POINT('',#866);
#218=VERTEX_POINT('',#867);
#219=VERTEX_POINT('',#869);
#220=VERTEX_POINT('',#871);
#221=VERTEX_POINT('',#890);
#222=VERTEX_POINT('',#895);
#223=VERTEX_POINT('',#897);
#224=VERTEX_POINT('',#931);
#225=VERTEX_POINT('',#935);
#226=EDGE_CURVE('',#187,#187,#155,.T.);
#227=EDGE_CURVE('',#187,#188,#156,.T.);
#228=EDGE_CURVE('',#188,#188,#157,.T.);
#229=EDGE_CURVE('',#188,#189,#55,.T.);
#230=EDGE_CURVE('',#189,#190,#158,.T.);
#231=EDGE_CURVE('',#190,#189,#159,.T.);
#232=EDGE_CURVE('',#187,#191,#56,.T.);
#233=EDGE_CURVE('',#191,#191,#160,.T.);
#234=EDGE_CURVE('',#192,#192,#161,.T.);
#235=EDGE_CURVE('',#192,#193,#57,.T.);
#236=EDGE_CURVE('',#194,#193,#162,.T.);
#237=EDGE_CURVE('',#193,#194,#163,.T.);
#238=EDGE_CURVE('',#195,#195,#164,.T.);
#239=EDGE_CURVE('',#195,#194,#58,.T.);
#240=EDGE_CURVE('',#195,#196,#59,.T.);
#241=EDGE_CURVE('',#196,#196,#165,.T.);
#242=EDGE_CURVE('',#190,#197,#60,.T.);
#243=EDGE_CURVE('',#197,#197,#166,.T.);
#244=EDGE_CURVE('',#198,#198,#167,.T.);
#245=EDGE_CURVE('',#198,#199,#61,.T.);
#246=EDGE_CURVE('',#200,#199,#31,.T.);
#247=EDGE_CURVE('',#199,#200,#32,.T.);
#248=EDGE_CURVE('',#201,#201,#168,.T.);
#249=EDGE_CURVE('',#202,#202,#169,.T.);
#250=EDGE_CURVE('',#202,#203,#62,.T.);
#251=EDGE_CURVE('',#204,#203,#33,.T.);
#252=EDGE_CURVE('',#203,#204,#34,.T.);
#253=EDGE_CURVE('',#205,#205,#170,.T.);
#254=EDGE_CURVE('',#206,#206,#171,.T.);
#255=EDGE_CURVE('',#206,#207,#63,.T.);
#256=EDGE_CURVE('',#208,#207,#35,.T.);
#257=EDGE_CURVE('',#207,#208,#36,.T.);
#258=EDGE_CURVE('',#209,#209,#172,.T.);
#259=EDGE_CURVE('',#210,#210,#173,.T.);
#260=EDGE_CURVE('',#210,#201,#64,.T.);
#261=EDGE_CURVE('',#211,#211,#174,.T.);
#262=EDGE_CURVE('',#211,#205,#65,.T.);
#263=EDGE_CURVE('',#212,#212,#175,.T.);
#264=EDGE_CURVE('',#212,#209,#66,.T.);
#265=EDGE_CURVE('',#213,#214,#176,.F.);
#266=EDGE_CURVE('',#213,#215,#67,.T.);
#267=EDGE_CURVE('',#215,#216,#37,.T.);
#268=EDGE_CURVE('',#214,#216,#68,.T.);
#269=EDGE_CURVE('',#217,#218,#177,.F.);
#270=EDGE_CURVE('',#217,#219,#69,.T.);
#271=EDGE_CURVE('',#219,#220,#38,.T.);
#272=EDGE_CURVE('',#218,#220,#70,.T.);
#273=EDGE_CURVE('',#219,#221,#178,.T.);
#274=EDGE_CURVE('',#221,#203,#179,.T.);
#275=EDGE_CURVE('',#204,#191,#180,.T.);
#276=EDGE_CURVE('',#221,#216,#181,.T.);
#277=EDGE_CURVE('',#215,#222,#182,.T.);
#278=EDGE_CURVE('',#223,#222,#39,.F.);
#279=EDGE_CURVE('',#223,#220,#183,.T.);
#280=EDGE_CURVE('',#224,#218,#184,.T.);
#281=EDGE_CURVE('',#224,#223,#71,.T.);
#282=EDGE_CURVE('',#224,#225,#72,.T.);
#283=EDGE_CURVE('',#225,#222,#73,.T.);
#284=EDGE_CURVE('',#213,#225,#185,.T.);
#285=EDGE_CURVE('',#217,#214,#186,.T.);
#286=ORIENTED_EDGE('',*,*,#226,.T.);
#287=ORIENTED_EDGE('',*,*,#227,.T.);
#288=ORIENTED_EDGE('',*,*,#228,.T.);
#289=ORIENTED_EDGE('',*,*,#227,.F.);
#290=ORIENTED_EDGE('',*,*,#228,.F.);
#291=ORIENTED_EDGE('',*,*,#229,.T.);
#292=ORIENTED_EDGE('',*,*,#230,.T.);
#293=ORIENTED_EDGE('',*,*,#231,.T.);
#294=ORIENTED_EDGE('',*,*,#229,.F.);
#295=ORIENTED_EDGE('',*,*,#226,.F.);
#296=ORIENTED_EDGE('',*,*,#232,.T.);
#297=ORIENTED_EDGE('',*,*,#233,.F.);
#298=ORIENTED_EDGE('',*,*,#232,.F.);
#299=ORIENTED_EDGE('',*,*,#234,.F.);
#300=ORIENTED_EDGE('',*,*,#235,.T.);
#301=ORIENTED_EDGE('',*,*,#236,.F.);
#302=ORIENTED_EDGE('',*,*,#237,.F.);
#303=ORIENTED_EDGE('',*,*,#235,.F.);
#304=ORIENTED_EDGE('',*,*,#238,.T.);
#305=ORIENTED_EDGE('',*,*,#239,.T.);
#306=ORIENTED_EDGE('',*,*,#236,.T.);
#307=ORIENTED_EDGE('',*,*,#237,.T.);
#308=ORIENTED_EDGE('',*,*,#239,.F.);
#309=ORIENTED_EDGE('',*,*,#238,.F.);
#310=ORIENTED_EDGE('',*,*,#240,.T.);
#311=ORIENTED_EDGE('',*,*,#241,.T.);
#312=ORIENTED_EDGE('',*,*,#240,.F.);
#313=ORIENTED_EDGE('',*,*,#231,.F.);
#314=ORIENTED_EDGE('',*,*,#242,.T.);
#315=ORIENTED_EDGE('',*,*,#243,.F.);
#316=ORIENTED_EDGE('',*,*,#242,.F.);
#317=ORIENTED_EDGE('',*,*,#230,.F.);
#318=ORIENTED_EDGE('',*,*,#244,.F.);
#319=ORIENTED_EDGE('',*,*,#245,.T.);
#320=ORIENTED_EDGE('',*,*,#246,.F.);
#321=ORIENTED_EDGE('',*,*,#247,.F.);
#322=ORIENTED_EDGE('',*,*,#245,.F.);
#323=ORIENTED_EDGE('',*,*,#244,.T.);
#324=ORIENTED_EDGE('',*,*,#248,.F.);
#325=ORIENTED_EDGE('',*,*,#249,.F.);
#326=ORIENTED_EDGE('',*,*,#250,.T.);
#327=ORIENTED_EDGE('',*,*,#251,.F.);
#328=ORIENTED_EDGE('',*,*,#252,.F.);
#329=ORIENTED_EDGE('',*,*,#250,.F.);
#330=ORIENTED_EDGE('',*,*,#249,.T.);
#331=ORIENTED_EDGE('',*,*,#253,.F.);
#332=ORIENTED_EDGE('',*,*,#254,.F.);
#333=ORIENTED_EDGE('',*,*,#255,.T.);
#334=ORIENTED_EDGE('',*,*,#256,.F.);
#335=ORIENTED_EDGE('',*,*,#257,.F.);
#336=ORIENTED_EDGE('',*,*,#255,.F.);
#337=ORIENTED_EDGE('',*,*,#254,.T.);
#338=ORIENTED_EDGE('',*,*,#258,.F.);
#339=ORIENTED_EDGE('',*,*,#259,.F.);
#340=ORIENTED_EDGE('',*,*,#260,.T.);
#341=ORIENTED_EDGE('',*,*,#248,.T.);
#342=ORIENTED_EDGE('',*,*,#260,.F.);
#343=ORIENTED_EDGE('',*,*,#261,.F.);
#344=ORIENTED_EDGE('',*,*,#262,.T.);
#345=ORIENTED_EDGE('',*,*,#253,.T.);
#346=ORIENTED_EDGE('',*,*,#262,.F.);
#347=ORIENTED_EDGE('',*,*,#263,.F.);
#348=ORIENTED_EDGE('',*,*,#264,.T.);
#349=ORIENTED_EDGE('',*,*,#258,.T.);
#350=ORIENTED_EDGE('',*,*,#264,.F.);
#351=ORIENTED_EDGE('',*,*,#265,.F.);
#352=ORIENTED_EDGE('',*,*,#266,.T.);
#353=ORIENTED_EDGE('',*,*,#267,.T.);
#354=ORIENTED_EDGE('',*,*,#268,.F.);
#355=ORIENTED_EDGE('',*,*,#269,.F.);
#356=ORIENTED_EDGE('',*,*,#270,.T.);
#357=ORIENTED_EDGE('',*,*,#271,.T.);
#358=ORIENTED_EDGE('',*,*,#272,.F.);
#359=ORIENTED_EDGE('',*,*,#273,.T.);
#360=ORIENTED_EDGE('',*,*,#274,.T.);
#361=ORIENTED_EDGE('',*,*,#252,.T.);
#362=ORIENTED_EDGE('',*,*,#275,.T.);
#363=ORIENTED_EDGE('',*,*,#233,.T.);
#364=ORIENTED_EDGE('',*,*,#275,.F.);
#365=ORIENTED_EDGE('',*,*,#251,.T.);
#366=ORIENTED_EDGE('',*,*,#274,.F.);
#367=ORIENTED_EDGE('',*,*,#276,.T.);
#368=ORIENTED_EDGE('',*,*,#267,.F.);
#369=ORIENTED_EDGE('',*,*,#277,.T.);
#370=ORIENTED_EDGE('',*,*,#278,.F.);
#371=ORIENTED_EDGE('',*,*,#279,.T.);
#372=ORIENTED_EDGE('',*,*,#271,.F.);
#373=ORIENTED_EDGE('',*,*,#246,.T.);
#374=ORIENTED_EDGE('',*,*,#247,.T.);
#375=ORIENTED_EDGE('',*,*,#256,.T.);
#376=ORIENTED_EDGE('',*,*,#257,.T.);
#377=ORIENTED_EDGE('',*,*,#280,.T.);
#378=ORIENTED_EDGE('',*,*,#272,.T.);
#379=ORIENTED_EDGE('',*,*,#279,.F.);
#380=ORIENTED_EDGE('',*,*,#281,.F.);
#381=ORIENTED_EDGE('',*,*,#282,.F.);
#382=ORIENTED_EDGE('',*,*,#281,.T.);
#383=ORIENTED_EDGE('',*,*,#278,.T.);
#384=ORIENTED_EDGE('',*,*,#283,.F.);
#385=ORIENTED_EDGE('',*,*,#284,.T.);
#386=ORIENTED_EDGE('',*,*,#283,.T.);
#387=ORIENTED_EDGE('',*,*,#277,.F.);
#388=ORIENTED_EDGE('',*,*,#266,.F.);
#389=ORIENTED_EDGE('',*,*,#285,.T.);
#390=ORIENTED_EDGE('',*,*,#268,.T.);
#391=ORIENTED_EDGE('',*,*,#276,.F.);
#392=ORIENTED_EDGE('',*,*,#273,.F.);
#393=ORIENTED_EDGE('',*,*,#270,.F.);
#394=ORIENTED_EDGE('',*,*,#243,.T.);
#395=ORIENTED_EDGE('',*,*,#234,.T.);
#396=ORIENTED_EDGE('',*,*,#269,.T.);
#397=ORIENTED_EDGE('',*,*,#280,.F.);
#398=ORIENTED_EDGE('',*,*,#282,.T.);
#399=ORIENTED_EDGE('',*,*,#284,.F.);
#400=ORIENTED_EDGE('',*,*,#265,.T.);
#401=ORIENTED_EDGE('',*,*,#285,.F.);
#402=ORIENTED_EDGE('',*,*,#259,.T.);
#403=ORIENTED_EDGE('',*,*,#261,.T.);
#404=ORIENTED_EDGE('',*,*,#263,.T.);
#405=ORIENTED_EDGE('',*,*,#241,.F.);
#406=TOROIDAL_SURFACE('',#447,26.,11.);
#407=TOROIDAL_SURFACE('',#488,35.,20.);
#408=ADVANCED_FACE('',(#95),#406,.F.);
#409=ADVANCED_FACE('',(#96),#93,.T.);
#410=ADVANCED_FACE('',(#97),#40,.T.);
#411=ADVANCED_FACE('',(#98),#41,.F.);
#412=ADVANCED_FACE('',(#99),#94,.F.);
#413=ADVANCED_FACE('',(#100),#42,.F.);
#414=ADVANCED_FACE('',(#101),#43,.T.);
#415=ADVANCED_FACE('',(#102),#44,.F.);
#416=ADVANCED_FACE('',(#103,#15),#25,.T.);
#417=ADVANCED_FACE('',(#104),#45,.F.);
#418=ADVANCED_FACE('',(#105,#16),#26,.T.);
#419=ADVANCED_FACE('',(#106),#46,.F.);
#420=ADVANCED_FACE('',(#107,#17),#27,.T.);
#421=ADVANCED_FACE('',(#108),#47,.F.);
#422=ADVANCED_FACE('',(#109),#48,.F.);
#423=ADVANCED_FACE('',(#110),#49,.F.);
#424=ADVANCED_FACE('',(#111),#50,.F.);
#425=ADVANCED_FACE('',(#112),#51,.F.);
#426=ADVANCED_FACE('',(#113,#18,#19),#407,.F.);
#427=ADVANCED_FACE('',(#114),#52,.T.);
#428=ADVANCED_FACE('',(#115),#28,.T.);
#429=ADVANCED_FACE('',(#116),#53,.T.);
#430=ADVANCED_FACE('',(#117),#54,.T.);
#431=ADVANCED_FACE('',(#118,#20),#29,.T.);
#432=ADVANCED_FACE('',(#119,#21,#22,#23,#24),#30,.F.);
#433=CLOSED_SHELL('',(#408,#409,#410,#411,#412,#413,#414,#415,#416,#417,
#418,#419,#420,#421,#422,#423,#424,#425,#426,#427,#428,#429,#430,#431,#432));
#434=DERIVED_UNIT_ELEMENT(#436,1.);
#435=DERIVED_UNIT_ELEMENT(#949,-3.);
#436=(
MASS_UNIT()
NAMED_UNIT(*)
SI_UNIT(.KILO.,.GRAM.)
);
#437=DERIVED_UNIT((#434,#435));
#438=MEASURE_REPRESENTATION_ITEM('density measure',
POSITIVE_RATIO_MEASURE(7850.),#437);
#439=PROPERTY_DEFINITION_REPRESENTATION(#444,#441);
#440=PROPERTY_DEFINITION_REPRESENTATION(#445,#442);
#441=REPRESENTATION('material name',(#443),#946);
#442=REPRESENTATION('density',(#438),#946);
#443=DESCRIPTIVE_REPRESENTATION_ITEM('Steel','Steel');
#444=PROPERTY_DEFINITION('material property','material name',#956);
#445=PROPERTY_DEFINITION('material property','density of part',#956);
#446=AXIS2_PLACEMENT_3D('',#639,#504,#505);
#447=AXIS2_PLACEMENT_3D('',#640,#506,#507);
#448=AXIS2_PLACEMENT_3D('',#642,#508,#509);
#449=AXIS2_PLACEMENT_3D('',#644,#510,#511);
#450=AXIS2_PLACEMENT_3D('',#645,#512,#513);
#451=AXIS2_PLACEMENT_3D('',#646,#514,#515);
#452=AXIS2_PLACEMENT_3D('',#650,#517,#518);
#453=AXIS2_PLACEMENT_3D('',#651,#519,#520);
#454=AXIS2_PLACEMENT_3D('',#652,#521,#522);
#455=AXIS2_PLACEMENT_3D('',#655,#524,#525);
#456=AXIS2_PLACEMENT_3D('',#656,#526,#527);
#457=AXIS2_PLACEMENT_3D('',#658,#528,#529);
#458=AXIS2_PLACEMENT_3D('',#662,#531,#532);
#459=AXIS2_PLACEMENT_3D('',#663,#533,#534);
#460=AXIS2_PLACEMENT_3D('',#664,#535,#536);
#461=AXIS2_PLACEMENT_3D('',#666,#537,#538);
#462=AXIS2_PLACEMENT_3D('',#668,#540,#541);
#463=AXIS2_PLACEMENT_3D('',#671,#543,#544);
#464=AXIS2_PLACEMENT_3D('',#672,#545,#546);
#465=AXIS2_PLACEMENT_3D('',#675,#548,#549);
#466=AXIS2_PLACEMENT_3D('',#676,#550,#551);
#467=AXIS2_PLACEMENT_3D('',#678,#552,#553);
#468=AXIS2_PLACEMENT_3D('',#724,#555,#556);
#469=AXIS2_PLACEMENT_3D('',#726,#557,#558);
#470=AXIS2_PLACEMENT_3D('',#727,#559,#560);
#471=AXIS2_PLACEMENT_3D('',#729,#561,#562);
#472=AXIS2_PLACEMENT_3D('',#775,#564,#565);
#473=AXIS2_PLACEMENT_3D('',#777,#566,#567);
#474=AXIS2_PLACEMENT_3D('',#778,#568,#569);
#475=AXIS2_PLACEMENT_3D('',#780,#570,#571);
#476=AXIS2_PLACEMENT_3D('',#826,#573,#574);
#477=AXIS2_PLACEMENT_3D('',#828,#575,#576);
#478=AXIS2_PLACEMENT_3D('',#829,#577,#578);
#479=AXIS2_PLACEMENT_3D('',#831,#579,#580);
#480=AXIS2_PLACEMENT_3D('',#833,#582,#583);
#481=AXIS2_PLACEMENT_3D('',#835,#584,#585);
#482=AXIS2_PLACEMENT_3D('',#837,#587,#588);
#483=AXIS2_PLACEMENT_3D('',#839,#589,#590);
#484=AXIS2_PLACEMENT_3D('',#841,#592,#593);
#485=AXIS2_PLACEMENT_3D('',#844,#594,#595);
#486=AXIS2_PLACEMENT_3D('',#865,#598,#599);
#487=AXIS2_PLACEMENT_3D('',#868,#600,#601);
#488=AXIS2_PLACEMENT_3D('',#889,#604,#605);
#489=AXIS2_PLACEMENT_3D('',#891,#606,#607);
#490=AXIS2_PLACEMENT_3D('',#892,#608,#609);
#491=AXIS2_PLACEMENT_3D('',#893,#610,#611);
#492=AXIS2_PLACEMENT_3D('',#894,#612,#613);
#493=AXIS2_PLACEMENT_3D('',#896,#614,#615);
#494=AXIS2_PLACEMENT_3D('',#929,#616,#617);
#495=AXIS2_PLACEMENT_3D('',#930,#618,#619);
#496=AXIS2_PLACEMENT_3D('',#932,#620,#621);
#497=AXIS2_PLACEMENT_3D('',#934,#623,#624);
#498=AXIS2_PLACEMENT_3D('',#938,#627,#628);
#499=AXIS2_PLACEMENT_3D('',#939,#629,#630);
#500=AXIS2_PLACEMENT_3D('',#940,#631,#632);
#501=AXIS2_PLACEMENT_3D('',#941,#633,#634);
#502=AXIS2_PLACEMENT_3D('',#942,#635,#636);
#503=AXIS2_PLACEMENT_3D('',#943,#637,#638);
#504=DIRECTION('axis',(0.,0.,1.));
#505=DIRECTION('refdir',(1.,0.,0.));
#506=DIRECTION('center_axis',(0.,0.,1.));
#507=DIRECTION('ref_axis',(1.,0.,0.));
#508=DIRECTION('center_axis',(0.,0.,1.));
#509=DIRECTION('ref_axis',(1.,0.,0.));
#510=DIRECTION('center_axis',(1.22464679914735E-16,-1.,0.));
#511=DIRECTION('ref_axis',(-1.,-1.22464679914735E-16,0.));
#512=DIRECTION('center_axis',(0.,0.,-1.));
#513=DIRECTION('ref_axis',(1.,-6.12323399573677E-17,0.));
#514=DIRECTION('center_axis',(0.,0.,1.));
#515=DIRECTION('ref_axis',(1.,0.,0.));
#516=DIRECTION('',(-0.707106781186547,8.65956056235493E-17,0.707106781186547));
#517=DIRECTION('center_axis',(0.,0.,-1.));
#518=DIRECTION('ref_axis',(-1.,0.,0.));
#519=DIRECTION('center_axis',(0.,0.,-1.));
#520=DIRECTION('ref_axis',(-1.,0.,0.));
#521=DIRECTION('center_axis',(0.,0.,1.));
#522=DIRECTION('ref_axis',(1.,0.,0.));
#523=DIRECTION('',(0.,0.,-1.));
#524=DIRECTION('center_axis',(0.,0.,-1.));
#525=DIRECTION('ref_axis',(1.,0.,0.));
#526=DIRECTION('center_axis',(0.,0.,-1.));
#527=DIRECTION('ref_axis',(-1.,0.,0.));
#528=DIRECTION('center_axis',(0.,0.,-1.));
#529=DIRECTION('ref_axis',(-1.,0.,0.));
#530=DIRECTION('',(0.,0.,-1.));
#531=DIRECTION('center_axis',(0.,0.,1.));
#532=DIRECTION('ref_axis',(-1.,0.,0.));
#533=DIRECTION('center_axis',(0.,0.,1.));
#534=DIRECTION('ref_axis',(-1.,0.,0.));
#535=DIRECTION('center_axis',(0.,0.,-1.));
#536=DIRECTION('ref_axis',(1.,0.,0.));
#537=DIRECTION('center_axis',(0.,0.,-1.));
#538=DIRECTION('ref_axis',(1.,0.,0.));
#539=DIRECTION('',(0.707106781186548,-8.65956056235493E-17,0.707106781186548));
#540=DIRECTION('center_axis',(0.,0.,1.));
#541=DIRECTION('ref_axis',(1.,0.,0.));
#542=DIRECTION('',(0.,0.,-1.));
#543=DIRECTION('center_axis',(0.,0.,-1.));
#544=DIRECTION('ref_axis',(1.,0.,0.));
#545=DIRECTION('center_axis',(0.,0.,-1.));
#546=DIRECTION('ref_axis',(-1.,0.,0.));
#547=DIRECTION('',(0.,0.,1.));
#548=DIRECTION('center_axis',(0.,0.,1.));
#549=DIRECTION('ref_axis',(-1.,0.,0.));
#550=DIRECTION('center_axis',(0.,0.,1.));
#551=DIRECTION('ref_axis',(1.,0.,0.));
#552=DIRECTION('center_axis',(0.,0.,1.));
#553=DIRECTION('ref_axis',(1.,0.,0.));
#554=DIRECTION('',(0.,0.,1.));
#555=DIRECTION('center_axis',(0.,0.,1.));
#556=DIRECTION('ref_axis',(1.,0.,0.));
#557=DIRECTION('center_axis',(0.,0.,1.));
#558=DIRECTION('ref_axis',(1.,0.,0.));
#559=DIRECTION('center_axis',(0.,0.,1.));
#560=DIRECTION('ref_axis',(1.,0.,0.));
#561=DIRECTION('center_axis',(0.,0.,1.));
#562=DIRECTION('ref_axis',(1.,0.,0.));
#563=DIRECTION('',(0.,0.,1.));
#564=DIRECTION('center_axis',(0.,0.,1.));
#565=DIRECTION('ref_axis',(1.,0.,0.));
#566=DIRECTION('center_axis',(0.,0.,1.));
#567=DIRECTION('ref_axis',(1.,0.,0.));
#568=DIRECTION('center_axis',(0.,0.,1.));
#569=DIRECTION('ref_axis',(1.,0.,0.));
#570=DIRECTION('center_axis',(0.,0.,1.));
#571=DIRECTION('ref_axis',(1.,0.,0.));
#572=DIRECTION('',(0.,0.,1.));
#573=DIRECTION('center_axis',(0.,0.,1.));
#574=DIRECTION('ref_axis',(1.,0.,0.));
#575=DIRECTION('center_axis',(0.,0.,1.));
#576=DIRECTION('ref_axis',(1.,0.,0.));
#577=DIRECTION('center_axis',(0.,0.,1.));
#578=DIRECTION('ref_axis',(1.,0.,0.));
#579=DIRECTION('center_axis',(0.,0.,1.));
#580=DIRECTION('ref_axis',(1.,0.,0.));
#581=DIRECTION('',(0.,0.,1.));
#582=DIRECTION('center_axis',(0.,0.,1.));
#583=DIRECTION('ref_axis',(1.,0.,0.));
#584=DIRECTION('center_axis',(0.,0.,1.));
#585=DIRECTION('ref_axis',(1.,0.,0.));
#586=DIRECTION('',(0.,0.,1.));
#587=DIRECTION('center_axis',(0.,0.,1.));
#588=DIRECTION('ref_axis',(1.,0.,0.));
#589=DIRECTION('center_axis',(0.,0.,1.));
#590=DIRECTION('ref_axis',(1.,0.,0.));
#591=DIRECTION('',(0.,0.,1.));
#592=DIRECTION('center_axis',(0.,0.,-1.));
#593=DIRECTION('ref_axis',(0.0219487097196069,0.999759098053948,0.));
#594=DIRECTION('center_axis',(0.,0.,-1.));
#595=DIRECTION('ref_axis',(0.0219487097196069,0.999759098053948,0.));
#596=DIRECTION('',(0.,0.,1.));
#597=DIRECTION('',(0.,0.,1.));
#598=DIRECTION('center_axis',(0.,0.,-1.));
#599=DIRECTION('ref_axis',(0.999759098053948,-0.0219487097196074,0.));
#600=DIRECTION('center_axis',(0.,0.,-1.));
#601=DIRECTION('ref_axis',(0.999759098053948,-0.0219487097196074,0.));
#602=DIRECTION('',(0.,0.,1.));
#603=DIRECTION('',(0.,0.,1.));
#604=DIRECTION('center_axis',(0.,0.,1.));
#605=DIRECTION('ref_axis',(1.,0.,0.));
#606=DIRECTION('center_axis',(0.,0.,1.));
#607=DIRECTION('ref_axis',(1.,0.,0.));
#608=DIRECTION('center_axis',(1.22464679914735E-16,-1.,0.));
#609=DIRECTION('ref_axis',(-1.,-1.22464679914735E-16,0.));
#610=DIRECTION('center_axis',(1.22464679914735E-16,-1.,0.));
#611=DIRECTION('ref_axis',(-1.,-1.22464679914735E-16,0.));
#612=DIRECTION('center_axis',(0.,0.,1.));
#613=DIRECTION('ref_axis',(1.,0.,0.));
#614=DIRECTION('center_axis',(0.,0.,1.));
#615=DIRECTION('ref_axis',(1.,0.,0.));
#616=DIRECTION('center_axis',(0.,0.,1.));
#617=DIRECTION('ref_axis',(1.,0.,0.));
#618=DIRECTION('center_axis',(0.,0.,1.));
#619=DIRECTION('ref_axis',(1.,0.,0.));
#620=DIRECTION('center_axis',(0.,0.,1.));
#621=DIRECTION('ref_axis',(1.,0.,0.));
#622=DIRECTION('',(0.,0.,1.));
#623=DIRECTION('center_axis',(1.,-7.3973783171507E-17,0.));
#624=DIRECTION('ref_axis',(7.3973783171507E-17,1.,0.));
#625=DIRECTION('',(-7.3973783171507E-17,-1.,0.));
#626=DIRECTION('',(0.,0.,1.));
#627=DIRECTION('center_axis',(0.,0.,1.));
#628=DIRECTION('ref_axis',(1.,0.,0.));
#629=DIRECTION('center_axis',(0.,0.,1.));
#630=DIRECTION('ref_axis',(1.,0.,0.));
#631=DIRECTION('center_axis',(0.,0.,1.));
#632=DIRECTION('ref_axis',(-1.,1.22464679914735E-16,0.));
#633=DIRECTION('center_axis',(0.,0.,1.));
#634=DIRECTION('ref_axis',(1.,0.,0.));
#635=DIRECTION('center_axis',(0.,0.,1.));
#636=DIRECTION('ref_axis',(1.,0.,0.));
#637=DIRECTION('center_axis',(0.,0.,1.));
#638=DIRECTION('ref_axis',(1.,0.,0.));
#639=CARTESIAN_POINT('',(0.,0.,0.));
#640=CARTESIAN_POINT('Origin',(0.,0.,37.4436508138959));
#641=CARTESIAN_POINT('',(-15.,-1.83697019872103E-15,37.4436508138959));
#642=CARTESIAN_POINT('Origin',(0.,0.,37.4436508138959));
#643=CARTESIAN_POINT('',(-18.221825406948,4.46306003184815E-15,45.221825406948));
#644=CARTESIAN_POINT('Origin',(-26.,-3.18408167778312E-15,37.4436508138959));
#645=CARTESIAN_POINT('Origin',(0.,1.11576500796204E-15,45.221825406948));
#646=CARTESIAN_POINT('Origin',(0.,0.,44.5));
#647=CARTESIAN_POINT('',(-20.,2.44929359829471E-15,47.));
#648=CARTESIAN_POINT('',(-17.5,2.14313189850787E-15,44.5));
#649=CARTESIAN_POINT('',(20.,2.44929359829471E-15,47.));
#650=CARTESIAN_POINT('Origin',(0.,0.,47.));
#651=CARTESIAN_POINT('Origin',(0.,0.,47.));
#652=CARTESIAN_POINT('Origin',(0.,0.,0.));
#653=CARTESIAN_POINT('',(-15.,1.83697019872103E-15,28.));
#654=CARTESIAN_POINT('',(-15.,-1.83697019872103E-15,0.));
#655=CARTESIAN_POINT('Origin',(0.,0.,28.));
#656=CARTESIAN_POINT('Origin',(0.,0.,52.));
#657=CARTESIAN_POINT('',(2.5,3.06161699786838E-16,52.));
#658=CARTESIAN_POINT('Origin',(0.,0.,52.));
#659=CARTESIAN_POINT('',(2.5,3.06161699786838E-16,46.5));
#660=CARTESIAN_POINT('',(2.5,-3.06161699786838E-16,52.));
#661=CARTESIAN_POINT('',(-2.5,3.06161699786838E-16,46.5));
#662=CARTESIAN_POINT('Origin',(0.,0.,46.5));
#663=CARTESIAN_POINT('Origin',(0.,0.,46.5));
#664=CARTESIAN_POINT('Origin',(0.,0.,42.));
#665=CARTESIAN_POINT('',(-12.,1.46957615897682E-15,37.));
#666=CARTESIAN_POINT('Origin',(0.,0.,37.));
#667=CARTESIAN_POINT('',(-7.,8.57252759403147E-16,42.));
#668=CARTESIAN_POINT('Origin',(0.,0.,0.));
#669=CARTESIAN_POINT('',(-12.,-1.46957615897682E-15,0.));
#670=CARTESIAN_POINT('',(-12.,-1.46957615897682E-15,0.));
#671=CARTESIAN_POINT('Origin',(0.,0.,0.));
#672=CARTESIAN_POINT('Origin',(0.,0.,52.));
#673=CARTESIAN_POINT('',(20.,2.44929359829471E-15,52.));
#674=CARTESIAN_POINT('',(20.,-2.44929359829471E-15,52.));
#675=CARTESIAN_POINT('Origin',(0.,0.,52.));
#676=CARTESIAN_POINT('Origin',(0.,27.,5.));
#677=CARTESIAN_POINT('',(-6.,27.,5.));
#678=CARTESIAN_POINT('Origin',(0.,27.,5.));
#679=CARTESIAN_POINT('',(-6.,26.9999999959666,9.39612040686452));
#680=CARTESIAN_POINT('',(-6.,27.,5.));
#681=CARTESIAN_POINT('',(1.38777878078145E-15,21.,13.7171431429143));
#682=CARTESIAN_POINT('Ctrl Pts',(1.31838984174237E-15,21.,13.7171431429143));
#683=CARTESIAN_POINT('Ctrl Pts',(-0.329811202654922,21.,13.7171431429143));
#684=CARTESIAN_POINT('Ctrl Pts',(-0.654573525617299,21.027056291646,13.6827475757276));
#685=CARTESIAN_POINT('Ctrl Pts',(-1.61700177496008,21.1853220318583,13.4870627249625));
#686=CARTESIAN_POINT('Ctrl Pts',(-2.21161526129258,21.3907321582392,13.2376579413289));
#687=CARTESIAN_POINT('Ctrl Pts',(-3.33792744387991,21.9693378917736,12.6121412279401));
#688=CARTESIAN_POINT('Ctrl Pts',(-3.89328316623346,22.380979223295,12.2016553922851));
#689=CARTESIAN_POINT('Ctrl Pts',(-4.88171351220697,23.4336064896954,11.3228769036267));
#690=CARTESIAN_POINT('Ctrl Pts',(-5.29379910542011,24.0735738346968,10.8654934181542));
#691=CARTESIAN_POINT('Ctrl Pts',(-5.84792000638945,25.4696202931425,10.0543885050794));
#692=CARTESIAN_POINT('Ctrl Pts',(-5.9991343689077,26.2150925898615,9.69885905253727));
#693=CARTESIAN_POINT('Ctrl Pts',(-5.99999877329515,26.9955697919895,9.39782753489824));
#694=CARTESIAN_POINT('Ctrl Pts',(-5.99999999999702,26.9977848546078,9.39697371737596));
#695=CARTESIAN_POINT('Ctrl Pts',(-6.,26.9999999919331,9.39612040686452));
#696=CARTESIAN_POINT('Ctrl Pts',(-6.,26.9999999919331,9.39612040686452));
#697=CARTESIAN_POINT('Ctrl Pts',(-6.00000000096504,27.7177753049781,9.11962052016046));
#698=CARTESIAN_POINT('Ctrl Pts',(-5.87152166592656,28.4436767470282,8.89708750930036));
#699=CARTESIAN_POINT('Ctrl Pts',(-5.34310006386644,29.826275113637,8.54970130645213));
#700=CARTESIAN_POINT('Ctrl Pts',(-4.95592070955632,30.4635681185621,8.42741669218183));
#701=CARTESIAN_POINT('Ctrl Pts',(-3.9537973774765,31.5748977600205,8.24899971435276));
#702=CARTESIAN_POINT('Ctrl Pts',(-3.3496621830646,32.0347786631268,8.19471040078521));
#703=CARTESIAN_POINT('Ctrl Pts',(-1.98512166999662,32.714189550042,8.12301781801211));
#704=CARTESIAN_POINT('Ctrl Pts',(-1.23541423281906,32.9218382918829,8.10672379410502));
#705=CARTESIAN_POINT('Ctrl Pts',(0.322963572423869,33.0434398471393,8.09664474996977));
#706=CARTESIAN_POINT('Ctrl Pts',(1.11738452772107,32.9479752101263,8.10346072671063));
#707=CARTESIAN_POINT('Ctrl Pts',(2.61850761339176,32.455670019523,8.14931040326078));
#708=CARTESIAN_POINT('Ctrl Pts',(3.31054713178549,32.065229556145,8.18800604773828));
#709=CARTESIAN_POINT('Ctrl Pts',(4.4985831499124,31.0461648293667,8.3284983606975));
#710=CARTESIAN_POINT('Ctrl Pts',(4.98204992747408,30.4308772753917,8.4289107726356));
#711=CARTESIAN_POINT('Ctrl Pts',(5.6934955596048,29.0493569701856,8.73260296103437));
#712=CARTESIAN_POINT('Ctrl Pts',(5.90571394042839,28.3022660333988,8.93396384378751));
#713=CARTESIAN_POINT('Ctrl Pts',(6.05060832818075,26.7231363806183,9.48182927847438));
#714=CARTESIAN_POINT('Ctrl Pts',(5.95334622655114,25.919289516017,9.83110042795021));
#715=CARTESIAN_POINT('Ctrl Pts',(5.47684124549435,24.426831346003,10.6379979032475));
#716=CARTESIAN_POINT('Ctrl Pts',(5.09914525202177,23.7494525229376,11.091332083423));
#717=CARTESIAN_POINT('Ctrl Pts',(4.15935440155835,22.6163244670254,11.9867286365267));
#718=CARTESIAN_POINT('Ctrl Pts',(3.61939078975427,22.1672353507694,12.4143171993478));
#719=CARTESIAN_POINT('Ctrl Pts',(2.5616925274383,21.5463917891902,13.0618760267734));
#720=CARTESIAN_POINT('Ctrl Pts',(2.02733934569008,21.3212877059278,13.3244137792181));
#721=CARTESIAN_POINT('Ctrl Pts',(0.982359427925089,21.0616540113689,13.6380951371696));
#722=CARTESIAN_POINT('Ctrl Pts',(0.498942857980179,21.,13.7171431429143));
#723=CARTESIAN_POINT('Ctrl Pts',(1.38777878078145E-15,21.,13.7171431429143));
#724=CARTESIAN_POINT('Origin',(0.,27.,5.));
#725=CARTESIAN_POINT('',(-3.2,27.,5.));
#726=CARTESIAN_POINT('Origin',(0.,27.,5.));
#727=CARTESIAN_POINT('Origin',(-27.,0.,5.));
#728=CARTESIAN_POINT('',(-33.,-7.34788079488412E-16,5.));
#729=CARTESIAN_POINT('Origin',(-27.,0.,5.));
#730=CARTESIAN_POINT('',(-33.,-7.14338734939567E-16,8.1002512578676));
#731=CARTESIAN_POINT('',(-33.,-7.34788079488412E-16,5.));
#732=CARTESIAN_POINT('',(-21.,-2.84494650060196E-15,13.7171431429143));
#733=CARTESIAN_POINT('Ctrl Pts',(-21.,-2.4980018054066E-15,13.7171431429143));
#734=CARTESIAN_POINT('Ctrl Pts',(-21.,-0.329811202654925,13.7171431429143));
#735=CARTESIAN_POINT('Ctrl Pts',(-21.027056291646,-0.654573525617299,13.6827475757276));
#736=CARTESIAN_POINT('Ctrl Pts',(-21.1853220318583,-1.61700177496008,13.4870627249625));
#737=CARTESIAN_POINT('Ctrl Pts',(-21.3907321582392,-2.21161526129261,13.2376579413289));
#738=CARTESIAN_POINT('Ctrl Pts',(-21.9693378917737,-3.33792744388007,12.6121412279401));
#739=CARTESIAN_POINT('Ctrl Pts',(-22.3809792232951,-3.89328316623359,12.201655392285));
#740=CARTESIAN_POINT('Ctrl Pts',(-23.4336064896954,-4.88171351220695,11.3228769036267));
#741=CARTESIAN_POINT('Ctrl Pts',(-24.0735738346967,-5.2937991054201,10.8654934181543));
#742=CARTESIAN_POINT('Ctrl Pts',(-25.4696202931425,-5.84792000638943,10.0543885050795));
#743=CARTESIAN_POINT('Ctrl Pts',(-26.2150925898615,-5.9991343689077,9.69885905253727));
#744=CARTESIAN_POINT('Ctrl Pts',(-27.7132963675906,-6.00079367928245,9.12099905135772));
#745=CARTESIAN_POINT('Ctrl Pts',(-28.4415214853695,-5.87234539525106,8.89762903182914));
#746=CARTESIAN_POINT('Ctrl Pts',(-29.826275113637,-5.34310006386646,8.54970130645214));
#747=CARTESIAN_POINT('Ctrl Pts',(-30.4635681185621,-4.95592070955636,8.42741669218183));
#748=CARTESIAN_POINT('Ctrl Pts',(-31.5748977600206,-3.9537973774765,8.24899971435276));
#749=CARTESIAN_POINT('Ctrl Pts',(-32.0347786631268,-3.34966218306455,8.19471040078521));
#750=CARTESIAN_POINT('Ctrl Pts',(-32.7141895500419,-1.98512166999666,8.12301781801211));
#751=CARTESIAN_POINT('Ctrl Pts',(-32.9218382918829,-1.23541423281911,8.10672379410502));
#752=CARTESIAN_POINT('Ctrl Pts',(-32.9939523616727,-0.311240478880367,8.10074656058485));
#753=CARTESIAN_POINT('Ctrl Pts',(-33.,-0.155532726554368,8.1002512578676));
#754=CARTESIAN_POINT('Ctrl Pts',(-33.,-3.12250225675825E-16,8.1002512578676));
#755=CARTESIAN_POINT('Ctrl Pts',(-33.,0.,8.1002512578676));
#756=CARTESIAN_POINT('Ctrl Pts',(-33.,0.634232331494345,8.1002512578676));
#757=CARTESIAN_POINT('Ctrl Pts',(-32.8993817266054,1.26555440550965,8.10798636557124));
#758=CARTESIAN_POINT('Ctrl Pts',(-32.455670019523,2.61850761339178,8.14931040326077));
#759=CARTESIAN_POINT('Ctrl Pts',(-32.065229556145,3.31054713178549,8.18800604773828));
#760=CARTESIAN_POINT('Ctrl Pts',(-31.0461648293667,4.49858314991237,8.32849836069749));
#761=CARTESIAN_POINT('Ctrl Pts',(-30.4308772753917,4.98204992747407,8.42891077263559));
#762=CARTESIAN_POINT('Ctrl Pts',(-29.0493569701856,5.69349555960477,8.73260296103435));
#763=CARTESIAN_POINT('Ctrl Pts',(-28.3022660333988,5.90571394042839,8.93396384378748));
#764=CARTESIAN_POINT('Ctrl Pts',(-26.7231363806183,6.05060832818075,9.48182927847437));
#765=CARTESIAN_POINT('Ctrl Pts',(-25.919289516017,5.95334622655114,9.8311004279502));
#766=CARTESIAN_POINT('Ctrl Pts',(-24.4268313460031,5.47684124549437,10.6379979032475));
#767=CARTESIAN_POINT('Ctrl Pts',(-23.7494525229376,5.09914525202183,11.0913320834229));
#768=CARTESIAN_POINT('Ctrl Pts',(-22.6163244670249,4.15935440155792,11.9867286365271));
#769=CARTESIAN_POINT('Ctrl Pts',(-22.1672353507691,3.61939078975371,12.4143171993481));
#770=CARTESIAN_POINT('Ctrl Pts',(-21.5463917891902,2.56169252743836,13.0618760267734));
#771=CARTESIAN_POINT('Ctrl Pts',(-21.3212877059278,2.02733934569013,13.3244137792181));
#772=CARTESIAN_POINT('Ctrl Pts',(-21.0616540113689,0.982359427925162,13.6380951371695));
#773=CARTESIAN_POINT('Ctrl Pts',(-21.,0.498942857980229,13.7171431429143));
#774=CARTESIAN_POINT('Ctrl Pts',(-21.,-2.08166817117217E-15,13.7171431429143));
#775=CARTESIAN_POINT('Origin',(-27.,0.,5.));
#776=CARTESIAN_POINT('',(-30.2,-3.91886975727153E-16,5.));
#777=CARTESIAN_POINT('Origin',(-27.,0.,5.));
#778=CARTESIAN_POINT('Origin',(0.,-27.,5.));
#779=CARTESIAN_POINT('',(-6.,-27.,5.));
#780=CARTESIAN_POINT('Origin',(0.,-27.,5.));
#781=CARTESIAN_POINT('',(-6.,-27.0000000000289,9.39612040373472));
#782=CARTESIAN_POINT('',(-6.,-27.,5.));
#783=CARTESIAN_POINT('',(1.11022302462516E-15,-21.,13.7171431429143));
#784=CARTESIAN_POINT('Ctrl Pts',(1.2490009027033E-15,-21.,13.7171431429143));
#785=CARTESIAN_POINT('Ctrl Pts',(0.329811202654897,-21.,13.7171431429143));
#786=CARTESIAN_POINT('Ctrl Pts',(0.654573525617241,-21.027056291646,13.6827475757276));
#787=CARTESIAN_POINT('Ctrl Pts',(1.61700177496013,-21.1853220318583,13.4870627249625));
#788=CARTESIAN_POINT('Ctrl Pts',(2.21161526129264,-21.3907321582392,13.2376579413289));
#789=CARTESIAN_POINT('Ctrl Pts',(3.33792744387951,-21.9693378917734,12.6121412279404));
#790=CARTESIAN_POINT('Ctrl Pts',(3.89328316623314,-22.3809792232946,12.2016553922855));
#791=CARTESIAN_POINT('Ctrl Pts',(4.88171351220703,-23.4336064896954,11.3228769036266));
#792=CARTESIAN_POINT('Ctrl Pts',(5.29379910542014,-24.0735738346968,10.8654934181542));
#793=CARTESIAN_POINT('Ctrl Pts',(5.84792000638947,-25.4696202931426,10.0543885050794));
#794=CARTESIAN_POINT('Ctrl Pts',(5.9991343689077,-26.2150925898615,9.69885905253726));
#795=CARTESIAN_POINT('Ctrl Pts',(6.00079367928246,-27.7132963675907,9.12099905135769));
#796=CARTESIAN_POINT('Ctrl Pts',(5.87234539525103,-28.4415214853695,8.89762903182912));
#797=CARTESIAN_POINT('Ctrl Pts',(5.34310006386644,-29.826275113637,8.54970130645213));
#798=CARTESIAN_POINT('Ctrl Pts',(4.95592070955632,-30.4635681185621,8.42741669218183));
#799=CARTESIAN_POINT('Ctrl Pts',(3.95379737747646,-31.5748977600206,8.24899971435275));
#800=CARTESIAN_POINT('Ctrl Pts',(3.3496621830645,-32.0347786631269,8.19471040078521));
#801=CARTESIAN_POINT('Ctrl Pts',(1.98512166999655,-32.714189550042,8.12301781801211));
#802=CARTESIAN_POINT('Ctrl Pts',(1.23541423281895,-32.9218382918829,8.10672379410502));
#803=CARTESIAN_POINT('Ctrl Pts',(-0.322963572423779,-33.0434398471393,8.09664474996978));
#804=CARTESIAN_POINT('Ctrl Pts',(-1.11738452772106,-32.9479752101263,8.10346072671063));
#805=CARTESIAN_POINT('Ctrl Pts',(-2.61850761339185,-32.455670019523,8.14931040326078));
#806=CARTESIAN_POINT('Ctrl Pts',(-3.31054713178556,-32.0652295561449,8.18800604773829));
#807=CARTESIAN_POINT('Ctrl Pts',(-4.49858314991246,-31.0461648293666,8.32849836069751));
#808=CARTESIAN_POINT('Ctrl Pts',(-4.98204992747412,-30.4308772753916,8.42891077263562));
#809=CARTESIAN_POINT('Ctrl Pts',(-5.69349555960482,-29.0493569701855,8.73260296103438));
#810=CARTESIAN_POINT('Ctrl Pts',(-5.9057139404284,-28.3022660333987,8.93396384378753));
#811=CARTESIAN_POINT('Ctrl Pts',(-5.99177678863401,-27.3643111704643,9.25937920648015));
#812=CARTESIAN_POINT('Ctrl Pts',(-5.99999999999825,-27.1814138312306,9.32623655181455));
#813=CARTESIAN_POINT('Ctrl Pts',(-6.,-27.0000000000579,9.39612040373471));
#814=CARTESIAN_POINT('Ctrl Pts',(-6.,-27.0000000000579,9.39612040373472));
#815=CARTESIAN_POINT('Ctrl Pts',(-6.0000000000061,-26.3675654271597,9.63974551079469));
#816=CARTESIAN_POINT('Ctrl Pts',(-5.90038310448085,-25.7534040638483,9.92078639385051));
#817=CARTESIAN_POINT('Ctrl Pts',(-5.47684124549433,-24.426831346003,10.6379979032476));
#818=CARTESIAN_POINT('Ctrl Pts',(-5.09914525202175,-23.7494525229375,11.091332083423));
#819=CARTESIAN_POINT('Ctrl Pts',(-4.15935440155817,-22.6163244670251,11.9867286365269));
#820=CARTESIAN_POINT('Ctrl Pts',(-3.61939078975404,-22.1672353507693,12.414317199348));
#821=CARTESIAN_POINT('Ctrl Pts',(-2.56169252743826,-21.5463917891901,13.0618760267735));
#822=CARTESIAN_POINT('Ctrl Pts',(-2.02733934569005,-21.3212877059278,13.3244137792182));
#823=CARTESIAN_POINT('Ctrl Pts',(-0.982359427925075,-21.0616540113689,13.6380951371696));
#824=CARTESIAN_POINT('Ctrl Pts',(-0.498942857980161,-21.,13.7171431429143));
#825=CARTESIAN_POINT('Ctrl Pts',(1.38777878078145E-15,-21.,13.7171431429143));
#826=CARTESIAN_POINT('Origin',(0.,-27.,5.));
#827=CARTESIAN_POINT('',(-3.2,-27.,5.));
#828=CARTESIAN_POINT('Origin',(0.,-27.,5.));
#829=CARTESIAN_POINT('Origin',(0.,27.,0.));
#830=CARTESIAN_POINT('',(-3.2,27.,0.));
#831=CARTESIAN_POINT('Origin',(0.,27.,0.));
#832=CARTESIAN_POINT('',(-3.2,27.,0.));
#833=CARTESIAN_POINT('Origin',(-27.,0.,0.));
#834=CARTESIAN_POINT('',(-30.2,-3.91886975727153E-16,0.));
#835=CARTESIAN_POINT('Origin',(-27.,0.,0.));
#836=CARTESIAN_POINT('',(-30.2,-3.91886975727153E-16,0.));
#837=CARTESIAN_POINT('Origin',(0.,-27.,0.));
#838=CARTESIAN_POINT('',(-3.2,-27.,0.));
#839=CARTESIAN_POINT('Origin',(0.,-27.,0.));
#840=CARTESIAN_POINT('',(-3.2,-27.,0.));
#841=CARTESIAN_POINT('Origin',(-31.9959046669171,-31.9959046669171,0.));
#842=CARTESIAN_POINT('',(-15.,-31.6227766016838,0.));
#843=CARTESIAN_POINT('',(-31.6227766016838,-15.,0.));
#844=CARTESIAN_POINT('Origin',(-31.9959046669171,-31.9959046669171,0.));
#845=CARTESIAN_POINT('',(-15.,-31.6227766016838,8.));
#846=CARTESIAN_POINT('',(-15.,-31.6227766016838,0.));
#847=CARTESIAN_POINT('',(-31.6227766016838,-15.,8.));
#848=CARTESIAN_POINT('Ctrl Pts',(-15.,-31.6227766016838,8.));
#849=CARTESIAN_POINT('Ctrl Pts',(-15.0248132023193,-30.4925404699236,8.));
#850=CARTESIAN_POINT('Ctrl Pts',(-15.1618832227219,-29.3733850283112,8.07726068643898));
#851=CARTESIAN_POINT('Ctrl Pts',(-15.7283074408361,-26.8466596216578,8.35240977771391));
#852=CARTESIAN_POINT('Ctrl Pts',(-16.2320310261812,-25.4669217810757,8.57863705052132));
#853=CARTESIAN_POINT('Ctrl Pts',(-17.3980068816315,-23.2177002357719,8.91500768186429));
#854=CARTESIAN_POINT('Ctrl Pts',(-17.9836858116939,-22.3089845257518,9.03865290092762));
#855=CARTESIAN_POINT('Ctrl Pts',(-19.2486018356119,-20.7079554552306,9.17011340558974));
#856=CARTESIAN_POINT('Ctrl Pts',(-19.8989087476547,-20.0134853751528,9.18902046805021));
#857=CARTESIAN_POINT('Ctrl Pts',(-21.3621665800632,-18.6936061804088,9.13121045724577));
#858=CARTESIAN_POINT('Ctrl Pts',(-22.1678025426268,-18.0883975961945,9.04937304072373));
#859=CARTESIAN_POINT('Ctrl Pts',(-24.1055618087502,-16.8839304192844,8.79231869880201));
#860=CARTESIAN_POINT('Ctrl Pts',(-25.2598860951008,-16.3357095533432,8.600195752541));
#861=CARTESIAN_POINT('Ctrl Pts',(-28.1140050312675,-15.3530543393957,8.19228308879458));
#862=CARTESIAN_POINT('Ctrl Pts',(-29.8522105745516,-15.0388710038694,8.));
#863=CARTESIAN_POINT('Ctrl Pts',(-31.6227766016838,-15.,8.));
#864=CARTESIAN_POINT('',(-31.6227766016838,-15.,0.));
#865=CARTESIAN_POINT('Origin',(-31.9959046669171,31.9959046669171,0.));
#866=CARTESIAN_POINT('',(-31.6227766016838,15.,0.));
#867=CARTESIAN_POINT('',(-15.,31.6227766016838,0.));
#868=CARTESIAN_POINT('Origin',(-31.9959046669171,31.9959046669171,0.));
#869=CARTESIAN_POINT('',(-31.6227766016838,15.,8.));
#870=CARTESIAN_POINT('',(-31.6227766016838,15.,0.));
#871=CARTESIAN_POINT('',(-15.,31.6227766016838,8.));
#872=CARTESIAN_POINT('Ctrl Pts',(-31.6227766016838,15.,8.));
#873=CARTESIAN_POINT('Ctrl Pts',(-30.4925404699236,15.0248132023193,8.));
#874=CARTESIAN_POINT('Ctrl Pts',(-29.3733850283112,15.1618832227219,8.07726068643898));
#875=CARTESIAN_POINT('Ctrl Pts',(-26.8466596216578,15.7283074408362,8.35240977771391));
#876=CARTESIAN_POINT('Ctrl Pts',(-25.4669217810757,16.2320310261812,8.57863705052133));
#877=CARTESIAN_POINT('Ctrl Pts',(-23.2177002357719,17.3980068816315,8.91500768186429));
#878=CARTESIAN_POINT('Ctrl Pts',(-22.3089845257518,17.9836858116939,9.03865290092763));
#879=CARTESIAN_POINT('Ctrl Pts',(-20.7079554552306,19.2486018356119,9.17011340558974));
#880=CARTESIAN_POINT('Ctrl Pts',(-20.0134853751528,19.8989087476547,9.18902046805021));
#881=CARTESIAN_POINT('Ctrl Pts',(-18.6936061804088,21.3621665800631,9.13121045724577));
#882=CARTESIAN_POINT('Ctrl Pts',(-18.0883975961945,22.1678025426268,9.04937304072375));
#883=CARTESIAN_POINT('Ctrl Pts',(-16.8839304192844,24.1055618087503,8.79231869880201));
#884=CARTESIAN_POINT('Ctrl Pts',(-16.3357095533432,25.2598860951008,8.600195752541));
#885=CARTESIAN_POINT('Ctrl Pts',(-15.3530543393956,28.1140050312676,8.19228308879458));
#886=CARTESIAN_POINT('Ctrl Pts',(-15.0388710038694,29.8522105745516,8.));
#887=CARTESIAN_POINT('Ctrl Pts',(-15.,31.6227766016838,8.));
#888=CARTESIAN_POINT('',(-15.,31.6227766016838,0.));
#889=CARTESIAN_POINT('Origin',(0.,0.,28.));
#890=CARTESIAN_POINT('',(-35.,-4.28626379701574E-15,8.));
#891=CARTESIAN_POINT('Origin',(0.,0.,8.));
#892=CARTESIAN_POINT('Origin',(-35.,-4.28626379701574E-15,28.));
#893=CARTESIAN_POINT('Origin',(-35.,-4.28626379701574E-15,28.));
#894=CARTESIAN_POINT('Origin',(0.,0.,8.));
#895=CARTESIAN_POINT('',(18.,-30.0166620396073,8.));
#896=CARTESIAN_POINT('Origin',(0.,0.,8.));
#897=CARTESIAN_POINT('',(18.,30.0166620396073,8.));
#898=CARTESIAN_POINT('Ctrl Pts',(18.,-30.0166620396073,8.));
#899=CARTESIAN_POINT('Ctrl Pts',(18.,-28.0361604463979,8.));
#900=CARTESIAN_POINT('Ctrl Pts',(18.,-25.8805163099542,8.23175393012742));
#901=CARTESIAN_POINT('Ctrl Pts',(18.,-21.6543967721968,9.13621637549803));
#902=CARTESIAN_POINT('Ctrl Pts',(18.,-19.5830190637405,9.80470369169234));
#903=CARTESIAN_POINT('Ctrl Pts',(18.,-16.688482619836,10.9358086521219));
#904=CARTESIAN_POINT('Ctrl Pts',(18.,-15.5506390187681,11.4267354728979));
#905=CARTESIAN_POINT('Ctrl Pts',(18.,-13.3033131011392,12.4715530704462));
#906=CARTESIAN_POINT('Ctrl Pts',(18.,-12.1929991711441,13.0236541759357));
#907=CARTESIAN_POINT('Ctrl Pts',(18.,-9.48790582479329,14.3861671743772));
#908=CARTESIAN_POINT('Ctrl Pts',(18.,-7.63821963906388,15.3599199418524));
#909=CARTESIAN_POINT('Ctrl Pts',(18.,-4.80061901058599,16.5319188399805));
#910=CARTESIAN_POINT('Ctrl Pts',(18.,-3.84117460846646,16.8699426987721));
#911=CARTESIAN_POINT('Ctrl Pts',(18.,-1.91667283860514,17.3377670407923));
#912=CARTESIAN_POINT('Ctrl Pts',(18.,-0.950833842669675,17.4643462471473));
#913=CARTESIAN_POINT('Ctrl Pts',(18.,-1.33152809708713E-15,17.4643462471473));
#914=CARTESIAN_POINT('Ctrl Pts',(18.,0.950833842669672,17.4643462471473));
#915=CARTESIAN_POINT('Ctrl Pts',(18.,1.91667283860514,17.3377670407923));
#916=CARTESIAN_POINT('Ctrl Pts',(18.,3.84117460846646,16.8699426987721));
#917=CARTESIAN_POINT('Ctrl Pts',(18.,4.80061901058599,16.5319188399805));
#918=CARTESIAN_POINT('Ctrl Pts',(18.,7.63821963906388,15.3599199418524));
#919=CARTESIAN_POINT('Ctrl Pts',(18.,9.48790582479328,14.3861671743772));
#920=CARTESIAN_POINT('Ctrl Pts',(18.,12.1929991711441,13.0236541759357));
#921=CARTESIAN_POINT('Ctrl Pts',(18.,13.3033131011392,12.4715530704462));
#922=CARTESIAN_POINT('Ctrl Pts',(18.,15.5506390187681,11.4267354728979));
#923=CARTESIAN_POINT('Ctrl Pts',(18.,16.688482619836,10.9358086521219));
#924=CARTESIAN_POINT('Ctrl Pts',(18.,19.5830190637405,9.80470369169234));
#925=CARTESIAN_POINT('Ctrl Pts',(18.,21.6543967721968,9.13621637549804));
#926=CARTESIAN_POINT('Ctrl Pts',(18.,25.8805163099542,8.23175393012743));
#927=CARTESIAN_POINT('Ctrl Pts',(18.,28.0361604463979,8.));
#928=CARTESIAN_POINT('Ctrl Pts',(18.,30.0166620396073,8.));
#929=CARTESIAN_POINT('Origin',(0.,0.,8.));
#930=CARTESIAN_POINT('Origin',(0.,0.,0.));
#931=CARTESIAN_POINT('',(18.,30.0166620396073,0.));
#932=CARTESIAN_POINT('Origin',(0.,0.,0.));
#933=CARTESIAN_POINT('',(18.,30.0166620396073,0.));
#934=CARTESIAN_POINT('Origin',(18.,-30.0166620396073,0.));
#935=CARTESIAN_POINT('',(18.,-30.0166620396073,0.));
#936=CARTESIAN_POINT('',(18.,30.0166620396073,0.));
#937=CARTESIAN_POINT('',(18.,-30.0166620396073,0.));
#938=CARTESIAN_POINT('Origin',(0.,0.,0.));
#939=CARTESIAN_POINT('Origin',(0.,0.,0.));
#940=CARTESIAN_POINT('Origin',(0.,0.,0.));
#941=CARTESIAN_POINT('Origin',(0.,0.,0.));
#942=CARTESIAN_POINT('Origin',(0.,0.,52.));
#943=CARTESIAN_POINT('Origin',(0.,0.,0.));
#944=UNCERTAINTY_MEASURE_WITH_UNIT(LENGTH_MEASURE(0.01),#948,
'DISTANCE_ACCURACY_VALUE',
'Maximum model space distance between geometric entities at asserted c
onnectivities');
#945=UNCERTAINTY_MEASURE_WITH_UNIT(LENGTH_MEASURE(0.01),#948,
'DISTANCE_ACCURACY_VALUE',
'Maximum model space distance between geometric entities at asserted c
onnectivities');
#946=(
GEOMETRIC_REPRESENTATION_CONTEXT(3)
GLOBAL_UNCERTAINTY_ASSIGNED_CONTEXT((#944))
GLOBAL_UNIT_ASSIGNED_CONTEXT((#948,#950,#951))
REPRESENTATION_CONTEXT('','3D')
);
#947=(
GEOMETRIC_REPRESENTATION_CONTEXT(3)
GLOBAL_UNCERTAINTY_ASSIGNED_CONTEXT((#945))
GLOBAL_UNIT_ASSIGNED_CONTEXT((#948,#950,#951))
REPRESENTATION_CONTEXT('','3D')
);
#948=(
LENGTH_UNIT()
NAMED_UNIT(*)
SI_UNIT(.MILLI.,.METRE.)
);
#949=(
LENGTH_UNIT()
NAMED_UNIT(*)
SI_UNIT($,.METRE.)
);
#950=(
NAMED_UNIT(*)
PLANE_ANGLE_UNIT()
SI_UNIT($,.RADIAN.)
);
#951=(
NAMED_UNIT(*)
SI_UNIT($,.STERADIAN.)
SOLID_ANGLE_UNIT()
);
#952=SHAPE_DEFINITION_REPRESENTATION(#953,#954);
#953=PRODUCT_DEFINITION_SHAPE('',$,#956);
#954=SHAPE_REPRESENTATION('',(#446),#946);
#955=PRODUCT_DEFINITION_CONTEXT('part definition',#960,'design');
#956=PRODUCT_DEFINITION('52mmStandOff','52mmStandOff v4',#957,#955);
#957=PRODUCT_DEFINITION_FORMATION('',$,#962);
#958=PRODUCT_RELATED_PRODUCT_CATEGORY('52mmStandOff v4',
'52mmStandOff v4',(#962));
#959=APPLICATION_PROTOCOL_DEFINITION('international standard',
'automotive_design',2009,#960);
#960=APPLICATION_CONTEXT(
'Core Data for Automotive Mechanical Design Process');
#961=PRODUCT_CONTEXT('part definition',#960,'mechanical');
#962=PRODUCT('52mmStandOff','52mmStandOff v4',$,(#961));
#963=PRESENTATION_STYLE_ASSIGNMENT((#964));
#964=SURFACE_STYLE_USAGE(.BOTH.,#965);
#965=SURFACE_SIDE_STYLE('',(#966));
#966=SURFACE_STYLE_FILL_AREA(#967);
#967=FILL_AREA_STYLE('Steel - Satin',(#968));
#968=FILL_AREA_STYLE_COLOUR('Steel - Satin',#969);
#969=COLOUR_RGB('Steel - Satin',0.627450980392157,0.627450980392157,0.627450980392157);
ENDSEC;
END-ISO-10303-21;
