ISO-10303-21;
HEADER;
/* Generated by software containing ST-Developer
 * from STEP Tools, Inc. (www.steptools.com) 
 */

FILE_DESCRIPTION(
/* description */ (''),
/* implementation_level */ '2;1');

FILE_NAME(
/* name */ '60mm Pillar.step',
/* time_stamp */ '2026-07-05T09:01:04+01:00',
/* author */ (''),
/* organization */ (''),
/* preprocessor_version */ 'ST-DEVELOPER v20.1',
/* originating_system */ 'Autodesk Translation Framework v15.8.0.0',
/* authorisation */ '');

FILE_SCHEMA (('AUTOMOTIVE_DESIGN { 1 0 10303 214 3 1 1 }'));
ENDSEC;

DATA;
#10=MECHANICAL_DESIGN_GEOMETRIC_PRESENTATION_REPRESENTATION('',(#13),#1726);
#11=SHAPE_REPRESENTATION_RELATIONSHIP('SRR','None',#1733,#12);
#12=ADVANCED_BREP_SHAPE_REPRESENTATION('',(#14),#1725);
#13=STYLED_ITEM('',(#1742),#14);
#14=MANIFOLD_SOLID_BREP('Body2',#838);
#15=CONICAL_SURFACE('',#892,16.2476695296637,0.785398163397448);
#16=CONICAL_SURFACE('',#894,16.2476695296637,0.785398163397448);
#17=CONICAL_SURFACE('',#896,16.2476695296637,0.785398163397448);
#18=CONICAL_SURFACE('',#899,16.2476695296637,0.785398163397448);
#19=CONICAL_SURFACE('',#951,16.2476695296637,0.785398163397448);
#20=CONICAL_SURFACE('',#953,16.2476695296637,0.785398163397448);
#21=CONICAL_SURFACE('',#955,16.2476695296637,0.785398163397448);
#22=CONICAL_SURFACE('',#958,16.2476695296637,0.785398163397448);
#23=B_SPLINE_CURVE_WITH_KNOTS('',3,(#1276,#1277,#1278,#1279,#1280,#1281,
#1282,#1283,#1284,#1285,#1286,#1287,#1288,#1289),.UNSPECIFIED.,.F.,.F.,
(4,2,2,2,2,2,4),(0.865204404131531,1.03529801901935,1.20539163390716,1.46790022108511,
1.73040880826306,2.0982359727848,2.3201159204518),.UNSPECIFIED.);
#24=B_SPLINE_CURVE_WITH_KNOTS('',3,(#1292,#1293,#1294,#1295,#1296,#1297,
#1298,#1299,#1300,#1301,#1302,#1303,#1304,#1305,#1306),.UNSPECIFIED.,.F.,
 .F.,(4,2,3,2,2,2,4),(-0.589707112188736,-0.367827164521735,0.,0.262508587177949,
0.525017174355898,0.695110789243714,0.865204404131531),.UNSPECIFIED.);
#25=B_SPLINE_CURVE_WITH_KNOTS('',3,(#1310,#1311,#1312,#1313,#1314,#1315,
#1316,#1317,#1318,#1319,#1320,#1321,#1322,#1323),.UNSPECIFIED.,.F.,.F.,
(4,2,2,2,2,2,4),(0.865204404131532,1.03529801901935,1.20539163390717,1.46790022108511,
1.73040880826306,2.0982359727848,2.3201159204518),.UNSPECIFIED.);
#26=B_SPLINE_CURVE_WITH_KNOTS('',3,(#1326,#1327,#1328,#1329,#1330,#1331,
#1332,#1333,#1334,#1335,#1336,#1337,#1338,#1339,#1340),.UNSPECIFIED.,.F.,
 .F.,(4,2,3,2,2,2,4),(-0.589707112188737,-0.367827164521736,0.,0.262508587177949,
0.525017174355898,0.695110789243715,0.865204404131532),.UNSPECIFIED.);
#27=B_SPLINE_CURVE_WITH_KNOTS('',3,(#1344,#1345,#1346,#1347,#1348,#1349,
#1350,#1351,#1352,#1353,#1354,#1355,#1356,#1357),.UNSPECIFIED.,.F.,.F.,
(4,2,2,2,2,2,4),(0.865204404131531,1.03529801901935,1.20539163390717,1.46790022108511,
1.73040880826306,2.0982359727848,2.3201159204518),.UNSPECIFIED.);
#28=B_SPLINE_CURVE_WITH_KNOTS('',3,(#1360,#1361,#1362,#1363,#1364,#1365,
#1366,#1367,#1368,#1369,#1370,#1371,#1372,#1373,#1374),.UNSPECIFIED.,.F.,
 .F.,(4,2,3,2,2,2,4),(-0.589707112188738,-0.367827164521735,0.,0.262508587177949,
0.525017174355897,0.695110789243714,0.865204404131531),.UNSPECIFIED.);
#29=B_SPLINE_CURVE_WITH_KNOTS('',3,(#1378,#1379,#1380,#1381,#1382,#1383,
#1384,#1385,#1386,#1387,#1388,#1389,#1390,#1391),.UNSPECIFIED.,.F.,.F.,
(4,2,2,2,2,2,4),(0.865204404131531,1.03529801901935,1.20539163390716,1.46790022108511,
1.73040880826306,2.0982359727848,2.3201159204518),.UNSPECIFIED.);
#30=B_SPLINE_CURVE_WITH_KNOTS('',3,(#1394,#1395,#1396,#1397,#1398,#1399,
#1400,#1401,#1402,#1403,#1404,#1405,#1406,#1407,#1408),.UNSPECIFIED.,.F.,
 .F.,(4,2,3,2,2,2,4),(-0.589707112188738,-0.367827164521735,0.,0.262508587177949,
0.525017174355897,0.695110789243714,0.865204404131531),.UNSPECIFIED.);
#31=B_SPLINE_CURVE_WITH_KNOTS('',3,(#1500,#1501,#1502,#1503,#1504,#1505,
#1506,#1507,#1508,#1509,#1510,#1511,#1512,#1513),.UNSPECIFIED.,.F.,.F.,
(4,2,2,2,2,2,4),(0.865204404131531,1.03529801901935,1.20539163390716,1.46790022108511,
1.73040880826306,2.0982359727848,2.3201159204518),.UNSPECIFIED.);
#32=B_SPLINE_CURVE_WITH_KNOTS('',3,(#1515,#1516,#1517,#1518,#1519,#1520,
#1521,#1522,#1523,#1524,#1525,#1526,#1527,#1528,#1529),.UNSPECIFIED.,.F.,
 .F.,(4,2,3,2,2,2,4),(-0.589707112188736,-0.367827164521735,0.,0.262508587177949,
0.525017174355898,0.695110789243714,0.865204404131531),.UNSPECIFIED.);
#33=B_SPLINE_CURVE_WITH_KNOTS('',3,(#1534,#1535,#1536,#1537,#1538,#1539,
#1540,#1541,#1542,#1543,#1544,#1545,#1546,#1547),.UNSPECIFIED.,.F.,.F.,
(4,2,2,2,2,2,4),(0.865204404131532,1.03529801901935,1.20539163390717,1.46790022108511,
1.73040880826306,2.0982359727848,2.3201159204518),.UNSPECIFIED.);
#34=B_SPLINE_CURVE_WITH_KNOTS('',3,(#1549,#1550,#1551,#1552,#1553,#1554,
#1555,#1556,#1557,#1558,#1559,#1560,#1561,#1562,#1563),.UNSPECIFIED.,.F.,
 .F.,(4,2,3,2,2,2,4),(-0.589707112188737,-0.367827164521736,0.,0.262508587177949,
0.525017174355898,0.695110789243715,0.865204404131532),.UNSPECIFIED.);
#35=B_SPLINE_CURVE_WITH_KNOTS('',3,(#1568,#1569,#1570,#1571,#1572,#1573,
#1574,#1575,#1576,#1577,#1578,#1579,#1580,#1581),.UNSPECIFIED.,.F.,.F.,
(4,2,2,2,2,2,4),(0.865204404131531,1.03529801901935,1.20539163390717,1.46790022108511,
1.73040880826306,2.0982359727848,2.3201159204518),.UNSPECIFIED.);
#36=B_SPLINE_CURVE_WITH_KNOTS('',3,(#1583,#1584,#1585,#1586,#1587,#1588,
#1589,#1590,#1591,#1592,#1593,#1594,#1595,#1596,#1597),.UNSPECIFIED.,.F.,
 .F.,(4,2,3,2,2,2,4),(-0.589707112188738,-0.367827164521735,0.,0.262508587177949,
0.525017174355897,0.695110789243714,0.865204404131531),.UNSPECIFIED.);
#37=B_SPLINE_CURVE_WITH_KNOTS('',3,(#1602,#1603,#1604,#1605,#1606,#1607,
#1608,#1609,#1610,#1611,#1612,#1613,#1614,#1615),.UNSPECIFIED.,.F.,.F.,
(4,2,2,2,2,2,4),(0.865204404131531,1.03529801901935,1.20539163390716,1.46790022108511,
1.73040880826306,2.0982359727848,2.3201159204518),.UNSPECIFIED.);
#38=B_SPLINE_CURVE_WITH_KNOTS('',3,(#1617,#1618,#1619,#1620,#1621,#1622,
#1623,#1624,#1625,#1626,#1627,#1628,#1629,#1630,#1631),.UNSPECIFIED.,.F.,
 .F.,(4,2,3,2,2,2,4),(-0.589707112188738,-0.367827164521735,0.,0.262508587177949,
0.525017174355897,0.695110789243714,0.865204404131531),.UNSPECIFIED.);
#39=FACE_BOUND('',#115,.T.);
#40=FACE_BOUND('',#126,.T.);
#41=FACE_BOUND('',#127,.T.);
#42=FACE_BOUND('',#128,.T.);
#43=FACE_BOUND('',#129,.T.);
#44=FACE_BOUND('',#130,.T.);
#45=FACE_BOUND('',#144,.T.);
#46=FACE_BOUND('',#145,.T.);
#47=FACE_BOUND('',#146,.T.);
#48=FACE_BOUND('',#147,.T.);
#49=FACE_BOUND('',#148,.T.);
#50=FACE_BOUND('',#158,.T.);
#51=FACE_BOUND('',#159,.T.);
#52=FACE_BOUND('',#160,.T.);
#53=FACE_BOUND('',#161,.T.);
#54=FACE_BOUND('',#162,.T.);
#55=FACE_BOUND('',#177,.T.);
#56=FACE_BOUND('',#178,.T.);
#57=FACE_BOUND('',#179,.T.);
#58=FACE_BOUND('',#180,.T.);
#59=FACE_BOUND('',#181,.T.);
#60=PLANE('',#855);
#61=PLANE('',#879);
#62=PLANE('',#917);
#63=PLANE('',#938);
#64=PLANE('',#977);
#65=FACE_OUTER_BOUND('',#113,.T.);
#66=FACE_OUTER_BOUND('',#114,.T.);
#67=FACE_OUTER_BOUND('',#116,.T.);
#68=FACE_OUTER_BOUND('',#117,.T.);
#69=FACE_OUTER_BOUND('',#118,.T.);
#70=FACE_OUTER_BOUND('',#119,.T.);
#71=FACE_OUTER_BOUND('',#120,.T.);
#72=FACE_OUTER_BOUND('',#121,.T.);
#73=FACE_OUTER_BOUND('',#122,.T.);
#74=FACE_OUTER_BOUND('',#123,.T.);
#75=FACE_OUTER_BOUND('',#124,.T.);
#76=FACE_OUTER_BOUND('',#125,.T.);
#77=FACE_OUTER_BOUND('',#131,.T.);
#78=FACE_OUTER_BOUND('',#132,.T.);
#79=FACE_OUTER_BOUND('',#133,.T.);
#80=FACE_OUTER_BOUND('',#134,.T.);
#81=FACE_OUTER_BOUND('',#135,.T.);
#82=FACE_OUTER_BOUND('',#136,.T.);
#83=FACE_OUTER_BOUND('',#137,.T.);
#84=FACE_OUTER_BOUND('',#138,.T.);
#85=FACE_OUTER_BOUND('',#139,.T.);
#86=FACE_OUTER_BOUND('',#140,.T.);
#87=FACE_OUTER_BOUND('',#141,.T.);
#88=FACE_OUTER_BOUND('',#142,.T.);
#89=FACE_OUTER_BOUND('',#143,.T.);
#90=FACE_OUTER_BOUND('',#149,.T.);
#91=FACE_OUTER_BOUND('',#150,.T.);
#92=FACE_OUTER_BOUND('',#151,.T.);
#93=FACE_OUTER_BOUND('',#152,.T.);
#94=FACE_OUTER_BOUND('',#153,.T.);
#95=FACE_OUTER_BOUND('',#154,.T.);
#96=FACE_OUTER_BOUND('',#155,.T.);
#97=FACE_OUTER_BOUND('',#156,.T.);
#98=FACE_OUTER_BOUND('',#157,.T.);
#99=FACE_OUTER_BOUND('',#163,.T.);
#100=FACE_OUTER_BOUND('',#164,.T.);
#101=FACE_OUTER_BOUND('',#165,.T.);
#102=FACE_OUTER_BOUND('',#166,.T.);
#103=FACE_OUTER_BOUND('',#167,.T.);
#104=FACE_OUTER_BOUND('',#168,.T.);
#105=FACE_OUTER_BOUND('',#169,.T.);
#106=FACE_OUTER_BOUND('',#170,.T.);
#107=FACE_OUTER_BOUND('',#171,.T.);
#108=FACE_OUTER_BOUND('',#172,.T.);
#109=FACE_OUTER_BOUND('',#173,.T.);
#110=FACE_OUTER_BOUND('',#174,.T.);
#111=FACE_OUTER_BOUND('',#175,.T.);
#112=FACE_OUTER_BOUND('',#176,.T.);
#113=EDGE_LOOP('',(#513,#514,#515,#516));
#114=EDGE_LOOP('',(#517));
#115=EDGE_LOOP('',(#518));
#116=EDGE_LOOP('',(#519,#520,#521,#522));
#117=EDGE_LOOP('',(#523,#524,#525));
#118=EDGE_LOOP('',(#526,#527,#528));
#119=EDGE_LOOP('',(#529,#530,#531));
#120=EDGE_LOOP('',(#532,#533,#534));
#121=EDGE_LOOP('',(#535,#536,#537,#538));
#122=EDGE_LOOP('',(#539,#540,#541,#542));
#123=EDGE_LOOP('',(#543,#544,#545,#546));
#124=EDGE_LOOP('',(#547,#548,#549,#550));
#125=EDGE_LOOP('',(#551,#552,#553,#554,#555,#556,#557,#558));
#126=EDGE_LOOP('',(#559));
#127=EDGE_LOOP('',(#560));
#128=EDGE_LOOP('',(#561));
#129=EDGE_LOOP('',(#562));
#130=EDGE_LOOP('',(#563,#564,#565,#566,#567,#568,#569,#570));
#131=EDGE_LOOP('',(#571,#572,#573,#574));
#132=EDGE_LOOP('',(#575,#576,#577,#578));
#133=EDGE_LOOP('',(#579,#580,#581,#582,#583));
#134=EDGE_LOOP('',(#584,#585,#586,#587));
#135=EDGE_LOOP('',(#588,#589,#590,#591));
#136=EDGE_LOOP('',(#592,#593,#594,#595));
#137=EDGE_LOOP('',(#596,#597,#598,#599));
#138=EDGE_LOOP('',(#600,#601,#602,#603));
#139=EDGE_LOOP('',(#604,#605,#606,#607));
#140=EDGE_LOOP('',(#608,#609,#610,#611));
#141=EDGE_LOOP('',(#612,#613,#614,#615));
#142=EDGE_LOOP('',(#616,#617,#618,#619));
#143=EDGE_LOOP('',(#620,#621,#622,#623,#624,#625,#626,#627));
#144=EDGE_LOOP('',(#628));
#145=EDGE_LOOP('',(#629));
#146=EDGE_LOOP('',(#630));
#147=EDGE_LOOP('',(#631));
#148=EDGE_LOOP('',(#632));
#149=EDGE_LOOP('',(#633,#634,#635));
#150=EDGE_LOOP('',(#636,#637,#638));
#151=EDGE_LOOP('',(#639,#640,#641));
#152=EDGE_LOOP('',(#642,#643,#644));
#153=EDGE_LOOP('',(#645,#646,#647,#648));
#154=EDGE_LOOP('',(#649,#650,#651,#652));
#155=EDGE_LOOP('',(#653,#654,#655,#656));
#156=EDGE_LOOP('',(#657,#658,#659,#660));
#157=EDGE_LOOP('',(#661,#662,#663,#664,#665,#666,#667,#668));
#158=EDGE_LOOP('',(#669));
#159=EDGE_LOOP('',(#670));
#160=EDGE_LOOP('',(#671));
#161=EDGE_LOOP('',(#672));
#162=EDGE_LOOP('',(#673,#674,#675,#676,#677,#678,#679,#680));
#163=EDGE_LOOP('',(#681,#682,#683,#684));
#164=EDGE_LOOP('',(#685,#686,#687,#688));
#165=EDGE_LOOP('',(#689,#690,#691,#692,#693));
#166=EDGE_LOOP('',(#694,#695,#696,#697));
#167=EDGE_LOOP('',(#698,#699,#700,#701,#702,#703,#704,#705,#706,#707,#708,
#709));
#168=EDGE_LOOP('',(#710,#711,#712,#713));
#169=EDGE_LOOP('',(#714,#715,#716,#717));
#170=EDGE_LOOP('',(#718,#719,#720,#721));
#171=EDGE_LOOP('',(#722,#723,#724,#725));
#172=EDGE_LOOP('',(#726,#727,#728,#729));
#173=EDGE_LOOP('',(#730,#731,#732,#733));
#174=EDGE_LOOP('',(#734,#735,#736,#737));
#175=EDGE_LOOP('',(#738,#739,#740,#741));
#176=EDGE_LOOP('',(#742,#743,#744,#745,#746,#747,#748,#749));
#177=EDGE_LOOP('',(#750));
#178=EDGE_LOOP('',(#751));
#179=EDGE_LOOP('',(#752));
#180=EDGE_LOOP('',(#753));
#181=EDGE_LOOP('',(#754));
#182=LINE('',#1264,#209);
#183=LINE('',#1272,#210);
#184=LINE('',#1413,#211);
#185=LINE('',#1419,#212);
#186=LINE('',#1425,#213);
#187=LINE('',#1431,#214);
#188=LINE('',#1468,#215);
#189=LINE('',#1469,#216);
#190=LINE('',#1473,#217);
#191=LINE('',#1477,#218);
#192=LINE('',#1481,#219);
#193=LINE('',#1485,#220);
#194=LINE('',#1489,#221);
#195=LINE('',#1493,#222);
#196=LINE('',#1637,#223);
#197=LINE('',#1643,#224);
#198=LINE('',#1649,#225);
#199=LINE('',#1655,#226);
#200=LINE('',#1689,#227);
#201=LINE('',#1694,#228);
#202=LINE('',#1695,#229);
#203=LINE('',#1699,#230);
#204=LINE('',#1703,#231);
#205=LINE('',#1707,#232);
#206=LINE('',#1711,#233);
#207=LINE('',#1715,#234);
#208=LINE('',#1719,#235);
#209=VECTOR('',#984,3.75);
#210=VECTOR('',#995,2.6);
#211=VECTOR('',#1016,3.15);
#212=VECTOR('',#1023,3.15);
#213=VECTOR('',#1030,3.15);
#214=VECTOR('',#1037,3.15);
#215=VECTOR('',#1088,10.);
#216=VECTOR('',#1089,10.);
#217=VECTOR('',#1094,10.);
#218=VECTOR('',#1099,10.);
#219=VECTOR('',#1104,10.);
#220=VECTOR('',#1109,10.);
#221=VECTOR('',#1114,10.);
#222=VECTOR('',#1119,10.);
#223=VECTOR('',#1146,3.15);
#224=VECTOR('',#1153,3.15);
#225=VECTOR('',#1160,3.15);
#226=VECTOR('',#1167,3.15);
#227=VECTOR('',#1216,11.6776695296637);
#228=VECTOR('',#1221,10.);
#229=VECTOR('',#1222,10.);
#230=VECTOR('',#1227,10.);
#231=VECTOR('',#1232,10.);
#232=VECTOR('',#1237,10.);
#233=VECTOR('',#1242,10.);
#234=VECTOR('',#1247,10.);
#235=VECTOR('',#1252,10.);
#236=CIRCLE('',#853,3.75);
#237=CIRCLE('',#854,3.75);
#238=CIRCLE('',#856,2.6);
#239=CIRCLE('',#858,2.6);
#240=CIRCLE('',#860,6.);
#241=CIRCLE('',#862,6.);
#242=CIRCLE('',#864,6.);
#243=CIRCLE('',#866,6.);
#244=CIRCLE('',#868,3.15);
#245=CIRCLE('',#869,3.15);
#246=CIRCLE('',#871,3.15);
#247=CIRCLE('',#872,3.15);
#248=CIRCLE('',#874,3.15);
#249=CIRCLE('',#875,3.15);
#250=CIRCLE('',#877,3.15);
#251=CIRCLE('',#878,3.15);
#252=CIRCLE('',#880,21.);
#253=CIRCLE('',#881,6.);
#254=CIRCLE('',#882,21.);
#255=CIRCLE('',#883,6.);
#256=CIRCLE('',#884,21.);
#257=CIRCLE('',#885,6.);
#258=CIRCLE('',#886,21.);
#259=CIRCLE('',#887,6.);
#260=CIRCLE('',#888,20.8176695296637);
#261=CIRCLE('',#889,20.8176695296637);
#262=CIRCLE('',#890,20.8176695296637);
#263=CIRCLE('',#891,20.8176695296637);
#264=CIRCLE('',#893,11.6776695296637);
#265=CIRCLE('',#895,11.6776695296637);
#266=CIRCLE('',#897,11.6776695296637);
#267=CIRCLE('',#898,11.6776695296637);
#268=CIRCLE('',#900,11.6776695296637);
#269=CIRCLE('',#902,21.);
#270=CIRCLE('',#904,6.);
#271=CIRCLE('',#906,21.);
#272=CIRCLE('',#908,6.);
#273=CIRCLE('',#910,21.);
#274=CIRCLE('',#912,6.);
#275=CIRCLE('',#914,21.);
#276=CIRCLE('',#916,6.);
#277=CIRCLE('',#919,6.);
#278=CIRCLE('',#921,6.);
#279=CIRCLE('',#923,6.);
#280=CIRCLE('',#925,6.);
#281=CIRCLE('',#927,3.15);
#282=CIRCLE('',#928,3.15);
#283=CIRCLE('',#930,3.15);
#284=CIRCLE('',#931,3.15);
#285=CIRCLE('',#933,3.15);
#286=CIRCLE('',#934,3.15);
#287=CIRCLE('',#936,3.15);
#288=CIRCLE('',#937,3.15);
#289=CIRCLE('',#939,21.);
#290=CIRCLE('',#940,6.);
#291=CIRCLE('',#941,21.);
#292=CIRCLE('',#942,6.);
#293=CIRCLE('',#943,21.);
#294=CIRCLE('',#944,6.);
#295=CIRCLE('',#945,21.);
#296=CIRCLE('',#946,6.);
#297=CIRCLE('',#947,20.8176695296637);
#298=CIRCLE('',#948,20.8176695296637);
#299=CIRCLE('',#949,20.8176695296637);
#300=CIRCLE('',#950,20.8176695296637);
#301=CIRCLE('',#952,11.6776695296637);
#302=CIRCLE('',#954,11.6776695296637);
#303=CIRCLE('',#956,11.6776695296637);
#304=CIRCLE('',#957,11.6776695296637);
#305=CIRCLE('',#959,11.6776695296637);
#306=CIRCLE('',#962,21.);
#307=CIRCLE('',#964,6.);
#308=CIRCLE('',#966,21.);
#309=CIRCLE('',#968,6.);
#310=CIRCLE('',#970,21.);
#311=CIRCLE('',#972,6.);
#312=CIRCLE('',#974,21.);
#313=CIRCLE('',#976,6.);
#314=VERTEX_POINT('',#1261);
#315=VERTEX_POINT('',#1263);
#316=VERTEX_POINT('',#1267);
#317=VERTEX_POINT('',#1270);
#318=VERTEX_POINT('',#1274);
#319=VERTEX_POINT('',#1275);
#320=VERTEX_POINT('',#1290);
#321=VERTEX_POINT('',#1308);
#322=VERTEX_POINT('',#1309);
#323=VERTEX_POINT('',#1324);
#324=VERTEX_POINT('',#1342);
#325=VERTEX_POINT('',#1343);
#326=VERTEX_POINT('',#1358);
#327=VERTEX_POINT('',#1376);
#328=VERTEX_POINT('',#1377);
#329=VERTEX_POINT('',#1392);
#330=VERTEX_POINT('',#1410);
#331=VERTEX_POINT('',#1412);
#332=VERTEX_POINT('',#1416);
#333=VERTEX_POINT('',#1418);
#334=VERTEX_POINT('',#1422);
#335=VERTEX_POINT('',#1424);
#336=VERTEX_POINT('',#1428);
#337=VERTEX_POINT('',#1430);
#338=VERTEX_POINT('',#1434);
#339=VERTEX_POINT('',#1435);
#340=VERTEX_POINT('',#1437);
#341=VERTEX_POINT('',#1439);
#342=VERTEX_POINT('',#1441);
#343=VERTEX_POINT('',#1443);
#344=VERTEX_POINT('',#1445);
#345=VERTEX_POINT('',#1447);
#346=VERTEX_POINT('',#1459);
#347=VERTEX_POINT('',#1465);
#348=VERTEX_POINT('',#1466);
#349=VERTEX_POINT('',#1471);
#350=VERTEX_POINT('',#1475);
#351=VERTEX_POINT('',#1479);
#352=VERTEX_POINT('',#1483);
#353=VERTEX_POINT('',#1487);
#354=VERTEX_POINT('',#1491);
#355=VERTEX_POINT('',#1498);
#356=VERTEX_POINT('',#1499);
#357=VERTEX_POINT('',#1514);
#358=VERTEX_POINT('',#1532);
#359=VERTEX_POINT('',#1533);
#360=VERTEX_POINT('',#1548);
#361=VERTEX_POINT('',#1566);
#362=VERTEX_POINT('',#1567);
#363=VERTEX_POINT('',#1582);
#364=VERTEX_POINT('',#1600);
#365=VERTEX_POINT('',#1601);
#366=VERTEX_POINT('',#1616);
#367=VERTEX_POINT('',#1634);
#368=VERTEX_POINT('',#1636);
#369=VERTEX_POINT('',#1640);
#370=VERTEX_POINT('',#1642);
#371=VERTEX_POINT('',#1646);
#372=VERTEX_POINT('',#1648);
#373=VERTEX_POINT('',#1652);
#374=VERTEX_POINT('',#1654);
#375=VERTEX_POINT('',#1658);
#376=VERTEX_POINT('',#1659);
#377=VERTEX_POINT('',#1661);
#378=VERTEX_POINT('',#1663);
#379=VERTEX_POINT('',#1665);
#380=VERTEX_POINT('',#1667);
#381=VERTEX_POINT('',#1669);
#382=VERTEX_POINT('',#1671);
#383=VERTEX_POINT('',#1683);
#384=VERTEX_POINT('',#1691);
#385=VERTEX_POINT('',#1692);
#386=VERTEX_POINT('',#1697);
#387=VERTEX_POINT('',#1701);
#388=VERTEX_POINT('',#1705);
#389=VERTEX_POINT('',#1709);
#390=VERTEX_POINT('',#1713);
#391=VERTEX_POINT('',#1717);
#392=EDGE_CURVE('',#314,#314,#236,.T.);
#393=EDGE_CURVE('',#314,#315,#182,.T.);
#394=EDGE_CURVE('',#315,#315,#237,.F.);
#395=EDGE_CURVE('',#316,#316,#238,.T.);
#396=EDGE_CURVE('',#317,#317,#239,.T.);
#397=EDGE_CURVE('',#317,#316,#183,.T.);
#398=EDGE_CURVE('',#318,#319,#23,.T.);
#399=EDGE_CURVE('',#320,#319,#240,.T.);
#400=EDGE_CURVE('',#320,#318,#24,.T.);
#401=EDGE_CURVE('',#321,#322,#25,.T.);
#402=EDGE_CURVE('',#323,#322,#241,.T.);
#403=EDGE_CURVE('',#323,#321,#26,.T.);
#404=EDGE_CURVE('',#324,#325,#27,.T.);
#405=EDGE_CURVE('',#326,#325,#242,.T.);
#406=EDGE_CURVE('',#326,#324,#28,.T.);
#407=EDGE_CURVE('',#327,#328,#29,.T.);
#408=EDGE_CURVE('',#329,#328,#243,.T.);
#409=EDGE_CURVE('',#329,#327,#30,.T.);
#410=EDGE_CURVE('',#330,#330,#244,.T.);
#411=EDGE_CURVE('',#330,#331,#184,.T.);
#412=EDGE_CURVE('',#331,#331,#245,.T.);
#413=EDGE_CURVE('',#332,#332,#246,.T.);
#414=EDGE_CURVE('',#332,#333,#185,.T.);
#415=EDGE_CURVE('',#333,#333,#247,.T.);
#416=EDGE_CURVE('',#334,#334,#248,.T.);
#417=EDGE_CURVE('',#334,#335,#186,.T.);
#418=EDGE_CURVE('',#335,#335,#249,.T.);
#419=EDGE_CURVE('',#336,#336,#250,.T.);
#420=EDGE_CURVE('',#336,#337,#187,.T.);
#421=EDGE_CURVE('',#337,#337,#251,.T.);
#422=EDGE_CURVE('',#338,#339,#252,.T.);
#423=EDGE_CURVE('',#340,#338,#253,.T.);
#424=EDGE_CURVE('',#341,#340,#254,.T.);
#425=EDGE_CURVE('',#342,#341,#255,.T.);
#426=EDGE_CURVE('',#343,#342,#256,.T.);
#427=EDGE_CURVE('',#344,#343,#257,.T.);
#428=EDGE_CURVE('',#345,#344,#258,.T.);
#429=EDGE_CURVE('',#339,#345,#259,.T.);
#430=EDGE_CURVE('',#319,#326,#260,.T.);
#431=EDGE_CURVE('',#325,#329,#261,.T.);
#432=EDGE_CURVE('',#328,#323,#262,.T.);
#433=EDGE_CURVE('',#322,#320,#263,.T.);
#434=EDGE_CURVE('',#327,#324,#264,.T.);
#435=EDGE_CURVE('',#318,#321,#265,.T.);
#436=EDGE_CURVE('',#346,#327,#266,.T.);
#437=EDGE_CURVE('',#321,#346,#267,.T.);
#438=EDGE_CURVE('',#324,#318,#268,.T.);
#439=EDGE_CURVE('',#347,#348,#269,.T.);
#440=EDGE_CURVE('',#347,#343,#188,.T.);
#441=EDGE_CURVE('',#348,#342,#189,.T.);
#442=EDGE_CURVE('',#349,#347,#270,.T.);
#443=EDGE_CURVE('',#349,#344,#190,.T.);
#444=EDGE_CURVE('',#350,#349,#271,.T.);
#445=EDGE_CURVE('',#350,#345,#191,.T.);
#446=EDGE_CURVE('',#351,#350,#272,.T.);
#447=EDGE_CURVE('',#351,#339,#192,.T.);
#448=EDGE_CURVE('',#352,#351,#273,.T.);
#449=EDGE_CURVE('',#352,#338,#193,.T.);
#450=EDGE_CURVE('',#353,#352,#274,.T.);
#451=EDGE_CURVE('',#353,#340,#194,.T.);
#452=EDGE_CURVE('',#354,#353,#275,.T.);
#453=EDGE_CURVE('',#354,#341,#195,.T.);
#454=EDGE_CURVE('',#348,#354,#276,.T.);
#455=EDGE_CURVE('',#355,#356,#31,.T.);
#456=EDGE_CURVE('',#357,#355,#32,.T.);
#457=EDGE_CURVE('',#357,#356,#277,.T.);
#458=EDGE_CURVE('',#358,#359,#33,.T.);
#459=EDGE_CURVE('',#360,#358,#34,.T.);
#460=EDGE_CURVE('',#360,#359,#278,.T.);
#461=EDGE_CURVE('',#361,#362,#35,.T.);
#462=EDGE_CURVE('',#363,#361,#36,.T.);
#463=EDGE_CURVE('',#363,#362,#279,.T.);
#464=EDGE_CURVE('',#364,#365,#37,.T.);
#465=EDGE_CURVE('',#366,#364,#38,.T.);
#466=EDGE_CURVE('',#366,#365,#280,.T.);
#467=EDGE_CURVE('',#367,#367,#281,.T.);
#468=EDGE_CURVE('',#367,#368,#196,.T.);
#469=EDGE_CURVE('',#368,#368,#282,.T.);
#470=EDGE_CURVE('',#369,#369,#283,.T.);
#471=EDGE_CURVE('',#369,#370,#197,.T.);
#472=EDGE_CURVE('',#370,#370,#284,.T.);
#473=EDGE_CURVE('',#371,#371,#285,.T.);
#474=EDGE_CURVE('',#371,#372,#198,.T.);
#475=EDGE_CURVE('',#372,#372,#286,.T.);
#476=EDGE_CURVE('',#373,#373,#287,.T.);
#477=EDGE_CURVE('',#373,#374,#199,.T.);
#478=EDGE_CURVE('',#374,#374,#288,.T.);
#479=EDGE_CURVE('',#375,#376,#289,.T.);
#480=EDGE_CURVE('',#376,#377,#290,.T.);
#481=EDGE_CURVE('',#377,#378,#291,.T.);
#482=EDGE_CURVE('',#378,#379,#292,.T.);
#483=EDGE_CURVE('',#379,#380,#293,.T.);
#484=EDGE_CURVE('',#380,#381,#294,.T.);
#485=EDGE_CURVE('',#381,#382,#295,.T.);
#486=EDGE_CURVE('',#382,#375,#296,.T.);
#487=EDGE_CURVE('',#359,#357,#297,.T.);
#488=EDGE_CURVE('',#365,#360,#298,.T.);
#489=EDGE_CURVE('',#362,#366,#299,.T.);
#490=EDGE_CURVE('',#356,#363,#300,.T.);
#491=EDGE_CURVE('',#364,#361,#301,.T.);
#492=EDGE_CURVE('',#355,#358,#302,.T.);
#493=EDGE_CURVE('',#358,#383,#303,.T.);
#494=EDGE_CURVE('',#383,#364,#304,.T.);
#495=EDGE_CURVE('',#361,#355,#305,.T.);
#496=EDGE_CURVE('',#346,#383,#200,.T.);
#497=EDGE_CURVE('',#384,#385,#306,.T.);
#498=EDGE_CURVE('',#385,#380,#201,.T.);
#499=EDGE_CURVE('',#384,#379,#202,.T.);
#500=EDGE_CURVE('',#386,#384,#307,.T.);
#501=EDGE_CURVE('',#386,#378,#203,.T.);
#502=EDGE_CURVE('',#387,#386,#308,.T.);
#503=EDGE_CURVE('',#387,#377,#204,.T.);
#504=EDGE_CURVE('',#388,#387,#309,.T.);
#505=EDGE_CURVE('',#388,#376,#205,.T.);
#506=EDGE_CURVE('',#389,#388,#310,.T.);
#507=EDGE_CURVE('',#389,#375,#206,.T.);
#508=EDGE_CURVE('',#390,#389,#311,.T.);
#509=EDGE_CURVE('',#390,#382,#207,.T.);
#510=EDGE_CURVE('',#391,#390,#312,.T.);
#511=EDGE_CURVE('',#391,#381,#208,.T.);
#512=EDGE_CURVE('',#385,#391,#313,.T.);
#513=ORIENTED_EDGE('',*,*,#392,.F.);
#514=ORIENTED_EDGE('',*,*,#393,.T.);
#515=ORIENTED_EDGE('',*,*,#394,.F.);
#516=ORIENTED_EDGE('',*,*,#393,.F.);
#517=ORIENTED_EDGE('',*,*,#394,.T.);
#518=ORIENTED_EDGE('',*,*,#395,.F.);
#519=ORIENTED_EDGE('',*,*,#396,.F.);
#520=ORIENTED_EDGE('',*,*,#397,.T.);
#521=ORIENTED_EDGE('',*,*,#395,.T.);
#522=ORIENTED_EDGE('',*,*,#397,.F.);
#523=ORIENTED_EDGE('',*,*,#398,.T.);
#524=ORIENTED_EDGE('',*,*,#399,.F.);
#525=ORIENTED_EDGE('',*,*,#400,.T.);
#526=ORIENTED_EDGE('',*,*,#401,.T.);
#527=ORIENTED_EDGE('',*,*,#402,.F.);
#528=ORIENTED_EDGE('',*,*,#403,.T.);
#529=ORIENTED_EDGE('',*,*,#404,.T.);
#530=ORIENTED_EDGE('',*,*,#405,.F.);
#531=ORIENTED_EDGE('',*,*,#406,.T.);
#532=ORIENTED_EDGE('',*,*,#407,.T.);
#533=ORIENTED_EDGE('',*,*,#408,.F.);
#534=ORIENTED_EDGE('',*,*,#409,.T.);
#535=ORIENTED_EDGE('',*,*,#410,.T.);
#536=ORIENTED_EDGE('',*,*,#411,.T.);
#537=ORIENTED_EDGE('',*,*,#412,.F.);
#538=ORIENTED_EDGE('',*,*,#411,.F.);
#539=ORIENTED_EDGE('',*,*,#413,.T.);
#540=ORIENTED_EDGE('',*,*,#414,.T.);
#541=ORIENTED_EDGE('',*,*,#415,.F.);
#542=ORIENTED_EDGE('',*,*,#414,.F.);
#543=ORIENTED_EDGE('',*,*,#416,.T.);
#544=ORIENTED_EDGE('',*,*,#417,.T.);
#545=ORIENTED_EDGE('',*,*,#418,.F.);
#546=ORIENTED_EDGE('',*,*,#417,.F.);
#547=ORIENTED_EDGE('',*,*,#419,.T.);
#548=ORIENTED_EDGE('',*,*,#420,.T.);
#549=ORIENTED_EDGE('',*,*,#421,.F.);
#550=ORIENTED_EDGE('',*,*,#420,.F.);
#551=ORIENTED_EDGE('',*,*,#422,.F.);
#552=ORIENTED_EDGE('',*,*,#423,.F.);
#553=ORIENTED_EDGE('',*,*,#424,.F.);
#554=ORIENTED_EDGE('',*,*,#425,.F.);
#555=ORIENTED_EDGE('',*,*,#426,.F.);
#556=ORIENTED_EDGE('',*,*,#427,.F.);
#557=ORIENTED_EDGE('',*,*,#428,.F.);
#558=ORIENTED_EDGE('',*,*,#429,.F.);
#559=ORIENTED_EDGE('',*,*,#410,.F.);
#560=ORIENTED_EDGE('',*,*,#413,.F.);
#561=ORIENTED_EDGE('',*,*,#416,.F.);
#562=ORIENTED_EDGE('',*,*,#419,.F.);
#563=ORIENTED_EDGE('',*,*,#399,.T.);
#564=ORIENTED_EDGE('',*,*,#430,.T.);
#565=ORIENTED_EDGE('',*,*,#405,.T.);
#566=ORIENTED_EDGE('',*,*,#431,.T.);
#567=ORIENTED_EDGE('',*,*,#408,.T.);
#568=ORIENTED_EDGE('',*,*,#432,.T.);
#569=ORIENTED_EDGE('',*,*,#402,.T.);
#570=ORIENTED_EDGE('',*,*,#433,.T.);
#571=ORIENTED_EDGE('',*,*,#404,.F.);
#572=ORIENTED_EDGE('',*,*,#434,.F.);
#573=ORIENTED_EDGE('',*,*,#409,.F.);
#574=ORIENTED_EDGE('',*,*,#431,.F.);
#575=ORIENTED_EDGE('',*,*,#400,.F.);
#576=ORIENTED_EDGE('',*,*,#433,.F.);
#577=ORIENTED_EDGE('',*,*,#401,.F.);
#578=ORIENTED_EDGE('',*,*,#435,.F.);
#579=ORIENTED_EDGE('',*,*,#403,.F.);
#580=ORIENTED_EDGE('',*,*,#432,.F.);
#581=ORIENTED_EDGE('',*,*,#407,.F.);
#582=ORIENTED_EDGE('',*,*,#436,.F.);
#583=ORIENTED_EDGE('',*,*,#437,.F.);
#584=ORIENTED_EDGE('',*,*,#398,.F.);
#585=ORIENTED_EDGE('',*,*,#438,.F.);
#586=ORIENTED_EDGE('',*,*,#406,.F.);
#587=ORIENTED_EDGE('',*,*,#430,.F.);
#588=ORIENTED_EDGE('',*,*,#439,.F.);
#589=ORIENTED_EDGE('',*,*,#440,.T.);
#590=ORIENTED_EDGE('',*,*,#426,.T.);
#591=ORIENTED_EDGE('',*,*,#441,.F.);
#592=ORIENTED_EDGE('',*,*,#442,.F.);
#593=ORIENTED_EDGE('',*,*,#443,.T.);
#594=ORIENTED_EDGE('',*,*,#427,.T.);
#595=ORIENTED_EDGE('',*,*,#440,.F.);
#596=ORIENTED_EDGE('',*,*,#444,.F.);
#597=ORIENTED_EDGE('',*,*,#445,.T.);
#598=ORIENTED_EDGE('',*,*,#428,.T.);
#599=ORIENTED_EDGE('',*,*,#443,.F.);
#600=ORIENTED_EDGE('',*,*,#446,.F.);
#601=ORIENTED_EDGE('',*,*,#447,.T.);
#602=ORIENTED_EDGE('',*,*,#429,.T.);
#603=ORIENTED_EDGE('',*,*,#445,.F.);
#604=ORIENTED_EDGE('',*,*,#448,.F.);
#605=ORIENTED_EDGE('',*,*,#449,.T.);
#606=ORIENTED_EDGE('',*,*,#422,.T.);
#607=ORIENTED_EDGE('',*,*,#447,.F.);
#608=ORIENTED_EDGE('',*,*,#450,.F.);
#609=ORIENTED_EDGE('',*,*,#451,.T.);
#610=ORIENTED_EDGE('',*,*,#423,.T.);
#611=ORIENTED_EDGE('',*,*,#449,.F.);
#612=ORIENTED_EDGE('',*,*,#452,.F.);
#613=ORIENTED_EDGE('',*,*,#453,.T.);
#614=ORIENTED_EDGE('',*,*,#424,.T.);
#615=ORIENTED_EDGE('',*,*,#451,.F.);
#616=ORIENTED_EDGE('',*,*,#454,.F.);
#617=ORIENTED_EDGE('',*,*,#441,.T.);
#618=ORIENTED_EDGE('',*,*,#425,.T.);
#619=ORIENTED_EDGE('',*,*,#453,.F.);
#620=ORIENTED_EDGE('',*,*,#454,.T.);
#621=ORIENTED_EDGE('',*,*,#452,.T.);
#622=ORIENTED_EDGE('',*,*,#450,.T.);
#623=ORIENTED_EDGE('',*,*,#448,.T.);
#624=ORIENTED_EDGE('',*,*,#446,.T.);
#625=ORIENTED_EDGE('',*,*,#444,.T.);
#626=ORIENTED_EDGE('',*,*,#442,.T.);
#627=ORIENTED_EDGE('',*,*,#439,.T.);
#628=ORIENTED_EDGE('',*,*,#396,.T.);
#629=ORIENTED_EDGE('',*,*,#421,.T.);
#630=ORIENTED_EDGE('',*,*,#418,.T.);
#631=ORIENTED_EDGE('',*,*,#412,.T.);
#632=ORIENTED_EDGE('',*,*,#415,.T.);
#633=ORIENTED_EDGE('',*,*,#455,.F.);
#634=ORIENTED_EDGE('',*,*,#456,.F.);
#635=ORIENTED_EDGE('',*,*,#457,.T.);
#636=ORIENTED_EDGE('',*,*,#458,.F.);
#637=ORIENTED_EDGE('',*,*,#459,.F.);
#638=ORIENTED_EDGE('',*,*,#460,.T.);
#639=ORIENTED_EDGE('',*,*,#461,.F.);
#640=ORIENTED_EDGE('',*,*,#462,.F.);
#641=ORIENTED_EDGE('',*,*,#463,.T.);
#642=ORIENTED_EDGE('',*,*,#464,.F.);
#643=ORIENTED_EDGE('',*,*,#465,.F.);
#644=ORIENTED_EDGE('',*,*,#466,.T.);
#645=ORIENTED_EDGE('',*,*,#467,.F.);
#646=ORIENTED_EDGE('',*,*,#468,.T.);
#647=ORIENTED_EDGE('',*,*,#469,.T.);
#648=ORIENTED_EDGE('',*,*,#468,.F.);
#649=ORIENTED_EDGE('',*,*,#470,.F.);
#650=ORIENTED_EDGE('',*,*,#471,.T.);
#651=ORIENTED_EDGE('',*,*,#472,.T.);
#652=ORIENTED_EDGE('',*,*,#471,.F.);
#653=ORIENTED_EDGE('',*,*,#473,.F.);
#654=ORIENTED_EDGE('',*,*,#474,.T.);
#655=ORIENTED_EDGE('',*,*,#475,.T.);
#656=ORIENTED_EDGE('',*,*,#474,.F.);
#657=ORIENTED_EDGE('',*,*,#476,.F.);
#658=ORIENTED_EDGE('',*,*,#477,.T.);
#659=ORIENTED_EDGE('',*,*,#478,.T.);
#660=ORIENTED_EDGE('',*,*,#477,.F.);
#661=ORIENTED_EDGE('',*,*,#479,.T.);
#662=ORIENTED_EDGE('',*,*,#480,.T.);
#663=ORIENTED_EDGE('',*,*,#481,.T.);
#664=ORIENTED_EDGE('',*,*,#482,.T.);
#665=ORIENTED_EDGE('',*,*,#483,.T.);
#666=ORIENTED_EDGE('',*,*,#484,.T.);
#667=ORIENTED_EDGE('',*,*,#485,.T.);
#668=ORIENTED_EDGE('',*,*,#486,.T.);
#669=ORIENTED_EDGE('',*,*,#467,.T.);
#670=ORIENTED_EDGE('',*,*,#470,.T.);
#671=ORIENTED_EDGE('',*,*,#473,.T.);
#672=ORIENTED_EDGE('',*,*,#476,.T.);
#673=ORIENTED_EDGE('',*,*,#457,.F.);
#674=ORIENTED_EDGE('',*,*,#487,.F.);
#675=ORIENTED_EDGE('',*,*,#460,.F.);
#676=ORIENTED_EDGE('',*,*,#488,.F.);
#677=ORIENTED_EDGE('',*,*,#466,.F.);
#678=ORIENTED_EDGE('',*,*,#489,.F.);
#679=ORIENTED_EDGE('',*,*,#463,.F.);
#680=ORIENTED_EDGE('',*,*,#490,.F.);
#681=ORIENTED_EDGE('',*,*,#461,.T.);
#682=ORIENTED_EDGE('',*,*,#489,.T.);
#683=ORIENTED_EDGE('',*,*,#465,.T.);
#684=ORIENTED_EDGE('',*,*,#491,.T.);
#685=ORIENTED_EDGE('',*,*,#456,.T.);
#686=ORIENTED_EDGE('',*,*,#492,.T.);
#687=ORIENTED_EDGE('',*,*,#458,.T.);
#688=ORIENTED_EDGE('',*,*,#487,.T.);
#689=ORIENTED_EDGE('',*,*,#459,.T.);
#690=ORIENTED_EDGE('',*,*,#493,.T.);
#691=ORIENTED_EDGE('',*,*,#494,.T.);
#692=ORIENTED_EDGE('',*,*,#464,.T.);
#693=ORIENTED_EDGE('',*,*,#488,.T.);
#694=ORIENTED_EDGE('',*,*,#455,.T.);
#695=ORIENTED_EDGE('',*,*,#490,.T.);
#696=ORIENTED_EDGE('',*,*,#462,.T.);
#697=ORIENTED_EDGE('',*,*,#495,.T.);
#698=ORIENTED_EDGE('',*,*,#437,.T.);
#699=ORIENTED_EDGE('',*,*,#496,.T.);
#700=ORIENTED_EDGE('',*,*,#493,.F.);
#701=ORIENTED_EDGE('',*,*,#492,.F.);
#702=ORIENTED_EDGE('',*,*,#495,.F.);
#703=ORIENTED_EDGE('',*,*,#491,.F.);
#704=ORIENTED_EDGE('',*,*,#494,.F.);
#705=ORIENTED_EDGE('',*,*,#496,.F.);
#706=ORIENTED_EDGE('',*,*,#436,.T.);
#707=ORIENTED_EDGE('',*,*,#434,.T.);
#708=ORIENTED_EDGE('',*,*,#438,.T.);
#709=ORIENTED_EDGE('',*,*,#435,.T.);
#710=ORIENTED_EDGE('',*,*,#497,.T.);
#711=ORIENTED_EDGE('',*,*,#498,.T.);
#712=ORIENTED_EDGE('',*,*,#483,.F.);
#713=ORIENTED_EDGE('',*,*,#499,.F.);
#714=ORIENTED_EDGE('',*,*,#500,.T.);
#715=ORIENTED_EDGE('',*,*,#499,.T.);
#716=ORIENTED_EDGE('',*,*,#482,.F.);
#717=ORIENTED_EDGE('',*,*,#501,.F.);
#718=ORIENTED_EDGE('',*,*,#502,.T.);
#719=ORIENTED_EDGE('',*,*,#501,.T.);
#720=ORIENTED_EDGE('',*,*,#481,.F.);
#721=ORIENTED_EDGE('',*,*,#503,.F.);
#722=ORIENTED_EDGE('',*,*,#504,.T.);
#723=ORIENTED_EDGE('',*,*,#503,.T.);
#724=ORIENTED_EDGE('',*,*,#480,.F.);
#725=ORIENTED_EDGE('',*,*,#505,.F.);
#726=ORIENTED_EDGE('',*,*,#506,.T.);
#727=ORIENTED_EDGE('',*,*,#505,.T.);
#728=ORIENTED_EDGE('',*,*,#479,.F.);
#729=ORIENTED_EDGE('',*,*,#507,.F.);
#730=ORIENTED_EDGE('',*,*,#508,.T.);
#731=ORIENTED_EDGE('',*,*,#507,.T.);
#732=ORIENTED_EDGE('',*,*,#486,.F.);
#733=ORIENTED_EDGE('',*,*,#509,.F.);
#734=ORIENTED_EDGE('',*,*,#510,.T.);
#735=ORIENTED_EDGE('',*,*,#509,.T.);
#736=ORIENTED_EDGE('',*,*,#485,.F.);
#737=ORIENTED_EDGE('',*,*,#511,.F.);
#738=ORIENTED_EDGE('',*,*,#512,.T.);
#739=ORIENTED_EDGE('',*,*,#511,.T.);
#740=ORIENTED_EDGE('',*,*,#484,.F.);
#741=ORIENTED_EDGE('',*,*,#498,.F.);
#742=ORIENTED_EDGE('',*,*,#512,.F.);
#743=ORIENTED_EDGE('',*,*,#497,.F.);
#744=ORIENTED_EDGE('',*,*,#500,.F.);
#745=ORIENTED_EDGE('',*,*,#502,.F.);
#746=ORIENTED_EDGE('',*,*,#504,.F.);
#747=ORIENTED_EDGE('',*,*,#506,.F.);
#748=ORIENTED_EDGE('',*,*,#508,.F.);
#749=ORIENTED_EDGE('',*,*,#510,.F.);
#750=ORIENTED_EDGE('',*,*,#392,.T.);
#751=ORIENTED_EDGE('',*,*,#478,.F.);
#752=ORIENTED_EDGE('',*,*,#475,.F.);
#753=ORIENTED_EDGE('',*,*,#469,.F.);
#754=ORIENTED_EDGE('',*,*,#472,.F.);
#755=CYLINDRICAL_SURFACE('',#852,3.75);
#756=CYLINDRICAL_SURFACE('',#857,2.6);
#757=CYLINDRICAL_SURFACE('',#859,6.);
#758=CYLINDRICAL_SURFACE('',#861,6.);
#759=CYLINDRICAL_SURFACE('',#863,6.);
#760=CYLINDRICAL_SURFACE('',#865,6.);
#761=CYLINDRICAL_SURFACE('',#867,3.15);
#762=CYLINDRICAL_SURFACE('',#870,3.15);
#763=CYLINDRICAL_SURFACE('',#873,3.15);
#764=CYLINDRICAL_SURFACE('',#876,3.15);
#765=CYLINDRICAL_SURFACE('',#901,21.);
#766=CYLINDRICAL_SURFACE('',#903,6.);
#767=CYLINDRICAL_SURFACE('',#905,21.);
#768=CYLINDRICAL_SURFACE('',#907,6.);
#769=CYLINDRICAL_SURFACE('',#909,21.);
#770=CYLINDRICAL_SURFACE('',#911,6.);
#771=CYLINDRICAL_SURFACE('',#913,21.);
#772=CYLINDRICAL_SURFACE('',#915,6.);
#773=CYLINDRICAL_SURFACE('',#918,6.);
#774=CYLINDRICAL_SURFACE('',#920,6.);
#775=CYLINDRICAL_SURFACE('',#922,6.);
#776=CYLINDRICAL_SURFACE('',#924,6.);
#777=CYLINDRICAL_SURFACE('',#926,3.15);
#778=CYLINDRICAL_SURFACE('',#929,3.15);
#779=CYLINDRICAL_SURFACE('',#932,3.15);
#780=CYLINDRICAL_SURFACE('',#935,3.15);
#781=CYLINDRICAL_SURFACE('',#960,11.6776695296637);
#782=CYLINDRICAL_SURFACE('',#961,21.);
#783=CYLINDRICAL_SURFACE('',#963,6.);
#784=CYLINDRICAL_SURFACE('',#965,21.);
#785=CYLINDRICAL_SURFACE('',#967,6.);
#786=CYLINDRICAL_SURFACE('',#969,21.);
#787=CYLINDRICAL_SURFACE('',#971,6.);
#788=CYLINDRICAL_SURFACE('',#973,21.);
#789=CYLINDRICAL_SURFACE('',#975,6.);
#790=ADVANCED_FACE('',(#65),#755,.F.);
#791=ADVANCED_FACE('',(#66,#39),#60,.F.);
#792=ADVANCED_FACE('',(#67),#756,.F.);
#793=ADVANCED_FACE('',(#68),#757,.F.);
#794=ADVANCED_FACE('',(#69),#758,.F.);
#795=ADVANCED_FACE('',(#70),#759,.F.);
#796=ADVANCED_FACE('',(#71),#760,.F.);
#797=ADVANCED_FACE('',(#72),#761,.F.);
#798=ADVANCED_FACE('',(#73),#762,.F.);
#799=ADVANCED_FACE('',(#74),#763,.F.);
#800=ADVANCED_FACE('',(#75),#764,.F.);
#801=ADVANCED_FACE('',(#76,#40,#41,#42,#43,#44),#61,.F.);
#802=ADVANCED_FACE('',(#77),#15,.T.);
#803=ADVANCED_FACE('',(#78),#16,.T.);
#804=ADVANCED_FACE('',(#79),#17,.T.);
#805=ADVANCED_FACE('',(#80),#18,.T.);
#806=ADVANCED_FACE('',(#81),#765,.T.);
#807=ADVANCED_FACE('',(#82),#766,.T.);
#808=ADVANCED_FACE('',(#83),#767,.T.);
#809=ADVANCED_FACE('',(#84),#768,.T.);
#810=ADVANCED_FACE('',(#85),#769,.T.);
#811=ADVANCED_FACE('',(#86),#770,.T.);
#812=ADVANCED_FACE('',(#87),#771,.T.);
#813=ADVANCED_FACE('',(#88),#772,.T.);
#814=ADVANCED_FACE('',(#89,#45,#46,#47,#48,#49),#62,.T.);
#815=ADVANCED_FACE('',(#90),#773,.F.);
#816=ADVANCED_FACE('',(#91),#774,.F.);
#817=ADVANCED_FACE('',(#92),#775,.F.);
#818=ADVANCED_FACE('',(#93),#776,.F.);
#819=ADVANCED_FACE('',(#94),#777,.F.);
#820=ADVANCED_FACE('',(#95),#778,.F.);
#821=ADVANCED_FACE('',(#96),#779,.F.);
#822=ADVANCED_FACE('',(#97),#780,.F.);
#823=ADVANCED_FACE('',(#98,#50,#51,#52,#53,#54),#63,.T.);
#824=ADVANCED_FACE('',(#99),#19,.T.);
#825=ADVANCED_FACE('',(#100),#20,.T.);
#826=ADVANCED_FACE('',(#101),#21,.T.);
#827=ADVANCED_FACE('',(#102),#22,.T.);
#828=ADVANCED_FACE('',(#103),#781,.T.);
#829=ADVANCED_FACE('',(#104),#782,.T.);
#830=ADVANCED_FACE('',(#105),#783,.T.);
#831=ADVANCED_FACE('',(#106),#784,.T.);
#832=ADVANCED_FACE('',(#107),#785,.T.);
#833=ADVANCED_FACE('',(#108),#786,.T.);
#834=ADVANCED_FACE('',(#109),#787,.T.);
#835=ADVANCED_FACE('',(#110),#788,.T.);
#836=ADVANCED_FACE('',(#111),#789,.T.);
#837=ADVANCED_FACE('',(#112,#55,#56,#57,#58,#59),#64,.F.);
#838=CLOSED_SHELL('',(#790,#791,#792,#793,#794,#795,#796,#797,#798,#799,
#800,#801,#802,#803,#804,#805,#806,#807,#808,#809,#810,#811,#812,#813,#814,
#815,#816,#817,#818,#819,#820,#821,#822,#823,#824,#825,#826,#827,#828,#829,
#830,#831,#832,#833,#834,#835,#836,#837));
#839=DERIVED_UNIT_ELEMENT(#841,1.);
#840=DERIVED_UNIT_ELEMENT(#1728,-3.);
#841=(
MASS_UNIT()
NAMED_UNIT(*)
SI_UNIT(.KILO.,.GRAM.)
);
#842=DERIVED_UNIT((#839,#840));
#843=MEASURE_REPRESENTATION_ITEM('density measure',
POSITIVE_RATIO_MEASURE(7850.),#842);
#844=PROPERTY_DEFINITION_REPRESENTATION(#849,#846);
#845=PROPERTY_DEFINITION_REPRESENTATION(#850,#847);
#846=REPRESENTATION('material name',(#848),#1725);
#847=REPRESENTATION('density',(#843),#1725);
#848=DESCRIPTIVE_REPRESENTATION_ITEM('Steel','Steel');
#849=PROPERTY_DEFINITION('material property','material name',#1735);
#850=PROPERTY_DEFINITION('material property','density of part',#1735);
#851=AXIS2_PLACEMENT_3D('',#1259,#978,#979);
#852=AXIS2_PLACEMENT_3D('',#1260,#980,#981);
#853=AXIS2_PLACEMENT_3D('',#1262,#982,#983);
#854=AXIS2_PLACEMENT_3D('',#1265,#985,#986);
#855=AXIS2_PLACEMENT_3D('',#1266,#987,#988);
#856=AXIS2_PLACEMENT_3D('',#1268,#989,#990);
#857=AXIS2_PLACEMENT_3D('',#1269,#991,#992);
#858=AXIS2_PLACEMENT_3D('',#1271,#993,#994);
#859=AXIS2_PLACEMENT_3D('',#1273,#996,#997);
#860=AXIS2_PLACEMENT_3D('',#1291,#998,#999);
#861=AXIS2_PLACEMENT_3D('',#1307,#1000,#1001);
#862=AXIS2_PLACEMENT_3D('',#1325,#1002,#1003);
#863=AXIS2_PLACEMENT_3D('',#1341,#1004,#1005);
#864=AXIS2_PLACEMENT_3D('',#1359,#1006,#1007);
#865=AXIS2_PLACEMENT_3D('',#1375,#1008,#1009);
#866=AXIS2_PLACEMENT_3D('',#1393,#1010,#1011);
#867=AXIS2_PLACEMENT_3D('',#1409,#1012,#1013);
#868=AXIS2_PLACEMENT_3D('',#1411,#1014,#1015);
#869=AXIS2_PLACEMENT_3D('',#1414,#1017,#1018);
#870=AXIS2_PLACEMENT_3D('',#1415,#1019,#1020);
#871=AXIS2_PLACEMENT_3D('',#1417,#1021,#1022);
#872=AXIS2_PLACEMENT_3D('',#1420,#1024,#1025);
#873=AXIS2_PLACEMENT_3D('',#1421,#1026,#1027);
#874=AXIS2_PLACEMENT_3D('',#1423,#1028,#1029);
#875=AXIS2_PLACEMENT_3D('',#1426,#1031,#1032);
#876=AXIS2_PLACEMENT_3D('',#1427,#1033,#1034);
#877=AXIS2_PLACEMENT_3D('',#1429,#1035,#1036);
#878=AXIS2_PLACEMENT_3D('',#1432,#1038,#1039);
#879=AXIS2_PLACEMENT_3D('',#1433,#1040,#1041);
#880=AXIS2_PLACEMENT_3D('',#1436,#1042,#1043);
#881=AXIS2_PLACEMENT_3D('',#1438,#1044,#1045);
#882=AXIS2_PLACEMENT_3D('',#1440,#1046,#1047);
#883=AXIS2_PLACEMENT_3D('',#1442,#1048,#1049);
#884=AXIS2_PLACEMENT_3D('',#1444,#1050,#1051);
#885=AXIS2_PLACEMENT_3D('',#1446,#1052,#1053);
#886=AXIS2_PLACEMENT_3D('',#1448,#1054,#1055);
#887=AXIS2_PLACEMENT_3D('',#1449,#1056,#1057);
#888=AXIS2_PLACEMENT_3D('',#1450,#1058,#1059);
#889=AXIS2_PLACEMENT_3D('',#1451,#1060,#1061);
#890=AXIS2_PLACEMENT_3D('',#1452,#1062,#1063);
#891=AXIS2_PLACEMENT_3D('',#1453,#1064,#1065);
#892=AXIS2_PLACEMENT_3D('',#1454,#1066,#1067);
#893=AXIS2_PLACEMENT_3D('',#1455,#1068,#1069);
#894=AXIS2_PLACEMENT_3D('',#1456,#1070,#1071);
#895=AXIS2_PLACEMENT_3D('',#1457,#1072,#1073);
#896=AXIS2_PLACEMENT_3D('',#1458,#1074,#1075);
#897=AXIS2_PLACEMENT_3D('',#1460,#1076,#1077);
#898=AXIS2_PLACEMENT_3D('',#1461,#1078,#1079);
#899=AXIS2_PLACEMENT_3D('',#1462,#1080,#1081);
#900=AXIS2_PLACEMENT_3D('',#1463,#1082,#1083);
#901=AXIS2_PLACEMENT_3D('',#1464,#1084,#1085);
#902=AXIS2_PLACEMENT_3D('',#1467,#1086,#1087);
#903=AXIS2_PLACEMENT_3D('',#1470,#1090,#1091);
#904=AXIS2_PLACEMENT_3D('',#1472,#1092,#1093);
#905=AXIS2_PLACEMENT_3D('',#1474,#1095,#1096);
#906=AXIS2_PLACEMENT_3D('',#1476,#1097,#1098);
#907=AXIS2_PLACEMENT_3D('',#1478,#1100,#1101);
#908=AXIS2_PLACEMENT_3D('',#1480,#1102,#1103);
#909=AXIS2_PLACEMENT_3D('',#1482,#1105,#1106);
#910=AXIS2_PLACEMENT_3D('',#1484,#1107,#1108);
#911=AXIS2_PLACEMENT_3D('',#1486,#1110,#1111);
#912=AXIS2_PLACEMENT_3D('',#1488,#1112,#1113);
#913=AXIS2_PLACEMENT_3D('',#1490,#1115,#1116);
#914=AXIS2_PLACEMENT_3D('',#1492,#1117,#1118);
#915=AXIS2_PLACEMENT_3D('',#1494,#1120,#1121);
#916=AXIS2_PLACEMENT_3D('',#1495,#1122,#1123);
#917=AXIS2_PLACEMENT_3D('',#1496,#1124,#1125);
#918=AXIS2_PLACEMENT_3D('',#1497,#1126,#1127);
#919=AXIS2_PLACEMENT_3D('',#1530,#1128,#1129);
#920=AXIS2_PLACEMENT_3D('',#1531,#1130,#1131);
#921=AXIS2_PLACEMENT_3D('',#1564,#1132,#1133);
#922=AXIS2_PLACEMENT_3D('',#1565,#1134,#1135);
#923=AXIS2_PLACEMENT_3D('',#1598,#1136,#1137);
#924=AXIS2_PLACEMENT_3D('',#1599,#1138,#1139);
#925=AXIS2_PLACEMENT_3D('',#1632,#1140,#1141);
#926=AXIS2_PLACEMENT_3D('',#1633,#1142,#1143);
#927=AXIS2_PLACEMENT_3D('',#1635,#1144,#1145);
#928=AXIS2_PLACEMENT_3D('',#1638,#1147,#1148);
#929=AXIS2_PLACEMENT_3D('',#1639,#1149,#1150);
#930=AXIS2_PLACEMENT_3D('',#1641,#1151,#1152);
#931=AXIS2_PLACEMENT_3D('',#1644,#1154,#1155);
#932=AXIS2_PLACEMENT_3D('',#1645,#1156,#1157);
#933=AXIS2_PLACEMENT_3D('',#1647,#1158,#1159);
#934=AXIS2_PLACEMENT_3D('',#1650,#1161,#1162);
#935=AXIS2_PLACEMENT_3D('',#1651,#1163,#1164);
#936=AXIS2_PLACEMENT_3D('',#1653,#1165,#1166);
#937=AXIS2_PLACEMENT_3D('',#1656,#1168,#1169);
#938=AXIS2_PLACEMENT_3D('',#1657,#1170,#1171);
#939=AXIS2_PLACEMENT_3D('',#1660,#1172,#1173);
#940=AXIS2_PLACEMENT_3D('',#1662,#1174,#1175);
#941=AXIS2_PLACEMENT_3D('',#1664,#1176,#1177);
#942=AXIS2_PLACEMENT_3D('',#1666,#1178,#1179);
#943=AXIS2_PLACEMENT_3D('',#1668,#1180,#1181);
#944=AXIS2_PLACEMENT_3D('',#1670,#1182,#1183);
#945=AXIS2_PLACEMENT_3D('',#1672,#1184,#1185);
#946=AXIS2_PLACEMENT_3D('',#1673,#1186,#1187);
#947=AXIS2_PLACEMENT_3D('',#1674,#1188,#1189);
#948=AXIS2_PLACEMENT_3D('',#1675,#1190,#1191);
#949=AXIS2_PLACEMENT_3D('',#1676,#1192,#1193);
#950=AXIS2_PLACEMENT_3D('',#1677,#1194,#1195);
#951=AXIS2_PLACEMENT_3D('',#1678,#1196,#1197);
#952=AXIS2_PLACEMENT_3D('',#1679,#1198,#1199);
#953=AXIS2_PLACEMENT_3D('',#1680,#1200,#1201);
#954=AXIS2_PLACEMENT_3D('',#1681,#1202,#1203);
#955=AXIS2_PLACEMENT_3D('',#1682,#1204,#1205);
#956=AXIS2_PLACEMENT_3D('',#1684,#1206,#1207);
#957=AXIS2_PLACEMENT_3D('',#1685,#1208,#1209);
#958=AXIS2_PLACEMENT_3D('',#1686,#1210,#1211);
#959=AXIS2_PLACEMENT_3D('',#1687,#1212,#1213);
#960=AXIS2_PLACEMENT_3D('',#1688,#1214,#1215);
#961=AXIS2_PLACEMENT_3D('',#1690,#1217,#1218);
#962=AXIS2_PLACEMENT_3D('',#1693,#1219,#1220);
#963=AXIS2_PLACEMENT_3D('',#1696,#1223,#1224);
#964=AXIS2_PLACEMENT_3D('',#1698,#1225,#1226);
#965=AXIS2_PLACEMENT_3D('',#1700,#1228,#1229);
#966=AXIS2_PLACEMENT_3D('',#1702,#1230,#1231);
#967=AXIS2_PLACEMENT_3D('',#1704,#1233,#1234);
#968=AXIS2_PLACEMENT_3D('',#1706,#1235,#1236);
#969=AXIS2_PLACEMENT_3D('',#1708,#1238,#1239);
#970=AXIS2_PLACEMENT_3D('',#1710,#1240,#1241);
#971=AXIS2_PLACEMENT_3D('',#1712,#1243,#1244);
#972=AXIS2_PLACEMENT_3D('',#1714,#1245,#1246);
#973=AXIS2_PLACEMENT_3D('',#1716,#1248,#1249);
#974=AXIS2_PLACEMENT_3D('',#1718,#1250,#1251);
#975=AXIS2_PLACEMENT_3D('',#1720,#1253,#1254);
#976=AXIS2_PLACEMENT_3D('',#1721,#1255,#1256);
#977=AXIS2_PLACEMENT_3D('',#1722,#1257,#1258);
#978=DIRECTION('axis',(0.,0.,1.));
#979=DIRECTION('refdir',(1.,0.,0.));
#980=DIRECTION('center_axis',(0.,0.,1.));
#981=DIRECTION('ref_axis',(1.,0.,0.));
#982=DIRECTION('center_axis',(0.,0.,1.));
#983=DIRECTION('ref_axis',(1.,0.,0.));
#984=DIRECTION('',(0.,0.,1.));
#985=DIRECTION('center_axis',(0.,0.,1.));
#986=DIRECTION('ref_axis',(1.,0.,0.));
#987=DIRECTION('center_axis',(0.,0.,1.));
#988=DIRECTION('ref_axis',(1.,0.,0.));
#989=DIRECTION('center_axis',(0.,0.,-1.));
#990=DIRECTION('ref_axis',(-1.,0.,0.));
#991=DIRECTION('center_axis',(0.,0.,-1.));
#992=DIRECTION('ref_axis',(-1.,0.,0.));
#993=DIRECTION('center_axis',(0.,0.,-1.));
#994=DIRECTION('ref_axis',(-1.,0.,0.));
#995=DIRECTION('',(0.,0.,-1.));
#996=DIRECTION('center_axis',(0.,0.,1.));
#997=DIRECTION('ref_axis',(-0.707106781186547,0.707106781186548,0.));
#998=DIRECTION('center_axis',(0.,0.,-1.));
#999=DIRECTION('ref_axis',(1.,0.,0.));
#1000=DIRECTION('center_axis',(0.,0.,1.));
#1001=DIRECTION('ref_axis',(1.,0.,0.));
#1002=DIRECTION('center_axis',(0.,0.,-1.));
#1003=DIRECTION('ref_axis',(1.,0.,0.));
#1004=DIRECTION('center_axis',(0.,0.,1.));
#1005=DIRECTION('ref_axis',(-0.707106781186547,-0.707106781186548,0.));
#1006=DIRECTION('center_axis',(0.,0.,-1.));
#1007=DIRECTION('ref_axis',(1.,0.,0.));
#1008=DIRECTION('center_axis',(0.,0.,1.));
#1009=DIRECTION('ref_axis',(1.,0.,0.));
#1010=DIRECTION('center_axis',(0.,0.,-1.));
#1011=DIRECTION('ref_axis',(1.,0.,0.));
#1012=DIRECTION('center_axis',(0.,0.,1.));
#1013=DIRECTION('ref_axis',(1.,0.,0.));
#1014=DIRECTION('center_axis',(0.,0.,-1.));
#1015=DIRECTION('ref_axis',(1.,0.,0.));
#1016=DIRECTION('',(0.,0.,1.));
#1017=DIRECTION('center_axis',(0.,0.,-1.));
#1018=DIRECTION('ref_axis',(1.,0.,0.));
#1019=DIRECTION('center_axis',(0.,0.,1.));
#1020=DIRECTION('ref_axis',(1.,0.,0.));
#1021=DIRECTION('center_axis',(0.,0.,-1.));
#1022=DIRECTION('ref_axis',(1.,0.,0.));
#1023=DIRECTION('',(0.,0.,1.));
#1024=DIRECTION('center_axis',(0.,0.,-1.));
#1025=DIRECTION('ref_axis',(1.,0.,0.));
#1026=DIRECTION('center_axis',(0.,0.,1.));
#1027=DIRECTION('ref_axis',(1.,0.,0.));
#1028=DIRECTION('center_axis',(0.,0.,-1.));
#1029=DIRECTION('ref_axis',(1.,0.,0.));
#1030=DIRECTION('',(0.,0.,1.));
#1031=DIRECTION('center_axis',(0.,0.,-1.));
#1032=DIRECTION('ref_axis',(1.,0.,0.));
#1033=DIRECTION('center_axis',(0.,0.,1.));
#1034=DIRECTION('ref_axis',(1.,0.,0.));
#1035=DIRECTION('center_axis',(0.,0.,-1.));
#1036=DIRECTION('ref_axis',(1.,0.,0.));
#1037=DIRECTION('',(0.,0.,1.));
#1038=DIRECTION('center_axis',(0.,0.,-1.));
#1039=DIRECTION('ref_axis',(1.,0.,0.));
#1040=DIRECTION('center_axis',(0.,0.,1.));
#1041=DIRECTION('ref_axis',(1.,0.,0.));
#1042=DIRECTION('center_axis',(0.,0.,1.));
#1043=DIRECTION('ref_axis',(1.,0.,0.));
#1044=DIRECTION('center_axis',(0.,0.,1.));
#1045=DIRECTION('ref_axis',(1.,0.,0.));
#1046=DIRECTION('center_axis',(0.,0.,1.));
#1047=DIRECTION('ref_axis',(1.,0.,0.));
#1048=DIRECTION('center_axis',(0.,0.,1.));
#1049=DIRECTION('ref_axis',(1.,0.,0.));
#1050=DIRECTION('center_axis',(0.,0.,1.));
#1051=DIRECTION('ref_axis',(1.,0.,0.));
#1052=DIRECTION('center_axis',(0.,0.,1.));
#1053=DIRECTION('ref_axis',(1.,0.,0.));
#1054=DIRECTION('center_axis',(0.,0.,1.));
#1055=DIRECTION('ref_axis',(1.,0.,0.));
#1056=DIRECTION('center_axis',(0.,0.,1.));
#1057=DIRECTION('ref_axis',(1.,0.,0.));
#1058=DIRECTION('center_axis',(0.,0.,1.));
#1059=DIRECTION('ref_axis',(1.,0.,0.));
#1060=DIRECTION('center_axis',(0.,0.,1.));
#1061=DIRECTION('ref_axis',(1.,0.,0.));
#1062=DIRECTION('center_axis',(0.,0.,1.));
#1063=DIRECTION('ref_axis',(1.,0.,0.));
#1064=DIRECTION('center_axis',(0.,0.,1.));
#1065=DIRECTION('ref_axis',(1.,0.,0.));
#1066=DIRECTION('center_axis',(0.,0.,1.));
#1067=DIRECTION('ref_axis',(1.,0.,0.));
#1068=DIRECTION('center_axis',(0.,0.,-1.));
#1069=DIRECTION('ref_axis',(1.,0.,0.));
#1070=DIRECTION('center_axis',(0.,0.,1.));
#1071=DIRECTION('ref_axis',(1.,0.,0.));
#1072=DIRECTION('center_axis',(0.,0.,-1.));
#1073=DIRECTION('ref_axis',(1.,0.,0.));
#1074=DIRECTION('center_axis',(0.,0.,1.));
#1075=DIRECTION('ref_axis',(-1.,3.21624529935327E-16,0.));
#1076=DIRECTION('center_axis',(0.,0.,-1.));
#1077=DIRECTION('ref_axis',(1.,0.,0.));
#1078=DIRECTION('center_axis',(0.,0.,-1.));
#1079=DIRECTION('ref_axis',(1.,0.,0.));
#1080=DIRECTION('center_axis',(0.,0.,1.));
#1081=DIRECTION('ref_axis',(1.,0.,0.));
#1082=DIRECTION('center_axis',(0.,0.,-1.));
#1083=DIRECTION('ref_axis',(1.,0.,0.));
#1084=DIRECTION('center_axis',(0.,0.,1.));
#1085=DIRECTION('ref_axis',(-1.,1.22464679914735E-16,0.));
#1086=DIRECTION('center_axis',(0.,0.,1.));
#1087=DIRECTION('ref_axis',(1.,0.,0.));
#1088=DIRECTION('',(0.,0.,-1.));
#1089=DIRECTION('',(0.,0.,-1.));
#1090=DIRECTION('center_axis',(0.,0.,1.));
#1091=DIRECTION('ref_axis',(-0.707106781186547,0.707106781186548,0.));
#1092=DIRECTION('center_axis',(0.,0.,1.));
#1093=DIRECTION('ref_axis',(1.,0.,0.));
#1094=DIRECTION('',(0.,0.,-1.));
#1095=DIRECTION('center_axis',(0.,0.,1.));
#1096=DIRECTION('ref_axis',(1.,0.,0.));
#1097=DIRECTION('center_axis',(0.,0.,1.));
#1098=DIRECTION('ref_axis',(1.,0.,0.));
#1099=DIRECTION('',(0.,0.,-1.));
#1100=DIRECTION('center_axis',(0.,0.,1.));
#1101=DIRECTION('ref_axis',(1.,0.,0.));
#1102=DIRECTION('center_axis',(0.,0.,1.));
#1103=DIRECTION('ref_axis',(1.,0.,0.));
#1104=DIRECTION('',(0.,0.,-1.));
#1105=DIRECTION('center_axis',(0.,0.,1.));
#1106=DIRECTION('ref_axis',(1.,0.,0.));
#1107=DIRECTION('center_axis',(0.,0.,1.));
#1108=DIRECTION('ref_axis',(1.,0.,0.));
#1109=DIRECTION('',(0.,0.,-1.));
#1110=DIRECTION('center_axis',(0.,0.,1.));
#1111=DIRECTION('ref_axis',(1.,0.,0.));
#1112=DIRECTION('center_axis',(0.,0.,1.));
#1113=DIRECTION('ref_axis',(1.,0.,0.));
#1114=DIRECTION('',(0.,0.,-1.));
#1115=DIRECTION('center_axis',(0.,0.,1.));
#1116=DIRECTION('ref_axis',(1.,0.,0.));
#1117=DIRECTION('center_axis',(0.,0.,1.));
#1118=DIRECTION('ref_axis',(1.,0.,0.));
#1119=DIRECTION('',(0.,0.,-1.));
#1120=DIRECTION('center_axis',(0.,0.,1.));
#1121=DIRECTION('ref_axis',(-0.707106781186548,-0.707106781186547,0.));
#1122=DIRECTION('center_axis',(0.,0.,1.));
#1123=DIRECTION('ref_axis',(1.,0.,0.));
#1124=DIRECTION('center_axis',(0.,0.,1.));
#1125=DIRECTION('ref_axis',(1.,0.,0.));
#1126=DIRECTION('center_axis',(0.,0.,1.));
#1127=DIRECTION('ref_axis',(-0.707106781186547,0.707106781186548,0.));
#1128=DIRECTION('center_axis',(0.,0.,-1.));
#1129=DIRECTION('ref_axis',(1.,0.,0.));
#1130=DIRECTION('center_axis',(0.,0.,1.));
#1131=DIRECTION('ref_axis',(1.,0.,0.));
#1132=DIRECTION('center_axis',(0.,0.,-1.));
#1133=DIRECTION('ref_axis',(1.,0.,0.));
#1134=DIRECTION('center_axis',(0.,0.,1.));
#1135=DIRECTION('ref_axis',(-0.707106781186548,-0.707106781186547,0.));
#1136=DIRECTION('center_axis',(0.,0.,-1.));
#1137=DIRECTION('ref_axis',(1.,0.,0.));
#1138=DIRECTION('center_axis',(0.,0.,1.));
#1139=DIRECTION('ref_axis',(1.,0.,0.));
#1140=DIRECTION('center_axis',(0.,0.,-1.));
#1141=DIRECTION('ref_axis',(1.,0.,0.));
#1142=DIRECTION('center_axis',(0.,0.,1.));
#1143=DIRECTION('ref_axis',(1.,0.,0.));
#1144=DIRECTION('center_axis',(0.,0.,-1.));
#1145=DIRECTION('ref_axis',(1.,0.,0.));
#1146=DIRECTION('',(0.,0.,-1.));
#1147=DIRECTION('center_axis',(0.,0.,-1.));
#1148=DIRECTION('ref_axis',(1.,0.,0.));
#1149=DIRECTION('center_axis',(0.,0.,1.));
#1150=DIRECTION('ref_axis',(1.,0.,0.));
#1151=DIRECTION('center_axis',(0.,0.,-1.));
#1152=DIRECTION('ref_axis',(1.,0.,0.));
#1153=DIRECTION('',(0.,0.,-1.));
#1154=DIRECTION('center_axis',(0.,0.,-1.));
#1155=DIRECTION('ref_axis',(1.,0.,0.));
#1156=DIRECTION('center_axis',(0.,0.,1.));
#1157=DIRECTION('ref_axis',(1.,0.,0.));
#1158=DIRECTION('center_axis',(0.,0.,-1.));
#1159=DIRECTION('ref_axis',(1.,0.,0.));
#1160=DIRECTION('',(0.,0.,-1.));
#1161=DIRECTION('center_axis',(0.,0.,-1.));
#1162=DIRECTION('ref_axis',(1.,0.,0.));
#1163=DIRECTION('center_axis',(0.,0.,1.));
#1164=DIRECTION('ref_axis',(1.,0.,0.));
#1165=DIRECTION('center_axis',(0.,0.,-1.));
#1166=DIRECTION('ref_axis',(1.,0.,0.));
#1167=DIRECTION('',(0.,0.,-1.));
#1168=DIRECTION('center_axis',(0.,0.,-1.));
#1169=DIRECTION('ref_axis',(1.,0.,0.));
#1170=DIRECTION('center_axis',(0.,0.,1.));
#1171=DIRECTION('ref_axis',(1.,0.,0.));
#1172=DIRECTION('center_axis',(0.,0.,1.));
#1173=DIRECTION('ref_axis',(1.,0.,0.));
#1174=DIRECTION('center_axis',(0.,0.,1.));
#1175=DIRECTION('ref_axis',(1.,0.,0.));
#1176=DIRECTION('center_axis',(0.,0.,1.));
#1177=DIRECTION('ref_axis',(1.,0.,0.));
#1178=DIRECTION('center_axis',(0.,0.,1.));
#1179=DIRECTION('ref_axis',(1.,0.,0.));
#1180=DIRECTION('center_axis',(0.,0.,1.));
#1181=DIRECTION('ref_axis',(1.,0.,0.));
#1182=DIRECTION('center_axis',(0.,0.,1.));
#1183=DIRECTION('ref_axis',(1.,0.,0.));
#1184=DIRECTION('center_axis',(0.,0.,1.));
#1185=DIRECTION('ref_axis',(1.,0.,0.));
#1186=DIRECTION('center_axis',(0.,0.,1.));
#1187=DIRECTION('ref_axis',(1.,0.,0.));
#1188=DIRECTION('center_axis',(0.,0.,1.));
#1189=DIRECTION('ref_axis',(1.,0.,0.));
#1190=DIRECTION('center_axis',(0.,0.,1.));
#1191=DIRECTION('ref_axis',(1.,0.,0.));
#1192=DIRECTION('center_axis',(0.,0.,1.));
#1193=DIRECTION('ref_axis',(1.,0.,0.));
#1194=DIRECTION('center_axis',(0.,0.,1.));
#1195=DIRECTION('ref_axis',(1.,0.,0.));
#1196=DIRECTION('center_axis',(0.,0.,-1.));
#1197=DIRECTION('ref_axis',(1.,0.,0.));
#1198=DIRECTION('center_axis',(0.,0.,-1.));
#1199=DIRECTION('ref_axis',(1.,0.,0.));
#1200=DIRECTION('center_axis',(0.,0.,-1.));
#1201=DIRECTION('ref_axis',(1.,0.,0.));
#1202=DIRECTION('center_axis',(0.,0.,-1.));
#1203=DIRECTION('ref_axis',(1.,0.,0.));
#1204=DIRECTION('center_axis',(0.,0.,-1.));
#1205=DIRECTION('ref_axis',(-1.,-5.66553889764798E-16,0.));
#1206=DIRECTION('center_axis',(0.,0.,-1.));
#1207=DIRECTION('ref_axis',(1.,0.,0.));
#1208=DIRECTION('center_axis',(0.,0.,-1.));
#1209=DIRECTION('ref_axis',(1.,0.,0.));
#1210=DIRECTION('center_axis',(0.,0.,-1.));
#1211=DIRECTION('ref_axis',(1.,0.,0.));
#1212=DIRECTION('center_axis',(0.,0.,-1.));
#1213=DIRECTION('ref_axis',(1.,0.,0.));
#1214=DIRECTION('center_axis',(0.,0.,1.));
#1215=DIRECTION('ref_axis',(1.,0.,0.));
#1216=DIRECTION('',(0.,0.,-1.));
#1217=DIRECTION('center_axis',(0.,0.,1.));
#1218=DIRECTION('ref_axis',(-1.,1.22464679914735E-16,0.));
#1219=DIRECTION('center_axis',(0.,0.,1.));
#1220=DIRECTION('ref_axis',(1.,0.,0.));
#1221=DIRECTION('',(0.,0.,1.));
#1222=DIRECTION('',(0.,0.,1.));
#1223=DIRECTION('center_axis',(0.,0.,1.));
#1224=DIRECTION('ref_axis',(-0.707106781186547,0.707106781186548,0.));
#1225=DIRECTION('center_axis',(0.,0.,1.));
#1226=DIRECTION('ref_axis',(1.,0.,0.));
#1227=DIRECTION('',(0.,0.,1.));
#1228=DIRECTION('center_axis',(0.,0.,1.));
#1229=DIRECTION('ref_axis',(1.,0.,0.));
#1230=DIRECTION('center_axis',(0.,0.,1.));
#1231=DIRECTION('ref_axis',(1.,0.,0.));
#1232=DIRECTION('',(0.,0.,1.));
#1233=DIRECTION('center_axis',(0.,0.,1.));
#1234=DIRECTION('ref_axis',(1.,0.,0.));
#1235=DIRECTION('center_axis',(0.,0.,1.));
#1236=DIRECTION('ref_axis',(1.,0.,0.));
#1237=DIRECTION('',(0.,0.,1.));
#1238=DIRECTION('center_axis',(0.,0.,1.));
#1239=DIRECTION('ref_axis',(1.,0.,0.));
#1240=DIRECTION('center_axis',(0.,0.,1.));
#1241=DIRECTION('ref_axis',(1.,0.,0.));
#1242=DIRECTION('',(0.,0.,1.));
#1243=DIRECTION('center_axis',(0.,0.,1.));
#1244=DIRECTION('ref_axis',(1.,0.,0.));
#1245=DIRECTION('center_axis',(0.,0.,1.));
#1246=DIRECTION('ref_axis',(1.,0.,0.));
#1247=DIRECTION('',(0.,0.,1.));
#1248=DIRECTION('center_axis',(0.,0.,1.));
#1249=DIRECTION('ref_axis',(1.,0.,0.));
#1250=DIRECTION('center_axis',(0.,0.,1.));
#1251=DIRECTION('ref_axis',(1.,0.,0.));
#1252=DIRECTION('',(0.,0.,1.));
#1253=DIRECTION('center_axis',(0.,0.,1.));
#1254=DIRECTION('ref_axis',(-0.707106781186548,-0.707106781186547,0.));
#1255=DIRECTION('center_axis',(0.,0.,1.));
#1256=DIRECTION('ref_axis',(1.,0.,0.));
#1257=DIRECTION('center_axis',(0.,0.,1.));
#1258=DIRECTION('ref_axis',(1.,0.,0.));
#1259=CARTESIAN_POINT('',(0.,0.,0.));
#1260=CARTESIAN_POINT('Origin',(0.,0.,0.));
#1261=CARTESIAN_POINT('',(-3.75,-4.59242549680257E-16,0.));
#1262=CARTESIAN_POINT('Origin',(0.,0.,0.));
#1263=CARTESIAN_POINT('',(-3.75,-4.59242549680257E-16,55.));
#1264=CARTESIAN_POINT('',(-3.75,-4.59242549680257E-16,0.));
#1265=CARTESIAN_POINT('Origin',(0.,0.,55.));
#1266=CARTESIAN_POINT('Origin',(0.,0.,55.));
#1267=CARTESIAN_POINT('',(2.6,-3.18408167778312E-16,55.));
#1268=CARTESIAN_POINT('Origin',(0.,0.,55.));
#1269=CARTESIAN_POINT('Origin',(0.,0.,60.));
#1270=CARTESIAN_POINT('',(2.6,3.18408167778312E-16,60.));
#1271=CARTESIAN_POINT('Origin',(0.,0.,60.));
#1272=CARTESIAN_POINT('',(2.6,-3.18408167778312E-16,60.));
#1273=CARTESIAN_POINT('Origin',(12.5,-12.5,55.));
#1274=CARTESIAN_POINT('',(8.25735931288071,-8.25735931288071,45.86));
#1275=CARTESIAN_POINT('',(18.0857548404031,-10.3092597454484,55.));
#1276=CARTESIAN_POINT('Ctrl Pts',(8.25735931288072,-8.25735931288072,45.86));
#1277=CARTESIAN_POINT('Ctrl Pts',(8.65827380795974,-7.85644481780169,45.86));
#1278=CARTESIAN_POINT('Ctrl Pts',(9.13232762542531,-7.50334778283217,45.990979307735));
#1279=CARTESIAN_POINT('Ctrl Pts',(10.1055507006351,-6.97059151932194,46.448375429759));
#1280=CARTESIAN_POINT('Ctrl Pts',(10.6054747104754,-6.78814843088704,46.7699263082461));
#1281=CARTESIAN_POINT('Ctrl Pts',(11.7486503334277,-6.50447537104709,47.6018303047833));
#1282=CARTESIAN_POINT('Ctrl Pts',(12.4674332443128,-6.46057247020178,48.2222488097974));
#1283=CARTESIAN_POINT('Ctrl Pts',(13.8387200170621,-6.61072417789067,49.517103541567));
#1284=CARTESIAN_POINT('Ctrl Pts',(14.4907494909569,-6.80616526314645,50.1918809449414));
#1285=CARTESIAN_POINT('Ctrl Pts',(15.8355175919451,-7.43778986901277,51.6775965597787));
#1286=CARTESIAN_POINT('Ctrl Pts',(16.6001386796741,-8.01439589467507,52.6114997492803));
#1287=CARTESIAN_POINT('Ctrl Pts',(17.5620590707313,-9.22668433873199,54.0191418760057));
#1288=CARTESIAN_POINT('Ctrl Pts',(17.8651034970378,-9.74666255635499,54.5296972775083));
#1289=CARTESIAN_POINT('Ctrl Pts',(18.0857548404031,-10.3092597454484,55.));
#1290=CARTESIAN_POINT('',(10.3092597454484,-18.0857548404031,55.));
#1291=CARTESIAN_POINT('Origin',(12.5,-12.5,55.));
#1292=CARTESIAN_POINT('Ctrl Pts',(10.3092597454484,-18.0857548404031,55.));
#1293=CARTESIAN_POINT('Ctrl Pts',(9.74666255635498,-17.8651034970378,54.5296972775082));
#1294=CARTESIAN_POINT('Ctrl Pts',(9.22668433873198,-17.5620590707313,54.0191418760057));
#1295=CARTESIAN_POINT('Ctrl Pts',(8.01439589467506,-16.6001386796741,52.6114997492803));
#1296=CARTESIAN_POINT('Ctrl Pts',(7.43778986901277,-15.8355175919451,51.6775965597787));
#1297=CARTESIAN_POINT('Ctrl Pts',(7.06921060440419,-15.0507893955958,50.8106196186522));
#1298=CARTESIAN_POINT('Ctrl Pts',(6.80616526314645,-14.4907494909569,50.1918809449414));
#1299=CARTESIAN_POINT('Ctrl Pts',(6.61072417789067,-13.8387200170621,49.5171035415671));
#1300=CARTESIAN_POINT('Ctrl Pts',(6.46057247020178,-12.4674332443128,48.2222488097974));
#1301=CARTESIAN_POINT('Ctrl Pts',(6.50447537104709,-11.7486503334278,47.6018303047833));
#1302=CARTESIAN_POINT('Ctrl Pts',(6.78814843088704,-10.6054747104754,46.7699263082461));
#1303=CARTESIAN_POINT('Ctrl Pts',(6.97059151932194,-10.1055507006351,46.448375429759));
#1304=CARTESIAN_POINT('Ctrl Pts',(7.50334778283217,-9.13232762542532,45.990979307735));
#1305=CARTESIAN_POINT('Ctrl Pts',(7.85644481780169,-8.65827380795975,45.86));
#1306=CARTESIAN_POINT('Ctrl Pts',(8.25735931288072,-8.25735931288072,45.86));
#1307=CARTESIAN_POINT('Origin',(-12.5,-12.5,55.));
#1308=CARTESIAN_POINT('',(-8.25735931288071,-8.25735931288072,45.86));
#1309=CARTESIAN_POINT('',(-10.3092597454484,-18.0857548404031,55.));
#1310=CARTESIAN_POINT('Ctrl Pts',(-8.25735931288072,-8.25735931288072,45.86));
#1311=CARTESIAN_POINT('Ctrl Pts',(-7.85644481780169,-8.65827380795974,45.86));
#1312=CARTESIAN_POINT('Ctrl Pts',(-7.50334778283217,-9.13232762542531,45.990979307735));
#1313=CARTESIAN_POINT('Ctrl Pts',(-6.97059151932194,-10.1055507006351,46.448375429759));
#1314=CARTESIAN_POINT('Ctrl Pts',(-6.78814843088704,-10.6054747104754,46.7699263082461));
#1315=CARTESIAN_POINT('Ctrl Pts',(-6.50447537104708,-11.7486503334277,47.6018303047833));
#1316=CARTESIAN_POINT('Ctrl Pts',(-6.46057247020177,-12.4674332443128,48.2222488097974));
#1317=CARTESIAN_POINT('Ctrl Pts',(-6.61072417789067,-13.8387200170621,49.517103541567));
#1318=CARTESIAN_POINT('Ctrl Pts',(-6.80616526314644,-14.4907494909569,50.1918809449414));
#1319=CARTESIAN_POINT('Ctrl Pts',(-7.43778986901276,-15.8355175919451,51.6775965597787));
#1320=CARTESIAN_POINT('Ctrl Pts',(-8.01439589467506,-16.6001386796741,52.6114997492803));
#1321=CARTESIAN_POINT('Ctrl Pts',(-9.22668433873197,-17.5620590707313,54.0191418760056));
#1322=CARTESIAN_POINT('Ctrl Pts',(-9.74666255635499,-17.8651034970378,54.5296972775083));
#1323=CARTESIAN_POINT('Ctrl Pts',(-10.3092597454484,-18.0857548404031,55.));
#1324=CARTESIAN_POINT('',(-18.0857548404031,-10.3092597454484,55.));
#1325=CARTESIAN_POINT('Origin',(-12.5,-12.5,55.));
#1326=CARTESIAN_POINT('Ctrl Pts',(-18.0857548404031,-10.3092597454484,55.));
#1327=CARTESIAN_POINT('Ctrl Pts',(-17.8651034970378,-9.746662556355,54.5296972775083));
#1328=CARTESIAN_POINT('Ctrl Pts',(-17.5620590707313,-9.22668433873199,54.0191418760057));
#1329=CARTESIAN_POINT('Ctrl Pts',(-16.6001386796741,-8.01439589467507,52.6114997492803));
#1330=CARTESIAN_POINT('Ctrl Pts',(-15.8355175919451,-7.43778986901277,51.6775965597787));
#1331=CARTESIAN_POINT('Ctrl Pts',(-15.0507893955958,-7.06921060440419,50.8106196186522));
#1332=CARTESIAN_POINT('Ctrl Pts',(-14.4907494909569,-6.80616526314645,50.1918809449414));
#1333=CARTESIAN_POINT('Ctrl Pts',(-13.8387200170621,-6.61072417789068,49.5171035415671));
#1334=CARTESIAN_POINT('Ctrl Pts',(-12.4674332443128,-6.46057247020178,48.2222488097974));
#1335=CARTESIAN_POINT('Ctrl Pts',(-11.7486503334277,-6.50447537104709,47.6018303047833));
#1336=CARTESIAN_POINT('Ctrl Pts',(-10.6054747104754,-6.78814843088704,46.7699263082461));
#1337=CARTESIAN_POINT('Ctrl Pts',(-10.1055507006351,-6.97059151932194,46.448375429759));
#1338=CARTESIAN_POINT('Ctrl Pts',(-9.13232762542531,-7.50334778283217,45.990979307735));
#1339=CARTESIAN_POINT('Ctrl Pts',(-8.65827380795974,-7.85644481780169,45.86));
#1340=CARTESIAN_POINT('Ctrl Pts',(-8.25735931288071,-8.25735931288072,45.86));
#1341=CARTESIAN_POINT('Origin',(12.5,12.5,55.));
#1342=CARTESIAN_POINT('',(8.25735931288072,8.25735931288071,45.86));
#1343=CARTESIAN_POINT('',(10.3092597454484,18.0857548404031,55.));
#1344=CARTESIAN_POINT('Ctrl Pts',(8.25735931288072,8.25735931288071,45.86));
#1345=CARTESIAN_POINT('Ctrl Pts',(7.85644481780169,8.65827380795974,45.86));
#1346=CARTESIAN_POINT('Ctrl Pts',(7.50334778283217,9.13232762542531,45.990979307735));
#1347=CARTESIAN_POINT('Ctrl Pts',(6.97059151932194,10.1055507006351,46.448375429759));
#1348=CARTESIAN_POINT('Ctrl Pts',(6.78814843088704,10.6054747104754,46.7699263082461));
#1349=CARTESIAN_POINT('Ctrl Pts',(6.50447537104709,11.7486503334277,47.6018303047833));
#1350=CARTESIAN_POINT('Ctrl Pts',(6.46057247020178,12.4674332443128,48.2222488097974));
#1351=CARTESIAN_POINT('Ctrl Pts',(6.61072417789067,13.8387200170621,49.517103541567));
#1352=CARTESIAN_POINT('Ctrl Pts',(6.80616526314645,14.4907494909569,50.1918809449414));
#1353=CARTESIAN_POINT('Ctrl Pts',(7.43778986901277,15.8355175919451,51.6775965597787));
#1354=CARTESIAN_POINT('Ctrl Pts',(8.01439589467506,16.6001386796741,52.6114997492803));
#1355=CARTESIAN_POINT('Ctrl Pts',(9.22668433873198,17.5620590707313,54.0191418760056));
#1356=CARTESIAN_POINT('Ctrl Pts',(9.74666255635499,17.8651034970378,54.5296972775083));
#1357=CARTESIAN_POINT('Ctrl Pts',(10.3092597454484,18.0857548404031,55.));
#1358=CARTESIAN_POINT('',(18.0857548404031,10.3092597454484,55.));
#1359=CARTESIAN_POINT('Origin',(12.5,12.5,55.));
#1360=CARTESIAN_POINT('Ctrl Pts',(18.0857548404031,10.3092597454484,55.));
#1361=CARTESIAN_POINT('Ctrl Pts',(17.8651034970378,9.74666255635498,54.5296972775083));
#1362=CARTESIAN_POINT('Ctrl Pts',(17.5620590707313,9.22668433873197,54.0191418760056));
#1363=CARTESIAN_POINT('Ctrl Pts',(16.6001386796741,8.01439589467505,52.6114997492803));
#1364=CARTESIAN_POINT('Ctrl Pts',(15.8355175919451,7.43778986901276,51.6775965597787));
#1365=CARTESIAN_POINT('Ctrl Pts',(15.0507893955958,7.06921060440418,50.8106196186522));
#1366=CARTESIAN_POINT('Ctrl Pts',(14.4907494909569,6.80616526314644,50.1918809449414));
#1367=CARTESIAN_POINT('Ctrl Pts',(13.8387200170621,6.61072417789067,49.517103541567));
#1368=CARTESIAN_POINT('Ctrl Pts',(12.4674332443128,6.46057247020177,48.2222488097974));
#1369=CARTESIAN_POINT('Ctrl Pts',(11.7486503334277,6.50447537104708,47.6018303047833));
#1370=CARTESIAN_POINT('Ctrl Pts',(10.6054747104754,6.78814843088703,46.7699263082461));
#1371=CARTESIAN_POINT('Ctrl Pts',(10.1055507006351,6.97059151932193,46.448375429759));
#1372=CARTESIAN_POINT('Ctrl Pts',(9.13232762542532,7.50334778283216,45.990979307735));
#1373=CARTESIAN_POINT('Ctrl Pts',(8.65827380795974,7.85644481780168,45.86));
#1374=CARTESIAN_POINT('Ctrl Pts',(8.25735931288072,8.25735931288071,45.86));
#1375=CARTESIAN_POINT('Origin',(-12.5,12.5,55.));
#1376=CARTESIAN_POINT('',(-8.25735931288072,8.25735931288071,45.86));
#1377=CARTESIAN_POINT('',(-18.0857548404031,10.3092597454484,55.));
#1378=CARTESIAN_POINT('Ctrl Pts',(-8.25735931288071,8.25735931288071,45.86));
#1379=CARTESIAN_POINT('Ctrl Pts',(-8.65827380795974,7.85644481780168,45.86));
#1380=CARTESIAN_POINT('Ctrl Pts',(-9.13232762542531,7.50334778283216,45.990979307735));
#1381=CARTESIAN_POINT('Ctrl Pts',(-10.1055507006351,6.97059151932193,46.448375429759));
#1382=CARTESIAN_POINT('Ctrl Pts',(-10.6054747104754,6.78814843088703,46.7699263082461));
#1383=CARTESIAN_POINT('Ctrl Pts',(-11.7486503334277,6.50447537104708,47.6018303047833));
#1384=CARTESIAN_POINT('Ctrl Pts',(-12.4674332443128,6.46057247020177,48.2222488097974));
#1385=CARTESIAN_POINT('Ctrl Pts',(-13.838720017062,6.61072417789067,49.517103541567));
#1386=CARTESIAN_POINT('Ctrl Pts',(-14.4907494909569,6.80616526314644,50.1918809449414));
#1387=CARTESIAN_POINT('Ctrl Pts',(-15.8355175919451,7.43778986901276,51.6775965597787));
#1388=CARTESIAN_POINT('Ctrl Pts',(-16.6001386796741,8.01439589467506,52.6114997492803));
#1389=CARTESIAN_POINT('Ctrl Pts',(-17.5620590707313,9.22668433873198,54.0191418760056));
#1390=CARTESIAN_POINT('Ctrl Pts',(-17.8651034970378,9.74666255635499,54.5296972775083));
#1391=CARTESIAN_POINT('Ctrl Pts',(-18.0857548404031,10.3092597454484,55.));
#1392=CARTESIAN_POINT('',(-10.3092597454484,18.0857548404031,55.));
#1393=CARTESIAN_POINT('Origin',(-12.5,12.5,55.));
#1394=CARTESIAN_POINT('Ctrl Pts',(-10.3092597454484,18.0857548404031,55.));
#1395=CARTESIAN_POINT('Ctrl Pts',(-9.74666255635499,17.8651034970378,54.5296972775083));
#1396=CARTESIAN_POINT('Ctrl Pts',(-9.22668433873198,17.5620590707313,54.0191418760056));
#1397=CARTESIAN_POINT('Ctrl Pts',(-8.01439589467506,16.6001386796741,52.6114997492803));
#1398=CARTESIAN_POINT('Ctrl Pts',(-7.43778986901276,15.8355175919451,51.6775965597787));
#1399=CARTESIAN_POINT('Ctrl Pts',(-7.06921060440418,15.0507893955958,50.8106196186522));
#1400=CARTESIAN_POINT('Ctrl Pts',(-6.80616526314645,14.4907494909569,50.1918809449414));
#1401=CARTESIAN_POINT('Ctrl Pts',(-6.61072417789067,13.8387200170621,49.517103541567));
#1402=CARTESIAN_POINT('Ctrl Pts',(-6.46057247020178,12.4674332443128,48.2222488097974));
#1403=CARTESIAN_POINT('Ctrl Pts',(-6.50447537104708,11.7486503334277,47.6018303047833));
#1404=CARTESIAN_POINT('Ctrl Pts',(-6.78814843088704,10.6054747104754,46.7699263082461));
#1405=CARTESIAN_POINT('Ctrl Pts',(-6.97059151932193,10.1055507006351,46.448375429759));
#1406=CARTESIAN_POINT('Ctrl Pts',(-7.50334778283216,9.13232762542531,45.990979307735));
#1407=CARTESIAN_POINT('Ctrl Pts',(-7.85644481780168,8.65827380795974,45.86));
#1408=CARTESIAN_POINT('Ctrl Pts',(-8.25735931288071,8.25735931288071,45.86));
#1409=CARTESIAN_POINT('Origin',(12.5,-12.5,60.));
#1410=CARTESIAN_POINT('',(9.35,-12.5,55.));
#1411=CARTESIAN_POINT('Origin',(12.5,-12.5,55.));
#1412=CARTESIAN_POINT('',(9.35,-12.5,60.));
#1413=CARTESIAN_POINT('',(9.35,-12.5,60.));
#1414=CARTESIAN_POINT('Origin',(12.5,-12.5,60.));
#1415=CARTESIAN_POINT('Origin',(-12.5,-12.5,60.));
#1416=CARTESIAN_POINT('',(-15.65,-12.5,55.));
#1417=CARTESIAN_POINT('Origin',(-12.5,-12.5,55.));
#1418=CARTESIAN_POINT('',(-15.65,-12.5,60.));
#1419=CARTESIAN_POINT('',(-15.65,-12.5,60.));
#1420=CARTESIAN_POINT('Origin',(-12.5,-12.5,60.));
#1421=CARTESIAN_POINT('Origin',(12.5,12.5,60.));
#1422=CARTESIAN_POINT('',(9.35,12.5,55.));
#1423=CARTESIAN_POINT('Origin',(12.5,12.5,55.));
#1424=CARTESIAN_POINT('',(9.35,12.5,60.));
#1425=CARTESIAN_POINT('',(9.35,12.5,60.));
#1426=CARTESIAN_POINT('Origin',(12.5,12.5,60.));
#1427=CARTESIAN_POINT('Origin',(-12.5,12.5,60.));
#1428=CARTESIAN_POINT('',(-15.65,12.5,55.));
#1429=CARTESIAN_POINT('Origin',(-12.5,12.5,55.));
#1430=CARTESIAN_POINT('',(-15.65,12.5,60.));
#1431=CARTESIAN_POINT('',(-15.65,12.5,60.));
#1432=CARTESIAN_POINT('Origin',(-12.5,12.5,60.));
#1433=CARTESIAN_POINT('Origin',(0.,0.,55.));
#1434=CARTESIAN_POINT('',(18.1680492401225,-10.5319507598775,55.));
#1435=CARTESIAN_POINT('',(18.1680492401225,10.5319507598775,55.));
#1436=CARTESIAN_POINT('Origin',(0.,0.,55.));
#1437=CARTESIAN_POINT('',(10.5319507598775,-18.1680492401225,55.));
#1438=CARTESIAN_POINT('Origin',(12.5,-12.5,55.));
#1439=CARTESIAN_POINT('',(-10.5319507598775,-18.1680492401225,55.));
#1440=CARTESIAN_POINT('Origin',(0.,0.,55.));
#1441=CARTESIAN_POINT('',(-18.1680492401225,-10.5319507598775,55.));
#1442=CARTESIAN_POINT('Origin',(-12.5,-12.5,55.));
#1443=CARTESIAN_POINT('',(-18.1680492401225,10.5319507598775,55.));
#1444=CARTESIAN_POINT('Origin',(0.,0.,55.));
#1445=CARTESIAN_POINT('',(-10.5319507598775,18.1680492401225,55.));
#1446=CARTESIAN_POINT('Origin',(-12.5,12.5,55.));
#1447=CARTESIAN_POINT('',(10.5319507598775,18.1680492401225,55.));
#1448=CARTESIAN_POINT('Origin',(0.,0.,55.));
#1449=CARTESIAN_POINT('Origin',(12.5,12.5,55.));
#1450=CARTESIAN_POINT('Origin',(0.,0.,55.));
#1451=CARTESIAN_POINT('Origin',(0.,0.,55.));
#1452=CARTESIAN_POINT('Origin',(0.,0.,55.));
#1453=CARTESIAN_POINT('Origin',(0.,0.,55.));
#1454=CARTESIAN_POINT('Origin',(0.,0.,50.43));
#1455=CARTESIAN_POINT('Origin',(0.,0.,45.86));
#1456=CARTESIAN_POINT('Origin',(0.,0.,50.43));
#1457=CARTESIAN_POINT('Origin',(0.,0.,45.86));
#1458=CARTESIAN_POINT('Origin',(0.,0.,50.43));
#1459=CARTESIAN_POINT('',(-11.6776695296637,-1.43010206110032E-15,45.86));
#1460=CARTESIAN_POINT('Origin',(0.,0.,45.86));
#1461=CARTESIAN_POINT('Origin',(0.,0.,45.86));
#1462=CARTESIAN_POINT('Origin',(0.,0.,50.43));
#1463=CARTESIAN_POINT('Origin',(0.,0.,45.86));
#1464=CARTESIAN_POINT('Origin',(0.,0.,60.));
#1465=CARTESIAN_POINT('',(-18.1680492401225,10.5319507598775,60.));
#1466=CARTESIAN_POINT('',(-18.1680492401225,-10.5319507598775,60.));
#1467=CARTESIAN_POINT('Origin',(0.,0.,60.));
#1468=CARTESIAN_POINT('',(-18.1680492401225,10.5319507598775,60.));
#1469=CARTESIAN_POINT('',(-18.1680492401225,-10.5319507598775,60.));
#1470=CARTESIAN_POINT('Origin',(-12.5,12.5,60.));
#1471=CARTESIAN_POINT('',(-10.5319507598775,18.1680492401225,60.));
#1472=CARTESIAN_POINT('Origin',(-12.5,12.5,60.));
#1473=CARTESIAN_POINT('',(-10.5319507598775,18.1680492401225,60.));
#1474=CARTESIAN_POINT('Origin',(0.,0.,60.));
#1475=CARTESIAN_POINT('',(10.5319507598775,18.1680492401225,60.));
#1476=CARTESIAN_POINT('Origin',(0.,0.,60.));
#1477=CARTESIAN_POINT('',(10.5319507598775,18.1680492401225,60.));
#1478=CARTESIAN_POINT('Origin',(12.5,12.5,60.));
#1479=CARTESIAN_POINT('',(18.1680492401225,10.5319507598775,60.));
#1480=CARTESIAN_POINT('Origin',(12.5,12.5,60.));
#1481=CARTESIAN_POINT('',(18.1680492401225,10.5319507598775,60.));
#1482=CARTESIAN_POINT('Origin',(0.,0.,60.));
#1483=CARTESIAN_POINT('',(18.1680492401225,-10.5319507598775,60.));
#1484=CARTESIAN_POINT('Origin',(0.,0.,60.));
#1485=CARTESIAN_POINT('',(18.1680492401225,-10.5319507598775,60.));
#1486=CARTESIAN_POINT('Origin',(12.5,-12.5,60.));
#1487=CARTESIAN_POINT('',(10.5319507598775,-18.1680492401225,60.));
#1488=CARTESIAN_POINT('Origin',(12.5,-12.5,60.));
#1489=CARTESIAN_POINT('',(10.5319507598775,-18.1680492401225,60.));
#1490=CARTESIAN_POINT('Origin',(0.,0.,60.));
#1491=CARTESIAN_POINT('',(-10.5319507598775,-18.1680492401225,60.));
#1492=CARTESIAN_POINT('Origin',(0.,0.,60.));
#1493=CARTESIAN_POINT('',(-10.5319507598775,-18.1680492401225,60.));
#1494=CARTESIAN_POINT('Origin',(-12.5,-12.5,60.));
#1495=CARTESIAN_POINT('Origin',(-12.5,-12.5,60.));
#1496=CARTESIAN_POINT('Origin',(0.,0.,60.));
#1497=CARTESIAN_POINT('Origin',(12.5,-12.5,5.));
#1498=CARTESIAN_POINT('',(8.25735931288071,-8.25735931288071,14.14));
#1499=CARTESIAN_POINT('',(18.0857548404031,-10.3092597454484,5.));
#1500=CARTESIAN_POINT('Ctrl Pts',(8.25735931288072,-8.25735931288072,14.14));
#1501=CARTESIAN_POINT('Ctrl Pts',(8.65827380795974,-7.85644481780169,14.14));
#1502=CARTESIAN_POINT('Ctrl Pts',(9.13232762542531,-7.50334778283217,14.009020692265));
#1503=CARTESIAN_POINT('Ctrl Pts',(10.1055507006351,-6.97059151932194,13.551624570241));
#1504=CARTESIAN_POINT('Ctrl Pts',(10.6054747104754,-6.78814843088704,13.2300736917539));
#1505=CARTESIAN_POINT('Ctrl Pts',(11.7486503334277,-6.50447537104709,12.3981696952167));
#1506=CARTESIAN_POINT('Ctrl Pts',(12.4674332443128,-6.46057247020178,11.7777511902026));
#1507=CARTESIAN_POINT('Ctrl Pts',(13.8387200170621,-6.61072417789067,10.482896458433));
#1508=CARTESIAN_POINT('Ctrl Pts',(14.4907494909569,-6.80616526314645,9.80811905505855));
#1509=CARTESIAN_POINT('Ctrl Pts',(15.8355175919451,-7.43778986901277,8.32240344022133));
#1510=CARTESIAN_POINT('Ctrl Pts',(16.6001386796741,-8.01439589467507,7.38850025071966));
#1511=CARTESIAN_POINT('Ctrl Pts',(17.5620590707313,-9.22668433873199,5.98085812399435));
#1512=CARTESIAN_POINT('Ctrl Pts',(17.8651034970378,-9.74666255635499,5.47030272249174));
#1513=CARTESIAN_POINT('Ctrl Pts',(18.0857548404031,-10.3092597454484,5.));
#1514=CARTESIAN_POINT('',(10.3092597454484,-18.0857548404031,5.));
#1515=CARTESIAN_POINT('Ctrl Pts',(10.3092597454484,-18.0857548404031,5.));
#1516=CARTESIAN_POINT('Ctrl Pts',(9.74666255635499,-17.8651034970378,5.47030272249174));
#1517=CARTESIAN_POINT('Ctrl Pts',(9.22668433873198,-17.5620590707313,5.98085812399434));
#1518=CARTESIAN_POINT('Ctrl Pts',(8.01439589467506,-16.6001386796741,7.38850025071966));
#1519=CARTESIAN_POINT('Ctrl Pts',(7.43778986901277,-15.8355175919451,8.32240344022133));
#1520=CARTESIAN_POINT('Ctrl Pts',(7.06921060440419,-15.0507893955958,9.18938038134779));
#1521=CARTESIAN_POINT('Ctrl Pts',(6.80616526314645,-14.4907494909569,9.80811905505855));
#1522=CARTESIAN_POINT('Ctrl Pts',(6.61072417789067,-13.8387200170621,10.482896458433));
#1523=CARTESIAN_POINT('Ctrl Pts',(6.46057247020178,-12.4674332443128,11.7777511902026));
#1524=CARTESIAN_POINT('Ctrl Pts',(6.50447537104709,-11.7486503334278,12.3981696952167));
#1525=CARTESIAN_POINT('Ctrl Pts',(6.78814843088704,-10.6054747104754,13.2300736917539));
#1526=CARTESIAN_POINT('Ctrl Pts',(6.97059151932194,-10.1055507006351,13.551624570241));
#1527=CARTESIAN_POINT('Ctrl Pts',(7.50334778283217,-9.13232762542532,14.009020692265));
#1528=CARTESIAN_POINT('Ctrl Pts',(7.85644481780169,-8.65827380795975,14.14));
#1529=CARTESIAN_POINT('Ctrl Pts',(8.25735931288072,-8.25735931288072,14.14));
#1530=CARTESIAN_POINT('Origin',(12.5,-12.5,5.));
#1531=CARTESIAN_POINT('Origin',(-12.5,-12.5,5.));
#1532=CARTESIAN_POINT('',(-8.25735931288071,-8.25735931288072,14.14));
#1533=CARTESIAN_POINT('',(-10.3092597454484,-18.0857548404031,5.));
#1534=CARTESIAN_POINT('Ctrl Pts',(-8.25735931288072,-8.25735931288072,14.14));
#1535=CARTESIAN_POINT('Ctrl Pts',(-7.85644481780169,-8.65827380795974,14.14));
#1536=CARTESIAN_POINT('Ctrl Pts',(-7.50334778283217,-9.13232762542531,14.009020692265));
#1537=CARTESIAN_POINT('Ctrl Pts',(-6.97059151932194,-10.1055507006351,13.551624570241));
#1538=CARTESIAN_POINT('Ctrl Pts',(-6.78814843088704,-10.6054747104754,13.2300736917539));
#1539=CARTESIAN_POINT('Ctrl Pts',(-6.50447537104708,-11.7486503334277,12.3981696952167));
#1540=CARTESIAN_POINT('Ctrl Pts',(-6.46057247020177,-12.4674332443128,11.7777511902026));
#1541=CARTESIAN_POINT('Ctrl Pts',(-6.61072417789067,-13.8387200170621,10.482896458433));
#1542=CARTESIAN_POINT('Ctrl Pts',(-6.80616526314644,-14.4907494909569,9.80811905505855));
#1543=CARTESIAN_POINT('Ctrl Pts',(-7.43778986901276,-15.8355175919451,8.32240344022133));
#1544=CARTESIAN_POINT('Ctrl Pts',(-8.01439589467506,-16.6001386796741,7.38850025071966));
#1545=CARTESIAN_POINT('Ctrl Pts',(-9.22668433873197,-17.5620590707313,5.98085812399435));
#1546=CARTESIAN_POINT('Ctrl Pts',(-9.74666255635498,-17.8651034970378,5.47030272249174));
#1547=CARTESIAN_POINT('Ctrl Pts',(-10.3092597454484,-18.0857548404031,5.));
#1548=CARTESIAN_POINT('',(-18.0857548404031,-10.3092597454484,5.));
#1549=CARTESIAN_POINT('Ctrl Pts',(-18.0857548404031,-10.3092597454484,5.));
#1550=CARTESIAN_POINT('Ctrl Pts',(-17.8651034970378,-9.746662556355,5.47030272249174));
#1551=CARTESIAN_POINT('Ctrl Pts',(-17.5620590707313,-9.22668433873199,5.98085812399434));
#1552=CARTESIAN_POINT('Ctrl Pts',(-16.6001386796741,-8.01439589467507,7.38850025071965));
#1553=CARTESIAN_POINT('Ctrl Pts',(-15.8355175919451,-7.43778986901277,8.32240344022133));
#1554=CARTESIAN_POINT('Ctrl Pts',(-15.0507893955958,-7.06921060440419,9.18938038134779));
#1555=CARTESIAN_POINT('Ctrl Pts',(-14.4907494909569,-6.80616526314645,9.80811905505855));
#1556=CARTESIAN_POINT('Ctrl Pts',(-13.8387200170621,-6.61072417789068,10.482896458433));
#1557=CARTESIAN_POINT('Ctrl Pts',(-12.4674332443128,-6.46057247020178,11.7777511902026));
#1558=CARTESIAN_POINT('Ctrl Pts',(-11.7486503334277,-6.50447537104709,12.3981696952167));
#1559=CARTESIAN_POINT('Ctrl Pts',(-10.6054747104754,-6.78814843088704,13.2300736917539));
#1560=CARTESIAN_POINT('Ctrl Pts',(-10.1055507006351,-6.97059151932194,13.551624570241));
#1561=CARTESIAN_POINT('Ctrl Pts',(-9.13232762542531,-7.50334778283217,14.009020692265));
#1562=CARTESIAN_POINT('Ctrl Pts',(-8.65827380795974,-7.85644481780169,14.14));
#1563=CARTESIAN_POINT('Ctrl Pts',(-8.25735931288071,-8.25735931288072,14.14));
#1564=CARTESIAN_POINT('Origin',(-12.5,-12.5,5.));
#1565=CARTESIAN_POINT('Origin',(12.5,12.5,5.));
#1566=CARTESIAN_POINT('',(8.25735931288072,8.25735931288071,14.14));
#1567=CARTESIAN_POINT('',(10.3092597454484,18.0857548404031,5.));
#1568=CARTESIAN_POINT('Ctrl Pts',(8.25735931288072,8.25735931288071,14.14));
#1569=CARTESIAN_POINT('Ctrl Pts',(7.85644481780169,8.65827380795974,14.14));
#1570=CARTESIAN_POINT('Ctrl Pts',(7.50334778283217,9.13232762542531,14.009020692265));
#1571=CARTESIAN_POINT('Ctrl Pts',(6.97059151932194,10.1055507006351,13.551624570241));
#1572=CARTESIAN_POINT('Ctrl Pts',(6.78814843088704,10.6054747104754,13.2300736917539));
#1573=CARTESIAN_POINT('Ctrl Pts',(6.50447537104709,11.7486503334277,12.3981696952167));
#1574=CARTESIAN_POINT('Ctrl Pts',(6.46057247020178,12.4674332443128,11.7777511902026));
#1575=CARTESIAN_POINT('Ctrl Pts',(6.61072417789067,13.8387200170621,10.482896458433));
#1576=CARTESIAN_POINT('Ctrl Pts',(6.80616526314645,14.4907494909569,9.80811905505856));
#1577=CARTESIAN_POINT('Ctrl Pts',(7.43778986901277,15.8355175919451,8.32240344022134));
#1578=CARTESIAN_POINT('Ctrl Pts',(8.01439589467506,16.6001386796741,7.38850025071966));
#1579=CARTESIAN_POINT('Ctrl Pts',(9.22668433873198,17.5620590707313,5.98085812399435));
#1580=CARTESIAN_POINT('Ctrl Pts',(9.74666255635499,17.8651034970378,5.47030272249174));
#1581=CARTESIAN_POINT('Ctrl Pts',(10.3092597454484,18.0857548404031,5.));
#1582=CARTESIAN_POINT('',(18.0857548404031,10.3092597454484,5.));
#1583=CARTESIAN_POINT('Ctrl Pts',(18.0857548404031,10.3092597454484,5.));
#1584=CARTESIAN_POINT('Ctrl Pts',(17.8651034970378,9.74666255635498,5.47030272249174));
#1585=CARTESIAN_POINT('Ctrl Pts',(17.5620590707313,9.22668433873197,5.98085812399435));
#1586=CARTESIAN_POINT('Ctrl Pts',(16.6001386796741,8.01439589467505,7.38850025071966));
#1587=CARTESIAN_POINT('Ctrl Pts',(15.8355175919451,7.43778986901276,8.32240344022134));
#1588=CARTESIAN_POINT('Ctrl Pts',(15.0507893955958,7.06921060440418,9.1893803813478));
#1589=CARTESIAN_POINT('Ctrl Pts',(14.4907494909569,6.80616526314644,9.80811905505856));
#1590=CARTESIAN_POINT('Ctrl Pts',(13.8387200170621,6.61072417789067,10.482896458433));
#1591=CARTESIAN_POINT('Ctrl Pts',(12.4674332443128,6.46057247020177,11.7777511902026));
#1592=CARTESIAN_POINT('Ctrl Pts',(11.7486503334277,6.50447537104708,12.3981696952167));
#1593=CARTESIAN_POINT('Ctrl Pts',(10.6054747104754,6.78814843088703,13.2300736917539));
#1594=CARTESIAN_POINT('Ctrl Pts',(10.1055507006351,6.97059151932193,13.551624570241));
#1595=CARTESIAN_POINT('Ctrl Pts',(9.13232762542532,7.50334778283216,14.009020692265));
#1596=CARTESIAN_POINT('Ctrl Pts',(8.65827380795974,7.85644481780168,14.14));
#1597=CARTESIAN_POINT('Ctrl Pts',(8.25735931288072,8.25735931288071,14.14));
#1598=CARTESIAN_POINT('Origin',(12.5,12.5,5.));
#1599=CARTESIAN_POINT('Origin',(-12.5,12.5,5.));
#1600=CARTESIAN_POINT('',(-8.25735931288072,8.25735931288071,14.14));
#1601=CARTESIAN_POINT('',(-18.0857548404031,10.3092597454484,5.));
#1602=CARTESIAN_POINT('Ctrl Pts',(-8.25735931288071,8.25735931288071,14.14));
#1603=CARTESIAN_POINT('Ctrl Pts',(-8.65827380795974,7.85644481780168,14.14));
#1604=CARTESIAN_POINT('Ctrl Pts',(-9.13232762542531,7.50334778283216,14.009020692265));
#1605=CARTESIAN_POINT('Ctrl Pts',(-10.1055507006351,6.97059151932193,13.551624570241));
#1606=CARTESIAN_POINT('Ctrl Pts',(-10.6054747104754,6.78814843088703,13.2300736917539));
#1607=CARTESIAN_POINT('Ctrl Pts',(-11.7486503334277,6.50447537104708,12.3981696952167));
#1608=CARTESIAN_POINT('Ctrl Pts',(-12.4674332443128,6.46057247020177,11.7777511902026));
#1609=CARTESIAN_POINT('Ctrl Pts',(-13.838720017062,6.61072417789067,10.482896458433));
#1610=CARTESIAN_POINT('Ctrl Pts',(-14.4907494909569,6.80616526314644,9.80811905505856));
#1611=CARTESIAN_POINT('Ctrl Pts',(-15.8355175919451,7.43778986901276,8.32240344022134));
#1612=CARTESIAN_POINT('Ctrl Pts',(-16.6001386796741,8.01439589467506,7.38850025071966));
#1613=CARTESIAN_POINT('Ctrl Pts',(-17.5620590707313,9.22668433873198,5.98085812399435));
#1614=CARTESIAN_POINT('Ctrl Pts',(-17.8651034970378,9.74666255635499,5.47030272249175));
#1615=CARTESIAN_POINT('Ctrl Pts',(-18.0857548404031,10.3092597454484,5.));
#1616=CARTESIAN_POINT('',(-10.3092597454484,18.0857548404031,5.));
#1617=CARTESIAN_POINT('Ctrl Pts',(-10.3092597454484,18.0857548404031,5.));
#1618=CARTESIAN_POINT('Ctrl Pts',(-9.74666255635499,17.8651034970378,5.47030272249174));
#1619=CARTESIAN_POINT('Ctrl Pts',(-9.22668433873198,17.5620590707313,5.98085812399435));
#1620=CARTESIAN_POINT('Ctrl Pts',(-8.01439589467506,16.6001386796741,7.38850025071967));
#1621=CARTESIAN_POINT('Ctrl Pts',(-7.43778986901276,15.8355175919451,8.32240344022134));
#1622=CARTESIAN_POINT('Ctrl Pts',(-7.06921060440418,15.0507893955958,9.1893803813478));
#1623=CARTESIAN_POINT('Ctrl Pts',(-6.80616526314645,14.4907494909569,9.80811905505856));
#1624=CARTESIAN_POINT('Ctrl Pts',(-6.61072417789067,13.8387200170621,10.482896458433));
#1625=CARTESIAN_POINT('Ctrl Pts',(-6.46057247020178,12.4674332443128,11.7777511902026));
#1626=CARTESIAN_POINT('Ctrl Pts',(-6.50447537104708,11.7486503334277,12.3981696952167));
#1627=CARTESIAN_POINT('Ctrl Pts',(-6.78814843088704,10.6054747104754,13.2300736917539));
#1628=CARTESIAN_POINT('Ctrl Pts',(-6.97059151932193,10.1055507006351,13.551624570241));
#1629=CARTESIAN_POINT('Ctrl Pts',(-7.50334778283216,9.13232762542531,14.009020692265));
#1630=CARTESIAN_POINT('Ctrl Pts',(-7.85644481780168,8.65827380795974,14.14));
#1631=CARTESIAN_POINT('Ctrl Pts',(-8.25735931288071,8.25735931288071,14.14));
#1632=CARTESIAN_POINT('Origin',(-12.5,12.5,5.));
#1633=CARTESIAN_POINT('Origin',(12.5,-12.5,0.));
#1634=CARTESIAN_POINT('',(9.35,-12.5,5.));
#1635=CARTESIAN_POINT('Origin',(12.5,-12.5,5.));
#1636=CARTESIAN_POINT('',(9.35,-12.5,0.));
#1637=CARTESIAN_POINT('',(9.35,-12.5,0.));
#1638=CARTESIAN_POINT('Origin',(12.5,-12.5,0.));
#1639=CARTESIAN_POINT('Origin',(-12.5,-12.5,0.));
#1640=CARTESIAN_POINT('',(-15.65,-12.5,5.));
#1641=CARTESIAN_POINT('Origin',(-12.5,-12.5,5.));
#1642=CARTESIAN_POINT('',(-15.65,-12.5,0.));
#1643=CARTESIAN_POINT('',(-15.65,-12.5,0.));
#1644=CARTESIAN_POINT('Origin',(-12.5,-12.5,0.));
#1645=CARTESIAN_POINT('Origin',(12.5,12.5,0.));
#1646=CARTESIAN_POINT('',(9.35,12.5,5.));
#1647=CARTESIAN_POINT('Origin',(12.5,12.5,5.));
#1648=CARTESIAN_POINT('',(9.35,12.5,0.));
#1649=CARTESIAN_POINT('',(9.35,12.5,0.));
#1650=CARTESIAN_POINT('Origin',(12.5,12.5,0.));
#1651=CARTESIAN_POINT('Origin',(-12.5,12.5,0.));
#1652=CARTESIAN_POINT('',(-15.65,12.5,5.));
#1653=CARTESIAN_POINT('Origin',(-12.5,12.5,5.));
#1654=CARTESIAN_POINT('',(-15.65,12.5,0.));
#1655=CARTESIAN_POINT('',(-15.65,12.5,0.));
#1656=CARTESIAN_POINT('Origin',(-12.5,12.5,0.));
#1657=CARTESIAN_POINT('Origin',(0.,0.,5.));
#1658=CARTESIAN_POINT('',(18.1680492401225,-10.5319507598775,5.));
#1659=CARTESIAN_POINT('',(18.1680492401225,10.5319507598775,5.));
#1660=CARTESIAN_POINT('Origin',(0.,0.,5.));
#1661=CARTESIAN_POINT('',(10.5319507598775,18.1680492401225,5.));
#1662=CARTESIAN_POINT('Origin',(12.5,12.5,5.));
#1663=CARTESIAN_POINT('',(-10.5319507598775,18.1680492401225,5.));
#1664=CARTESIAN_POINT('Origin',(0.,0.,5.));
#1665=CARTESIAN_POINT('',(-18.1680492401225,10.5319507598775,5.));
#1666=CARTESIAN_POINT('Origin',(-12.5,12.5,5.));
#1667=CARTESIAN_POINT('',(-18.1680492401225,-10.5319507598775,5.));
#1668=CARTESIAN_POINT('Origin',(0.,0.,5.));
#1669=CARTESIAN_POINT('',(-10.5319507598775,-18.1680492401225,5.));
#1670=CARTESIAN_POINT('Origin',(-12.5,-12.5,5.));
#1671=CARTESIAN_POINT('',(10.5319507598775,-18.1680492401225,5.));
#1672=CARTESIAN_POINT('Origin',(0.,0.,5.));
#1673=CARTESIAN_POINT('Origin',(12.5,-12.5,5.));
#1674=CARTESIAN_POINT('Origin',(0.,0.,5.));
#1675=CARTESIAN_POINT('Origin',(0.,0.,5.));
#1676=CARTESIAN_POINT('Origin',(0.,0.,5.));
#1677=CARTESIAN_POINT('Origin',(0.,0.,5.));
#1678=CARTESIAN_POINT('Origin',(0.,0.,9.57));
#1679=CARTESIAN_POINT('Origin',(0.,0.,14.14));
#1680=CARTESIAN_POINT('Origin',(0.,0.,9.57));
#1681=CARTESIAN_POINT('Origin',(0.,0.,14.14));
#1682=CARTESIAN_POINT('Origin',(0.,0.,9.57));
#1683=CARTESIAN_POINT('',(-11.6776695296637,-1.43010206110032E-15,14.14));
#1684=CARTESIAN_POINT('Origin',(0.,0.,14.14));
#1685=CARTESIAN_POINT('Origin',(0.,0.,14.14));
#1686=CARTESIAN_POINT('Origin',(0.,0.,9.57));
#1687=CARTESIAN_POINT('Origin',(0.,0.,14.14));
#1688=CARTESIAN_POINT('Origin',(0.,0.,0.));
#1689=CARTESIAN_POINT('',(-11.6776695296637,-1.43010206110032E-15,0.));
#1690=CARTESIAN_POINT('Origin',(0.,0.,0.));
#1691=CARTESIAN_POINT('',(-18.1680492401225,10.5319507598775,0.));
#1692=CARTESIAN_POINT('',(-18.1680492401225,-10.5319507598775,0.));
#1693=CARTESIAN_POINT('Origin',(0.,0.,0.));
#1694=CARTESIAN_POINT('',(-18.1680492401225,-10.5319507598775,0.));
#1695=CARTESIAN_POINT('',(-18.1680492401225,10.5319507598775,0.));
#1696=CARTESIAN_POINT('Origin',(-12.5,12.5,0.));
#1697=CARTESIAN_POINT('',(-10.5319507598775,18.1680492401225,0.));
#1698=CARTESIAN_POINT('Origin',(-12.5,12.5,0.));
#1699=CARTESIAN_POINT('',(-10.5319507598775,18.1680492401225,0.));
#1700=CARTESIAN_POINT('Origin',(0.,0.,0.));
#1701=CARTESIAN_POINT('',(10.5319507598775,18.1680492401225,0.));
#1702=CARTESIAN_POINT('Origin',(0.,0.,0.));
#1703=CARTESIAN_POINT('',(10.5319507598775,18.1680492401225,0.));
#1704=CARTESIAN_POINT('Origin',(12.5,12.5,0.));
#1705=CARTESIAN_POINT('',(18.1680492401225,10.5319507598775,0.));
#1706=CARTESIAN_POINT('Origin',(12.5,12.5,0.));
#1707=CARTESIAN_POINT('',(18.1680492401225,10.5319507598775,0.));
#1708=CARTESIAN_POINT('Origin',(0.,0.,0.));
#1709=CARTESIAN_POINT('',(18.1680492401225,-10.5319507598775,0.));
#1710=CARTESIAN_POINT('Origin',(0.,0.,0.));
#1711=CARTESIAN_POINT('',(18.1680492401225,-10.5319507598775,0.));
#1712=CARTESIAN_POINT('Origin',(12.5,-12.5,0.));
#1713=CARTESIAN_POINT('',(10.5319507598775,-18.1680492401225,0.));
#1714=CARTESIAN_POINT('Origin',(12.5,-12.5,0.));
#1715=CARTESIAN_POINT('',(10.5319507598775,-18.1680492401225,0.));
#1716=CARTESIAN_POINT('Origin',(0.,0.,0.));
#1717=CARTESIAN_POINT('',(-10.5319507598775,-18.1680492401225,0.));
#1718=CARTESIAN_POINT('Origin',(0.,0.,0.));
#1719=CARTESIAN_POINT('',(-10.5319507598775,-18.1680492401225,0.));
#1720=CARTESIAN_POINT('Origin',(-12.5,-12.5,0.));
#1721=CARTESIAN_POINT('Origin',(-12.5,-12.5,0.));
#1722=CARTESIAN_POINT('Origin',(0.,0.,0.));
#1723=UNCERTAINTY_MEASURE_WITH_UNIT(LENGTH_MEASURE(0.01),#1727,
'DISTANCE_ACCURACY_VALUE',
'Maximum model space distance between geometric entities at asserted c
onnectivities');
#1724=UNCERTAINTY_MEASURE_WITH_UNIT(LENGTH_MEASURE(0.01),#1727,
'DISTANCE_ACCURACY_VALUE',
'Maximum model space distance between geometric entities at asserted c
onnectivities');
#1725=(
GEOMETRIC_REPRESENTATION_CONTEXT(3)
GLOBAL_UNCERTAINTY_ASSIGNED_CONTEXT((#1723))
GLOBAL_UNIT_ASSIGNED_CONTEXT((#1727,#1729,#1730))
REPRESENTATION_CONTEXT('','3D')
);
#1726=(
GEOMETRIC_REPRESENTATION_CONTEXT(3)
GLOBAL_UNCERTAINTY_ASSIGNED_CONTEXT((#1724))
GLOBAL_UNIT_ASSIGNED_CONTEXT((#1727,#1729,#1730))
REPRESENTATION_CONTEXT('','3D')
);
#1727=(
LENGTH_UNIT()
NAMED_UNIT(*)
SI_UNIT(.MILLI.,.METRE.)
);
#1728=(
LENGTH_UNIT()
NAMED_UNIT(*)
SI_UNIT($,.METRE.)
);
#1729=(
NAMED_UNIT(*)
PLANE_ANGLE_UNIT()
SI_UNIT($,.RADIAN.)
);
#1730=(
NAMED_UNIT(*)
SI_UNIT($,.STERADIAN.)
SOLID_ANGLE_UNIT()
);
#1731=SHAPE_DEFINITION_REPRESENTATION(#1732,#1733);
#1732=PRODUCT_DEFINITION_SHAPE('',$,#1735);
#1733=SHAPE_REPRESENTATION('',(#851),#1725);
#1734=PRODUCT_DEFINITION_CONTEXT('part definition',#1739,'design');
#1735=PRODUCT_DEFINITION('60mm Pillar','60mm Pillar v2',#1736,#1734);
#1736=PRODUCT_DEFINITION_FORMATION('',$,#1741);
#1737=PRODUCT_RELATED_PRODUCT_CATEGORY('60mm Pillar v2',
'60mm Pillar v2',(#1741));
#1738=APPLICATION_PROTOCOL_DEFINITION('international standard',
'automotive_design',2009,#1739);
#1739=APPLICATION_CONTEXT(
'Core Data for Automotive Mechanical Design Process');
#1740=PRODUCT_CONTEXT('part definition',#1739,'mechanical');
#1741=PRODUCT('60mm Pillar','60mm Pillar v2',$,(#1740));
#1742=PRESENTATION_STYLE_ASSIGNMENT((#1743));
#1743=SURFACE_STYLE_USAGE(.BOTH.,#1744);
#1744=SURFACE_SIDE_STYLE('',(#1745));
#1745=SURFACE_STYLE_FILL_AREA(#1746);
#1746=FILL_AREA_STYLE('Steel - Satin',(#1747));
#1747=FILL_AREA_STYLE_COLOUR('Steel - Satin',#1748);
#1748=COLOUR_RGB('Steel - Satin',0.627450980392157,0.627450980392157,0.627450980392157);
ENDSEC;
END-ISO-10303-21;
