ISO-10303-21;
HEADER;
/* Generated by software containing ST-Developer
 * from STEP Tools, Inc. (www.steptools.com) 
 */

FILE_DESCRIPTION(
/* description */ (''),
/* implementation_level */ '2;1');

FILE_NAME(
/* name */ 'stimuli mount_tight_zero.step',
/* time_stamp */ '2026-07-05T18:09:53+01:00',
/* author */ (''),
/* organization */ (''),
/* preprocessor_version */ 'ST-DEVELOPER v20.1',
/* originating_system */ 'Autodesk Translation Framework v15.8.0.0',
/* authorisation */ '');

FILE_SCHEMA (('AUTOMOTIVE_DESIGN { 1 0 10303 214 3 1 1 }'));
ENDSEC;

DATA;
#10=MECHANICAL_DESIGN_GEOMETRIC_PRESENTATION_REPRESENTATION('',(#13),#1077);
#11=SHAPE_REPRESENTATION_RELATIONSHIP('SRR','None',#1084,#12);
#12=ADVANCED_BREP_SHAPE_REPRESENTATION('',(#14),#1076);
#13=STYLED_ITEM('',(#1093),#14);
#14=MANIFOLD_SOLID_BREP('Body1',#629);
#15=FACE_BOUND('',#89,.T.);
#16=FACE_BOUND('',#90,.T.);
#17=FACE_BOUND('',#91,.T.);
#18=FACE_BOUND('',#92,.T.);
#19=FACE_BOUND('',#93,.T.);
#20=FACE_BOUND('',#95,.T.);
#21=FACE_BOUND('',#96,.T.);
#22=FACE_BOUND('',#97,.T.);
#23=FACE_BOUND('',#98,.T.);
#24=FACE_BOUND('',#99,.T.);
#25=FACE_BOUND('',#110,.T.);
#26=FACE_BOUND('',#113,.T.);
#27=FACE_BOUND('',#116,.T.);
#28=FACE_BOUND('',#119,.T.);
#29=FACE_BOUND('',#125,.T.);
#30=PLANE('',#655);
#31=PLANE('',#664);
#32=PLANE('',#673);
#33=PLANE('',#674);
#34=PLANE('',#675);
#35=PLANE('',#676);
#36=PLANE('',#677);
#37=PLANE('',#678);
#38=PLANE('',#679);
#39=PLANE('',#680);
#40=PLANE('',#683);
#41=PLANE('',#686);
#42=PLANE('',#689);
#43=PLANE('',#692);
#44=PLANE('',#697);
#45=PLANE('',#702);
#46=PLANE('',#703);
#47=PLANE('',#704);
#48=PLANE('',#705);
#49=FACE_OUTER_BOUND('',#84,.T.);
#50=FACE_OUTER_BOUND('',#85,.T.);
#51=FACE_OUTER_BOUND('',#86,.T.);
#52=FACE_OUTER_BOUND('',#87,.T.);
#53=FACE_OUTER_BOUND('',#88,.T.);
#54=FACE_OUTER_BOUND('',#94,.T.);
#55=FACE_OUTER_BOUND('',#100,.T.);
#56=FACE_OUTER_BOUND('',#101,.T.);
#57=FACE_OUTER_BOUND('',#102,.T.);
#58=FACE_OUTER_BOUND('',#103,.T.);
#59=FACE_OUTER_BOUND('',#104,.T.);
#60=FACE_OUTER_BOUND('',#105,.T.);
#61=FACE_OUTER_BOUND('',#106,.T.);
#62=FACE_OUTER_BOUND('',#107,.T.);
#63=FACE_OUTER_BOUND('',#108,.T.);
#64=FACE_OUTER_BOUND('',#109,.T.);
#65=FACE_OUTER_BOUND('',#111,.T.);
#66=FACE_OUTER_BOUND('',#112,.T.);
#67=FACE_OUTER_BOUND('',#114,.T.);
#68=FACE_OUTER_BOUND('',#115,.T.);
#69=FACE_OUTER_BOUND('',#117,.T.);
#70=FACE_OUTER_BOUND('',#118,.T.);
#71=FACE_OUTER_BOUND('',#120,.T.);
#72=FACE_OUTER_BOUND('',#121,.T.);
#73=FACE_OUTER_BOUND('',#122,.T.);
#74=FACE_OUTER_BOUND('',#123,.T.);
#75=FACE_OUTER_BOUND('',#124,.T.);
#76=FACE_OUTER_BOUND('',#126,.T.);
#77=FACE_OUTER_BOUND('',#127,.T.);
#78=FACE_OUTER_BOUND('',#128,.T.);
#79=FACE_OUTER_BOUND('',#129,.T.);
#80=FACE_OUTER_BOUND('',#130,.T.);
#81=FACE_OUTER_BOUND('',#131,.T.);
#82=FACE_OUTER_BOUND('',#132,.T.);
#83=FACE_OUTER_BOUND('',#133,.T.);
#84=EDGE_LOOP('',(#410,#411,#412,#413));
#85=EDGE_LOOP('',(#414,#415,#416,#417));
#86=EDGE_LOOP('',(#418,#419,#420,#421));
#87=EDGE_LOOP('',(#422,#423,#424,#425));
#88=EDGE_LOOP('',(#426,#427,#428,#429,#430,#431,#432,#433));
#89=EDGE_LOOP('',(#434));
#90=EDGE_LOOP('',(#435));
#91=EDGE_LOOP('',(#436,#437,#438,#439,#440,#441,#442,#443));
#92=EDGE_LOOP('',(#444));
#93=EDGE_LOOP('',(#445));
#94=EDGE_LOOP('',(#446,#447,#448,#449));
#95=EDGE_LOOP('',(#450));
#96=EDGE_LOOP('',(#451));
#97=EDGE_LOOP('',(#452));
#98=EDGE_LOOP('',(#453));
#99=EDGE_LOOP('',(#454,#455,#456,#457,#458,#459,#460,#461));
#100=EDGE_LOOP('',(#462,#463,#464,#465));
#101=EDGE_LOOP('',(#466,#467,#468,#469));
#102=EDGE_LOOP('',(#470,#471,#472,#473));
#103=EDGE_LOOP('',(#474,#475,#476,#477));
#104=EDGE_LOOP('',(#478,#479,#480,#481));
#105=EDGE_LOOP('',(#482,#483,#484,#485));
#106=EDGE_LOOP('',(#486,#487,#488,#489));
#107=EDGE_LOOP('',(#490,#491,#492,#493));
#108=EDGE_LOOP('',(#494,#495,#496,#497));
#109=EDGE_LOOP('',(#498));
#110=EDGE_LOOP('',(#499));
#111=EDGE_LOOP('',(#500,#501,#502,#503));
#112=EDGE_LOOP('',(#504));
#113=EDGE_LOOP('',(#505));
#114=EDGE_LOOP('',(#506,#507,#508,#509));
#115=EDGE_LOOP('',(#510));
#116=EDGE_LOOP('',(#511));
#117=EDGE_LOOP('',(#512,#513,#514,#515));
#118=EDGE_LOOP('',(#516));
#119=EDGE_LOOP('',(#517));
#120=EDGE_LOOP('',(#518,#519,#520,#521));
#121=EDGE_LOOP('',(#522,#523,#524,#525));
#122=EDGE_LOOP('',(#526,#527,#528,#529));
#123=EDGE_LOOP('',(#530,#531,#532,#533));
#124=EDGE_LOOP('',(#534,#535,#536,#537,#538,#539,#540,#541));
#125=EDGE_LOOP('',(#542,#543,#544,#545));
#126=EDGE_LOOP('',(#546,#547,#548,#549));
#127=EDGE_LOOP('',(#550,#551,#552,#553));
#128=EDGE_LOOP('',(#554,#555,#556,#557));
#129=EDGE_LOOP('',(#558,#559,#560,#561));
#130=EDGE_LOOP('',(#562,#563,#564,#565));
#131=EDGE_LOOP('',(#566,#567,#568,#569));
#132=EDGE_LOOP('',(#570,#571,#572,#573));
#133=EDGE_LOOP('',(#574,#575,#576,#577));
#134=LINE('',#903,#186);
#135=LINE('',#909,#187);
#136=LINE('',#915,#188);
#137=LINE('',#921,#189);
#138=LINE('',#926,#190);
#139=LINE('',#930,#191);
#140=LINE('',#934,#192);
#141=LINE('',#938,#193);
#142=LINE('',#942,#194);
#143=LINE('',#946,#195);
#144=LINE('',#950,#196);
#145=LINE('',#954,#197);
#146=LINE('',#959,#198);
#147=LINE('',#961,#199);
#148=LINE('',#963,#200);
#149=LINE('',#964,#201);
#150=LINE('',#975,#202);
#151=LINE('',#979,#203);
#152=LINE('',#983,#204);
#153=LINE('',#987,#205);
#154=LINE('',#991,#206);
#155=LINE('',#993,#207);
#156=LINE('',#994,#208);
#157=LINE('',#998,#209);
#158=LINE('',#999,#210);
#159=LINE('',#1000,#211);
#160=LINE('',#1003,#212);
#161=LINE('',#1005,#213);
#162=LINE('',#1006,#214);
#163=LINE('',#1009,#215);
#164=LINE('',#1011,#216);
#165=LINE('',#1012,#217);
#166=LINE('',#1014,#218);
#167=LINE('',#1015,#219);
#168=LINE('',#1017,#220);
#169=LINE('',#1018,#221);
#170=LINE('',#1020,#222);
#171=LINE('',#1021,#223);
#172=LINE('',#1023,#224);
#173=LINE('',#1024,#225);
#174=LINE('',#1028,#226);
#175=LINE('',#1033,#227);
#176=LINE('',#1038,#228);
#177=LINE('',#1043,#229);
#178=LINE('',#1056,#230);
#179=LINE('',#1058,#231);
#180=LINE('',#1060,#232);
#181=LINE('',#1061,#233);
#182=LINE('',#1063,#234);
#183=LINE('',#1064,#235);
#184=LINE('',#1066,#236);
#185=LINE('',#1068,#237);
#186=VECTOR('',#716,1.55);
#187=VECTOR('',#723,1.55);
#188=VECTOR('',#730,1.55);
#189=VECTOR('',#737,1.55);
#190=VECTOR('',#742,46.);
#191=VECTOR('',#745,46.);
#192=VECTOR('',#748,46.);
#193=VECTOR('',#751,46.);
#194=VECTOR('',#754,20.);
#195=VECTOR('',#757,20.);
#196=VECTOR('',#760,20.);
#197=VECTOR('',#763,20.);
#198=VECTOR('',#768,50.);
#199=VECTOR('',#769,50.);
#200=VECTOR('',#770,50.);
#201=VECTOR('',#771,50.);
#202=VECTOR('',#780,20.);
#203=VECTOR('',#783,20.);
#204=VECTOR('',#786,20.);
#205=VECTOR('',#789,20.);
#206=VECTOR('',#794,25.);
#207=VECTOR('',#795,46.);
#208=VECTOR('',#796,25.);
#209=VECTOR('',#799,46.);
#210=VECTOR('',#800,25.);
#211=VECTOR('',#801,25.);
#212=VECTOR('',#804,25.);
#213=VECTOR('',#805,46.);
#214=VECTOR('',#806,25.);
#215=VECTOR('',#809,25.);
#216=VECTOR('',#810,46.);
#217=VECTOR('',#811,25.);
#218=VECTOR('',#814,5.);
#219=VECTOR('',#815,5.);
#220=VECTOR('',#818,5.);
#221=VECTOR('',#819,5.);
#222=VECTOR('',#822,5.);
#223=VECTOR('',#823,5.);
#224=VECTOR('',#826,5.);
#225=VECTOR('',#827,5.);
#226=VECTOR('',#832,3.55);
#227=VECTOR('',#839,3.55);
#228=VECTOR('',#846,3.55);
#229=VECTOR('',#853,3.55);
#230=VECTOR('',#874,50.);
#231=VECTOR('',#875,50.);
#232=VECTOR('',#876,50.);
#233=VECTOR('',#877,50.);
#234=VECTOR('',#880,20.);
#235=VECTOR('',#881,20.);
#236=VECTOR('',#884,20.);
#237=VECTOR('',#887,20.);
#238=CIRCLE('',#644,1.55);
#239=CIRCLE('',#645,1.55);
#240=CIRCLE('',#647,1.55);
#241=CIRCLE('',#648,1.55);
#242=CIRCLE('',#650,1.55);
#243=CIRCLE('',#651,1.55);
#244=CIRCLE('',#653,1.55);
#245=CIRCLE('',#654,1.55);
#246=CIRCLE('',#656,5.);
#247=CIRCLE('',#657,5.);
#248=CIRCLE('',#658,5.);
#249=CIRCLE('',#659,5.);
#250=CIRCLE('',#660,5.);
#251=CIRCLE('',#661,5.);
#252=CIRCLE('',#662,5.);
#253=CIRCLE('',#663,5.);
#254=CIRCLE('',#665,3.55);
#255=CIRCLE('',#666,3.55);
#256=CIRCLE('',#667,3.55);
#257=CIRCLE('',#668,3.55);
#258=CIRCLE('',#669,5.);
#259=CIRCLE('',#670,5.);
#260=CIRCLE('',#671,5.);
#261=CIRCLE('',#672,5.);
#262=CIRCLE('',#682,3.55);
#263=CIRCLE('',#685,3.55);
#264=CIRCLE('',#688,3.55);
#265=CIRCLE('',#691,3.55);
#266=CIRCLE('',#698,5.);
#267=CIRCLE('',#699,5.);
#268=CIRCLE('',#700,5.);
#269=CIRCLE('',#701,5.);
#270=VERTEX_POINT('',#900);
#271=VERTEX_POINT('',#902);
#272=VERTEX_POINT('',#906);
#273=VERTEX_POINT('',#908);
#274=VERTEX_POINT('',#912);
#275=VERTEX_POINT('',#914);
#276=VERTEX_POINT('',#918);
#277=VERTEX_POINT('',#920);
#278=VERTEX_POINT('',#924);
#279=VERTEX_POINT('',#925);
#280=VERTEX_POINT('',#927);
#281=VERTEX_POINT('',#929);
#282=VERTEX_POINT('',#931);
#283=VERTEX_POINT('',#933);
#284=VERTEX_POINT('',#935);
#285=VERTEX_POINT('',#937);
#286=VERTEX_POINT('',#940);
#287=VERTEX_POINT('',#941);
#288=VERTEX_POINT('',#943);
#289=VERTEX_POINT('',#945);
#290=VERTEX_POINT('',#947);
#291=VERTEX_POINT('',#949);
#292=VERTEX_POINT('',#951);
#293=VERTEX_POINT('',#953);
#294=VERTEX_POINT('',#957);
#295=VERTEX_POINT('',#958);
#296=VERTEX_POINT('',#960);
#297=VERTEX_POINT('',#962);
#298=VERTEX_POINT('',#965);
#299=VERTEX_POINT('',#967);
#300=VERTEX_POINT('',#969);
#301=VERTEX_POINT('',#971);
#302=VERTEX_POINT('',#973);
#303=VERTEX_POINT('',#974);
#304=VERTEX_POINT('',#976);
#305=VERTEX_POINT('',#978);
#306=VERTEX_POINT('',#980);
#307=VERTEX_POINT('',#982);
#308=VERTEX_POINT('',#984);
#309=VERTEX_POINT('',#986);
#310=VERTEX_POINT('',#990);
#311=VERTEX_POINT('',#992);
#312=VERTEX_POINT('',#996);
#313=VERTEX_POINT('',#997);
#314=VERTEX_POINT('',#1002);
#315=VERTEX_POINT('',#1004);
#316=VERTEX_POINT('',#1008);
#317=VERTEX_POINT('',#1010);
#318=VERTEX_POINT('',#1026);
#319=VERTEX_POINT('',#1031);
#320=VERTEX_POINT('',#1036);
#321=VERTEX_POINT('',#1041);
#322=VERTEX_POINT('',#1054);
#323=VERTEX_POINT('',#1055);
#324=VERTEX_POINT('',#1057);
#325=VERTEX_POINT('',#1059);
#326=EDGE_CURVE('',#270,#270,#238,.T.);
#327=EDGE_CURVE('',#270,#271,#134,.T.);
#328=EDGE_CURVE('',#271,#271,#239,.T.);
#329=EDGE_CURVE('',#272,#272,#240,.T.);
#330=EDGE_CURVE('',#272,#273,#135,.T.);
#331=EDGE_CURVE('',#273,#273,#241,.T.);
#332=EDGE_CURVE('',#274,#274,#242,.T.);
#333=EDGE_CURVE('',#274,#275,#136,.T.);
#334=EDGE_CURVE('',#275,#275,#243,.T.);
#335=EDGE_CURVE('',#276,#276,#244,.T.);
#336=EDGE_CURVE('',#276,#277,#137,.T.);
#337=EDGE_CURVE('',#277,#277,#245,.T.);
#338=EDGE_CURVE('',#278,#279,#138,.T.);
#339=EDGE_CURVE('',#279,#280,#246,.T.);
#340=EDGE_CURVE('',#280,#281,#139,.T.);
#341=EDGE_CURVE('',#281,#282,#247,.T.);
#342=EDGE_CURVE('',#282,#283,#140,.T.);
#343=EDGE_CURVE('',#283,#284,#248,.T.);
#344=EDGE_CURVE('',#284,#285,#141,.T.);
#345=EDGE_CURVE('',#285,#278,#249,.T.);
#346=EDGE_CURVE('',#286,#287,#142,.T.);
#347=EDGE_CURVE('',#286,#288,#250,.F.);
#348=EDGE_CURVE('',#289,#288,#143,.T.);
#349=EDGE_CURVE('',#289,#290,#251,.F.);
#350=EDGE_CURVE('',#291,#290,#144,.T.);
#351=EDGE_CURVE('',#291,#292,#252,.F.);
#352=EDGE_CURVE('',#293,#292,#145,.T.);
#353=EDGE_CURVE('',#293,#287,#253,.F.);
#354=EDGE_CURVE('',#294,#295,#146,.T.);
#355=EDGE_CURVE('',#295,#296,#147,.T.);
#356=EDGE_CURVE('',#296,#297,#148,.T.);
#357=EDGE_CURVE('',#297,#294,#149,.T.);
#358=EDGE_CURVE('',#298,#298,#254,.T.);
#359=EDGE_CURVE('',#299,#299,#255,.T.);
#360=EDGE_CURVE('',#300,#300,#256,.T.);
#361=EDGE_CURVE('',#301,#301,#257,.T.);
#362=EDGE_CURVE('',#302,#303,#150,.T.);
#363=EDGE_CURVE('',#303,#304,#258,.T.);
#364=EDGE_CURVE('',#304,#305,#151,.T.);
#365=EDGE_CURVE('',#305,#306,#259,.T.);
#366=EDGE_CURVE('',#306,#307,#152,.T.);
#367=EDGE_CURVE('',#307,#308,#260,.T.);
#368=EDGE_CURVE('',#308,#309,#153,.T.);
#369=EDGE_CURVE('',#309,#302,#261,.T.);
#370=EDGE_CURVE('',#284,#310,#154,.T.);
#371=EDGE_CURVE('',#311,#310,#155,.T.);
#372=EDGE_CURVE('',#311,#285,#156,.F.);
#373=EDGE_CURVE('',#312,#313,#157,.T.);
#374=EDGE_CURVE('',#312,#279,#158,.F.);
#375=EDGE_CURVE('',#278,#313,#159,.T.);
#376=EDGE_CURVE('',#280,#314,#160,.T.);
#377=EDGE_CURVE('',#315,#314,#161,.T.);
#378=EDGE_CURVE('',#315,#281,#162,.F.);
#379=EDGE_CURVE('',#282,#316,#163,.T.);
#380=EDGE_CURVE('',#317,#316,#164,.T.);
#381=EDGE_CURVE('',#317,#283,#165,.F.);
#382=EDGE_CURVE('',#288,#305,#166,.T.);
#383=EDGE_CURVE('',#304,#289,#167,.F.);
#384=EDGE_CURVE('',#287,#307,#168,.T.);
#385=EDGE_CURVE('',#306,#286,#169,.F.);
#386=EDGE_CURVE('',#308,#293,#170,.F.);
#387=EDGE_CURVE('',#292,#309,#171,.T.);
#388=EDGE_CURVE('',#290,#303,#172,.T.);
#389=EDGE_CURVE('',#302,#291,#173,.F.);
#390=EDGE_CURVE('',#318,#318,#262,.T.);
#391=EDGE_CURVE('',#318,#301,#174,.T.);
#392=EDGE_CURVE('',#319,#319,#263,.T.);
#393=EDGE_CURVE('',#319,#300,#175,.T.);
#394=EDGE_CURVE('',#320,#320,#264,.T.);
#395=EDGE_CURVE('',#320,#299,#176,.T.);
#396=EDGE_CURVE('',#321,#321,#265,.T.);
#397=EDGE_CURVE('',#321,#298,#177,.T.);
#398=EDGE_CURVE('',#314,#312,#266,.T.);
#399=EDGE_CURVE('',#313,#311,#267,.T.);
#400=EDGE_CURVE('',#310,#317,#268,.T.);
#401=EDGE_CURVE('',#316,#315,#269,.T.);
#402=EDGE_CURVE('',#322,#323,#178,.T.);
#403=EDGE_CURVE('',#324,#322,#179,.T.);
#404=EDGE_CURVE('',#325,#324,#180,.T.);
#405=EDGE_CURVE('',#323,#325,#181,.T.);
#406=EDGE_CURVE('',#324,#295,#182,.T.);
#407=EDGE_CURVE('',#322,#296,#183,.T.);
#408=EDGE_CURVE('',#323,#297,#184,.T.);
#409=EDGE_CURVE('',#325,#294,#185,.T.);
#410=ORIENTED_EDGE('',*,*,#326,.T.);
#411=ORIENTED_EDGE('',*,*,#327,.T.);
#412=ORIENTED_EDGE('',*,*,#328,.T.);
#413=ORIENTED_EDGE('',*,*,#327,.F.);
#414=ORIENTED_EDGE('',*,*,#329,.T.);
#415=ORIENTED_EDGE('',*,*,#330,.T.);
#416=ORIENTED_EDGE('',*,*,#331,.T.);
#417=ORIENTED_EDGE('',*,*,#330,.F.);
#418=ORIENTED_EDGE('',*,*,#332,.T.);
#419=ORIENTED_EDGE('',*,*,#333,.T.);
#420=ORIENTED_EDGE('',*,*,#334,.T.);
#421=ORIENTED_EDGE('',*,*,#333,.F.);
#422=ORIENTED_EDGE('',*,*,#335,.T.);
#423=ORIENTED_EDGE('',*,*,#336,.T.);
#424=ORIENTED_EDGE('',*,*,#337,.T.);
#425=ORIENTED_EDGE('',*,*,#336,.F.);
#426=ORIENTED_EDGE('',*,*,#338,.T.);
#427=ORIENTED_EDGE('',*,*,#339,.T.);
#428=ORIENTED_EDGE('',*,*,#340,.T.);
#429=ORIENTED_EDGE('',*,*,#341,.T.);
#430=ORIENTED_EDGE('',*,*,#342,.T.);
#431=ORIENTED_EDGE('',*,*,#343,.T.);
#432=ORIENTED_EDGE('',*,*,#344,.T.);
#433=ORIENTED_EDGE('',*,*,#345,.T.);
#434=ORIENTED_EDGE('',*,*,#329,.F.);
#435=ORIENTED_EDGE('',*,*,#326,.F.);
#436=ORIENTED_EDGE('',*,*,#346,.F.);
#437=ORIENTED_EDGE('',*,*,#347,.T.);
#438=ORIENTED_EDGE('',*,*,#348,.F.);
#439=ORIENTED_EDGE('',*,*,#349,.T.);
#440=ORIENTED_EDGE('',*,*,#350,.F.);
#441=ORIENTED_EDGE('',*,*,#351,.T.);
#442=ORIENTED_EDGE('',*,*,#352,.F.);
#443=ORIENTED_EDGE('',*,*,#353,.T.);
#444=ORIENTED_EDGE('',*,*,#335,.F.);
#445=ORIENTED_EDGE('',*,*,#332,.F.);
#446=ORIENTED_EDGE('',*,*,#354,.T.);
#447=ORIENTED_EDGE('',*,*,#355,.T.);
#448=ORIENTED_EDGE('',*,*,#356,.T.);
#449=ORIENTED_EDGE('',*,*,#357,.T.);
#450=ORIENTED_EDGE('',*,*,#358,.F.);
#451=ORIENTED_EDGE('',*,*,#359,.F.);
#452=ORIENTED_EDGE('',*,*,#360,.F.);
#453=ORIENTED_EDGE('',*,*,#361,.F.);
#454=ORIENTED_EDGE('',*,*,#362,.T.);
#455=ORIENTED_EDGE('',*,*,#363,.T.);
#456=ORIENTED_EDGE('',*,*,#364,.T.);
#457=ORIENTED_EDGE('',*,*,#365,.T.);
#458=ORIENTED_EDGE('',*,*,#366,.T.);
#459=ORIENTED_EDGE('',*,*,#367,.T.);
#460=ORIENTED_EDGE('',*,*,#368,.T.);
#461=ORIENTED_EDGE('',*,*,#369,.T.);
#462=ORIENTED_EDGE('',*,*,#344,.F.);
#463=ORIENTED_EDGE('',*,*,#370,.T.);
#464=ORIENTED_EDGE('',*,*,#371,.F.);
#465=ORIENTED_EDGE('',*,*,#372,.T.);
#466=ORIENTED_EDGE('',*,*,#373,.F.);
#467=ORIENTED_EDGE('',*,*,#374,.T.);
#468=ORIENTED_EDGE('',*,*,#338,.F.);
#469=ORIENTED_EDGE('',*,*,#375,.T.);
#470=ORIENTED_EDGE('',*,*,#340,.F.);
#471=ORIENTED_EDGE('',*,*,#376,.T.);
#472=ORIENTED_EDGE('',*,*,#377,.F.);
#473=ORIENTED_EDGE('',*,*,#378,.T.);
#474=ORIENTED_EDGE('',*,*,#342,.F.);
#475=ORIENTED_EDGE('',*,*,#379,.T.);
#476=ORIENTED_EDGE('',*,*,#380,.F.);
#477=ORIENTED_EDGE('',*,*,#381,.T.);
#478=ORIENTED_EDGE('',*,*,#348,.T.);
#479=ORIENTED_EDGE('',*,*,#382,.T.);
#480=ORIENTED_EDGE('',*,*,#364,.F.);
#481=ORIENTED_EDGE('',*,*,#383,.T.);
#482=ORIENTED_EDGE('',*,*,#346,.T.);
#483=ORIENTED_EDGE('',*,*,#384,.T.);
#484=ORIENTED_EDGE('',*,*,#366,.F.);
#485=ORIENTED_EDGE('',*,*,#385,.T.);
#486=ORIENTED_EDGE('',*,*,#368,.F.);
#487=ORIENTED_EDGE('',*,*,#386,.T.);
#488=ORIENTED_EDGE('',*,*,#352,.T.);
#489=ORIENTED_EDGE('',*,*,#387,.T.);
#490=ORIENTED_EDGE('',*,*,#350,.T.);
#491=ORIENTED_EDGE('',*,*,#388,.T.);
#492=ORIENTED_EDGE('',*,*,#362,.F.);
#493=ORIENTED_EDGE('',*,*,#389,.T.);
#494=ORIENTED_EDGE('',*,*,#390,.F.);
#495=ORIENTED_EDGE('',*,*,#391,.T.);
#496=ORIENTED_EDGE('',*,*,#361,.T.);
#497=ORIENTED_EDGE('',*,*,#391,.F.);
#498=ORIENTED_EDGE('',*,*,#390,.T.);
#499=ORIENTED_EDGE('',*,*,#337,.F.);
#500=ORIENTED_EDGE('',*,*,#392,.F.);
#501=ORIENTED_EDGE('',*,*,#393,.T.);
#502=ORIENTED_EDGE('',*,*,#360,.T.);
#503=ORIENTED_EDGE('',*,*,#393,.F.);
#504=ORIENTED_EDGE('',*,*,#392,.T.);
#505=ORIENTED_EDGE('',*,*,#334,.F.);
#506=ORIENTED_EDGE('',*,*,#394,.F.);
#507=ORIENTED_EDGE('',*,*,#395,.T.);
#508=ORIENTED_EDGE('',*,*,#359,.T.);
#509=ORIENTED_EDGE('',*,*,#395,.F.);
#510=ORIENTED_EDGE('',*,*,#394,.T.);
#511=ORIENTED_EDGE('',*,*,#331,.F.);
#512=ORIENTED_EDGE('',*,*,#396,.F.);
#513=ORIENTED_EDGE('',*,*,#397,.T.);
#514=ORIENTED_EDGE('',*,*,#358,.T.);
#515=ORIENTED_EDGE('',*,*,#397,.F.);
#516=ORIENTED_EDGE('',*,*,#396,.T.);
#517=ORIENTED_EDGE('',*,*,#328,.F.);
#518=ORIENTED_EDGE('',*,*,#353,.F.);
#519=ORIENTED_EDGE('',*,*,#386,.F.);
#520=ORIENTED_EDGE('',*,*,#367,.F.);
#521=ORIENTED_EDGE('',*,*,#384,.F.);
#522=ORIENTED_EDGE('',*,*,#347,.F.);
#523=ORIENTED_EDGE('',*,*,#385,.F.);
#524=ORIENTED_EDGE('',*,*,#365,.F.);
#525=ORIENTED_EDGE('',*,*,#382,.F.);
#526=ORIENTED_EDGE('',*,*,#349,.F.);
#527=ORIENTED_EDGE('',*,*,#383,.F.);
#528=ORIENTED_EDGE('',*,*,#363,.F.);
#529=ORIENTED_EDGE('',*,*,#388,.F.);
#530=ORIENTED_EDGE('',*,*,#351,.F.);
#531=ORIENTED_EDGE('',*,*,#389,.F.);
#532=ORIENTED_EDGE('',*,*,#369,.F.);
#533=ORIENTED_EDGE('',*,*,#387,.F.);
#534=ORIENTED_EDGE('',*,*,#377,.T.);
#535=ORIENTED_EDGE('',*,*,#398,.T.);
#536=ORIENTED_EDGE('',*,*,#373,.T.);
#537=ORIENTED_EDGE('',*,*,#399,.T.);
#538=ORIENTED_EDGE('',*,*,#371,.T.);
#539=ORIENTED_EDGE('',*,*,#400,.T.);
#540=ORIENTED_EDGE('',*,*,#380,.T.);
#541=ORIENTED_EDGE('',*,*,#401,.T.);
#542=ORIENTED_EDGE('',*,*,#402,.F.);
#543=ORIENTED_EDGE('',*,*,#403,.F.);
#544=ORIENTED_EDGE('',*,*,#404,.F.);
#545=ORIENTED_EDGE('',*,*,#405,.F.);
#546=ORIENTED_EDGE('',*,*,#355,.F.);
#547=ORIENTED_EDGE('',*,*,#406,.F.);
#548=ORIENTED_EDGE('',*,*,#403,.T.);
#549=ORIENTED_EDGE('',*,*,#407,.T.);
#550=ORIENTED_EDGE('',*,*,#356,.F.);
#551=ORIENTED_EDGE('',*,*,#407,.F.);
#552=ORIENTED_EDGE('',*,*,#402,.T.);
#553=ORIENTED_EDGE('',*,*,#408,.T.);
#554=ORIENTED_EDGE('',*,*,#357,.F.);
#555=ORIENTED_EDGE('',*,*,#408,.F.);
#556=ORIENTED_EDGE('',*,*,#405,.T.);
#557=ORIENTED_EDGE('',*,*,#409,.T.);
#558=ORIENTED_EDGE('',*,*,#354,.F.);
#559=ORIENTED_EDGE('',*,*,#409,.F.);
#560=ORIENTED_EDGE('',*,*,#404,.T.);
#561=ORIENTED_EDGE('',*,*,#406,.T.);
#562=ORIENTED_EDGE('',*,*,#339,.F.);
#563=ORIENTED_EDGE('',*,*,#374,.F.);
#564=ORIENTED_EDGE('',*,*,#398,.F.);
#565=ORIENTED_EDGE('',*,*,#376,.F.);
#566=ORIENTED_EDGE('',*,*,#341,.F.);
#567=ORIENTED_EDGE('',*,*,#378,.F.);
#568=ORIENTED_EDGE('',*,*,#401,.F.);
#569=ORIENTED_EDGE('',*,*,#379,.F.);
#570=ORIENTED_EDGE('',*,*,#343,.F.);
#571=ORIENTED_EDGE('',*,*,#381,.F.);
#572=ORIENTED_EDGE('',*,*,#400,.F.);
#573=ORIENTED_EDGE('',*,*,#370,.F.);
#574=ORIENTED_EDGE('',*,*,#345,.F.);
#575=ORIENTED_EDGE('',*,*,#372,.F.);
#576=ORIENTED_EDGE('',*,*,#399,.F.);
#577=ORIENTED_EDGE('',*,*,#375,.F.);
#578=CYLINDRICAL_SURFACE('',#643,1.55);
#579=CYLINDRICAL_SURFACE('',#646,1.55);
#580=CYLINDRICAL_SURFACE('',#649,1.55);
#581=CYLINDRICAL_SURFACE('',#652,1.55);
#582=CYLINDRICAL_SURFACE('',#681,3.55);
#583=CYLINDRICAL_SURFACE('',#684,3.55);
#584=CYLINDRICAL_SURFACE('',#687,3.55);
#585=CYLINDRICAL_SURFACE('',#690,3.55);
#586=CYLINDRICAL_SURFACE('',#693,5.);
#587=CYLINDRICAL_SURFACE('',#694,5.);
#588=CYLINDRICAL_SURFACE('',#695,5.);
#589=CYLINDRICAL_SURFACE('',#696,5.);
#590=CYLINDRICAL_SURFACE('',#706,5.);
#591=CYLINDRICAL_SURFACE('',#707,5.);
#592=CYLINDRICAL_SURFACE('',#708,5.);
#593=CYLINDRICAL_SURFACE('',#709,5.);
#594=ADVANCED_FACE('',(#49),#578,.F.);
#595=ADVANCED_FACE('',(#50),#579,.F.);
#596=ADVANCED_FACE('',(#51),#580,.F.);
#597=ADVANCED_FACE('',(#52),#581,.F.);
#598=ADVANCED_FACE('',(#53,#15,#16,#17,#18,#19),#30,.T.);
#599=ADVANCED_FACE('',(#54,#20,#21,#22,#23,#24),#31,.F.);
#600=ADVANCED_FACE('',(#55),#32,.F.);
#601=ADVANCED_FACE('',(#56),#33,.F.);
#602=ADVANCED_FACE('',(#57),#34,.F.);
#603=ADVANCED_FACE('',(#58),#35,.F.);
#604=ADVANCED_FACE('',(#59),#36,.T.);
#605=ADVANCED_FACE('',(#60),#37,.T.);
#606=ADVANCED_FACE('',(#61),#38,.T.);
#607=ADVANCED_FACE('',(#62),#39,.T.);
#608=ADVANCED_FACE('',(#63),#582,.F.);
#609=ADVANCED_FACE('',(#64,#25),#40,.T.);
#610=ADVANCED_FACE('',(#65),#583,.F.);
#611=ADVANCED_FACE('',(#66,#26),#41,.T.);
#612=ADVANCED_FACE('',(#67),#584,.F.);
#613=ADVANCED_FACE('',(#68,#27),#42,.T.);
#614=ADVANCED_FACE('',(#69),#585,.F.);
#615=ADVANCED_FACE('',(#70,#28),#43,.T.);
#616=ADVANCED_FACE('',(#71),#586,.F.);
#617=ADVANCED_FACE('',(#72),#587,.F.);
#618=ADVANCED_FACE('',(#73),#588,.F.);
#619=ADVANCED_FACE('',(#74),#589,.F.);
#620=ADVANCED_FACE('',(#75,#29),#44,.T.);
#621=ADVANCED_FACE('',(#76),#45,.T.);
#622=ADVANCED_FACE('',(#77),#46,.T.);
#623=ADVANCED_FACE('',(#78),#47,.T.);
#624=ADVANCED_FACE('',(#79),#48,.T.);
#625=ADVANCED_FACE('',(#80),#590,.T.);
#626=ADVANCED_FACE('',(#81),#591,.T.);
#627=ADVANCED_FACE('',(#82),#592,.T.);
#628=ADVANCED_FACE('',(#83),#593,.T.);
#629=CLOSED_SHELL('',(#594,#595,#596,#597,#598,#599,#600,#601,#602,#603,
#604,#605,#606,#607,#608,#609,#610,#611,#612,#613,#614,#615,#616,#617,#618,
#619,#620,#621,#622,#623,#624,#625,#626,#627,#628));
#630=DERIVED_UNIT_ELEMENT(#632,1.);
#631=DERIVED_UNIT_ELEMENT(#1079,-3.);
#632=(
MASS_UNIT()
NAMED_UNIT(*)
SI_UNIT(.KILO.,.GRAM.)
);
#633=DERIVED_UNIT((#630,#631));
#634=MEASURE_REPRESENTATION_ITEM('density measure',
POSITIVE_RATIO_MEASURE(1020.),#633);
#635=PROPERTY_DEFINITION_REPRESENTATION(#640,#637);
#636=PROPERTY_DEFINITION_REPRESENTATION(#641,#638);
#637=REPRESENTATION('material name',(#639),#1076);
#638=REPRESENTATION('density',(#634),#1076);
#639=DESCRIPTIVE_REPRESENTATION_ITEM('ABS','ABS');
#640=PROPERTY_DEFINITION('material property','material name',#1086);
#641=PROPERTY_DEFINITION('material property','density of part',#1086);
#642=AXIS2_PLACEMENT_3D('',#898,#710,#711);
#643=AXIS2_PLACEMENT_3D('',#899,#712,#713);
#644=AXIS2_PLACEMENT_3D('',#901,#714,#715);
#645=AXIS2_PLACEMENT_3D('',#904,#717,#718);
#646=AXIS2_PLACEMENT_3D('',#905,#719,#720);
#647=AXIS2_PLACEMENT_3D('',#907,#721,#722);
#648=AXIS2_PLACEMENT_3D('',#910,#724,#725);
#649=AXIS2_PLACEMENT_3D('',#911,#726,#727);
#650=AXIS2_PLACEMENT_3D('',#913,#728,#729);
#651=AXIS2_PLACEMENT_3D('',#916,#731,#732);
#652=AXIS2_PLACEMENT_3D('',#917,#733,#734);
#653=AXIS2_PLACEMENT_3D('',#919,#735,#736);
#654=AXIS2_PLACEMENT_3D('',#922,#738,#739);
#655=AXIS2_PLACEMENT_3D('',#923,#740,#741);
#656=AXIS2_PLACEMENT_3D('',#928,#743,#744);
#657=AXIS2_PLACEMENT_3D('',#932,#746,#747);
#658=AXIS2_PLACEMENT_3D('',#936,#749,#750);
#659=AXIS2_PLACEMENT_3D('',#939,#752,#753);
#660=AXIS2_PLACEMENT_3D('',#944,#755,#756);
#661=AXIS2_PLACEMENT_3D('',#948,#758,#759);
#662=AXIS2_PLACEMENT_3D('',#952,#761,#762);
#663=AXIS2_PLACEMENT_3D('',#955,#764,#765);
#664=AXIS2_PLACEMENT_3D('',#956,#766,#767);
#665=AXIS2_PLACEMENT_3D('',#966,#772,#773);
#666=AXIS2_PLACEMENT_3D('',#968,#774,#775);
#667=AXIS2_PLACEMENT_3D('',#970,#776,#777);
#668=AXIS2_PLACEMENT_3D('',#972,#778,#779);
#669=AXIS2_PLACEMENT_3D('',#977,#781,#782);
#670=AXIS2_PLACEMENT_3D('',#981,#784,#785);
#671=AXIS2_PLACEMENT_3D('',#985,#787,#788);
#672=AXIS2_PLACEMENT_3D('',#988,#790,#791);
#673=AXIS2_PLACEMENT_3D('',#989,#792,#793);
#674=AXIS2_PLACEMENT_3D('',#995,#797,#798);
#675=AXIS2_PLACEMENT_3D('',#1001,#802,#803);
#676=AXIS2_PLACEMENT_3D('',#1007,#807,#808);
#677=AXIS2_PLACEMENT_3D('',#1013,#812,#813);
#678=AXIS2_PLACEMENT_3D('',#1016,#816,#817);
#679=AXIS2_PLACEMENT_3D('',#1019,#820,#821);
#680=AXIS2_PLACEMENT_3D('',#1022,#824,#825);
#681=AXIS2_PLACEMENT_3D('',#1025,#828,#829);
#682=AXIS2_PLACEMENT_3D('',#1027,#830,#831);
#683=AXIS2_PLACEMENT_3D('',#1029,#833,#834);
#684=AXIS2_PLACEMENT_3D('',#1030,#835,#836);
#685=AXIS2_PLACEMENT_3D('',#1032,#837,#838);
#686=AXIS2_PLACEMENT_3D('',#1034,#840,#841);
#687=AXIS2_PLACEMENT_3D('',#1035,#842,#843);
#688=AXIS2_PLACEMENT_3D('',#1037,#844,#845);
#689=AXIS2_PLACEMENT_3D('',#1039,#847,#848);
#690=AXIS2_PLACEMENT_3D('',#1040,#849,#850);
#691=AXIS2_PLACEMENT_3D('',#1042,#851,#852);
#692=AXIS2_PLACEMENT_3D('',#1044,#854,#855);
#693=AXIS2_PLACEMENT_3D('',#1045,#856,#857);
#694=AXIS2_PLACEMENT_3D('',#1046,#858,#859);
#695=AXIS2_PLACEMENT_3D('',#1047,#860,#861);
#696=AXIS2_PLACEMENT_3D('',#1048,#862,#863);
#697=AXIS2_PLACEMENT_3D('',#1049,#864,#865);
#698=AXIS2_PLACEMENT_3D('',#1050,#866,#867);
#699=AXIS2_PLACEMENT_3D('',#1051,#868,#869);
#700=AXIS2_PLACEMENT_3D('',#1052,#870,#871);
#701=AXIS2_PLACEMENT_3D('',#1053,#872,#873);
#702=AXIS2_PLACEMENT_3D('',#1062,#878,#879);
#703=AXIS2_PLACEMENT_3D('',#1065,#882,#883);
#704=AXIS2_PLACEMENT_3D('',#1067,#885,#886);
#705=AXIS2_PLACEMENT_3D('',#1069,#888,#889);
#706=AXIS2_PLACEMENT_3D('',#1070,#890,#891);
#707=AXIS2_PLACEMENT_3D('',#1071,#892,#893);
#708=AXIS2_PLACEMENT_3D('',#1072,#894,#895);
#709=AXIS2_PLACEMENT_3D('',#1073,#896,#897);
#710=DIRECTION('axis',(0.,0.,1.));
#711=DIRECTION('refdir',(1.,0.,0.));
#712=DIRECTION('center_axis',(0.,-1.,0.));
#713=DIRECTION('ref_axis',(0.,0.,-1.));
#714=DIRECTION('center_axis',(0.,1.,0.));
#715=DIRECTION('ref_axis',(0.,0.,1.));
#716=DIRECTION('',(0.,-1.,0.));
#717=DIRECTION('center_axis',(0.,-1.,0.));
#718=DIRECTION('ref_axis',(0.,0.,-1.));
#719=DIRECTION('center_axis',(0.,-1.,0.));
#720=DIRECTION('ref_axis',(0.,0.,-1.));
#721=DIRECTION('center_axis',(0.,1.,0.));
#722=DIRECTION('ref_axis',(0.,0.,1.));
#723=DIRECTION('',(0.,-1.,0.));
#724=DIRECTION('center_axis',(0.,-1.,0.));
#725=DIRECTION('ref_axis',(0.,0.,-1.));
#726=DIRECTION('center_axis',(0.,-1.,0.));
#727=DIRECTION('ref_axis',(0.,0.,-1.));
#728=DIRECTION('center_axis',(0.,1.,0.));
#729=DIRECTION('ref_axis',(0.,0.,1.));
#730=DIRECTION('',(0.,-1.,0.));
#731=DIRECTION('center_axis',(0.,-1.,0.));
#732=DIRECTION('ref_axis',(0.,0.,-1.));
#733=DIRECTION('center_axis',(0.,-1.,0.));
#734=DIRECTION('ref_axis',(0.,0.,-1.));
#735=DIRECTION('center_axis',(0.,1.,0.));
#736=DIRECTION('ref_axis',(0.,0.,1.));
#737=DIRECTION('',(0.,-1.,0.));
#738=DIRECTION('center_axis',(0.,-1.,0.));
#739=DIRECTION('ref_axis',(0.,0.,-1.));
#740=DIRECTION('center_axis',(0.,1.,0.));
#741=DIRECTION('ref_axis',(0.,0.,1.));
#742=DIRECTION('',(1.,0.,-1.93082265152201E-16));
#743=DIRECTION('center_axis',(0.,1.,0.));
#744=DIRECTION('ref_axis',(0.,0.,1.));
#745=DIRECTION('',(0.,0.,-1.));
#746=DIRECTION('center_axis',(0.,1.,0.));
#747=DIRECTION('ref_axis',(0.,0.,1.));
#748=DIRECTION('',(-1.,0.,9.65411325761006E-17));
#749=DIRECTION('center_axis',(0.,1.,0.));
#750=DIRECTION('ref_axis',(0.,0.,1.));
#751=DIRECTION('',(0.,0.,1.));
#752=DIRECTION('center_axis',(0.,1.,0.));
#753=DIRECTION('ref_axis',(0.,0.,1.));
#754=DIRECTION('',(-1.,0.,0.));
#755=DIRECTION('center_axis',(0.,1.,0.));
#756=DIRECTION('ref_axis',(0.,0.,1.));
#757=DIRECTION('',(0.,0.,-1.));
#758=DIRECTION('center_axis',(0.,1.,0.));
#759=DIRECTION('ref_axis',(0.,0.,1.));
#760=DIRECTION('',(1.,0.,0.));
#761=DIRECTION('center_axis',(0.,1.,0.));
#762=DIRECTION('ref_axis',(0.,0.,1.));
#763=DIRECTION('',(0.,0.,1.));
#764=DIRECTION('center_axis',(0.,1.,0.));
#765=DIRECTION('ref_axis',(0.,0.,1.));
#766=DIRECTION('center_axis',(0.,1.,0.));
#767=DIRECTION('ref_axis',(0.,0.,1.));
#768=DIRECTION('',(-8.88178419700125E-17,0.,1.));
#769=DIRECTION('',(-1.,0.,-8.88178419700126E-17));
#770=DIRECTION('',(0.,0.,-1.));
#771=DIRECTION('',(1.,0.,0.));
#772=DIRECTION('center_axis',(0.,-1.,0.));
#773=DIRECTION('ref_axis',(0.,0.,-1.));
#774=DIRECTION('center_axis',(0.,-1.,0.));
#775=DIRECTION('ref_axis',(0.,0.,-1.));
#776=DIRECTION('center_axis',(0.,-1.,0.));
#777=DIRECTION('ref_axis',(0.,0.,-1.));
#778=DIRECTION('center_axis',(0.,-1.,0.));
#779=DIRECTION('ref_axis',(0.,0.,-1.));
#780=DIRECTION('',(1.,0.,0.));
#781=DIRECTION('center_axis',(0.,1.,0.));
#782=DIRECTION('ref_axis',(0.,0.,1.));
#783=DIRECTION('',(0.,0.,-1.));
#784=DIRECTION('center_axis',(0.,1.,0.));
#785=DIRECTION('ref_axis',(0.,0.,1.));
#786=DIRECTION('',(-1.,0.,0.));
#787=DIRECTION('center_axis',(0.,1.,0.));
#788=DIRECTION('ref_axis',(0.,0.,1.));
#789=DIRECTION('',(0.,0.,1.));
#790=DIRECTION('center_axis',(0.,1.,0.));
#791=DIRECTION('ref_axis',(0.,0.,1.));
#792=DIRECTION('center_axis',(1.,0.,0.));
#793=DIRECTION('ref_axis',(0.,0.,-1.));
#794=DIRECTION('',(0.,-1.,0.));
#795=DIRECTION('',(0.,0.,-1.));
#796=DIRECTION('',(0.,-1.,0.));
#797=DIRECTION('center_axis',(-1.23908819712629E-16,0.,-1.));
#798=DIRECTION('ref_axis',(-1.,0.,1.23908819712629E-16));
#799=DIRECTION('',(-1.,0.,1.93082265152201E-16));
#800=DIRECTION('',(0.,-1.,0.));
#801=DIRECTION('',(0.,-1.,0.));
#802=DIRECTION('center_axis',(-1.,0.,0.));
#803=DIRECTION('ref_axis',(0.,0.,1.));
#804=DIRECTION('',(0.,-1.,0.));
#805=DIRECTION('',(0.,0.,1.));
#806=DIRECTION('',(0.,-1.,0.));
#807=DIRECTION('center_axis',(1.23908819712629E-16,0.,1.));
#808=DIRECTION('ref_axis',(1.,0.,-1.23908819712629E-16));
#809=DIRECTION('',(0.,-1.,0.));
#810=DIRECTION('',(1.,0.,-9.65411325761006E-17));
#811=DIRECTION('',(0.,-1.,0.));
#812=DIRECTION('center_axis',(-1.,0.,0.));
#813=DIRECTION('ref_axis',(0.,0.,1.));
#814=DIRECTION('',(0.,-1.,0.));
#815=DIRECTION('',(0.,-1.,0.));
#816=DIRECTION('center_axis',(0.,0.,1.));
#817=DIRECTION('ref_axis',(1.,0.,0.));
#818=DIRECTION('',(0.,-1.,0.));
#819=DIRECTION('',(0.,-1.,0.));
#820=DIRECTION('center_axis',(1.,0.,0.));
#821=DIRECTION('ref_axis',(0.,0.,-1.));
#822=DIRECTION('',(0.,-1.,0.));
#823=DIRECTION('',(0.,-1.,0.));
#824=DIRECTION('center_axis',(0.,0.,-1.));
#825=DIRECTION('ref_axis',(-1.,0.,0.));
#826=DIRECTION('',(0.,-1.,0.));
#827=DIRECTION('',(0.,-1.,0.));
#828=DIRECTION('center_axis',(0.,-1.,0.));
#829=DIRECTION('ref_axis',(0.,0.,-1.));
#830=DIRECTION('center_axis',(0.,-1.,0.));
#831=DIRECTION('ref_axis',(0.,0.,-1.));
#832=DIRECTION('',(0.,-1.,0.));
#833=DIRECTION('center_axis',(0.,-1.,0.));
#834=DIRECTION('ref_axis',(0.,0.,-1.));
#835=DIRECTION('center_axis',(0.,-1.,0.));
#836=DIRECTION('ref_axis',(0.,0.,-1.));
#837=DIRECTION('center_axis',(0.,-1.,0.));
#838=DIRECTION('ref_axis',(0.,0.,-1.));
#839=DIRECTION('',(0.,-1.,0.));
#840=DIRECTION('center_axis',(0.,-1.,0.));
#841=DIRECTION('ref_axis',(0.,0.,-1.));
#842=DIRECTION('center_axis',(0.,-1.,0.));
#843=DIRECTION('ref_axis',(0.,0.,-1.));
#844=DIRECTION('center_axis',(0.,-1.,0.));
#845=DIRECTION('ref_axis',(0.,0.,-1.));
#846=DIRECTION('',(0.,-1.,0.));
#847=DIRECTION('center_axis',(0.,-1.,0.));
#848=DIRECTION('ref_axis',(0.,0.,-1.));
#849=DIRECTION('center_axis',(0.,-1.,0.));
#850=DIRECTION('ref_axis',(0.,0.,-1.));
#851=DIRECTION('center_axis',(0.,-1.,0.));
#852=DIRECTION('ref_axis',(0.,0.,-1.));
#853=DIRECTION('',(0.,-1.,0.));
#854=DIRECTION('center_axis',(0.,-1.,0.));
#855=DIRECTION('ref_axis',(0.,0.,-1.));
#856=DIRECTION('center_axis',(0.,1.,0.));
#857=DIRECTION('ref_axis',(0.,0.,1.));
#858=DIRECTION('center_axis',(0.,1.,0.));
#859=DIRECTION('ref_axis',(0.,0.,1.));
#860=DIRECTION('center_axis',(0.,1.,0.));
#861=DIRECTION('ref_axis',(0.,0.,1.));
#862=DIRECTION('center_axis',(0.,1.,0.));
#863=DIRECTION('ref_axis',(0.,0.,1.));
#864=DIRECTION('center_axis',(0.,-1.,0.));
#865=DIRECTION('ref_axis',(0.,0.,-1.));
#866=DIRECTION('center_axis',(0.,-1.,0.));
#867=DIRECTION('ref_axis',(0.,0.,-1.));
#868=DIRECTION('center_axis',(0.,-1.,0.));
#869=DIRECTION('ref_axis',(0.,0.,-1.));
#870=DIRECTION('center_axis',(0.,-1.,0.));
#871=DIRECTION('ref_axis',(0.,0.,-1.));
#872=DIRECTION('center_axis',(0.,-1.,0.));
#873=DIRECTION('ref_axis',(0.,0.,-1.));
#874=DIRECTION('',(0.,0.,-1.));
#875=DIRECTION('',(-1.,0.,-8.88178419700126E-17));
#876=DIRECTION('',(-8.88178419700125E-17,0.,1.));
#877=DIRECTION('',(1.,0.,0.));
#878=DIRECTION('center_axis',(1.38777878078145E-16,0.,-1.));
#879=DIRECTION('ref_axis',(-1.,0.,-1.38777878078145E-16));
#880=DIRECTION('',(0.,1.,0.));
#881=DIRECTION('',(0.,1.,0.));
#882=DIRECTION('center_axis',(1.,0.,0.));
#883=DIRECTION('ref_axis',(0.,0.,-1.));
#884=DIRECTION('',(0.,1.,0.));
#885=DIRECTION('center_axis',(0.,0.,1.));
#886=DIRECTION('ref_axis',(1.,0.,0.));
#887=DIRECTION('',(0.,1.,0.));
#888=DIRECTION('center_axis',(-1.,0.,-1.38777878078145E-16));
#889=DIRECTION('ref_axis',(-1.38777878078145E-16,0.,1.));
#890=DIRECTION('center_axis',(0.,-1.,0.));
#891=DIRECTION('ref_axis',(0.,0.,-1.));
#892=DIRECTION('center_axis',(0.,-1.,0.));
#893=DIRECTION('ref_axis',(0.,0.,-1.));
#894=DIRECTION('center_axis',(0.,-1.,0.));
#895=DIRECTION('ref_axis',(0.,0.,-1.));
#896=DIRECTION('center_axis',(0.,-1.,0.));
#897=DIRECTION('ref_axis',(0.,0.,-1.));
#898=CARTESIAN_POINT('',(0.,0.,0.));
#899=CARTESIAN_POINT('Origin',(-20.,5.,20.));
#900=CARTESIAN_POINT('',(-20.,5.,21.55));
#901=CARTESIAN_POINT('Origin',(-20.,5.,20.));
#902=CARTESIAN_POINT('',(-20.,3.,21.55));
#903=CARTESIAN_POINT('',(-20.,5.,21.55));
#904=CARTESIAN_POINT('Origin',(-20.,3.,20.));
#905=CARTESIAN_POINT('Origin',(20.,5.,-20.));
#906=CARTESIAN_POINT('',(20.,5.,-18.45));
#907=CARTESIAN_POINT('Origin',(20.,5.,-20.));
#908=CARTESIAN_POINT('',(20.,3.,-18.45));
#909=CARTESIAN_POINT('',(20.,5.,-18.45));
#910=CARTESIAN_POINT('Origin',(20.,3.,-20.));
#911=CARTESIAN_POINT('Origin',(-20.,5.,-20.));
#912=CARTESIAN_POINT('',(-20.,5.,-18.45));
#913=CARTESIAN_POINT('Origin',(-20.,5.,-20.));
#914=CARTESIAN_POINT('',(-20.,3.,-18.45));
#915=CARTESIAN_POINT('',(-20.,5.,-18.45));
#916=CARTESIAN_POINT('Origin',(-20.,3.,-20.));
#917=CARTESIAN_POINT('Origin',(20.,5.,20.));
#918=CARTESIAN_POINT('',(20.,5.,21.55));
#919=CARTESIAN_POINT('Origin',(20.,5.,20.));
#920=CARTESIAN_POINT('',(20.,3.,21.55));
#921=CARTESIAN_POINT('',(20.,5.,21.55));
#922=CARTESIAN_POINT('Origin',(20.,3.,20.));
#923=CARTESIAN_POINT('Origin',(0.,5.,0.));
#924=CARTESIAN_POINT('',(-23.,5.,28.));
#925=CARTESIAN_POINT('',(23.,5.,28.));
#926=CARTESIAN_POINT('',(-23.,5.,28.));
#927=CARTESIAN_POINT('',(28.,5.,23.));
#928=CARTESIAN_POINT('Origin',(23.,5.,23.));
#929=CARTESIAN_POINT('',(28.,5.,-23.));
#930=CARTESIAN_POINT('',(28.,5.,23.));
#931=CARTESIAN_POINT('',(23.,5.,-28.));
#932=CARTESIAN_POINT('Origin',(23.,5.,-23.));
#933=CARTESIAN_POINT('',(-23.,5.,-28.));
#934=CARTESIAN_POINT('',(23.,5.,-28.));
#935=CARTESIAN_POINT('',(-28.,5.,-23.));
#936=CARTESIAN_POINT('Origin',(-23.,5.,-23.));
#937=CARTESIAN_POINT('',(-28.,5.,23.));
#938=CARTESIAN_POINT('',(-28.,5.,-23.));
#939=CARTESIAN_POINT('Origin',(-23.,5.,23.));
#940=CARTESIAN_POINT('',(10.,5.,-15.));
#941=CARTESIAN_POINT('',(-10.,5.,-15.));
#942=CARTESIAN_POINT('',(10.,5.,-15.));
#943=CARTESIAN_POINT('',(15.,5.,-10.));
#944=CARTESIAN_POINT('Origin',(10.,5.,-10.));
#945=CARTESIAN_POINT('',(15.,5.,10.));
#946=CARTESIAN_POINT('',(15.,5.,10.));
#947=CARTESIAN_POINT('',(10.,5.,15.));
#948=CARTESIAN_POINT('Origin',(10.,5.,10.));
#949=CARTESIAN_POINT('',(-10.,5.,15.));
#950=CARTESIAN_POINT('',(-10.,5.,15.));
#951=CARTESIAN_POINT('',(-15.,5.,10.));
#952=CARTESIAN_POINT('Origin',(-10.,5.,10.));
#953=CARTESIAN_POINT('',(-15.,5.,-10.));
#954=CARTESIAN_POINT('',(-15.,5.,-10.));
#955=CARTESIAN_POINT('Origin',(-10.,5.,-10.));
#956=CARTESIAN_POINT('Origin',(0.,0.,0.));
#957=CARTESIAN_POINT('',(25.,0.,-25.));
#958=CARTESIAN_POINT('',(25.,0.,25.));
#959=CARTESIAN_POINT('',(25.,0.,-25.));
#960=CARTESIAN_POINT('',(-25.,0.,25.));
#961=CARTESIAN_POINT('',(25.,0.,25.));
#962=CARTESIAN_POINT('',(-25.,0.,-25.));
#963=CARTESIAN_POINT('',(-25.,0.,25.));
#964=CARTESIAN_POINT('',(-25.,0.,-25.));
#965=CARTESIAN_POINT('',(-20.,0.,23.55));
#966=CARTESIAN_POINT('Origin',(-20.,0.,20.));
#967=CARTESIAN_POINT('',(20.,0.,-16.45));
#968=CARTESIAN_POINT('Origin',(20.,0.,-20.));
#969=CARTESIAN_POINT('',(-20.,0.,-16.45));
#970=CARTESIAN_POINT('Origin',(-20.,0.,-20.));
#971=CARTESIAN_POINT('',(20.,0.,23.55));
#972=CARTESIAN_POINT('Origin',(20.,0.,20.));
#973=CARTESIAN_POINT('',(-10.,0.,15.));
#974=CARTESIAN_POINT('',(10.,0.,15.));
#975=CARTESIAN_POINT('',(-10.,0.,15.));
#976=CARTESIAN_POINT('',(15.,0.,10.));
#977=CARTESIAN_POINT('Origin',(10.,0.,10.));
#978=CARTESIAN_POINT('',(15.,0.,-10.));
#979=CARTESIAN_POINT('',(15.,0.,10.));
#980=CARTESIAN_POINT('',(10.,0.,-15.));
#981=CARTESIAN_POINT('Origin',(10.,0.,-10.));
#982=CARTESIAN_POINT('',(-10.,0.,-15.));
#983=CARTESIAN_POINT('',(10.,0.,-15.));
#984=CARTESIAN_POINT('',(-15.,0.,-10.));
#985=CARTESIAN_POINT('Origin',(-10.,0.,-10.));
#986=CARTESIAN_POINT('',(-15.,0.,10.));
#987=CARTESIAN_POINT('',(-15.,0.,-10.));
#988=CARTESIAN_POINT('Origin',(-10.,0.,10.));
#989=CARTESIAN_POINT('Origin',(-28.,5.,28.));
#990=CARTESIAN_POINT('',(-28.,-20.,-23.));
#991=CARTESIAN_POINT('',(-28.,5.,-23.));
#992=CARTESIAN_POINT('',(-28.,-20.,23.));
#993=CARTESIAN_POINT('',(-28.,-20.,23.));
#994=CARTESIAN_POINT('',(-28.,5.,23.));
#995=CARTESIAN_POINT('Origin',(28.,5.,28.));
#996=CARTESIAN_POINT('',(23.,-20.,28.));
#997=CARTESIAN_POINT('',(-23.,-20.,28.));
#998=CARTESIAN_POINT('',(23.,-20.,28.));
#999=CARTESIAN_POINT('',(23.,5.,28.));
#1000=CARTESIAN_POINT('',(-23.,5.,28.));
#1001=CARTESIAN_POINT('Origin',(28.,5.,28.));
#1002=CARTESIAN_POINT('',(28.,-20.,23.));
#1003=CARTESIAN_POINT('',(28.,5.,23.));
#1004=CARTESIAN_POINT('',(28.,-20.,-23.));
#1005=CARTESIAN_POINT('',(28.,-20.,-23.));
#1006=CARTESIAN_POINT('',(28.,5.,-23.));
#1007=CARTESIAN_POINT('Origin',(28.,5.,-28.));
#1008=CARTESIAN_POINT('',(23.,-20.,-28.));
#1009=CARTESIAN_POINT('',(23.,5.,-28.));
#1010=CARTESIAN_POINT('',(-23.,-20.,-28.));
#1011=CARTESIAN_POINT('',(-23.,-20.,-28.));
#1012=CARTESIAN_POINT('',(-23.,5.,-28.));
#1013=CARTESIAN_POINT('Origin',(15.,5.,15.));
#1014=CARTESIAN_POINT('',(15.,5.,-10.));
#1015=CARTESIAN_POINT('',(15.,5.,10.));
#1016=CARTESIAN_POINT('Origin',(-15.,5.,-15.));
#1017=CARTESIAN_POINT('',(-10.,5.,-15.));
#1018=CARTESIAN_POINT('',(10.,5.,-15.));
#1019=CARTESIAN_POINT('Origin',(-15.,5.,15.));
#1020=CARTESIAN_POINT('',(-15.,5.,-10.));
#1021=CARTESIAN_POINT('',(-15.,5.,10.));
#1022=CARTESIAN_POINT('Origin',(-15.,5.,15.));
#1023=CARTESIAN_POINT('',(10.,5.,15.));
#1024=CARTESIAN_POINT('',(-10.,5.,15.));
#1025=CARTESIAN_POINT('Origin',(20.,3.,20.));
#1026=CARTESIAN_POINT('',(20.,3.,23.55));
#1027=CARTESIAN_POINT('Origin',(20.,3.,20.));
#1028=CARTESIAN_POINT('',(20.,3.,23.55));
#1029=CARTESIAN_POINT('Origin',(20.,3.,20.));
#1030=CARTESIAN_POINT('Origin',(-20.,3.,-20.));
#1031=CARTESIAN_POINT('',(-20.,3.,-16.45));
#1032=CARTESIAN_POINT('Origin',(-20.,3.,-20.));
#1033=CARTESIAN_POINT('',(-20.,3.,-16.45));
#1034=CARTESIAN_POINT('Origin',(-20.,3.,-20.));
#1035=CARTESIAN_POINT('Origin',(20.,3.,-20.));
#1036=CARTESIAN_POINT('',(20.,3.,-16.45));
#1037=CARTESIAN_POINT('Origin',(20.,3.,-20.));
#1038=CARTESIAN_POINT('',(20.,3.,-16.45));
#1039=CARTESIAN_POINT('Origin',(20.,3.,-20.));
#1040=CARTESIAN_POINT('Origin',(-20.,3.,20.));
#1041=CARTESIAN_POINT('',(-20.,3.,23.55));
#1042=CARTESIAN_POINT('Origin',(-20.,3.,20.));
#1043=CARTESIAN_POINT('',(-20.,3.,23.55));
#1044=CARTESIAN_POINT('Origin',(-20.,3.,20.));
#1045=CARTESIAN_POINT('Origin',(-10.,5.,-10.));
#1046=CARTESIAN_POINT('Origin',(10.,5.,-10.));
#1047=CARTESIAN_POINT('Origin',(10.,5.,10.));
#1048=CARTESIAN_POINT('Origin',(-10.,5.,10.));
#1049=CARTESIAN_POINT('Origin',(0.,-20.,0.));
#1050=CARTESIAN_POINT('Origin',(23.,-20.,23.));
#1051=CARTESIAN_POINT('Origin',(-23.,-20.,23.));
#1052=CARTESIAN_POINT('Origin',(-23.,-20.,-23.));
#1053=CARTESIAN_POINT('Origin',(23.,-20.,-23.));
#1054=CARTESIAN_POINT('',(-25.,-20.,25.));
#1055=CARTESIAN_POINT('',(-25.,-20.,-25.));
#1056=CARTESIAN_POINT('',(-25.,-20.,25.));
#1057=CARTESIAN_POINT('',(25.,-20.,25.));
#1058=CARTESIAN_POINT('',(25.,-20.,25.));
#1059=CARTESIAN_POINT('',(25.,-20.,-25.));
#1060=CARTESIAN_POINT('',(25.,-20.,-25.));
#1061=CARTESIAN_POINT('',(-25.,-20.,-25.));
#1062=CARTESIAN_POINT('Origin',(25.,-20.,25.));
#1063=CARTESIAN_POINT('',(25.,-20.,25.));
#1064=CARTESIAN_POINT('',(-25.,-20.,25.));
#1065=CARTESIAN_POINT('Origin',(-25.,-20.,25.));
#1066=CARTESIAN_POINT('',(-25.,-20.,-25.));
#1067=CARTESIAN_POINT('Origin',(-25.,-20.,-25.));
#1068=CARTESIAN_POINT('',(25.,-20.,-25.));
#1069=CARTESIAN_POINT('Origin',(25.,-20.,-25.));
#1070=CARTESIAN_POINT('Origin',(23.,5.,23.));
#1071=CARTESIAN_POINT('Origin',(23.,5.,-23.));
#1072=CARTESIAN_POINT('Origin',(-23.,5.,-23.));
#1073=CARTESIAN_POINT('Origin',(-23.,5.,23.));
#1074=UNCERTAINTY_MEASURE_WITH_UNIT(LENGTH_MEASURE(0.01),#1078,
'DISTANCE_ACCURACY_VALUE',
'Maximum model space distance between geometric entities at asserted c
onnectivities');
#1075=UNCERTAINTY_MEASURE_WITH_UNIT(LENGTH_MEASURE(0.01),#1078,
'DISTANCE_ACCURACY_VALUE',
'Maximum model space distance between geometric entities at asserted c
onnectivities');
#1076=(
GEOMETRIC_REPRESENTATION_CONTEXT(3)
GLOBAL_UNCERTAINTY_ASSIGNED_CONTEXT((#1074))
GLOBAL_UNIT_ASSIGNED_CONTEXT((#1078,#1080,#1081))
REPRESENTATION_CONTEXT('','3D')
);
#1077=(
GEOMETRIC_REPRESENTATION_CONTEXT(3)
GLOBAL_UNCERTAINTY_ASSIGNED_CONTEXT((#1075))
GLOBAL_UNIT_ASSIGNED_CONTEXT((#1078,#1080,#1081))
REPRESENTATION_CONTEXT('','3D')
);
#1078=(
LENGTH_UNIT()
NAMED_UNIT(*)
SI_UNIT(.MILLI.,.METRE.)
);
#1079=(
LENGTH_UNIT()
NAMED_UNIT(*)
SI_UNIT($,.METRE.)
);
#1080=(
NAMED_UNIT(*)
PLANE_ANGLE_UNIT()
SI_UNIT($,.RADIAN.)
);
#1081=(
NAMED_UNIT(*)
SI_UNIT($,.STERADIAN.)
SOLID_ANGLE_UNIT()
);
#1082=SHAPE_DEFINITION_REPRESENTATION(#1083,#1084);
#1083=PRODUCT_DEFINITION_SHAPE('',$,#1086);
#1084=SHAPE_REPRESENTATION('',(#642),#1076);
#1085=PRODUCT_DEFINITION_CONTEXT('part definition',#1090,'design');
#1086=PRODUCT_DEFINITION('stimuli mount_tight_zero',
'stimuli mount_tight_zero.f3d ',#1087,#1085);
#1087=PRODUCT_DEFINITION_FORMATION('',$,#1092);
#1088=PRODUCT_RELATED_PRODUCT_CATEGORY('stimuli mount_tight_zero.f3d ',
'stimuli mount_tight_zero.f3d ',(#1092));
#1089=APPLICATION_PROTOCOL_DEFINITION('international standard',
'automotive_design',2009,#1090);
#1090=APPLICATION_CONTEXT(
'Core Data for Automotive Mechanical Design Process');
#1091=PRODUCT_CONTEXT('part definition',#1090,'mechanical');
#1092=PRODUCT('stimuli mount_tight_zero',
'stimuli mount_tight_zero.f3d ',$,(#1091));
#1093=PRESENTATION_STYLE_ASSIGNMENT((#1094));
#1094=SURFACE_STYLE_USAGE(.BOTH.,#1095);
#1095=SURFACE_SIDE_STYLE('',(#1096));
#1096=SURFACE_STYLE_FILL_AREA(#1097);
#1097=FILL_AREA_STYLE('Steel - Satin',(#1098));
#1098=FILL_AREA_STYLE_COLOUR('Steel - Satin',#1099);
#1099=COLOUR_RGB('Steel - Satin',0.627450980392157,0.627450980392157,0.627450980392157);
ENDSEC;
END-ISO-10303-21;
